<?xml version="1.0" encoding="utf-8"?>
<!-- Generator: Adobe Illustrator 26.3.1, SVG Export Plug-In . SVG Version: 6.00 Build 0)  -->
<svg version="1.1" xmlns="http://www.w3.org/2000/svg" xmlns:xlink="http://www.w3.org/1999/xlink" x="0px" y="0px"
	 viewBox="0 0 500 500" style="enable-background:new 0 0 500 500;" xml:space="preserve">
<style type="text/css">
	.st0{fill:#FFFFFF;}
	.st1{fill:#FF8300;}
	.st2{fill:#F78200;}
	.st3{fill:#F7931E;}
	.st4{fill:#5D5D5D;}
	.st5{fill:#FFFFFF;stroke:#65656A;stroke-width:12;stroke-miterlimit:10;}
	.st6{display:none;fill:#979797;stroke:#979797;stroke-width:3;stroke-linecap:round;stroke-linejoin:round;stroke-miterlimit:10;}
	.st7{fill:#979797;}
	.st8{fill:#65656A;}
	.st9{stroke:#009245;stroke-width:3;stroke-miterlimit:10;}
	.st10{fill:#F58220;}
	.st11{clip-path:url(#SVGID_00000039110322356906062380000009278264227043551620_);fill:#5E5E5E;}
	.st12{clip-path:url(#SVGID_00000057846296406453132620000015301104309074468762_);fill:#FFFFFF;}
	.st13{clip-path:url(#SVGID_00000138559673640301054610000000598553481639311028_);fill:#FFFFFF;}
	.st14{clip-path:url(#SVGID_00000138559673640301054610000000598553481639311028_);fill:#FF8300;}
	.st15{clip-path:url(#SVGID_00000173872996144380590720000009882633753538545051_);fill:#FFFFFF;}
	.st16{clip-path:url(#SVGID_00000173872996144380590720000009882633753538545051_);fill:#ADE1F0;}
	.st17{clip-path:url(#SVGID_00000006687828543547319040000015237354537480885936_);fill:#65656A;}
	.st18{clip-path:url(#SVGID_00000006687828543547319040000015237354537480885936_);fill:#646569;}
	.st19{clip-path:url(#SVGID_00000006687828543547319040000015237354537480885936_);fill:#D0D0D2;}
	.st20{clip-path:url(#SVGID_00000031918980899930149790000016417788115970106543_);fill:#FFFFFF;}
	.st21{clip-path:url(#SVGID_00000031918980899930149790000016417788115970106543_);fill:#646569;}
	.st22{clip-path:url(#SVGID_00000031918980899930149790000016417788115970106543_);fill:#65656A;}
	
		.st23{clip-path:url(#SVGID_00000173858270267408894240000003440163642307291789_);fill:#FFFFFF;stroke:#000000;stroke-miterlimit:10;}
	.st24{clip-path:url(#SVGID_00000173858270267408894240000003440163642307291789_);fill:#646569;}
	.st25{clip-path:url(#SVGID_00000173858270267408894240000003440163642307291789_);fill:#65656A;}
	
		.st26{clip-path:url(#SVGID_00000173858270267408894240000003440163642307291789_);fill:none;stroke:#65656A;stroke-width:0.1925;stroke-linecap:round;stroke-linejoin:round;stroke-miterlimit:10;}
	.st27{clip-path:url(#SVGID_00000162322475381665153030000016784923919056764836_);fill:#FFFFFF;}
	.st28{clip-path:url(#SVGID_00000162322475381665153030000016784923919056764836_);fill:#65656A;}
	.st29{clip-path:url(#SVGID_00000162322475381665153030000016784923919056764836_);fill:#646569;}
	.st30{clip-path:url(#SVGID_00000168817460510957174320000005040236585348715691_);fill:#FFFFFF;}
	.st31{clip-path:url(#SVGID_00000168817460510957174320000005040236585348715691_);fill:#646569;}
	.st32{clip-path:url(#SVGID_00000044164875005847767970000016712339262348467631_);fill:#FFFFFF;}
	.st33{clip-path:url(#SVGID_00000044164875005847767970000016712339262348467631_);fill:#65656A;}
	.st34{clip-path:url(#SVGID_00000044164875005847767970000016712339262348467631_);fill:#646569;}
	.st35{fill:#646569;}
	.st36{clip-path:url(#SVGID_00000002348970401326063970000014687904743755073975_);fill:#FFFFFF;}
	.st37{clip-path:url(#SVGID_00000002348970401326063970000014687904743755073975_);fill:#65666A;}
	
		.st38{clip-path:url(#SVGID_00000002348970401326063970000014687904743755073975_);fill:none;stroke:#65666A;stroke-width:0.1748;stroke-miterlimit:10;}
	.st39{clip-path:url(#SVGID_00000041264500644153967580000009838937268900197304_);fill:#FFFFFF;}
	.st40{clip-path:url(#SVGID_00000041264500644153967580000009838937268900197304_);fill:#646569;}
	.st41{fill:none;stroke:#65656A;stroke-width:3;stroke-miterlimit:10;}
	.st42{fill:#EC8020;}
	.st43{fill:#ED8020;}
	.st44{fill:none;stroke:#65656A;stroke-width:3;stroke-linecap:round;stroke-miterlimit:10;}
	.st45{fill:none;stroke:#646569;stroke-width:10;stroke-linejoin:round;stroke-miterlimit:10;}
	.st46{fill:none;stroke:#646569;stroke-width:10;stroke-miterlimit:10;}
	.st47{fill:none;stroke:#646569;stroke-width:10;stroke-linecap:round;stroke-miterlimit:10;}
	.st48{fill:none;stroke:#65656A;stroke-width:8;stroke-linecap:round;stroke-miterlimit:10;}
	.st49{fill:#FFFFFF;stroke:#65656A;stroke-width:8;stroke-linecap:round;stroke-linejoin:round;stroke-miterlimit:10;}
	.st50{fill:none;stroke:#65656A;stroke-width:8;stroke-miterlimit:10;}
</style>
<g id="Function_-_Central_APIs">
</g>
<g id="Function_-_Central_Route_Orchestrator">
</g>
<g id="Function_-_Central_Tunnel_Orchestrator">
</g>
<g id="Function_-_Central_NetConductor">
</g>
<g id="Function_-_Central_Network_Management">
</g>
<g id="Function_-_Central_Network_Insights">
</g>
<g id="Function_-_Central_Client_Insights">
</g>
<g id="Function_-_ClearPass_Policy_Manager">
</g>
<g id="Function_-_UXI_APIs">
</g>
<g id="Function_-_UXI_Dashboard">
</g>
<g id="Function_-_Orchestrator_Global_Enterprise">
</g>
<g id="Function_-_Orchestrator">
</g>
<g id="Function_-_Pensando_Policy_and_Services_Manager">
</g>
<g id="Function_-_Fabric_Composer">
</g>
<g id="Generic_-_Virtual_Machine">
</g>
<g id="Generic_-_Server_Single">
</g>
<g id="Generic_-_Server_Multi">
</g>
<g id="Generic_-_Router">
</g>
<g id="Generic_-_Firewall">
</g>
<g id="Wi-Fi_Signal">
</g>
<g id="Generic_-_Cloud_Function_Container_Grey">
</g>
<g id="Generic_-_Cloud_Function_Container_White">
</g>
<g id="Generic_-_Cloud_Internet_Circuit">
</g>
<g id="Generic_-_Cloud_Private_Circuit">
</g>
<g id="Generic_-_Cloud">
</g>
<g id="Client_-_IOT_Sensor">
</g>
<g id="Client_-_IOT_IO">
</g>
<g id="Client_-_IOT_PLC">
</g>
<g id="Client_-_IOT_Patient_Monitor">
</g>
<g id="Client_-_IOT_Camera">
</g>
<g id="Client_-_IOT_Scanner">
</g>
<g id="IOT_-_TV_Cast">
</g>
<g id="Client_-_Printer">
</g>
<g id="Client_-_Game_Console">
	<g>
		<defs>
			<rect id="SVGID_00000046316718536747478200000001970353173567067278_" x="151.8" y="20" width="211.7" height="500"/>
		</defs>
		<clipPath id="SVGID_00000035531421661763976200000010827065022817446051_">
			<use xlink:href="#SVGID_00000046316718536747478200000001970353173567067278_"  style="overflow:visible;"/>
		</clipPath>
		
			<rect x="191.2" y="31.4" style="clip-path:url(#SVGID_00000035531421661763976200000010827065022817446051_);fill:#FFFFFF;" width="150.4" height="435.6"/>
		<path style="clip-path:url(#SVGID_00000035531421661763976200000010827065022817446051_);fill:#FFFFFF;" d="M181.8,121.8V51.2
			c0-11.5,9.3-20.8,20.8-20.8h126.7c11.5,0,20.8,9.3,20.8,20.8v70.6c0,11.5-9.3,20.8-20.8,20.8H202.6
			C191.1,142.6,181.8,133.3,181.8,121.8z"/>
		<path style="clip-path:url(#SVGID_00000035531421661763976200000010827065022817446051_);fill:#FFFFFF;" d="M180.8,452.2v-58
			c0-11.5,9.3-20.8,20.8-20.8h130.1c11.5,0,20.8,9.3,20.8,20.8v58c0,11.5-9.3,20.8-20.8,20.8H201.6
			C190.1,472.9,180.8,463.6,180.8,452.2z"/>
		<path style="clip-path:url(#SVGID_00000035531421661763976200000010827065022817446051_);fill:#646569;" d="M199,36
			c-7.1,0-14.6,4-14.6,12.7c0.1,1.2,13.2,160.8,14.6,198.9c1.5,40.4-13.9,196.2-14.6,202.9c0,7.4,6.4,16.6,14.6,16.6
			c134.9,0,134.9,0,134.9,0c7.5,0,14.6-8.1,14.6-16.6c-0.7-6.2-16.1-162.5-14.6-202.9c1.5-38.1,14.5-198.3,14.6-199.9
			c0-8.4-7.8-11.7-14.6-11.7H199z M333.9,476.7c-134.9,0-134.9,0-134.9,0c-13.9,0-24.3-14.1-24.3-26.8c0.2-2.1,16-162.2,14.5-202
			c-1.3-38-14.3-197.3-14.5-198.9c0-13.3,10.2-22.6,24.3-22.6c134.9,0,134.9,0,134.9,0c14.3,0,24.2,8.9,24.2,21.7
			c-0.2,2.1-13.2,161.8-14.5,199.8c-1.5,39.8,14.3,200.5,14.5,202.2C358.1,464.4,346.9,476.7,333.9,476.7z"/>
		<path style="clip-path:url(#SVGID_00000035531421661763976200000010827065022817446051_);fill:#646569;" d="M291.3,367.4
			c0,13.2-10.5,23.8-23.7,23.8c-13.2,0-23.8-10.6-23.8-23.8c0-13,10.6-23.7,23.8-23.7C280.8,343.7,291.3,354.4,291.3,367.4z"/>
		<path style="clip-path:url(#SVGID_00000035531421661763976200000010827065022817446051_);fill:#646569;" d="M297.6,309.6
			c-2.7,0-4.9-2.1-4.9-4.7c0-208.4,0-208.4,0-208.4c0-2.7,2.2-4.7,4.9-4.7c2.7,0,4.9,2.1,4.9,4.7c0,208.4,0,208.4,0,208.4
			C302.5,307.5,300.3,309.6,297.6,309.6z"/>
		<path style="clip-path:url(#SVGID_00000035531421661763976200000010827065022817446051_);fill:#646569;" d="M249.1,173.9
			c-2.7,0-4.7-2.1-4.7-4.7c0-38.7,0-38.7,0-38.7c0-2.7,2.1-4.9,4.7-4.9c2.7,0,4.9,2.2,4.9,4.9c0,38.7,0,38.7,0,38.7
			C254,171.9,251.8,173.9,249.1,173.9z"/>
		<path style="clip-path:url(#SVGID_00000035531421661763976200000010827065022817446051_);fill:#646569;" d="M249.1,261.2
			c-2.7,0-4.7-2.2-4.7-4.9c0-38.8,0-38.8,0-38.8c0-2.7,2.1-4.9,4.7-4.9c2.7,0,4.9,2.2,4.9,4.9c0,38.8,0,38.8,0,38.8
			C254,259,251.8,261.2,249.1,261.2z"/>
	</g>
</g>
<g id="Client_-_IP_Phone">
</g>
<g id="Client_-_Laptop">
</g>
<g id="Client_-_Desktop">
</g>
<g id="Client_-_Workstation">
</g>
<g id="Client_-_Tablet">
</g>
<g id="Client_-_Mobile_2">
</g>
<g id="Client_-_Mobile_1">
</g>
<g id="Device_-_EdgeConnect_Enterprise_Cloud">
</g>
<g id="Device_-_EdgeConnect_Enterprise_Virtual">
</g>
<g id="Device_-_EdgeConnect_Enterprise_Appliance">
</g>
<g id="Device_-_Core_Agg_Leaf_Switch">
</g>
<g id="Device_-_Access_Switch">
</g>
<g id="Device_-_Gateway_Headend">
</g>
<g id="Device_-_Gateway_Branch">
</g>
<g id="Device_-_Gateway_Campus">
</g>
<g id="Device_-_UXI_Sensor_New">
</g>
<g id="Device_-_UXI_Sensor">
</g>
<g id="Device_-_AP500_Series_Microbranch">
</g>
<g id="Device_-_AP600_Series">
</g>
<g id="Device_-_AP500_Series">
</g>
<g id="Device_-_Outdoor_AP">
</g>
</svg>
