<?xml version="1.0" encoding="utf-8"?>
<!-- Generator: Adobe Illustrator 26.3.1, SVG Export Plug-In . SVG Version: 6.00 Build 0)  -->
<svg version="1.1" xmlns="http://www.w3.org/2000/svg" xmlns:xlink="http://www.w3.org/1999/xlink" x="0px" y="0px"
	 viewBox="0 0 500 500" style="enable-background:new 0 0 500 500;" xml:space="preserve">
<style type="text/css">
	.st0{fill:#FFFFFF;}
	.st1{fill:#FF8300;}
	.st2{fill:#F78200;}
	.st3{fill:#F7931E;}
	.st4{fill:#5D5D5D;}
	.st5{fill:#FFFFFF;stroke:#65656A;stroke-width:12;stroke-miterlimit:10;}
	.st6{display:none;fill:#979797;stroke:#979797;stroke-width:3;stroke-linecap:round;stroke-linejoin:round;stroke-miterlimit:10;}
	.st7{fill:#979797;}
	.st8{fill:#65656A;}
	.st9{stroke:#009245;stroke-width:3;stroke-miterlimit:10;}
	.st10{fill:#F58220;}
	.st11{clip-path:url(#SVGID_00000010280858417349814990000014171342504090234037_);fill:#5E5E5E;}
	.st12{clip-path:url(#SVGID_00000083770202343586093660000006347433792014291595_);fill:#FFFFFF;}
	.st13{clip-path:url(#SVGID_00000158713287416654135190000014007153542960312487_);fill:#FFFFFF;}
	.st14{clip-path:url(#SVGID_00000158713287416654135190000014007153542960312487_);fill:#FF8300;}
	.st15{clip-path:url(#SVGID_00000127012312213106950050000008482672856539978409_);fill:#FFFFFF;}
	.st16{clip-path:url(#SVGID_00000127012312213106950050000008482672856539978409_);fill:#ADE1F0;}
	.st17{clip-path:url(#SVGID_00000050654761569115985880000003045274057009005496_);fill:#65656A;}
	.st18{clip-path:url(#SVGID_00000050654761569115985880000003045274057009005496_);fill:#646569;}
	.st19{clip-path:url(#SVGID_00000050654761569115985880000003045274057009005496_);fill:#D0D0D2;}
	.st20{clip-path:url(#SVGID_00000127742525982763397600000015966500097955251876_);fill:#FFFFFF;}
	.st21{clip-path:url(#SVGID_00000127742525982763397600000015966500097955251876_);fill:#646569;}
	.st22{clip-path:url(#SVGID_00000127742525982763397600000015966500097955251876_);fill:#65656A;}
	
		.st23{clip-path:url(#SVGID_00000039854323667734905960000000732235376342952868_);fill:#FFFFFF;stroke:#000000;stroke-miterlimit:10;}
	.st24{clip-path:url(#SVGID_00000039854323667734905960000000732235376342952868_);fill:#646569;}
	.st25{clip-path:url(#SVGID_00000039854323667734905960000000732235376342952868_);fill:#65656A;}
	
		.st26{clip-path:url(#SVGID_00000039854323667734905960000000732235376342952868_);fill:none;stroke:#65656A;stroke-width:0.1925;stroke-linecap:round;stroke-linejoin:round;stroke-miterlimit:10;}
	.st27{clip-path:url(#SVGID_00000003099746308574026680000017005686388074789009_);fill:#FFFFFF;}
	.st28{clip-path:url(#SVGID_00000003099746308574026680000017005686388074789009_);fill:#65656A;}
	.st29{clip-path:url(#SVGID_00000003099746308574026680000017005686388074789009_);fill:#646569;}
	.st30{clip-path:url(#SVGID_00000006688728119228535420000005286443054138107563_);fill:#FFFFFF;}
	.st31{clip-path:url(#SVGID_00000006688728119228535420000005286443054138107563_);fill:#646569;}
	.st32{clip-path:url(#SVGID_00000086680295113064941710000000563808243746411165_);fill:#FFFFFF;}
	.st33{clip-path:url(#SVGID_00000086680295113064941710000000563808243746411165_);fill:#65656A;}
	.st34{clip-path:url(#SVGID_00000086680295113064941710000000563808243746411165_);fill:#646569;}
	.st35{fill:#646569;}
	.st36{clip-path:url(#SVGID_00000005234589774431876040000016211424149567852463_);fill:#FFFFFF;}
	.st37{clip-path:url(#SVGID_00000005234589774431876040000016211424149567852463_);fill:#65666A;}
	
		.st38{clip-path:url(#SVGID_00000005234589774431876040000016211424149567852463_);fill:none;stroke:#65666A;stroke-width:0.1748;stroke-miterlimit:10;}
	.st39{clip-path:url(#SVGID_00000070108852730918919380000012161009895189071800_);fill:#FFFFFF;}
	.st40{clip-path:url(#SVGID_00000070108852730918919380000012161009895189071800_);fill:#646569;}
	.st41{fill:none;stroke:#65656A;stroke-width:3;stroke-miterlimit:10;}
	.st42{fill:#EC8020;}
	.st43{fill:#ED8020;}
	.st44{fill:none;stroke:#65656A;stroke-width:3;stroke-linecap:round;stroke-miterlimit:10;}
	.st45{fill:none;stroke:#646569;stroke-width:10;stroke-linejoin:round;stroke-miterlimit:10;}
	.st46{fill:none;stroke:#646569;stroke-width:10;stroke-miterlimit:10;}
	.st47{fill:none;stroke:#646569;stroke-width:10;stroke-linecap:round;stroke-miterlimit:10;}
	.st48{fill:none;stroke:#65656A;stroke-width:8;stroke-linecap:round;stroke-miterlimit:10;}
	.st49{fill:#FFFFFF;stroke:#65656A;stroke-width:8;stroke-linecap:round;stroke-linejoin:round;stroke-miterlimit:10;}
	.st50{fill:none;stroke:#65656A;stroke-width:8;stroke-miterlimit:10;}
</style>
<g id="Function_-_Central_APIs">
</g>
<g id="Function_-_Central_Route_Orchestrator">
</g>
<g id="Function_-_Central_Tunnel_Orchestrator">
</g>
<g id="Function_-_Central_NetConductor">
</g>
<g id="Function_-_Central_Network_Management">
</g>
<g id="Function_-_Central_Network_Insights">
</g>
<g id="Function_-_Central_Client_Insights">
</g>
<g id="Function_-_ClearPass_Policy_Manager">
</g>
<g id="Function_-_UXI_APIs">
</g>
<g id="Function_-_UXI_Dashboard">
</g>
<g id="Function_-_Orchestrator_Global_Enterprise">
</g>
<g id="Function_-_Orchestrator">
</g>
<g id="Function_-_Pensando_Policy_and_Services_Manager">
</g>
<g id="Function_-_Fabric_Composer">
</g>
<g id="Generic_-_Virtual_Machine">
</g>
<g id="Generic_-_Server_Single">
</g>
<g id="Generic_-_Server_Multi">
</g>
<g id="Generic_-_Router">
</g>
<g id="Generic_-_Firewall">
</g>
<g id="Wi-Fi_Signal">
</g>
<g id="Generic_-_Cloud_Function_Container_Grey">
</g>
<g id="Generic_-_Cloud_Function_Container_White">
</g>
<g id="Generic_-_Cloud_Internet_Circuit">
</g>
<g id="Generic_-_Cloud_Private_Circuit">
</g>
<g id="Generic_-_Cloud">
</g>
<g id="Client_-_IOT_Sensor">
</g>
<g id="Client_-_IOT_IO">
</g>
<g id="Client_-_IOT_PLC">
</g>
<g id="Client_-_IOT_Patient_Monitor">
</g>
<g id="Client_-_IOT_Camera">
</g>
<g id="Client_-_IOT_Scanner">
</g>
<g id="IOT_-_TV_Cast">
</g>
<g id="Client_-_Printer">
	<g>
		<defs>
			<rect id="SVGID_00000015349383317699124460000016077672541251397296_" x="0" y="19.2" width="500" height="463.4"/>
		</defs>
		<clipPath id="SVGID_00000172436125433085921420000012643327802273260948_">
			<use xlink:href="#SVGID_00000015349383317699124460000016077672541251397296_"  style="overflow:visible;"/>
		</clipPath>
		<path style="clip-path:url(#SVGID_00000172436125433085921420000012643327802273260948_);fill:#FFFFFF;" d="M341.4,455.9h-189
			c-14.1,0-25.6-11.5-25.6-25.6V72c0-14.1,11.5-25.6,25.6-25.6h189c14.1,0,25.6,11.5,25.6,25.6v358.4
			C367,444.5,355.6,455.9,341.4,455.9z"/>
		<path style="clip-path:url(#SVGID_00000172436125433085921420000012643327802273260948_);fill:#FFFFFF;" d="M443.9,352.8H54.5
			c-14.1,0-25.6-11.5-25.6-25.6V180c0-14.1,11.5-25.6,25.6-25.6h389.4c14.1,0,25.6,11.5,25.6,25.6v147.3
			C469.5,341.4,458,352.8,443.9,352.8z"/>
		<path style="clip-path:url(#SVGID_00000172436125433085921420000012643327802273260948_);fill:#65666A;" d="M407,223.9
			c-321.2,0-321.2,0-321.2,0c-2.4,0-4.3-1.8-4.3-4.2c0-2.4,1.9-4.3,4.3-4.3c321.2,0,321.2,0,321.2,0c2.4,0,4.3,1.9,4.3,4.3
			C411.3,222.1,409.4,223.9,407,223.9z"/>
		<path style="clip-path:url(#SVGID_00000172436125433085921420000012643327802273260948_);fill:#65666A;" d="M366.2,153.1
			c-2.4,0-4.3-1.9-4.3-4.3c0-76.4,0-76.4,0-76.4c0-11.7-9.2-20.2-22.1-20.2c-187,0-187,0-187,0c-12.7,0-22.1,8.5-22.1,20.2
			c0,76.4,0,76.4,0,76.4c0,2.4-1.9,4.3-4.3,4.3c-2.4,0-4.3-1.9-4.3-4.3c0-76.4,0-76.4,0-76.4c0-16.5,13.2-28.8,30.7-28.8
			c187,0,187,0,187,0c17.5,0,30.7,12.3,30.7,28.8c0,76.4,0,76.4,0,76.4C370.5,151.2,368.6,153.1,366.2,153.1z"/>
		<path style="clip-path:url(#SVGID_00000172436125433085921420000012643327802273260948_);fill:#65666A;" d="M442.8,357
			c-72.3,0-72.3,0-72.3,0c-2.4,0-4.3-1.9-4.3-4.3c0-2.4,1.9-4.3,4.3-4.3c72.3,0,72.3,0,72.3,0c10.8,0,21.9-11.9,21.9-23.8
			c0-144.3,0-144.3,0-144.3c0-11.1-10.2-20.8-21.9-20.8c-318.5,0-318.5,0-318.5,0c-2.4,0-4.3-1.9-4.3-4.3c0-2.4,1.9-4.3,4.3-4.3
			c318.5,0,318.5,0,318.5,0c16.6,0,30.5,13.5,30.5,29.4c0,144.3,0,144.3,0,144.3C473.4,341.3,458.6,357,442.8,357z"/>
		<path style="clip-path:url(#SVGID_00000172436125433085921420000012643327802273260948_);fill:#65666A;" d="M124.4,357
			C52,357,52,357,52,357c-16.7,0-28.3-17.1-28.3-32.4c0-144.3,0-144.3,0-144.3c0-16.5,12.5-29.4,28.3-29.4c72.3,0,72.3,0,72.3,0
			c2.4,0,4.3,1.9,4.3,4.3c0,2.4-1.9,4.3-4.3,4.3c-72.3,0-72.3,0-72.3,0c-11.1,0-19.7,9.1-19.7,20.8c0,144.3,0,144.3,0,144.3
			c0,11.3,8.4,23.8,19.7,23.8c72.3,0,72.3,0,72.3,0c2.4,0,4.3,1.9,4.3,4.3C128.7,355.1,126.7,357,124.4,357z"/>
		<path style="clip-path:url(#SVGID_00000172436125433085921420000012643327802273260948_);fill:#65666A;" d="M341.3,460.2
			c-187.8,0-187.8,0-187.8,0c-16.2,0-31.4-12.3-31.4-25.4c0-84.1,0-84.1,0-84.1c0-2.4,1.9-4.3,4.3-4.3c2.4,0,4.3,1.9,4.3,4.3
			c0,84.1,0,84.1,0,84.1c0,7.6,10.5,16.8,22.8,16.8c187.8,0,187.8,0,187.8,0c12.2,0,20.6-8.9,20.6-16.8c0-84.1,0-84.1,0-84.1
			c0-2.4,1.9-4.3,4.3-4.3c2.4,0,4.3,1.9,4.3,4.3c0,84.1,0,84.1,0,84.1C370.5,447,358.8,460.2,341.3,460.2z"/>
		<path style="clip-path:url(#SVGID_00000172436125433085921420000012643327802273260948_);fill:#65666A;" d="M366.2,355
			c-2.4,0-4.3-1.9-4.3-4.3c0-49.4,0-49.4,0-49.4c-231.2,0-231.2,0-231.2,0c0,49.4,0,49.4,0,49.4c0,2.4-1.9,4.3-4.3,4.3
			c-2.4,0-4.3-1.9-4.3-4.3c0-58,0-58,0-58c248.4,0,248.4,0,248.4,0c0,58,0,58,0,58C370.5,353,368.6,355,366.2,355z"/>
		<path style="clip-path:url(#SVGID_00000172436125433085921420000012643327802273260948_);fill:#65666A;" d="M317,374.3
			c-141.2,0-141.2,0-141.2,0c-2.4,0-4.3-1.9-4.3-4.3c0-2.4,1.9-4.3,4.3-4.3c141.2,0,141.2,0,141.2,0c2.4,0,4.3,1.9,4.3,4.3
			C321.3,372.4,319.4,374.3,317,374.3z"/>
		<path style="clip-path:url(#SVGID_00000172436125433085921420000012643327802273260948_);fill:#65666A;" d="M317,417.2
			c-141.2,0-141.2,0-141.2,0c-2.4,0-4.3-1.9-4.3-4.3c0-2.4,1.9-4.3,4.3-4.3c141.2,0,141.2,0,141.2,0c2.4,0,4.3,1.9,4.3,4.3
			C321.3,415.3,319.4,417.2,317,417.2z"/>
	</g>
</g>
<g id="Client_-_Game_Console">
</g>
<g id="Client_-_IP_Phone">
</g>
<g id="Client_-_Laptop">
</g>
<g id="Client_-_Desktop">
</g>
<g id="Client_-_Workstation">
</g>
<g id="Client_-_Tablet">
</g>
<g id="Client_-_Mobile_2">
</g>
<g id="Client_-_Mobile_1">
</g>
<g id="Device_-_EdgeConnect_Enterprise_Cloud">
</g>
<g id="Device_-_EdgeConnect_Enterprise_Virtual">
</g>
<g id="Device_-_EdgeConnect_Enterprise_Appliance">
</g>
<g id="Device_-_Core_Agg_Leaf_Switch">
</g>
<g id="Device_-_Access_Switch">
</g>
<g id="Device_-_Gateway_Headend">
</g>
<g id="Device_-_Gateway_Branch">
</g>
<g id="Device_-_Gateway_Campus">
</g>
<g id="Device_-_UXI_Sensor_New">
</g>
<g id="Device_-_UXI_Sensor">
</g>
<g id="Device_-_AP500_Series_Microbranch">
</g>
<g id="Device_-_AP600_Series">
</g>
<g id="Device_-_AP500_Series">
</g>
<g id="Device_-_Outdoor_AP">
</g>
</svg>
