<?xml version="1.0" encoding="utf-8"?>
<!-- Generator: Adobe Illustrator 26.3.1, SVG Export Plug-In . SVG Version: 6.00 Build 0)  -->
<svg version="1.1" xmlns="http://www.w3.org/2000/svg" xmlns:xlink="http://www.w3.org/1999/xlink" x="0px" y="0px"
	 viewBox="0 0 500 500" style="enable-background:new 0 0 500 500;" xml:space="preserve">
<style type="text/css">
	.st0{fill:#FFFFFF;}
	.st1{fill:#FF8300;}
	.st2{fill:#F78200;}
	.st3{fill:#F7931E;}
	.st4{fill:#5D5D5D;}
	.st5{fill:#FFFFFF;stroke:#65656A;stroke-width:12;stroke-miterlimit:10;}
	.st6{display:none;fill:#979797;stroke:#979797;stroke-width:3;stroke-linecap:round;stroke-linejoin:round;stroke-miterlimit:10;}
	.st7{fill:#979797;}
	.st8{fill:#65656A;}
	.st9{stroke:#009245;stroke-width:3;stroke-miterlimit:10;}
	.st10{fill:#F58220;}
	.st11{clip-path:url(#SVGID_00000116948679338686666560000009790820640729142662_);fill:#5E5E5E;}
	.st12{clip-path:url(#SVGID_00000165215576404861603670000007456036814350087066_);fill:#FFFFFF;}
	.st13{clip-path:url(#SVGID_00000093883207054243916280000010019774575679090325_);fill:#FFFFFF;}
	.st14{clip-path:url(#SVGID_00000093883207054243916280000010019774575679090325_);fill:#FF8300;}
	.st15{clip-path:url(#SVGID_00000181078087028487611000000006940478541858721181_);fill:#FFFFFF;}
	.st16{clip-path:url(#SVGID_00000181078087028487611000000006940478541858721181_);fill:#ADE1F0;}
	.st17{clip-path:url(#SVGID_00000022526181092349799520000012183422883651942299_);fill:#65656A;}
	.st18{clip-path:url(#SVGID_00000022526181092349799520000012183422883651942299_);fill:#646569;}
	.st19{clip-path:url(#SVGID_00000022526181092349799520000012183422883651942299_);fill:#D0D0D2;}
	.st20{clip-path:url(#SVGID_00000182507466457237173760000015444927054446685583_);fill:#FFFFFF;}
	.st21{clip-path:url(#SVGID_00000182507466457237173760000015444927054446685583_);fill:#646569;}
	.st22{clip-path:url(#SVGID_00000182507466457237173760000015444927054446685583_);fill:#65656A;}
	
		.st23{clip-path:url(#SVGID_00000021120318769331521820000017198202965043049377_);fill:#FFFFFF;stroke:#000000;stroke-miterlimit:10;}
	.st24{clip-path:url(#SVGID_00000021120318769331521820000017198202965043049377_);fill:#646569;}
	.st25{clip-path:url(#SVGID_00000021120318769331521820000017198202965043049377_);fill:#65656A;}
	
		.st26{clip-path:url(#SVGID_00000021120318769331521820000017198202965043049377_);fill:none;stroke:#65656A;stroke-width:0.1925;stroke-linecap:round;stroke-linejoin:round;stroke-miterlimit:10;}
	.st27{clip-path:url(#SVGID_00000129915797918751280050000009689207750724384407_);fill:#FFFFFF;}
	.st28{clip-path:url(#SVGID_00000129915797918751280050000009689207750724384407_);fill:#65656A;}
	.st29{clip-path:url(#SVGID_00000129915797918751280050000009689207750724384407_);fill:#646569;}
	.st30{clip-path:url(#SVGID_00000130648594283046137370000007849772889803209649_);fill:#FFFFFF;}
	.st31{clip-path:url(#SVGID_00000130648594283046137370000007849772889803209649_);fill:#646569;}
	.st32{clip-path:url(#SVGID_00000086662843373085339930000005740789364309593017_);fill:#FFFFFF;}
	.st33{clip-path:url(#SVGID_00000086662843373085339930000005740789364309593017_);fill:#65656A;}
	.st34{clip-path:url(#SVGID_00000086662843373085339930000005740789364309593017_);fill:#646569;}
	.st35{fill:#646569;}
	.st36{clip-path:url(#SVGID_00000152986131753167527790000000905444467756637573_);fill:#FFFFFF;}
	.st37{clip-path:url(#SVGID_00000152986131753167527790000000905444467756637573_);fill:#65666A;}
	
		.st38{clip-path:url(#SVGID_00000152986131753167527790000000905444467756637573_);fill:none;stroke:#65666A;stroke-width:0.1748;stroke-miterlimit:10;}
	.st39{clip-path:url(#SVGID_00000002372805314557773610000000605861899432941453_);fill:#FFFFFF;}
	.st40{clip-path:url(#SVGID_00000002372805314557773610000000605861899432941453_);fill:#646569;}
	.st41{fill:none;stroke:#65656A;stroke-width:3;stroke-miterlimit:10;}
	.st42{fill:#EC8020;}
	.st43{fill:#ED8020;}
	.st44{fill:none;stroke:#65656A;stroke-width:3;stroke-linecap:round;stroke-miterlimit:10;}
	.st45{fill:none;stroke:#646569;stroke-width:10;stroke-linejoin:round;stroke-miterlimit:10;}
	.st46{fill:none;stroke:#646569;stroke-width:10;stroke-miterlimit:10;}
	.st47{fill:none;stroke:#646569;stroke-width:10;stroke-linecap:round;stroke-miterlimit:10;}
	.st48{fill:none;stroke:#65656A;stroke-width:8;stroke-linecap:round;stroke-miterlimit:10;}
	.st49{fill:#FFFFFF;stroke:#65656A;stroke-width:8;stroke-linecap:round;stroke-linejoin:round;stroke-miterlimit:10;}
	.st50{fill:none;stroke:#65656A;stroke-width:8;stroke-miterlimit:10;}
</style>
<g id="Function_-_Central_APIs">
</g>
<g id="Function_-_Central_Route_Orchestrator">
</g>
<g id="Function_-_Central_Tunnel_Orchestrator">
</g>
<g id="Function_-_Central_NetConductor">
</g>
<g id="Function_-_Central_Network_Management">
</g>
<g id="Function_-_Central_Network_Insights">
</g>
<g id="Function_-_Central_Client_Insights">
</g>
<g id="Function_-_ClearPass_Policy_Manager">
</g>
<g id="Function_-_UXI_APIs">
</g>
<g id="Function_-_UXI_Dashboard">
</g>
<g id="Function_-_Orchestrator_Global_Enterprise">
</g>
<g id="Function_-_Orchestrator">
</g>
<g id="Function_-_Pensando_Policy_and_Services_Manager">
</g>
<g id="Function_-_Fabric_Composer">
</g>
<g id="Generic_-_Virtual_Machine">
</g>
<g id="Generic_-_Server_Single">
</g>
<g id="Generic_-_Server_Multi">
</g>
<g id="Generic_-_Router">
</g>
<g id="Generic_-_Firewall">
</g>
<g id="Wi-Fi_Signal">
</g>
<g id="Generic_-_Cloud_Function_Container_Grey">
</g>
<g id="Generic_-_Cloud_Function_Container_White">
</g>
<g id="Generic_-_Cloud_Internet_Circuit">
</g>
<g id="Generic_-_Cloud_Private_Circuit">
</g>
<g id="Generic_-_Cloud">
</g>
<g id="Client_-_IOT_Sensor">
</g>
<g id="Client_-_IOT_IO">
</g>
<g id="Client_-_IOT_PLC">
</g>
<g id="Client_-_IOT_Patient_Monitor">
</g>
<g id="Client_-_IOT_Camera">
</g>
<g id="Client_-_IOT_Scanner">
</g>
<g id="IOT_-_TV_Cast">
</g>
<g id="Client_-_Printer">
</g>
<g id="Client_-_Game_Console">
</g>
<g id="Client_-_IP_Phone">
</g>
<g id="Client_-_Laptop">
</g>
<g id="Client_-_Desktop">
</g>
<g id="Client_-_Workstation">
	<g>
		<g>
			<path id="Background_00000033336602012803755360000005000086207257825194_" class="st0" d="M464.9,381.9h-95.4
				c-8.6,0-15.6-7-15.6-15.6V125.2c0-8.6,7-15.6,15.6-15.6h95.4c8.6,0,15.6,7,15.6,15.6v241.1C480.5,374.9,473.5,381.9,464.9,381.9z
				"/>
			<path class="st8" d="M469,388.1H367.5c-10.6,0-19.9-8.8-19.9-18.8V121.4c0-10.8,10.1-17.3,19.9-17.3H469c10.4,0,17.3,7,17.3,17.3
				v121.4c0,2.7-2.2,4.8-4.8,4.8c-2.7,0-4.8-2.2-4.8-4.8V121.4c0-5-2.6-7.6-7.6-7.6H367.5c-5,0-10.2,2.9-10.2,7.6v247.8
				c0,4.7,5,9.2,10.2,9.2H469c5.3,0,7.6-4.6,7.6-9.2V268.7c0-2.7,2.2-4.8,4.8-4.8c2.7,0,4.8,2.2,4.8,4.8v100.6
				C486.4,380,478.9,388.1,469,388.1z"/>
			<g>
				<path class="st8" d="M457.3,152.5h-74.2c-2.7,0-4.8-2.2-4.8-4.8c0-2.7,2.2-4.8,4.8-4.8h74.2c2.7,0,4.8,2.2,4.8,4.8
					C462.2,150.4,460,152.5,457.3,152.5z"/>
			</g>
			<g>
				<path class="st8" d="M457.3,181.6h-74.2c-2.7,0-4.8-2.2-4.8-4.8c0-2.7,2.2-4.8,4.8-4.8h74.2c2.7,0,4.8,2.2,4.8,4.8
					C462.2,179.4,460,181.6,457.3,181.6z"/>
			</g>
			<g>
				<path class="st8" d="M457.3,210.6h-74.2c-2.7,0-4.8-2.2-4.8-4.8c0-2.7,2.2-4.8,4.8-4.8h74.2c2.7,0,4.8,2.2,4.8,4.8
					C462.2,208.4,460,210.6,457.3,210.6z"/>
			</g>
			<g>
				<path class="st8" d="M419.4,317.8c-10.3,0-18.7-8.4-18.7-18.7c0-10.3,8.4-18.7,18.7-18.7c10.3,0,18.7,8.4,18.7,18.7
					C438.2,309.4,429.8,317.8,419.4,317.8z M419.4,290c-5,0-9,4.1-9,9s4.1,9,9,9c5,0,9.1-4.1,9.1-9S424.4,290,419.4,290z"/>
			</g>
		</g>
		<g>
			<g>
				<path id="Background_00000092444416634485617270000000555852857694034106_" class="st0" d="M277.9,348.6H32.9
					c-8.6,0-15.6-7-15.6-15.6V195.2c0-8.6,7-15.6,15.6-15.6h244.9c8.6,0,15.6,7,15.6,15.6V333C293.5,341.6,286.5,348.6,277.9,348.6z
					"/>
				<path class="st8" d="M278.8,352.6H34c-11.1,0-22-11.4-22-23.1V195.2c0-10.9,10.1-20.1,22-20.1h244.7c11.3,0,20.4,9,20.4,20.1
					v134.3C299.2,340.4,290.5,352.6,278.8,352.6z M163.7,342.9h115.1c5.8,0,10.8-7.4,10.8-13.4V195.2c0-5.8-4.7-10.4-10.8-10.4H34
					c-5.8,0-12.3,4.5-12.3,10.4v134.3c0,6.1,6.7,13.4,12.3,13.4H163.7z"/>
			</g>
			<g>
				<path id="Background_00000077307553592322935450000007685101613662807184_" class="st0" d="M204.6,385.6h-95.8
					c-2,0-3.5-1.6-3.5-3.5v-14c0-2,1.6-3.5,3.5-3.5h95.8c2,0,3.5,1.6,3.5,3.5v14C208.1,384,206.5,385.6,204.6,385.6z"/>
				<path class="st8" d="M215.3,388.1H99.1l0.1-12.6c0.8-8.9,9.2-16.4,18.6-16.4h79.1c9.5,0,17.5,7.4,18.3,16.4h0.1V388.1z
					 M108.8,378.4h96.8v-1.5c0-4.3-4.1-8.2-8.7-8.2h-79.1c-4.6,0-9,4-9,8.2V378.4z"/>
			</g>
		</g>
	</g>
</g>
<g id="Client_-_Tablet">
</g>
<g id="Client_-_Mobile_2">
</g>
<g id="Client_-_Mobile_1">
</g>
<g id="Device_-_EdgeConnect_Enterprise_Cloud">
</g>
<g id="Device_-_EdgeConnect_Enterprise_Virtual">
</g>
<g id="Device_-_EdgeConnect_Enterprise_Appliance">
</g>
<g id="Device_-_Core_Agg_Leaf_Switch">
</g>
<g id="Device_-_Access_Switch">
</g>
<g id="Device_-_Gateway_Headend">
</g>
<g id="Device_-_Gateway_Branch">
</g>
<g id="Device_-_Gateway_Campus">
</g>
<g id="Device_-_UXI_Sensor_New">
</g>
<g id="Device_-_UXI_Sensor">
</g>
<g id="Device_-_AP500_Series_Microbranch">
</g>
<g id="Device_-_AP600_Series">
</g>
<g id="Device_-_AP500_Series">
</g>
<g id="Device_-_Outdoor_AP">
</g>
</svg>
