<?xml version="1.0" encoding="utf-8"?>
<!-- Generator: Adobe Illustrator 26.3.1, SVG Export Plug-In . SVG Version: 6.00 Build 0)  -->
<svg version="1.1" xmlns="http://www.w3.org/2000/svg" xmlns:xlink="http://www.w3.org/1999/xlink" x="0px" y="0px"
	 viewBox="0 0 500 500" style="enable-background:new 0 0 500 500;" xml:space="preserve">
<style type="text/css">
	.st0{fill:#FFFFFF;}
	.st1{fill:#FF8300;}
	.st2{fill:#F78200;}
	.st3{fill:#F7931E;}
	.st4{fill:#5D5D5D;}
	.st5{fill:#FFFFFF;stroke:#65656A;stroke-width:12;stroke-miterlimit:10;}
	.st6{display:none;fill:#979797;stroke:#979797;stroke-width:3;stroke-linecap:round;stroke-linejoin:round;stroke-miterlimit:10;}
	.st7{fill:#979797;}
	.st8{fill:#65656A;}
	.st9{stroke:#009245;stroke-width:3;stroke-miterlimit:10;}
	.st10{fill:#F58220;}
	.st11{clip-path:url(#SVGID_00000092451906892031478160000014649539229518705037_);fill:#5E5E5E;}
	.st12{clip-path:url(#SVGID_00000013157743603978383310000009034393303103888282_);fill:#FFFFFF;}
	.st13{clip-path:url(#SVGID_00000042731820221370458330000005086043522384175028_);fill:#FFFFFF;}
	.st14{clip-path:url(#SVGID_00000042731820221370458330000005086043522384175028_);fill:#FF8300;}
	.st15{clip-path:url(#SVGID_00000088833029619123269060000002045805357969500606_);fill:#FFFFFF;}
	.st16{clip-path:url(#SVGID_00000088833029619123269060000002045805357969500606_);fill:#ADE1F0;}
	.st17{clip-path:url(#SVGID_00000119094848009022367930000011136123258578964886_);fill:#65656A;}
	.st18{clip-path:url(#SVGID_00000119094848009022367930000011136123258578964886_);fill:#646569;}
	.st19{clip-path:url(#SVGID_00000119094848009022367930000011136123258578964886_);fill:#D0D0D2;}
	.st20{clip-path:url(#SVGID_00000153695688514613440640000008884137571295644567_);fill:#FFFFFF;}
	.st21{clip-path:url(#SVGID_00000153695688514613440640000008884137571295644567_);fill:#646569;}
	.st22{clip-path:url(#SVGID_00000153695688514613440640000008884137571295644567_);fill:#65656A;}
	
		.st23{clip-path:url(#SVGID_00000079457459982076945950000002736250724345217977_);fill:#FFFFFF;stroke:#000000;stroke-miterlimit:10;}
	.st24{clip-path:url(#SVGID_00000079457459982076945950000002736250724345217977_);fill:#646569;}
	.st25{clip-path:url(#SVGID_00000079457459982076945950000002736250724345217977_);fill:#65656A;}
	
		.st26{clip-path:url(#SVGID_00000079457459982076945950000002736250724345217977_);fill:none;stroke:#65656A;stroke-width:0.1925;stroke-linecap:round;stroke-linejoin:round;stroke-miterlimit:10;}
	.st27{clip-path:url(#SVGID_00000163053936678210367790000017359594411194818435_);fill:#FFFFFF;}
	.st28{clip-path:url(#SVGID_00000163053936678210367790000017359594411194818435_);fill:#65656A;}
	.st29{clip-path:url(#SVGID_00000163053936678210367790000017359594411194818435_);fill:#646569;}
	.st30{clip-path:url(#SVGID_00000127724368241323883960000016433049624543756673_);fill:#FFFFFF;}
	.st31{clip-path:url(#SVGID_00000127724368241323883960000016433049624543756673_);fill:#646569;}
	.st32{clip-path:url(#SVGID_00000115514690705034193980000002701465504786337678_);fill:#FFFFFF;}
	.st33{clip-path:url(#SVGID_00000115514690705034193980000002701465504786337678_);fill:#65656A;}
	.st34{clip-path:url(#SVGID_00000115514690705034193980000002701465504786337678_);fill:#646569;}
	.st35{fill:#646569;}
	.st36{clip-path:url(#SVGID_00000046335644605148547650000004981115539780986252_);fill:#FFFFFF;}
	.st37{clip-path:url(#SVGID_00000046335644605148547650000004981115539780986252_);fill:#65666A;}
	
		.st38{clip-path:url(#SVGID_00000046335644605148547650000004981115539780986252_);fill:none;stroke:#65666A;stroke-width:0.1748;stroke-miterlimit:10;}
	.st39{clip-path:url(#SVGID_00000054249222702523382000000009944914983720925104_);fill:#FFFFFF;}
	.st40{clip-path:url(#SVGID_00000054249222702523382000000009944914983720925104_);fill:#646569;}
	.st41{fill:none;stroke:#65656A;stroke-width:3;stroke-miterlimit:10;}
	.st42{fill:#EC8020;}
	.st43{fill:#ED8020;}
	.st44{fill:none;stroke:#65656A;stroke-width:3;stroke-linecap:round;stroke-miterlimit:10;}
	.st45{fill:none;stroke:#646569;stroke-width:10;stroke-linejoin:round;stroke-miterlimit:10;}
	.st46{fill:none;stroke:#646569;stroke-width:10;stroke-miterlimit:10;}
	.st47{fill:none;stroke:#646569;stroke-width:10;stroke-linecap:round;stroke-miterlimit:10;}
	.st48{fill:none;stroke:#65656A;stroke-width:8;stroke-linecap:round;stroke-miterlimit:10;}
	.st49{fill:#FFFFFF;stroke:#65656A;stroke-width:8;stroke-linecap:round;stroke-linejoin:round;stroke-miterlimit:10;}
	.st50{fill:none;stroke:#65656A;stroke-width:8;stroke-miterlimit:10;}
</style>
<g id="Function_-_Central_APIs">
</g>
<g id="Function_-_Central_Route_Orchestrator">
</g>
<g id="Function_-_Central_Tunnel_Orchestrator">
</g>
<g id="Function_-_Central_NetConductor">
</g>
<g id="Function_-_Central_Network_Management">
</g>
<g id="Function_-_Central_Network_Insights">
</g>
<g id="Function_-_Central_Client_Insights">
</g>
<g id="Function_-_ClearPass_Policy_Manager">
</g>
<g id="Function_-_UXI_APIs">
</g>
<g id="Function_-_UXI_Dashboard">
</g>
<g id="Function_-_Orchestrator_Global_Enterprise">
</g>
<g id="Function_-_Orchestrator">
</g>
<g id="Function_-_Pensando_Policy_and_Services_Manager">
</g>
<g id="Function_-_Fabric_Composer">
</g>
<g id="Generic_-_Virtual_Machine">
</g>
<g id="Generic_-_Server_Single">
</g>
<g id="Generic_-_Server_Multi">
</g>
<g id="Generic_-_Router">
</g>
<g id="Generic_-_Firewall">
</g>
<g id="Wi-Fi_Signal">
</g>
<g id="Generic_-_Cloud_Function_Container_Grey">
</g>
<g id="Generic_-_Cloud_Function_Container_White">
</g>
<g id="Generic_-_Cloud_Internet_Circuit">
</g>
<g id="Generic_-_Cloud_Private_Circuit">
</g>
<g id="Generic_-_Cloud">
</g>
<g id="Client_-_IOT_Sensor">
</g>
<g id="Client_-_IOT_IO">
</g>
<g id="Client_-_IOT_PLC">
</g>
<g id="Client_-_IOT_Patient_Monitor">
</g>
<g id="Client_-_IOT_Camera">
</g>
<g id="Client_-_IOT_Scanner">
</g>
<g id="IOT_-_TV_Cast">
	<path class="st0" d="M406.9,474.9H91.3c-34.1,0-61.8-27.7-61.8-61.8V88.7c0-34.1,27.7-61.8,61.8-61.8h315.6
		c34.1,0,61.8,27.7,61.8,61.8v324.4C468.7,447.2,441,474.9,406.9,474.9z"/>
	<path class="st8" d="M86.3,32c-28,0-50.8,22.8-50.8,51c0,334,0,334,0,334c0,28,22.8,51,50.8,51c327.4,0,327.4,0,327.4,0
		c28,0,50.8-22.9,50.8-51c0-334,0-334,0-334c0-28.2-22.8-51-50.8-51H86.3z M413.7,481.3c-327.4,0-327.4,0-327.4,0
		C50.9,481.3,22,452.5,22,417c0-334,0-334,0-334c0-35.5,28.9-64.3,64.3-64.3c327.4,0,327.4,0,327.4,0c35.4,0,64.3,28.8,64.3,64.3
		c0,334,0,334,0,334C478,452.5,449.1,481.3,413.7,481.3z"/>
	<path class="st8" d="M253.4,148.8c-60.7,0-110,49.3-110,110c0,60.7,49.3,110,110,110c60.7,0,110-49.3,110-110
		C363.4,198.1,314.1,148.8,253.4,148.8z M253.4,382.1c-68,0-123.5-55.3-123.5-123.3c0-68,55.5-123.5,123.5-123.5
		c68,0,123.3,55.5,123.3,123.5C376.7,326.8,321.4,382.1,253.4,382.1z"/>
	<path class="st35" d="M267,289c50.5-28.5,50.5-28.5,50.5-28.5c0.6-0.9,1.2-1.9,1-4.2c-0.1-1-0.4-2.1-1-3
		C267,225.7,267,225.7,267,225.7s-47.8-26.8-51.4-27c-3.4-0.2-5.1,2.1-5.1,4.9c0,6,0.1,42.3,0.1,52.8c0,13.3-0.1,48-0.1,53.8
		c0,3,1.6,6.3,5.1,6.1C219.2,316.2,267,289,267,289z"/>
</g>
<g id="Client_-_Printer">
</g>
<g id="Client_-_Game_Console">
</g>
<g id="Client_-_IP_Phone">
</g>
<g id="Client_-_Laptop">
</g>
<g id="Client_-_Desktop">
</g>
<g id="Client_-_Workstation">
</g>
<g id="Client_-_Tablet">
</g>
<g id="Client_-_Mobile_2">
</g>
<g id="Client_-_Mobile_1">
</g>
<g id="Device_-_EdgeConnect_Enterprise_Cloud">
</g>
<g id="Device_-_EdgeConnect_Enterprise_Virtual">
</g>
<g id="Device_-_EdgeConnect_Enterprise_Appliance">
</g>
<g id="Device_-_Core_Agg_Leaf_Switch">
</g>
<g id="Device_-_Access_Switch">
</g>
<g id="Device_-_Gateway_Headend">
</g>
<g id="Device_-_Gateway_Branch">
</g>
<g id="Device_-_Gateway_Campus">
</g>
<g id="Device_-_UXI_Sensor_New">
</g>
<g id="Device_-_UXI_Sensor">
</g>
<g id="Device_-_AP500_Series_Microbranch">
</g>
<g id="Device_-_AP600_Series">
</g>
<g id="Device_-_AP500_Series">
</g>
<g id="Device_-_Outdoor_AP">
</g>
</svg>
