<?xml version="1.0" encoding="utf-8"?>
<!-- Generator: Adobe Illustrator 26.3.1, SVG Export Plug-In . SVG Version: 6.00 Build 0)  -->
<svg version="1.1" xmlns="http://www.w3.org/2000/svg" xmlns:xlink="http://www.w3.org/1999/xlink" x="0px" y="0px"
	 viewBox="0 0 500 500" style="enable-background:new 0 0 500 500;" xml:space="preserve">
<style type="text/css">
	.st0{fill:#FFFFFF;}
	.st1{fill:#FF8300;}
	.st2{fill:#F78200;}
	.st3{fill:#F7931E;}
	.st4{fill:#5D5D5D;}
	.st5{fill:#FFFFFF;stroke:#65656A;stroke-width:12;stroke-miterlimit:10;}
	.st6{display:none;fill:#979797;stroke:#979797;stroke-width:3;stroke-linecap:round;stroke-linejoin:round;stroke-miterlimit:10;}
	.st7{fill:#979797;}
	.st8{fill:#65656A;}
	.st9{stroke:#009245;stroke-width:3;stroke-miterlimit:10;}
	.st10{fill:#F58220;}
	.st11{clip-path:url(#SVGID_00000165922206059520892540000011231951269107649701_);fill:#5E5E5E;}
	.st12{clip-path:url(#SVGID_00000170242860672496390410000012913026125041002936_);fill:#FFFFFF;}
	.st13{clip-path:url(#SVGID_00000008139844241635224400000008099878448624121730_);fill:#FFFFFF;}
	.st14{clip-path:url(#SVGID_00000008139844241635224400000008099878448624121730_);fill:#FF8300;}
	.st15{clip-path:url(#SVGID_00000131367825590105325840000011120861206242431633_);fill:#FFFFFF;}
	.st16{clip-path:url(#SVGID_00000131367825590105325840000011120861206242431633_);fill:#ADE1F0;}
	.st17{clip-path:url(#SVGID_00000096048021500441587870000004682546016335453863_);fill:#65656A;}
	.st18{clip-path:url(#SVGID_00000096048021500441587870000004682546016335453863_);fill:#646569;}
	.st19{clip-path:url(#SVGID_00000096048021500441587870000004682546016335453863_);fill:#D0D0D2;}
	.st20{clip-path:url(#SVGID_00000098219115743238582080000014115080919774448826_);fill:#FFFFFF;}
	.st21{clip-path:url(#SVGID_00000098219115743238582080000014115080919774448826_);fill:#646569;}
	.st22{clip-path:url(#SVGID_00000098219115743238582080000014115080919774448826_);fill:#65656A;}
	
		.st23{clip-path:url(#SVGID_00000112619673718782983880000007230952824362202255_);fill:#FFFFFF;stroke:#000000;stroke-miterlimit:10;}
	.st24{clip-path:url(#SVGID_00000112619673718782983880000007230952824362202255_);fill:#646569;}
	.st25{clip-path:url(#SVGID_00000112619673718782983880000007230952824362202255_);fill:#65656A;}
	
		.st26{clip-path:url(#SVGID_00000112619673718782983880000007230952824362202255_);fill:none;stroke:#65656A;stroke-width:0.1925;stroke-linecap:round;stroke-linejoin:round;stroke-miterlimit:10;}
	.st27{clip-path:url(#SVGID_00000061439221490481434800000000049026942852685221_);fill:#FFFFFF;}
	.st28{clip-path:url(#SVGID_00000061439221490481434800000000049026942852685221_);fill:#65656A;}
	.st29{clip-path:url(#SVGID_00000061439221490481434800000000049026942852685221_);fill:#646569;}
	.st30{clip-path:url(#SVGID_00000033339605261930172690000000938988374458455184_);fill:#FFFFFF;}
	.st31{clip-path:url(#SVGID_00000033339605261930172690000000938988374458455184_);fill:#646569;}
	.st32{clip-path:url(#SVGID_00000140715446446980165090000001766508155674342068_);fill:#FFFFFF;}
	.st33{clip-path:url(#SVGID_00000140715446446980165090000001766508155674342068_);fill:#65656A;}
	.st34{clip-path:url(#SVGID_00000140715446446980165090000001766508155674342068_);fill:#646569;}
	.st35{fill:#646569;}
	.st36{clip-path:url(#SVGID_00000041262855412995378650000012015124617877392299_);fill:#FFFFFF;}
	.st37{clip-path:url(#SVGID_00000041262855412995378650000012015124617877392299_);fill:#65666A;}
	
		.st38{clip-path:url(#SVGID_00000041262855412995378650000012015124617877392299_);fill:none;stroke:#65666A;stroke-width:0.1748;stroke-miterlimit:10;}
	.st39{clip-path:url(#SVGID_00000029762879851383909160000011543365097525067942_);fill:#FFFFFF;}
	.st40{clip-path:url(#SVGID_00000029762879851383909160000011543365097525067942_);fill:#646569;}
	.st41{fill:none;stroke:#65656A;stroke-width:3;stroke-miterlimit:10;}
	.st42{fill:#EC8020;}
	.st43{fill:#ED8020;}
	.st44{fill:none;stroke:#65656A;stroke-width:3;stroke-linecap:round;stroke-miterlimit:10;}
	.st45{fill:none;stroke:#646569;stroke-width:10;stroke-linejoin:round;stroke-miterlimit:10;}
	.st46{fill:none;stroke:#646569;stroke-width:10;stroke-miterlimit:10;}
	.st47{fill:none;stroke:#646569;stroke-width:10;stroke-linecap:round;stroke-miterlimit:10;}
	.st48{fill:none;stroke:#65656A;stroke-width:8;stroke-linecap:round;stroke-miterlimit:10;}
	.st49{fill:#FFFFFF;stroke:#65656A;stroke-width:8;stroke-linecap:round;stroke-linejoin:round;stroke-miterlimit:10;}
	.st50{fill:none;stroke:#65656A;stroke-width:8;stroke-miterlimit:10;}
</style>
<g id="Function_-_Central_APIs">
</g>
<g id="Function_-_Central_Route_Orchestrator">
</g>
<g id="Function_-_Central_Tunnel_Orchestrator">
</g>
<g id="Function_-_Central_NetConductor">
</g>
<g id="Function_-_Central_Network_Management">
</g>
<g id="Function_-_Central_Network_Insights">
</g>
<g id="Function_-_Central_Client_Insights">
</g>
<g id="Function_-_ClearPass_Policy_Manager">
</g>
<g id="Function_-_UXI_APIs">
</g>
<g id="Function_-_UXI_Dashboard">
</g>
<g id="Function_-_Orchestrator_Global_Enterprise">
</g>
<g id="Function_-_Orchestrator">
</g>
<g id="Function_-_Pensando_Policy_and_Services_Manager">
</g>
<g id="Function_-_Fabric_Composer">
</g>
<g id="Generic_-_Virtual_Machine">
</g>
<g id="Generic_-_Server_Single">
</g>
<g id="Generic_-_Server_Multi">
</g>
<g id="Generic_-_Router">
</g>
<g id="Generic_-_Firewall">
</g>
<g id="Wi-Fi_Signal">
</g>
<g id="Generic_-_Cloud_Function_Container_Grey">
</g>
<g id="Generic_-_Cloud_Function_Container_White">
</g>
<g id="Generic_-_Cloud_Internet_Circuit">
</g>
<g id="Generic_-_Cloud_Private_Circuit">
</g>
<g id="Generic_-_Cloud">
</g>
<g id="Client_-_IOT_Sensor">
</g>
<g id="Client_-_IOT_IO">
</g>
<g id="Client_-_IOT_PLC">
</g>
<g id="Client_-_IOT_Patient_Monitor">
</g>
<g id="Client_-_IOT_Camera">
</g>
<g id="Client_-_IOT_Scanner">
</g>
<g id="IOT_-_TV_Cast">
</g>
<g id="Client_-_Printer">
</g>
<g id="Client_-_Game_Console">
</g>
<g id="Client_-_IP_Phone">
	<g>
		<path id="Background_00000126286165808937538500000011680714263600636804_" class="st0" d="M453.2,418H202.9
			c-13.4,0-24.2-10.8-24.2-24.2v-328c0-13.4,10.8-24.2,24.2-24.2h250.3c13.4,0,24.2,10.8,24.2,24.2v328
			C477.4,407.2,466.6,418,453.2,418z"/>
		<g>
			<path class="st8" d="M273.5,203.4c0,9.7-7.8,17.5-17.5,17.5c-9.7,0-17.5-7.8-17.5-17.5c0-9.7,7.8-17.5,17.5-17.5
				C265.7,185.9,273.5,193.7,273.5,203.4z"/>
		</g>
		<g>
			<path class="st8" d="M347.1,203.4c0,9.7-7.8,17.5-17.5,17.5c-9.7,0-17.5-7.8-17.5-17.5c0-9.7,7.9-17.5,17.5-17.5
				C339.3,185.9,347.1,193.7,347.1,203.4z"/>
		</g>
		<g>
			<path class="st8" d="M420.7,203.4c0,9.7-7.8,17.5-17.5,17.5c-9.7,0-17.5-7.8-17.5-17.5c0-9.7,7.8-17.5,17.5-17.5
				C412.9,185.9,420.7,193.7,420.7,203.4z"/>
		</g>
		<g>
			<path class="st8" d="M273.5,268.8c0,9.7-7.8,17.5-17.5,17.5c-9.7,0-17.5-7.8-17.5-17.5c0-9.7,7.8-17.5,17.5-17.5
				C265.7,251.3,273.5,259.1,273.5,268.8z"/>
		</g>
		<g>
			<path class="st8" d="M347.1,268.8c0,9.7-7.8,17.5-17.5,17.5c-9.7,0-17.5-7.8-17.5-17.5c0-9.7,7.9-17.5,17.5-17.5
				C339.3,251.3,347.1,259.1,347.1,268.8z"/>
		</g>
		<g>
			<path class="st8" d="M420.7,268.8c0,9.7-7.8,17.5-17.5,17.5c-9.7,0-17.5-7.8-17.5-17.5c0-9.7,7.8-17.5,17.5-17.5
				C412.9,251.3,420.7,259.1,420.7,268.8z"/>
		</g>
		<g>
			<path class="st8" d="M273.5,334.2c0,9.7-7.8,17.5-17.5,17.5c-9.7,0-17.5-7.8-17.5-17.5c0-9.7,7.8-17.5,17.5-17.5
				C265.7,316.7,273.5,324.5,273.5,334.2z"/>
		</g>
		<g>
			<path class="st8" d="M347.1,334.2c0,9.7-7.8,17.5-17.5,17.5c-9.7,0-17.5-7.8-17.5-17.5c0-9.7,7.9-17.5,17.5-17.5
				C339.3,316.7,347.1,324.5,347.1,334.2z"/>
		</g>
		<g>
			<path class="st8" d="M420.7,334.2c0,9.7-7.8,17.5-17.5,17.5c-9.7,0-17.5-7.8-17.5-17.5c0-9.7,7.8-17.5,17.5-17.5
				C412.9,316.7,420.7,324.5,420.7,334.2z"/>
		</g>
		<g>
			<path class="st8" d="M122.4,467c-7.3,0-15.4-0.7-24.1-2.1c-3.6-0.6-6.1-4-5.5-7.6c0.6-3.6,4-6.1,7.6-5.5c26.1,4.2,44,1.7,55-7.6
				c10.5-8.9,15.4-24.6,15.4-49.2c0-3.7,3-6.6,6.6-6.6s6.6,3,6.6,6.6c0,28.8-6.4,47.7-20,59.3C154,462.8,140.3,467,122.4,467z"/>
		</g>
		<g>
			<path id="Background_00000130613034103115803740000017460403018150696342_" class="st0" d="M115.6,158.1H67.9
				c-7,0-12.6-5.6-12.6-12.6V56.2c0-7,5.6-12.6,12.6-12.6h47.7c7,0,12.6,5.6,12.6,12.6v89.3C128.2,152.4,122.5,158.1,115.6,158.1z"
				/>
			<path id="Background_00000157292388180076097850000001848067547866069666_" class="st0" d="M116.6,419.6H68.9
				c-7,0-12.6-5.6-12.6-12.6v-82.2c0-7,5.6-12.6,12.6-12.6h47.7c7,0,12.6,5.6,12.6,12.6V407C129.2,413.9,123.6,419.6,116.6,419.6z"
				/>
			<path id="Background_00000085250242992204449190000000980575041887025855_" class="st0" d="M69.1,326.8H35.5
				c-7,0-12.6-5.6-12.6-12.6V156.1c0-7,5.6-12.6,12.6-12.6h33.6c7,0,12.6,5.6,12.6,12.6v158.1C81.7,321.1,76,326.8,69.1,326.8z"/>
			<path id="Background_00000006694976854849618820000011716084218336428941_" class="st0" d="M96.8,408.7l-21.7,5.8
				c-11,2.9-22.3-3.6-25.2-14.6L18.4,282.6c-2.9-11,3.6-22.3,14.6-25.2l21.7-5.8c11-2.9,22.3,3.6,25.2,14.6l31.4,117.3
				C114.3,394.4,107.8,405.7,96.8,408.7z"/>
			<path id="Background_00000059993643468181412190000002445985991776005534_" class="st0" d="M63.4,176.9l-31.9-10.5
				c-6.6-2.2-10.2-9.3-8-15.9l27.3-82.7c2.2-6.6,9.3-10.2,15.9-8l31.9,10.5c6.6,2.2,10.2,9.3,8,15.9l-27.3,82.7
				C77.2,175.5,70,179.1,63.4,176.9z"/>
			<path class="st8" d="M128.5,424.9H62.9c-2.5,0-4.7-1.4-5.9-3.6c-1.8-3.5-44.7-87.5-44.7-188c0-109.1,43-189.7,44.8-193.1
				c1.2-2.1,3.4-3.5,5.8-3.5h65.6c3.7,0,6.6,3,6.6,6.6v110.3c0,3.7-3,6.6-6.6,6.6H94.7c-3.8,11.3-13.4,43.4-12.2,76.1
				c1.4,38.7,8.9,64.4,12.1,73.9h33.9c3.7,0,6.6,3,6.6,6.6v101.4C135.1,422,132.1,424.9,128.5,424.9z M67,411.7h54.8v-88.2H90
				c-2.7,0-5-1.6-6.1-4c-0.5-1.2-12.8-30.6-14.6-82.6c-1.6-43.2,13.9-83.9,14.5-85.6c1-2.6,3.4-4.2,6.2-4.2h31.8v-97H67
				c-8.1,16.5-41.5,90.1-41.5,183.3C25.5,319.3,58.9,394.7,67,411.7z"/>
		</g>
		<g>
			<path class="st8" d="M417.6,147.1H245.2c-9.6,0-17.4-7.8-17.4-17.4v-18c0-9.6,7.8-17.4,17.4-17.4h172.4c9.6,0,17.4,7.8,17.4,17.4
				v18C435,139.3,427.2,147.1,417.6,147.1z M245.2,107.4c-2.3,0-4.2,1.9-4.2,4.2v18c0,2.3,1.9,4.2,4.2,4.2h172.4
				c2.3,0,4.2-1.9,4.2-4.2v-18c0-2.3-1.9-4.2-4.2-4.2H245.2z"/>
		</g>
		<g>
			<path class="st8" d="M448,424.9H204.3c-19,0-34-14.4-34-32.8V67.3c0-17.6,14.3-30.5,34-30.5H448c20.3,0,35.5,13.1,35.5,30.5
				v176.8c0,3.7-3,6.6-6.6,6.6s-6.6-3-6.6-6.6V67.3c0-11.3-11.2-17.2-22.3-17.2H204.3c-10.3,0-20.7,5.3-20.7,17.2v324.9
				c0,11,9.1,19.6,20.7,19.6H448c10.8,0,22.3-7.9,22.3-19.6V275c0-3.7,3-6.6,6.6-6.6s6.6,3,6.6,6.6v117.2
				C483.5,409.9,467.3,424.9,448,424.9z"/>
		</g>
	</g>
</g>
<g id="Client_-_Laptop">
</g>
<g id="Client_-_Desktop">
</g>
<g id="Client_-_Workstation">
</g>
<g id="Client_-_Tablet">
</g>
<g id="Client_-_Mobile_2">
</g>
<g id="Client_-_Mobile_1">
</g>
<g id="Device_-_EdgeConnect_Enterprise_Cloud">
</g>
<g id="Device_-_EdgeConnect_Enterprise_Virtual">
</g>
<g id="Device_-_EdgeConnect_Enterprise_Appliance">
</g>
<g id="Device_-_Core_Agg_Leaf_Switch">
</g>
<g id="Device_-_Access_Switch">
</g>
<g id="Device_-_Gateway_Headend">
</g>
<g id="Device_-_Gateway_Branch">
</g>
<g id="Device_-_Gateway_Campus">
</g>
<g id="Device_-_UXI_Sensor_New">
</g>
<g id="Device_-_UXI_Sensor">
</g>
<g id="Device_-_AP500_Series_Microbranch">
</g>
<g id="Device_-_AP600_Series">
</g>
<g id="Device_-_AP500_Series">
</g>
<g id="Device_-_Outdoor_AP">
</g>
</svg>
