<?xml version="1.0" encoding="utf-8"?>
<!-- Generator: Adobe Illustrator 26.3.1, SVG Export Plug-In . SVG Version: 6.00 Build 0)  -->
<svg version="1.1" xmlns="http://www.w3.org/2000/svg" xmlns:xlink="http://www.w3.org/1999/xlink" x="0px" y="0px"
	 viewBox="0 0 500 500" style="enable-background:new 0 0 500 500;" xml:space="preserve">
<style type="text/css">
	.st0{fill:#FFFFFF;}
	.st1{fill:#FF8300;}
	.st2{fill:#F78200;}
	.st3{fill:#F7931E;}
	.st4{fill:#5D5D5D;}
	.st5{fill:#FFFFFF;stroke:#65656A;stroke-width:12;stroke-miterlimit:10;}
	.st6{display:none;fill:#979797;stroke:#979797;stroke-width:3;stroke-linecap:round;stroke-linejoin:round;stroke-miterlimit:10;}
	.st7{fill:#979797;}
	.st8{fill:#65656A;}
	.st9{stroke:#009245;stroke-width:3;stroke-miterlimit:10;}
	.st10{fill:#F58220;}
	.st11{clip-path:url(#SVGID_00000032608209794877725790000000147332081066547360_);fill:#5E5E5E;}
	.st12{clip-path:url(#SVGID_00000055691227709257186700000000358125667651010193_);fill:#FFFFFF;}
	.st13{clip-path:url(#SVGID_00000076562259876832897830000017747354655600359556_);fill:#FFFFFF;}
	.st14{clip-path:url(#SVGID_00000076562259876832897830000017747354655600359556_);fill:#FF8300;}
	.st15{clip-path:url(#SVGID_00000009587221112251724310000008676136069966149763_);fill:#FFFFFF;}
	.st16{clip-path:url(#SVGID_00000009587221112251724310000008676136069966149763_);fill:#ADE1F0;}
	.st17{clip-path:url(#SVGID_00000090271576506114347080000017506246723562420626_);fill:#65656A;}
	.st18{clip-path:url(#SVGID_00000090271576506114347080000017506246723562420626_);fill:#646569;}
	.st19{clip-path:url(#SVGID_00000090271576506114347080000017506246723562420626_);fill:#D0D0D2;}
	.st20{clip-path:url(#SVGID_00000039134434756388979460000006446761396534462378_);fill:#FFFFFF;}
	.st21{clip-path:url(#SVGID_00000039134434756388979460000006446761396534462378_);fill:#646569;}
	.st22{clip-path:url(#SVGID_00000039134434756388979460000006446761396534462378_);fill:#65656A;}
	
		.st23{clip-path:url(#SVGID_00000029014683071178224410000016342260151135069086_);fill:#FFFFFF;stroke:#000000;stroke-miterlimit:10;}
	.st24{clip-path:url(#SVGID_00000029014683071178224410000016342260151135069086_);fill:#646569;}
	.st25{clip-path:url(#SVGID_00000029014683071178224410000016342260151135069086_);fill:#65656A;}
	
		.st26{clip-path:url(#SVGID_00000029014683071178224410000016342260151135069086_);fill:none;stroke:#65656A;stroke-width:0.1925;stroke-linecap:round;stroke-linejoin:round;stroke-miterlimit:10;}
	.st27{clip-path:url(#SVGID_00000160188165407897128260000011184126360010697108_);fill:#FFFFFF;}
	.st28{clip-path:url(#SVGID_00000160188165407897128260000011184126360010697108_);fill:#65656A;}
	.st29{clip-path:url(#SVGID_00000160188165407897128260000011184126360010697108_);fill:#646569;}
	.st30{clip-path:url(#SVGID_00000026165132802747256610000007897820095404988555_);fill:#FFFFFF;}
	.st31{clip-path:url(#SVGID_00000026165132802747256610000007897820095404988555_);fill:#646569;}
	.st32{clip-path:url(#SVGID_00000150824748488669277280000017110514159472525749_);fill:#FFFFFF;}
	.st33{clip-path:url(#SVGID_00000150824748488669277280000017110514159472525749_);fill:#65656A;}
	.st34{clip-path:url(#SVGID_00000150824748488669277280000017110514159472525749_);fill:#646569;}
	.st35{fill:#646569;}
	.st36{clip-path:url(#SVGID_00000030477746410997288350000014642981971491927967_);fill:#FFFFFF;}
	.st37{clip-path:url(#SVGID_00000030477746410997288350000014642981971491927967_);fill:#65666A;}
	
		.st38{clip-path:url(#SVGID_00000030477746410997288350000014642981971491927967_);fill:none;stroke:#65666A;stroke-width:0.1748;stroke-miterlimit:10;}
	.st39{clip-path:url(#SVGID_00000113312660741721947980000013761723285926023061_);fill:#FFFFFF;}
	.st40{clip-path:url(#SVGID_00000113312660741721947980000013761723285926023061_);fill:#646569;}
	.st41{fill:none;stroke:#65656A;stroke-width:3;stroke-miterlimit:10;}
	.st42{fill:#EC8020;}
	.st43{fill:#ED8020;}
	.st44{fill:none;stroke:#65656A;stroke-width:3;stroke-linecap:round;stroke-miterlimit:10;}
	.st45{fill:none;stroke:#646569;stroke-width:10;stroke-linejoin:round;stroke-miterlimit:10;}
	.st46{fill:none;stroke:#646569;stroke-width:10;stroke-miterlimit:10;}
	.st47{fill:none;stroke:#646569;stroke-width:10;stroke-linecap:round;stroke-miterlimit:10;}
	.st48{fill:none;stroke:#65656A;stroke-width:8;stroke-linecap:round;stroke-miterlimit:10;}
	.st49{fill:#FFFFFF;stroke:#65656A;stroke-width:8;stroke-linecap:round;stroke-linejoin:round;stroke-miterlimit:10;}
	.st50{fill:none;stroke:#65656A;stroke-width:8;stroke-miterlimit:10;}
</style>
<g id="Function_-_Central_APIs">
</g>
<g id="Function_-_Central_Route_Orchestrator">
</g>
<g id="Function_-_Central_Tunnel_Orchestrator">
</g>
<g id="Function_-_Central_NetConductor">
</g>
<g id="Function_-_Central_Network_Management">
</g>
<g id="Function_-_Central_Network_Insights">
</g>
<g id="Function_-_Central_Client_Insights">
</g>
<g id="Function_-_ClearPass_Policy_Manager">
</g>
<g id="Function_-_UXI_APIs">
</g>
<g id="Function_-_UXI_Dashboard">
</g>
<g id="Function_-_Orchestrator_Global_Enterprise">
</g>
<g id="Function_-_Orchestrator">
</g>
<g id="Function_-_Pensando_Policy_and_Services_Manager">
</g>
<g id="Function_-_Fabric_Composer">
</g>
<g id="Generic_-_Virtual_Machine">
</g>
<g id="Generic_-_Server_Single">
</g>
<g id="Generic_-_Server_Multi">
</g>
<g id="Generic_-_Router">
</g>
<g id="Generic_-_Firewall">
</g>
<g id="Wi-Fi_Signal">
</g>
<g id="Generic_-_Cloud_Function_Container_Grey">
</g>
<g id="Generic_-_Cloud_Function_Container_White">
</g>
<g id="Generic_-_Cloud_Internet_Circuit">
</g>
<g id="Generic_-_Cloud_Private_Circuit">
</g>
<g id="Generic_-_Cloud">
</g>
<g id="Client_-_IOT_Sensor">
</g>
<g id="Client_-_IOT_IO">
</g>
<g id="Client_-_IOT_PLC">
</g>
<g id="Client_-_IOT_Patient_Monitor">
</g>
<g id="Client_-_IOT_Camera">
	<g>
		<defs>
			<rect id="SVGID_00000052079729067689902310000009638248731070668958_" x="0.4" y="45.4" width="497.3" height="387.6"/>
		</defs>
		<clipPath id="SVGID_00000058575831129105062970000008159488669296395964_">
			<use xlink:href="#SVGID_00000052079729067689902310000009638248731070668958_"  style="overflow:visible;"/>
		</clipPath>
		<path style="clip-path:url(#SVGID_00000058575831129105062970000008159488669296395964_);fill:#FFFFFF;" d="M457.6,242.9
			l16.6-35.8c-12.6-5.5-352-154.8-365.7-151.1L47,187.1c-6.9,8.6-12.3,21.8,0.3,27.3l272.4,118.8c12.6,5.5,27.3-0.3,32.8-12.9
			l33.1-78.2C393.3,243.2,429.6,250,457.6,242.9z"/>
		<path style="clip-path:url(#SVGID_00000058575831129105062970000008159488669296395964_);fill:#FFFFFF;" d="M362,297.6l12.3-29.1
			c1.3-3.1,4.9-4.6,8-3.3l49.4,20.9c3.1,1.3,4.6,4.9,3.3,8l-12.3,29.1c-1.3,3.1-4.9,4.6-8,3.3l-49.4-20.9
			C362.1,304.3,360.7,300.7,362,297.6z"/>
		<path style="clip-path:url(#SVGID_00000058575831129105062970000008159488669296395964_);fill:#FFFFFF;" d="M119.4,288.3
			l12.3-29.1c1.3-3.1,4.9-4.6,8-3.3l92.7,39.1c3.1,1.3,4.6,4.9,3.3,8l-12.3,29.1c-1.3,3.1-4.9,4.6-8,3.3l-92.7-39.1
			C119.6,295,118.1,291.5,119.4,288.3z"/>
		<path style="clip-path:url(#SVGID_00000058575831129105062970000008159488669296395964_);fill:#646569;" d="M416.3,331.7
			c-1.8,0-3.1-0.4-4.8-0.8c-55-23.8-55-23.8-55-23.8c3.1-6.7,3.1-6.7,3.1-6.7c55,23.8,55,23.8,55,23.8c1.3,0.4,2.2,0.4,3.1,0
			c0.9-0.4,1.8-1.3,2.2-2.1c12.8-26.7,12.8-26.7,12.8-26.7c0.4-0.8,0.4-2.1,0.4-2.9c-0.4-0.8-1.3-1.7-2.2-2.1
			c-55-23.8-55-23.8-55-23.8c3.1-6.7,3.1-6.7,3.1-6.7c55,23.8,55,23.8,55,23.8c3.1,1.2,5.3,3.3,6.1,6.3c1.3,2.5,0.9,5.9,0,8.3
			c-13.2,27.1-13.2,27.1-13.2,27.1c-1.3,2.5-3.5,4.6-6.6,5.9C418.9,331.7,417.6,331.7,416.3,331.7z"/>
		<path style="clip-path:url(#SVGID_00000058575831129105062970000008159488669296395964_);fill:#646569;" d="M334.5,340.5
			c-2.6,0-5.7-0.4-8.3-1.7c-280-120.6-280-120.6-280-120.6c-9.7-4.2-14.1-15.4-9.7-24.6c21.5-46.3,21.5-46.3,21.5-46.3
			c0.9-1.7,3.1-2.5,4.8-2.1c2.2,0.8,3.1,3.3,2.2,5c-21.5,46.3-21.5,46.3-21.5,46.3c-2.6,5.8,0,12.5,5.7,15
			c280.5,120.6,280.5,120.6,280.5,120.6c2.6,1.3,5.7,1.3,8.8,0.4c3.1-1.3,5.3-3.3,6.6-5.9c40.4-84.7,40.4-84.7,40.4-84.7
			c66.4,0.8,66.4,0.8,66.4,0.8c1.8,0,5.3,0.4,5.7,0c0,0,0.4-0.4,0.9-1.3c12.7-27.1,12.7-27.1,12.7-27.1c0.4-0.8,0.4-1.7,0-2.9
			c0-0.8-0.9-1.7-1.8-2.1C121.7,60.1,121.7,60.1,121.7,60.1c-5.7-2.5-12.7-0.4-15.4,5.4C65,149.8,65,149.8,65,149.8
			c-0.9,2.1-3.1,2.9-4.8,2.1c-2.2-0.8-3.1-2.9-2.2-5c41.3-84.3,41.3-84.3,41.3-84.3c4.4-9.6,15.8-13.8,25.5-9.6
			c347.7,149.8,347.7,149.8,347.7,149.8c3.1,1.3,5.3,3.3,6.1,6.3c1.3,2.9,0.9,5.8-0.4,8.3c-12.8,27.1-12.8,27.1-12.8,27.1
			c-3.1,6.3-7,5.8-14.1,5.8c-61.1-0.8-61.1-0.8-61.1-0.8c-38.3,80.1-38.3,80.1-38.3,80.1c-2.2,4.6-6.1,7.9-11,9.6
			C338.9,340.1,336.7,340.5,334.5,340.5z"/>
		<path style="clip-path:url(#SVGID_00000058575831129105062970000008159488669296395964_);fill:#646569;" d="M136.6,257.5
			c-1.3,0-2.6,0.8-3.5,2.1c-12.7,27.1-12.7,27.1-12.7,27.1c-0.9,1.7,0,4.2,1.8,5C218,333,218,333,218,333c0.9,0.4,2.2,0.4,3.1,0
			c0.9-0.4,1.8-1.3,2.2-2.1c12.7-26.7,12.7-26.7,12.7-26.7c0.9-2.1,0-4.2-1.8-5c-95.8-41.3-95.8-41.3-95.8-41.3
			C138,257.9,137.1,257.5,136.6,257.5z M219.7,340.5c-1.8,0-3.5-0.4-4.8-0.8c-95.8-41.3-95.8-41.3-95.8-41.3
			c-5.7-2.5-8.3-9.2-5.7-14.6c12.8-27.1,12.8-27.1,12.8-27.1c2.6-5.4,9.7-7.9,15.4-5.4c95.8,41.3,95.8,41.3,95.8,41.3
			c5.7,2.5,8.3,9.2,5.7,14.6c-12.7,27.1-12.7,27.1-12.7,27.1c-1.3,2.5-3.5,4.6-6.6,5.4C222.4,340.5,221,340.5,219.7,340.5z"/>
		<path style="clip-path:url(#SVGID_00000058575831129105062970000008159488669296395964_);fill:#646569;" d="M160.4,393.5
			c-114.7,0-114.7,0-114.7,0c-2.2,0-4-1.7-4-3.8c0-2.1,1.8-3.8,4-3.8c114.7,0,114.7,0,114.7,0c1.3,0,4-3.8,4-7.1
			c0-57.6,0-57.6,0-57.6c0-2.1,1.8-3.8,4-3.8c2.2,0,4,1.7,4,3.8c0,57.6,0,57.6,0,57.6C172.3,384.7,167.4,393.5,160.4,393.5z"/>
		<path style="clip-path:url(#SVGID_00000058575831129105062970000008159488669296395964_);fill:#646569;" d="M43.4,424.8
			c-2.2,0-4-1.7-4-3.8c0-66.4,0-66.4,0-66.4c0-2.1,1.8-3.8,4-3.8s4,1.7,4,3.8c0,66.4,0,66.4,0,66.4
			C47.4,423.1,45.6,424.8,43.4,424.8z"/>
	</g>
</g>
<g id="Client_-_IOT_Scanner">
</g>
<g id="IOT_-_TV_Cast">
</g>
<g id="Client_-_Printer">
</g>
<g id="Client_-_Game_Console">
</g>
<g id="Client_-_IP_Phone">
</g>
<g id="Client_-_Laptop">
</g>
<g id="Client_-_Desktop">
</g>
<g id="Client_-_Workstation">
</g>
<g id="Client_-_Tablet">
</g>
<g id="Client_-_Mobile_2">
</g>
<g id="Client_-_Mobile_1">
</g>
<g id="Device_-_EdgeConnect_Enterprise_Cloud">
</g>
<g id="Device_-_EdgeConnect_Enterprise_Virtual">
</g>
<g id="Device_-_EdgeConnect_Enterprise_Appliance">
</g>
<g id="Device_-_Core_Agg_Leaf_Switch">
</g>
<g id="Device_-_Access_Switch">
</g>
<g id="Device_-_Gateway_Headend">
</g>
<g id="Device_-_Gateway_Branch">
</g>
<g id="Device_-_Gateway_Campus">
</g>
<g id="Device_-_UXI_Sensor_New">
</g>
<g id="Device_-_UXI_Sensor">
</g>
<g id="Device_-_AP500_Series_Microbranch">
</g>
<g id="Device_-_AP600_Series">
</g>
<g id="Device_-_AP500_Series">
</g>
<g id="Device_-_Outdoor_AP">
</g>
</svg>
