<?xml version="1.0" encoding="utf-8"?>
<!-- Generator: Adobe Illustrator 26.3.1, SVG Export Plug-In . SVG Version: 6.00 Build 0)  -->
<svg version="1.1" xmlns="http://www.w3.org/2000/svg" xmlns:xlink="http://www.w3.org/1999/xlink" x="0px" y="0px"
	 viewBox="0 0 500 500" style="enable-background:new 0 0 500 500;" xml:space="preserve">
<style type="text/css">
	.st0{fill:#FFFFFF;}
	.st1{fill:#FF8300;}
	.st2{fill:#F78200;}
	.st3{fill:#F7931E;}
	.st4{fill:#5D5D5D;}
	.st5{fill:#FFFFFF;stroke:#65656A;stroke-width:12;stroke-miterlimit:10;}
	.st6{display:none;fill:#979797;stroke:#979797;stroke-width:3;stroke-linecap:round;stroke-linejoin:round;stroke-miterlimit:10;}
	.st7{fill:#979797;}
	.st8{fill:#65656A;}
	.st9{stroke:#009245;stroke-width:3;stroke-miterlimit:10;}
	.st10{fill:#F58220;}
	.st11{clip-path:url(#SVGID_00000049215132890346695720000009723766656243768452_);fill:#5E5E5E;}
	.st12{clip-path:url(#SVGID_00000105411023567041577660000013137564835935608733_);fill:#FFFFFF;}
	.st13{clip-path:url(#SVGID_00000076576655597162980370000006994722588558765474_);fill:#FFFFFF;}
	.st14{clip-path:url(#SVGID_00000076576655597162980370000006994722588558765474_);fill:#FF8300;}
	.st15{clip-path:url(#SVGID_00000100373184257132824790000009384728689868258229_);fill:#FFFFFF;}
	.st16{clip-path:url(#SVGID_00000100373184257132824790000009384728689868258229_);fill:#ADE1F0;}
	.st17{clip-path:url(#SVGID_00000124160840968988188360000014894285790136849797_);fill:#65656A;}
	.st18{clip-path:url(#SVGID_00000124160840968988188360000014894285790136849797_);fill:#646569;}
	.st19{clip-path:url(#SVGID_00000124160840968988188360000014894285790136849797_);fill:#D0D0D2;}
	.st20{clip-path:url(#SVGID_00000162330657195891145170000011075268417212380548_);fill:#FFFFFF;}
	.st21{clip-path:url(#SVGID_00000162330657195891145170000011075268417212380548_);fill:#646569;}
	.st22{clip-path:url(#SVGID_00000162330657195891145170000011075268417212380548_);fill:#65656A;}
	
		.st23{clip-path:url(#SVGID_00000046322213612685779300000015787009735396935613_);fill:#FFFFFF;stroke:#000000;stroke-miterlimit:10;}
	.st24{clip-path:url(#SVGID_00000046322213612685779300000015787009735396935613_);fill:#646569;}
	.st25{clip-path:url(#SVGID_00000046322213612685779300000015787009735396935613_);fill:#65656A;}
	
		.st26{clip-path:url(#SVGID_00000046322213612685779300000015787009735396935613_);fill:none;stroke:#65656A;stroke-width:0.1925;stroke-linecap:round;stroke-linejoin:round;stroke-miterlimit:10;}
	.st27{clip-path:url(#SVGID_00000140003454006055479040000007497826985235737749_);fill:#FFFFFF;}
	.st28{clip-path:url(#SVGID_00000140003454006055479040000007497826985235737749_);fill:#65656A;}
	.st29{clip-path:url(#SVGID_00000140003454006055479040000007497826985235737749_);fill:#646569;}
	.st30{clip-path:url(#SVGID_00000032609872718820225030000015536634009427401635_);fill:#FFFFFF;}
	.st31{clip-path:url(#SVGID_00000032609872718820225030000015536634009427401635_);fill:#646569;}
	.st32{clip-path:url(#SVGID_00000018917735563149448290000013551081925266491310_);fill:#FFFFFF;}
	.st33{clip-path:url(#SVGID_00000018917735563149448290000013551081925266491310_);fill:#65656A;}
	.st34{clip-path:url(#SVGID_00000018917735563149448290000013551081925266491310_);fill:#646569;}
	.st35{fill:#646569;}
	.st36{clip-path:url(#SVGID_00000132796323003181102580000009604372384823914427_);fill:#FFFFFF;}
	.st37{clip-path:url(#SVGID_00000132796323003181102580000009604372384823914427_);fill:#65666A;}
	
		.st38{clip-path:url(#SVGID_00000132796323003181102580000009604372384823914427_);fill:none;stroke:#65666A;stroke-width:0.1748;stroke-miterlimit:10;}
	.st39{clip-path:url(#SVGID_00000037684277845794516660000016701882230881653921_);fill:#FFFFFF;}
	.st40{clip-path:url(#SVGID_00000037684277845794516660000016701882230881653921_);fill:#646569;}
	.st41{fill:none;stroke:#65656A;stroke-width:3;stroke-miterlimit:10;}
	.st42{fill:#EC8020;}
	.st43{fill:#ED8020;}
	.st44{fill:none;stroke:#65656A;stroke-width:3;stroke-linecap:round;stroke-miterlimit:10;}
	.st45{fill:none;stroke:#646569;stroke-width:10;stroke-linejoin:round;stroke-miterlimit:10;}
	.st46{fill:none;stroke:#646569;stroke-width:10;stroke-miterlimit:10;}
	.st47{fill:none;stroke:#646569;stroke-width:10;stroke-linecap:round;stroke-miterlimit:10;}
	.st48{fill:none;stroke:#65656A;stroke-width:8;stroke-linecap:round;stroke-miterlimit:10;}
	.st49{fill:#FFFFFF;stroke:#65656A;stroke-width:8;stroke-linecap:round;stroke-linejoin:round;stroke-miterlimit:10;}
	.st50{fill:none;stroke:#65656A;stroke-width:8;stroke-miterlimit:10;}
</style>
<g id="Function_-_Central_APIs">
</g>
<g id="Function_-_Central_Route_Orchestrator">
</g>
<g id="Function_-_Central_Tunnel_Orchestrator">
</g>
<g id="Function_-_Central_NetConductor">
</g>
<g id="Function_-_Central_Network_Management">
</g>
<g id="Function_-_Central_Network_Insights">
</g>
<g id="Function_-_Central_Client_Insights">
</g>
<g id="Function_-_ClearPass_Policy_Manager">
</g>
<g id="Function_-_UXI_APIs">
</g>
<g id="Function_-_UXI_Dashboard">
</g>
<g id="Function_-_Orchestrator_Global_Enterprise">
</g>
<g id="Function_-_Orchestrator">
</g>
<g id="Function_-_Pensando_Policy_and_Services_Manager">
</g>
<g id="Function_-_Fabric_Composer">
</g>
<g id="Generic_-_Virtual_Machine">
</g>
<g id="Generic_-_Server_Single">
</g>
<g id="Generic_-_Server_Multi">
</g>
<g id="Generic_-_Router">
</g>
<g id="Generic_-_Firewall">
</g>
<g id="Wi-Fi_Signal">
</g>
<g id="Generic_-_Cloud_Function_Container_Grey">
</g>
<g id="Generic_-_Cloud_Function_Container_White">
</g>
<g id="Generic_-_Cloud_Internet_Circuit">
</g>
<g id="Generic_-_Cloud_Private_Circuit">
</g>
<g id="Generic_-_Cloud">
</g>
<g id="Client_-_IOT_Sensor">
</g>
<g id="Client_-_IOT_IO">
</g>
<g id="Client_-_IOT_PLC">
</g>
<g id="Client_-_IOT_Patient_Monitor">
	<g>
		<defs>
			<rect id="SVGID_00000083771128288930749690000003618712712875734177_" x="2.7" y="11.6" width="493.6" height="477.8"/>
		</defs>
		<clipPath id="SVGID_00000129178695793596781410000008121705025797114804_">
			<use xlink:href="#SVGID_00000083771128288930749690000003618712712875734177_"  style="overflow:visible;"/>
		</clipPath>
		<path style="clip-path:url(#SVGID_00000129178695793596781410000008121705025797114804_);fill:#FFFFFF;" d="M417.4,408.5H31.5
			c-5.9,0-10.6-4.8-10.6-10.6V68.6c0-5.9,4.8-10.6,10.6-10.6h385.9c5.9,0,10.6,4.8,10.6,10.6v329.2
			C428.1,403.7,423.3,408.5,417.4,408.5z"/>
		
			<circle style="clip-path:url(#SVGID_00000129178695793596781410000008121705025797114804_);fill:#FFFFFF;" cx="402.4" cy="365.1" r="64.4"/>
		<path style="clip-path:url(#SVGID_00000129178695793596781410000008121705025797114804_);fill:#65656A;" d="M75.3,382.7
			c0,5.3-4.2,9.6-9.6,9.6c-5.3,0-9.6-4.2-9.6-9.6c0-5.3,4.2-9.6,9.6-9.6C71.1,373.1,75.3,377.4,75.3,382.7z"/>
		<path style="clip-path:url(#SVGID_00000129178695793596781410000008121705025797114804_);fill:#65656A;" d="M104,382.7
			c0,5.3-4.4,9.6-9.6,9.6c-5.3,0-9.6-4.2-9.6-9.6c0-5.3,4.3-9.6,9.6-9.6C99.6,373.1,104,377.4,104,382.7z"/>
		<path style="clip-path:url(#SVGID_00000129178695793596781410000008121705025797114804_);fill:#65656A;" d="M132.6,382.7
			c0,5.3-4.3,9.6-9.6,9.6c-5.2,0-9.4-4.2-9.4-9.6c0-5.3,4.3-9.6,9.4-9.6C128.3,373.1,132.6,377.4,132.6,382.7z"/>
		<path style="clip-path:url(#SVGID_00000129178695793596781410000008121705025797114804_);fill:#65656A;" d="M33.2,60.5
			c-4.3,0-7.6,3.3-7.6,7.6c0,331.2,0,331.2,0,331.2c0,4.1,3.3,7.6,7.6,7.6c382.4,0,382.4,0,382.4,0c4.3,0,7.6-3.5,7.6-7.6
			c0-331.2,0-331.2,0-331.2c0-4.2-3.3-7.6-7.6-7.6H33.2z M415.7,414.4c-382.4,0-382.4,0-382.4,0c-8.5,0-15.3-6.8-15.3-15.2
			c0-331.2,0-331.2,0-331.2c0-8.5,6.8-15.3,15.3-15.3c382.4,0,382.4,0,382.4,0c8.5,0,15.3,6.8,15.3,15.3c0,331.2,0,331.2,0,331.2
			C431,407.6,424.2,414.4,415.7,414.4z"/>
		<path style="clip-path:url(#SVGID_00000129178695793596781410000008121705025797114804_);fill:#65656A;" d="M72.7,95
			c-4.3,0-7.8,3.3-7.8,7.6c0,239.3,0,239.3,0,239.3c0,4.1,3.5,7.6,7.8,7.6c303.4,0,303.4,0,303.4,0c4.3,0,7.8-3.5,7.8-7.6
			c0-239.3,0-239.3,0-239.3c0-4.2-3.5-7.6-7.8-7.6H72.7z M376.1,357c-303.4,0-303.4,0-303.4,0c-8.5,0-15.3-6.8-15.3-15.2
			c0-239.3,0-239.3,0-239.3c0-8.5,6.8-15.3,15.3-15.3c303.4,0,303.4,0,303.4,0c8.5,0,15.3,6.8,15.3,15.3c0,239.3,0,239.3,0,239.3
			C391.5,350.2,384.7,357,376.1,357z"/>
		<path style="clip-path:url(#SVGID_00000129178695793596781410000008121705025797114804_);fill:#65656A;" d="M333.9,294.8
			c-68.2,0-68.2,0-68.2,0c-1.7,0-3.2-1.1-3.7-2.7c-36.5-132.6-36.5-132.6-36.5-132.6c-35.2,86.4-35.2,86.4-35.2,86.4
			c-0.6,1.4-2,2.3-3.5,2.3c-71.9,0-71.9,0-71.9,0c-2.1,0-3.8-1.7-3.8-3.8c0-2.1,1.7-3.8,3.8-3.8c69.3,0,69.3,0,69.3,0
			c38.4-94.5,38.4-94.5,38.4-94.5c0.6-1.5,2.1-2.4,3.8-2.3c1.7,0,3,1.2,3.5,2.7c38.6,140.6,38.6,140.6,38.6,140.6
			c65.3,0,65.3,0,65.3,0c2.1,0,3.8,1.7,3.8,3.8C337.7,293.1,336,294.8,333.9,294.8z"/>
		<path style="clip-path:url(#SVGID_00000129178695793596781410000008121705025797114804_);fill:#646569;" d="M480.7,369.3
			c0,42.2-34.2,76.4-76.4,76.4c-42.2,0-76.6-34.2-76.6-76.4c0-42.2,34.3-76.5,76.6-76.5C446.5,292.8,480.7,327.1,480.7,369.3z"/>
		
			<rect x="366" y="360.7" style="clip-path:url(#SVGID_00000129178695793596781410000008121705025797114804_);fill:#FFFFFF;" width="76.4" height="20.7"/>
		
			<rect x="393.9" y="332.7" style="clip-path:url(#SVGID_00000129178695793596781410000008121705025797114804_);fill:#FFFFFF;" width="20.5" height="76.5"/>
	</g>
</g>
<g id="Client_-_IOT_Camera">
</g>
<g id="Client_-_IOT_Scanner">
</g>
<g id="IOT_-_TV_Cast">
</g>
<g id="Client_-_Printer">
</g>
<g id="Client_-_Game_Console">
</g>
<g id="Client_-_IP_Phone">
</g>
<g id="Client_-_Laptop">
</g>
<g id="Client_-_Desktop">
</g>
<g id="Client_-_Workstation">
</g>
<g id="Client_-_Tablet">
</g>
<g id="Client_-_Mobile_2">
</g>
<g id="Client_-_Mobile_1">
</g>
<g id="Device_-_EdgeConnect_Enterprise_Cloud">
</g>
<g id="Device_-_EdgeConnect_Enterprise_Virtual">
</g>
<g id="Device_-_EdgeConnect_Enterprise_Appliance">
</g>
<g id="Device_-_Core_Agg_Leaf_Switch">
</g>
<g id="Device_-_Access_Switch">
</g>
<g id="Device_-_Gateway_Headend">
</g>
<g id="Device_-_Gateway_Branch">
</g>
<g id="Device_-_Gateway_Campus">
</g>
<g id="Device_-_UXI_Sensor_New">
</g>
<g id="Device_-_UXI_Sensor">
</g>
<g id="Device_-_AP500_Series_Microbranch">
</g>
<g id="Device_-_AP600_Series">
</g>
<g id="Device_-_AP500_Series">
</g>
<g id="Device_-_Outdoor_AP">
</g>
</svg>
