<?xml version="1.0" encoding="utf-8"?>
<!-- Generator: Adobe Illustrator 26.3.1, SVG Export Plug-In . SVG Version: 6.00 Build 0)  -->
<svg version="1.1" xmlns="http://www.w3.org/2000/svg" xmlns:xlink="http://www.w3.org/1999/xlink" x="0px" y="0px"
	 viewBox="0 0 500 500" style="enable-background:new 0 0 500 500;" xml:space="preserve">
<style type="text/css">
	.st0{fill:#FFFFFF;}
	.st1{fill:#FF8300;}
	.st2{fill:#F78200;}
	.st3{fill:#F7931E;}
	.st4{fill:#5D5D5D;}
	.st5{fill:#FFFFFF;stroke:#65656A;stroke-width:12;stroke-miterlimit:10;}
	.st6{display:none;fill:#979797;stroke:#979797;stroke-width:3;stroke-linecap:round;stroke-linejoin:round;stroke-miterlimit:10;}
	.st7{fill:#979797;}
	.st8{fill:#65656A;}
	.st9{stroke:#009245;stroke-width:3;stroke-miterlimit:10;}
	.st10{fill:#F58220;}
	.st11{clip-path:url(#SVGID_00000016062736867194689520000012459206427646127273_);fill:#5E5E5E;}
	.st12{clip-path:url(#SVGID_00000182486126960357430730000009578552509874544016_);fill:#FFFFFF;}
	.st13{clip-path:url(#SVGID_00000006693243568798257970000009688555475348559263_);fill:#FFFFFF;}
	.st14{clip-path:url(#SVGID_00000006693243568798257970000009688555475348559263_);fill:#FF8300;}
	.st15{clip-path:url(#SVGID_00000035498528322566006330000014250750699899683247_);fill:#FFFFFF;}
	.st16{clip-path:url(#SVGID_00000035498528322566006330000014250750699899683247_);fill:#ADE1F0;}
	.st17{clip-path:url(#SVGID_00000034067453379820821920000002272841797411209366_);fill:#65656A;}
	.st18{clip-path:url(#SVGID_00000034067453379820821920000002272841797411209366_);fill:#646569;}
	.st19{clip-path:url(#SVGID_00000034067453379820821920000002272841797411209366_);fill:#D0D0D2;}
	.st20{clip-path:url(#SVGID_00000098938335018391530090000000227269528159751832_);fill:#FFFFFF;}
	.st21{clip-path:url(#SVGID_00000098938335018391530090000000227269528159751832_);fill:#646569;}
	.st22{clip-path:url(#SVGID_00000098938335018391530090000000227269528159751832_);fill:#65656A;}
	
		.st23{clip-path:url(#SVGID_00000159436809963376720180000005741319810135885199_);fill:#FFFFFF;stroke:#000000;stroke-miterlimit:10;}
	.st24{clip-path:url(#SVGID_00000159436809963376720180000005741319810135885199_);fill:#646569;}
	.st25{clip-path:url(#SVGID_00000159436809963376720180000005741319810135885199_);fill:#65656A;}
	
		.st26{clip-path:url(#SVGID_00000159436809963376720180000005741319810135885199_);fill:none;stroke:#65656A;stroke-width:0.1925;stroke-linecap:round;stroke-linejoin:round;stroke-miterlimit:10;}
	.st27{clip-path:url(#SVGID_00000161602547460615596140000007218784125177018758_);fill:#FFFFFF;}
	.st28{clip-path:url(#SVGID_00000161602547460615596140000007218784125177018758_);fill:#65656A;}
	.st29{clip-path:url(#SVGID_00000161602547460615596140000007218784125177018758_);fill:#646569;}
	.st30{clip-path:url(#SVGID_00000157268706847770041470000005382406859652328082_);fill:#FFFFFF;}
	.st31{clip-path:url(#SVGID_00000157268706847770041470000005382406859652328082_);fill:#646569;}
	.st32{clip-path:url(#SVGID_00000152247744655813415810000016397062859628380087_);fill:#FFFFFF;}
	.st33{clip-path:url(#SVGID_00000152247744655813415810000016397062859628380087_);fill:#65656A;}
	.st34{clip-path:url(#SVGID_00000152247744655813415810000016397062859628380087_);fill:#646569;}
	.st35{fill:#646569;}
	.st36{clip-path:url(#SVGID_00000083790883413934176070000004477172599648466075_);fill:#FFFFFF;}
	.st37{clip-path:url(#SVGID_00000083790883413934176070000004477172599648466075_);fill:#65666A;}
	
		.st38{clip-path:url(#SVGID_00000083790883413934176070000004477172599648466075_);fill:none;stroke:#65666A;stroke-width:0.1748;stroke-miterlimit:10;}
	.st39{clip-path:url(#SVGID_00000010990092551708169210000018000558773411497149_);fill:#FFFFFF;}
	.st40{clip-path:url(#SVGID_00000010990092551708169210000018000558773411497149_);fill:#646569;}
	.st41{fill:none;stroke:#65656A;stroke-width:3;stroke-miterlimit:10;}
	.st42{fill:#EC8020;}
	.st43{fill:#ED8020;}
	.st44{fill:none;stroke:#65656A;stroke-width:3;stroke-linecap:round;stroke-miterlimit:10;}
	.st45{fill:none;stroke:#646569;stroke-width:10;stroke-linejoin:round;stroke-miterlimit:10;}
	.st46{fill:none;stroke:#646569;stroke-width:10;stroke-miterlimit:10;}
	.st47{fill:none;stroke:#646569;stroke-width:10;stroke-linecap:round;stroke-miterlimit:10;}
	.st48{fill:none;stroke:#65656A;stroke-width:8;stroke-linecap:round;stroke-miterlimit:10;}
	.st49{fill:#FFFFFF;stroke:#65656A;stroke-width:8;stroke-linecap:round;stroke-linejoin:round;stroke-miterlimit:10;}
	.st50{fill:none;stroke:#65656A;stroke-width:8;stroke-miterlimit:10;}
</style>
<g id="Function_-_Central_APIs">
</g>
<g id="Function_-_Central_Route_Orchestrator">
</g>
<g id="Function_-_Central_Tunnel_Orchestrator">
</g>
<g id="Function_-_Central_NetConductor">
</g>
<g id="Function_-_Central_Network_Management">
</g>
<g id="Function_-_Central_Network_Insights">
</g>
<g id="Function_-_Central_Client_Insights">
</g>
<g id="Function_-_ClearPass_Policy_Manager">
</g>
<g id="Function_-_UXI_APIs">
</g>
<g id="Function_-_UXI_Dashboard">
</g>
<g id="Function_-_Orchestrator_Global_Enterprise">
</g>
<g id="Function_-_Orchestrator">
</g>
<g id="Function_-_Pensando_Policy_and_Services_Manager">
</g>
<g id="Function_-_Fabric_Composer">
</g>
<g id="Generic_-_Virtual_Machine">
</g>
<g id="Generic_-_Server_Single">
</g>
<g id="Generic_-_Server_Multi">
</g>
<g id="Generic_-_Router">
</g>
<g id="Generic_-_Firewall">
</g>
<g id="Wi-Fi_Signal">
</g>
<g id="Generic_-_Cloud_Function_Container_Grey">
</g>
<g id="Generic_-_Cloud_Function_Container_White">
</g>
<g id="Generic_-_Cloud_Internet_Circuit">
</g>
<g id="Generic_-_Cloud_Private_Circuit">
</g>
<g id="Generic_-_Cloud">
</g>
<g id="Client_-_IOT_Sensor">
</g>
<g id="Client_-_IOT_IO">
</g>
<g id="Client_-_IOT_PLC">
</g>
<g id="Client_-_IOT_Patient_Monitor">
</g>
<g id="Client_-_IOT_Camera">
</g>
<g id="Client_-_IOT_Scanner">
</g>
<g id="IOT_-_TV_Cast">
</g>
<g id="Client_-_Printer">
</g>
<g id="Client_-_Game_Console">
</g>
<g id="Client_-_IP_Phone">
</g>
<g id="Client_-_Laptop">
	<path class="st0" d="M407.7,328.6H85.2c-11.7,0-21.2-9.5-21.2-21.2V130.9c0-11.7,9.5-21.2,21.2-21.2h322.5
		c11.7,0,21.2,9.5,21.2,21.2v176.6C428.8,319.1,419.3,328.6,407.7,328.6z"/>
	<g>
		<g>
			<path class="st8" d="M407,331.8H87.4c-13.7,0-26.6-13.1-26.6-27.1V129.4c0-13,11.4-22.9,26.6-22.9H407c14.5,0,25,9.6,25,22.9
				v175.3C432,319.1,420.3,331.8,407,331.8z M257.5,322.2H407c8.9,0,15.5-9.3,15.5-17.5V129.4c0-9.2-7.8-13.3-15.5-13.3H87.4
				c-8.3,0-17.1,4.7-17.1,13.3v175.3c0,8.7,8.6,17.5,17.1,17.5H257.5z"/>
		</g>
		<g>
			<path class="st0" d="M402.3,322.6l-59,39.1c-8,5.3-4.2,17.7,5.3,17.7h117.9c9.6,0,13.3-12.4,5.3-17.7l-59-39.1
				C409.7,320.5,405.5,320.5,402.3,322.6z"/>
			<path class="st0" d="M78.3,326.1L22,363.4c-8.6,5.7-4.6,19.2,5.8,19.2h112.6c10.4,0,14.4-13.4,5.8-19.2l-56.3-37.3
				C86.3,323.7,81.8,323.7,78.3,326.1z"/>
			<rect x="70.4" y="325.4" class="st0" width="355.3" height="53.9"/>
			<path class="st8" d="M464.7,385.7h-204c-2.6,0-4.8-2.1-4.8-4.8s2.1-4.8,4.8-4.8h204c5.6,0,8.2-1.7,8.8-3.2
				c0.5-1.5-0.6-3.8-2.7-5.5L434,340.9c-7.2-5.3-12.3-9.2-18.9-9.2H79.3c-6.6,0-11.8,3.9-19.1,9.3l-1.4,1.1l-35.3,26
				c-1.9,1.6-3.1,3.7-2.6,5.1c0.5,1.5,3.5,3,8.8,3h205.6c2.6,0,4.8,2.1,4.8,4.8s-2.1,4.8-4.8,4.8H29.7c-13,0-16.8-6.6-17.8-9.4
				c-1.9-5.4,0.3-11.4,5.7-15.8l36.9-27.1c8-6,15-11.1,24.7-11.1h335.8c9.7,0,16.6,5.1,24.6,11.1l1.6,1.2l35.2,25.4
				c5.6,4.5,7.9,10.8,5.9,16.3C481.4,379,477.6,385.7,464.7,385.7z"/>
		</g>
	</g>
</g>
<g id="Client_-_Desktop">
</g>
<g id="Client_-_Workstation">
</g>
<g id="Client_-_Tablet">
</g>
<g id="Client_-_Mobile_2">
</g>
<g id="Client_-_Mobile_1">
</g>
<g id="Device_-_EdgeConnect_Enterprise_Cloud">
</g>
<g id="Device_-_EdgeConnect_Enterprise_Virtual">
</g>
<g id="Device_-_EdgeConnect_Enterprise_Appliance">
</g>
<g id="Device_-_Core_Agg_Leaf_Switch">
</g>
<g id="Device_-_Access_Switch">
</g>
<g id="Device_-_Gateway_Headend">
</g>
<g id="Device_-_Gateway_Branch">
</g>
<g id="Device_-_Gateway_Campus">
</g>
<g id="Device_-_UXI_Sensor_New">
</g>
<g id="Device_-_UXI_Sensor">
</g>
<g id="Device_-_AP500_Series_Microbranch">
</g>
<g id="Device_-_AP600_Series">
</g>
<g id="Device_-_AP500_Series">
</g>
<g id="Device_-_Outdoor_AP">
</g>
</svg>
