<?xml version="1.0" encoding="utf-8"?>
<!-- Generator: Adobe Illustrator 26.3.1, SVG Export Plug-In . SVG Version: 6.00 Build 0)  -->
<svg version="1.1" xmlns="http://www.w3.org/2000/svg" xmlns:xlink="http://www.w3.org/1999/xlink" x="0px" y="0px"
	 viewBox="0 0 500 500" style="enable-background:new 0 0 500 500;" xml:space="preserve">
<style type="text/css">
	.st0{fill:#FFFFFF;}
	.st1{fill:#FF8300;}
	.st2{fill:#F78200;}
	.st3{fill:#F7931E;}
	.st4{fill:#5D5D5D;}
	.st5{fill:#FFFFFF;stroke:#65656A;stroke-width:12;stroke-miterlimit:10;}
	.st6{display:none;fill:#979797;stroke:#979797;stroke-width:3;stroke-linecap:round;stroke-linejoin:round;stroke-miterlimit:10;}
	.st7{fill:#979797;}
	.st8{fill:#65656A;}
	.st9{stroke:#009245;stroke-width:3;stroke-miterlimit:10;}
	.st10{fill:#F58220;}
	.st11{clip-path:url(#SVGID_00000161623170497456062780000008263771659736536723_);fill:#5E5E5E;}
	.st12{clip-path:url(#SVGID_00000142870804905176923230000007816741181540339877_);fill:#FFFFFF;}
	.st13{clip-path:url(#SVGID_00000164508939277058993920000012151797649164330676_);fill:#FFFFFF;}
	.st14{clip-path:url(#SVGID_00000164508939277058993920000012151797649164330676_);fill:#FF8300;}
	.st15{clip-path:url(#SVGID_00000038377640883484876000000005763430459489511857_);fill:#FFFFFF;}
	.st16{clip-path:url(#SVGID_00000038377640883484876000000005763430459489511857_);fill:#ADE1F0;}
	.st17{clip-path:url(#SVGID_00000038400969343663222540000002541237322311560076_);fill:#65656A;}
	.st18{clip-path:url(#SVGID_00000038400969343663222540000002541237322311560076_);fill:#646569;}
	.st19{clip-path:url(#SVGID_00000038400969343663222540000002541237322311560076_);fill:#D0D0D2;}
	.st20{clip-path:url(#SVGID_00000049190916211414085550000008656221149076955580_);fill:#FFFFFF;}
	.st21{clip-path:url(#SVGID_00000049190916211414085550000008656221149076955580_);fill:#646569;}
	.st22{clip-path:url(#SVGID_00000049190916211414085550000008656221149076955580_);fill:#65656A;}
	
		.st23{clip-path:url(#SVGID_00000116218198877152435250000015407834485172283807_);fill:#FFFFFF;stroke:#000000;stroke-miterlimit:10;}
	.st24{clip-path:url(#SVGID_00000116218198877152435250000015407834485172283807_);fill:#646569;}
	.st25{clip-path:url(#SVGID_00000116218198877152435250000015407834485172283807_);fill:#65656A;}
	
		.st26{clip-path:url(#SVGID_00000116218198877152435250000015407834485172283807_);fill:none;stroke:#65656A;stroke-width:0.1925;stroke-linecap:round;stroke-linejoin:round;stroke-miterlimit:10;}
	.st27{clip-path:url(#SVGID_00000166667118326942732670000001884683582431700097_);fill:#FFFFFF;}
	.st28{clip-path:url(#SVGID_00000166667118326942732670000001884683582431700097_);fill:#65656A;}
	.st29{clip-path:url(#SVGID_00000166667118326942732670000001884683582431700097_);fill:#646569;}
	.st30{clip-path:url(#SVGID_00000036962119944132118770000012798455590353598093_);fill:#FFFFFF;}
	.st31{clip-path:url(#SVGID_00000036962119944132118770000012798455590353598093_);fill:#646569;}
	.st32{clip-path:url(#SVGID_00000109728755787307261120000011645955498450541245_);fill:#FFFFFF;}
	.st33{clip-path:url(#SVGID_00000109728755787307261120000011645955498450541245_);fill:#65656A;}
	.st34{clip-path:url(#SVGID_00000109728755787307261120000011645955498450541245_);fill:#646569;}
	.st35{fill:#646569;}
	.st36{clip-path:url(#SVGID_00000017478746016409671290000006759427095342031532_);fill:#FFFFFF;}
	.st37{clip-path:url(#SVGID_00000017478746016409671290000006759427095342031532_);fill:#65666A;}
	
		.st38{clip-path:url(#SVGID_00000017478746016409671290000006759427095342031532_);fill:none;stroke:#65666A;stroke-width:0.1748;stroke-miterlimit:10;}
	.st39{clip-path:url(#SVGID_00000115494848730473736350000005274446231680160190_);fill:#FFFFFF;}
	.st40{clip-path:url(#SVGID_00000115494848730473736350000005274446231680160190_);fill:#646569;}
	.st41{fill:none;stroke:#65656A;stroke-width:3;stroke-miterlimit:10;}
	.st42{fill:#EC8020;}
	.st43{fill:#ED8020;}
	.st44{fill:none;stroke:#65656A;stroke-width:3;stroke-linecap:round;stroke-miterlimit:10;}
	.st45{fill:none;stroke:#646569;stroke-width:10;stroke-linejoin:round;stroke-miterlimit:10;}
	.st46{fill:none;stroke:#646569;stroke-width:10;stroke-miterlimit:10;}
	.st47{fill:none;stroke:#646569;stroke-width:10;stroke-linecap:round;stroke-miterlimit:10;}
	.st48{fill:none;stroke:#65656A;stroke-width:8;stroke-linecap:round;stroke-miterlimit:10;}
	.st49{fill:#FFFFFF;stroke:#65656A;stroke-width:8;stroke-linecap:round;stroke-linejoin:round;stroke-miterlimit:10;}
	.st50{fill:none;stroke:#65656A;stroke-width:8;stroke-miterlimit:10;}
</style>
<g id="Function_-_Central_APIs">
</g>
<g id="Function_-_Central_Route_Orchestrator">
</g>
<g id="Function_-_Central_Tunnel_Orchestrator">
</g>
<g id="Function_-_Central_NetConductor">
</g>
<g id="Function_-_Central_Network_Management">
</g>
<g id="Function_-_Central_Network_Insights">
</g>
<g id="Function_-_Central_Client_Insights">
</g>
<g id="Function_-_ClearPass_Policy_Manager">
</g>
<g id="Function_-_UXI_APIs">
</g>
<g id="Function_-_UXI_Dashboard">
</g>
<g id="Function_-_Orchestrator_Global_Enterprise">
</g>
<g id="Function_-_Orchestrator">
</g>
<g id="Function_-_Pensando_Policy_and_Services_Manager">
</g>
<g id="Function_-_Fabric_Composer">
</g>
<g id="Generic_-_Virtual_Machine">
</g>
<g id="Generic_-_Server_Single">
</g>
<g id="Generic_-_Server_Multi">
</g>
<g id="Generic_-_Router">
</g>
<g id="Generic_-_Firewall">
</g>
<g id="Wi-Fi_Signal">
</g>
<g id="Generic_-_Cloud_Function_Container_Grey">
</g>
<g id="Generic_-_Cloud_Function_Container_White">
</g>
<g id="Generic_-_Cloud_Internet_Circuit">
</g>
<g id="Generic_-_Cloud_Private_Circuit">
</g>
<g id="Generic_-_Cloud">
</g>
<g id="Client_-_IOT_Sensor">
</g>
<g id="Client_-_IOT_IO">
</g>
<g id="Client_-_IOT_PLC">
</g>
<g id="Client_-_IOT_Patient_Monitor">
</g>
<g id="Client_-_IOT_Camera">
</g>
<g id="Client_-_IOT_Scanner">
</g>
<g id="IOT_-_TV_Cast">
</g>
<g id="Client_-_Printer">
</g>
<g id="Client_-_Game_Console">
</g>
<g id="Client_-_IP_Phone">
</g>
<g id="Client_-_Laptop">
</g>
<g id="Client_-_Desktop">
</g>
<g id="Client_-_Workstation">
</g>
<g id="Client_-_Tablet">
</g>
<g id="Client_-_Mobile_2">
</g>
<g id="Client_-_Mobile_1">
	<g>
		<path id="Background_00000147929876752365086870000013193775843302957963_" class="st0" d="M321.3,477H188.7
			c-40.1,0-72.6-32.5-72.6-72.6V93.6c0-40.1,32.5-72.6,72.6-72.6h132.6c40.1,0,72.6,32.5,72.6,72.6v310.7
			C394,444.5,361.5,477,321.3,477z"/>
		<g>
			<path class="st8" d="M270.1,416.5c0,8.5-6.9,15.3-15.4,15.3c-8.4,0-15.3-6.8-15.3-15.3c0-8.5,6.9-15.4,15.3-15.4
				C263.3,401.2,270.1,408,270.1,416.5z"/>
		</g>
		<g>
			<path class="st8" d="M329,485H180.6c-39.9,0-72.3-34.4-72.3-76.6V89.2c0-41.6,31.8-74.2,72.3-74.2H329
				c40.2,0,71.7,32.6,71.7,74.2v186.9c0,4.3-3.5,7.8-7.8,7.8c-4.3,0-7.8-3.5-7.8-7.8V89.2c0-32.8-24.6-58.5-56.1-58.5H180.6
				c-31.8,0-56.6,25.7-56.6,58.5v319.2c0,33.6,25.4,60.9,56.6,60.9H329c30.9,0,56.1-27.3,56.1-60.9V344c0-4.3,3.5-7.8,7.8-7.8
				c4.3,0,7.8,3.5,7.8,7.8v64.4C400.7,450.6,368.5,485,329,485z"/>
		</g>
		<g>
			<path class="st8" d="M280.6,88.1h-52.2c-4.3,0-7.8-3.5-7.8-7.8c0-4.3,3.5-7.8,7.8-7.8h52.2c4.3,0,7.8,3.5,7.8,7.8
				C288.5,84.6,285,88.1,280.6,88.1z"/>
		</g>
		<g>
			<path class="st8" d="M207.5,427.5H171c-4.3,0-7.8-3.5-7.8-7.8s3.5-7.8,7.8-7.8h36.6c4.3,0,7.8,3.5,7.8,7.8
				S211.8,427.5,207.5,427.5z"/>
		</g>
		<g>
			<path class="st8" d="M338.1,427.5h-36.6c-4.3,0-7.8-3.5-7.8-7.8s3.5-7.8,7.8-7.8h36.6c4.3,0,7.8,3.5,7.8,7.8
				S342.4,427.5,338.1,427.5z"/>
		</g>
	</g>
</g>
<g id="Device_-_EdgeConnect_Enterprise_Cloud">
</g>
<g id="Device_-_EdgeConnect_Enterprise_Virtual">
</g>
<g id="Device_-_EdgeConnect_Enterprise_Appliance">
</g>
<g id="Device_-_Core_Agg_Leaf_Switch">
</g>
<g id="Device_-_Access_Switch">
</g>
<g id="Device_-_Gateway_Headend">
</g>
<g id="Device_-_Gateway_Branch">
</g>
<g id="Device_-_Gateway_Campus">
</g>
<g id="Device_-_UXI_Sensor_New">
</g>
<g id="Device_-_UXI_Sensor">
</g>
<g id="Device_-_AP500_Series_Microbranch">
</g>
<g id="Device_-_AP600_Series">
</g>
<g id="Device_-_AP500_Series">
</g>
<g id="Device_-_Outdoor_AP">
</g>
</svg>
