<?xml version="1.0" encoding="utf-8"?>
<!-- Generator: Adobe Illustrator 26.3.1, SVG Export Plug-In . SVG Version: 6.00 Build 0)  -->
<svg version="1.1" xmlns="http://www.w3.org/2000/svg" xmlns:xlink="http://www.w3.org/1999/xlink" x="0px" y="0px"
	 viewBox="0 0 500 500" style="enable-background:new 0 0 500 500;" xml:space="preserve">
<style type="text/css">
	.st0{fill:#FFFFFF;}
	.st1{fill:#FF8300;}
	.st2{fill:#F78200;}
	.st3{fill:#F7931E;}
	.st4{fill:#5D5D5D;}
	.st5{fill:#FFFFFF;stroke:#65656A;stroke-width:12;stroke-miterlimit:10;}
	.st6{display:none;fill:#979797;stroke:#979797;stroke-width:3;stroke-linecap:round;stroke-linejoin:round;stroke-miterlimit:10;}
	.st7{fill:#979797;}
	.st8{fill:#65656A;}
	.st9{stroke:#009245;stroke-width:3;stroke-miterlimit:10;}
	.st10{fill:#F58220;}
	.st11{clip-path:url(#SVGID_00000000209489376079689090000004635670499271787454_);fill:#5E5E5E;}
	.st12{clip-path:url(#SVGID_00000042012868216513101870000003372490657601244295_);fill:#FFFFFF;}
	.st13{clip-path:url(#SVGID_00000150784380463277639680000012063868577106521249_);fill:#FFFFFF;}
	.st14{clip-path:url(#SVGID_00000150784380463277639680000012063868577106521249_);fill:#FF8300;}
	.st15{clip-path:url(#SVGID_00000090277191970521695740000015681579068728446352_);fill:#FFFFFF;}
	.st16{clip-path:url(#SVGID_00000090277191970521695740000015681579068728446352_);fill:#ADE1F0;}
	.st17{clip-path:url(#SVGID_00000083770966011123380120000001323286462102945955_);fill:#65656A;}
	.st18{clip-path:url(#SVGID_00000083770966011123380120000001323286462102945955_);fill:#646569;}
	.st19{clip-path:url(#SVGID_00000083770966011123380120000001323286462102945955_);fill:#D0D0D2;}
	.st20{clip-path:url(#SVGID_00000131325761445428201810000006406190426792022179_);fill:#FFFFFF;}
	.st21{clip-path:url(#SVGID_00000131325761445428201810000006406190426792022179_);fill:#646569;}
	.st22{clip-path:url(#SVGID_00000131325761445428201810000006406190426792022179_);fill:#65656A;}
	
		.st23{clip-path:url(#SVGID_00000181059873203794104250000017439125633471158201_);fill:#FFFFFF;stroke:#000000;stroke-miterlimit:10;}
	.st24{clip-path:url(#SVGID_00000181059873203794104250000017439125633471158201_);fill:#646569;}
	.st25{clip-path:url(#SVGID_00000181059873203794104250000017439125633471158201_);fill:#65656A;}
	
		.st26{clip-path:url(#SVGID_00000181059873203794104250000017439125633471158201_);fill:none;stroke:#65656A;stroke-width:0.1925;stroke-linecap:round;stroke-linejoin:round;stroke-miterlimit:10;}
	.st27{clip-path:url(#SVGID_00000140005841673851415270000012754463401320722857_);fill:#FFFFFF;}
	.st28{clip-path:url(#SVGID_00000140005841673851415270000012754463401320722857_);fill:#65656A;}
	.st29{clip-path:url(#SVGID_00000140005841673851415270000012754463401320722857_);fill:#646569;}
	.st30{clip-path:url(#SVGID_00000116214212890624415150000015705038083224674956_);fill:#FFFFFF;}
	.st31{clip-path:url(#SVGID_00000116214212890624415150000015705038083224674956_);fill:#646569;}
	.st32{clip-path:url(#SVGID_00000106853139272155334250000008984859765243520186_);fill:#FFFFFF;}
	.st33{clip-path:url(#SVGID_00000106853139272155334250000008984859765243520186_);fill:#65656A;}
	.st34{clip-path:url(#SVGID_00000106853139272155334250000008984859765243520186_);fill:#646569;}
	.st35{fill:#646569;}
	.st36{clip-path:url(#SVGID_00000165193518984573732980000015863380505640707490_);fill:#FFFFFF;}
	.st37{clip-path:url(#SVGID_00000165193518984573732980000015863380505640707490_);fill:#65666A;}
	
		.st38{clip-path:url(#SVGID_00000165193518984573732980000015863380505640707490_);fill:none;stroke:#65666A;stroke-width:0.1748;stroke-miterlimit:10;}
	.st39{clip-path:url(#SVGID_00000129886092851130403860000013290695455431358887_);fill:#FFFFFF;}
	.st40{clip-path:url(#SVGID_00000129886092851130403860000013290695455431358887_);fill:#646569;}
	.st41{fill:none;stroke:#65656A;stroke-width:3;stroke-miterlimit:10;}
	.st42{fill:#EC8020;}
	.st43{fill:#ED8020;}
	.st44{fill:none;stroke:#65656A;stroke-width:3;stroke-linecap:round;stroke-miterlimit:10;}
	.st45{fill:none;stroke:#646569;stroke-width:10;stroke-linejoin:round;stroke-miterlimit:10;}
	.st46{fill:none;stroke:#646569;stroke-width:10;stroke-miterlimit:10;}
	.st47{fill:none;stroke:#646569;stroke-width:10;stroke-linecap:round;stroke-miterlimit:10;}
	.st48{fill:none;stroke:#65656A;stroke-width:8;stroke-linecap:round;stroke-miterlimit:10;}
	.st49{fill:#FFFFFF;stroke:#65656A;stroke-width:8;stroke-linecap:round;stroke-linejoin:round;stroke-miterlimit:10;}
	.st50{fill:none;stroke:#65656A;stroke-width:8;stroke-miterlimit:10;}
</style>
<g id="Function_-_Central_APIs">
</g>
<g id="Function_-_Central_Route_Orchestrator">
</g>
<g id="Function_-_Central_Tunnel_Orchestrator">
</g>
<g id="Function_-_Central_NetConductor">
</g>
<g id="Function_-_Central_Network_Management">
</g>
<g id="Function_-_Central_Network_Insights">
</g>
<g id="Function_-_Central_Client_Insights">
</g>
<g id="Function_-_ClearPass_Policy_Manager">
</g>
<g id="Function_-_UXI_APIs">
</g>
<g id="Function_-_UXI_Dashboard">
</g>
<g id="Function_-_Orchestrator_Global_Enterprise">
</g>
<g id="Function_-_Orchestrator">
</g>
<g id="Function_-_Pensando_Policy_and_Services_Manager">
</g>
<g id="Function_-_Fabric_Composer">
</g>
<g id="Generic_-_Virtual_Machine">
</g>
<g id="Generic_-_Server_Single">
</g>
<g id="Generic_-_Server_Multi">
</g>
<g id="Generic_-_Router">
</g>
<g id="Generic_-_Firewall">
</g>
<g id="Wi-Fi_Signal">
</g>
<g id="Generic_-_Cloud_Function_Container_Grey">
</g>
<g id="Generic_-_Cloud_Function_Container_White">
</g>
<g id="Generic_-_Cloud_Internet_Circuit">
</g>
<g id="Generic_-_Cloud_Private_Circuit">
</g>
<g id="Generic_-_Cloud">
</g>
<g id="Client_-_IOT_Sensor">
	<circle class="st0" cx="253.4" cy="180.2" r="66.3"/>
	<path class="st0" d="M369.9,414.9H128.2c-3.5,0-6.4-2.9-6.4-6.4v-13c0-3.5,2.9-6.4,6.4-6.4h241.7c3.5,0,6.4,2.9,6.4,6.4v13
		C376.3,412.1,373.4,414.9,369.9,414.9z"/>
	<path class="st0" d="M344.6,423.5H154.2c-3.5,0-6.4-2.9-6.4-6.4v-13c0-3.5,2.9-6.4,6.4-6.4h190.3c3.5,0,6.4,2.9,6.4,6.4v13
		C350.9,420.6,348.1,423.5,344.6,423.5z"/>
	<path class="st0" d="M296.1,394.6h-90c-3.5,0-6.4-2.9-6.4-6.4v-119c0-3.5,2.9-6.4,6.4-6.4h90c3.5,0,6.4,2.9,6.4,6.4v119
		C302.5,391.7,299.6,394.6,296.1,394.6z"/>
	<path class="st0" d="M277.1,315.9h-51.8c-3.5,0-6.4-2.9-6.4-6.4v-119c0-3.5,2.9-6.4,6.4-6.4h51.8c3.5,0,6.4,2.9,6.4,6.4v119
		C283.5,313,280.6,315.9,277.1,315.9z"/>
	<path class="st0" d="M228.6,168.4h-51.8c-3.5,0-6.4-2.9-6.4-6.4v-26.7c0-3.5,2.9-6.4,6.4-6.4h51.8c3.5,0,6.4,2.9,6.4,6.4V162
		C235,165.5,232.2,168.4,228.6,168.4z"/>
	<path class="st0" d="M318.3,395.2H183.7c-10.4,0-18.9-8.4-18.9-18.9v-28.8c0-10.4,8.4-18.9,18.9-18.9h134.6
		c10.4,0,18.9,8.4,18.9,18.9v28.8C337.2,386.8,328.7,395.2,318.3,395.2z"/>
	<path class="st0" d="M306.4,350.9H195.8c-8.6,0-15.5-7-15.5-15.5v0c0-8.6,7-15.5,15.5-15.5h110.6c8.6,0,15.5,7,15.5,15.5v0
		C321.9,344,315,350.9,306.4,350.9z"/>
	<path class="st0" d="M326.2,148.2l-35.7,31.2c-3.6,3.1-9,2.8-12.1-0.8l-14.9-17.1c-3.1-3.6-2.8-9,0.8-12.1l35.7-31.2
		c3.6-3.1,9-2.8,12.1,0.8L327,136C330.2,139.6,329.8,145,326.2,148.2z"/>
	<path class="st0" d="M301.4,157.6H254c-4.8,0-8.6-3.9-8.6-8.6v-22.7c0-4.8,3.9-8.6,8.6-8.6h47.4c4.8,0,8.6,3.9,8.6,8.6V149
		C310,153.8,306.1,157.6,301.4,157.6z"/>
	<g>
		<defs>
			<rect id="SVGID_00000145781261405205197770000008522029548942117542_" x="82.1" y="7.3" width="343.6" height="474.6"/>
		</defs>
		<clipPath id="SVGID_00000098193504676618419910000017502210206912000906_">
			<use xlink:href="#SVGID_00000145781261405205197770000008522029548942117542_"  style="overflow:visible;"/>
		</clipPath>
		<path style="clip-path:url(#SVGID_00000098193504676618419910000017502210206912000906_);fill:#65656A;" d="M309,122.1
			c0-0.3-2.2-0.4-2.2-0.7c3.6-101.9,3.6-101.9,3.6-101.9c0-2.4,2-3.2,4.3-3.2c6.5,0,6.5,0,6.5,0c2.4,0,4.3,0.8,4.3,3.1
			c4.3,121,4.3,121,4.3,121c0,2.4-0.4,3.8-2.8,3.8c-5.5-10-5.5-10-5.5-10L309,122.1z"/>
		<path style="clip-path:url(#SVGID_00000098193504676618419910000017502210206912000906_);fill:#65656A;" d="M325.5,17.7
			c0,4.2-3.4,7.6-7.6,7.6c-4.2,0-7.6-3.4-7.6-7.6c0-4.1,3.4-7.4,7.6-7.4C322.2,10.2,325.5,13.6,325.5,17.7z"/>
		<path style="clip-path:url(#SVGID_00000098193504676618419910000017502210206912000906_);fill:#646569;" d="M184.5,169.6
			c-10.2,0-10.2,0-10.2,0c-4.2,0-8-5.8-8-9.4c0-28.1,0-28.1,0-28.1c0-1.7,0.7-2.7,1.3-3.2c1.5-1.5,3.9-1.5,5.7-1.4c1,0,1,0,1,0
			c32.7,0,32.7,0,32.7,0c1.5,0,2.8,1.3,2.8,2.8c0,1.5-1.3,2.8-2.8,2.8c-32.7,0-32.7,0-32.7,0c-0.3,0-0.7,0-1.1,0
			c-0.3,0-0.8-0.1-1.3-0.1c0,27.2,0,27.2,0,27.2c0,1.1,1.7,3.5,2.5,3.8c10.1,0,10.1,0,10.1,0c1.5,0,2.8,1.3,2.8,2.8
			C187.3,168.3,186.1,169.6,184.5,169.6z"/>
		<path style="clip-path:url(#SVGID_00000098193504676618419910000017502210206912000906_);fill:#65656A;" d="M154.9,159.7
			c-1.5,0-2.8-1.3-2.8-2.8c0-22.5,0-22.5,0-22.5c0-1.6,1.3-2.8,2.8-2.8c1.7,0,2.9,1.3,2.9,2.8c0,22.5,0,22.5,0,22.5
			C157.9,158.5,156.6,159.7,154.9,159.7z"/>
		<path style="clip-path:url(#SVGID_00000098193504676618419910000017502210206912000906_);fill:#65656A;" d="M250.9,146
			c-0.1,0-0.3,0-0.3,0.1c-34.4,34.3-34.4,34.3-34.4,34.3c-0.1,0.3-0.1,0.6,0,0.7c34.4,34.3,34.4,34.3,34.4,34.3
			c0.1,0.1,0.4,0.1,0.6,0c34.2-34.3,34.2-34.3,34.2-34.3c0.3-0.1,0.3-0.4,0-0.7c-34.2-34.3-34.2-34.3-34.2-34.3
			C251,146,251,146,250.9,146z M250.9,221.1c-1.6,0-3.1-0.6-4.4-1.7C212.3,185,212.3,185,212.3,185c-2.4-2.4-2.4-6.2,0-8.6
			c34.2-34.3,34.2-34.3,34.2-34.3c2.4-2.4,6.3-2.4,8.6,0c34.4,34.3,34.4,34.3,34.4,34.3c2.4,2.4,2.4,6.2,0,8.6
			c-34.4,34.4-34.4,34.4-34.4,34.4C254,220.5,252.4,221.1,250.9,221.1z"/>
		<path style="clip-path:url(#SVGID_00000098193504676618419910000017502210206912000906_);fill:#D0D0D2;" d="M250.9,146
			c-0.1,0-0.3,0-0.3,0.1c-34.4,34.3-34.4,34.3-34.4,34.3c-0.1,0.3-0.1,0.6,0,0.7c34.4,34.3,34.4,34.3,34.4,34.3
			c0,0.1,0.1,0.1,0.3,0.1c0.1,0,0.1,0,0.3-0.1c34.2-34.3,34.2-34.3,34.2-34.3c0.3-0.1,0.3-0.4,0-0.7c-34.2-34.3-34.2-34.3-34.2-34.3
			C251,146,251,146,250.9,146z"/>
		<path style="clip-path:url(#SVGID_00000098193504676618419910000017502210206912000906_);fill:#65656A;" d="M250.9,143.2
			c-0.9,0-1.7,0.3-2.4,1c-34.2,34.3-34.2,34.3-34.2,34.3c-1.3,1.3-1.3,3.4,0,4.6c34.2,34.3,34.2,34.3,34.2,34.3c0.7,0.7,1.5,1,2.4,1
			c0.8,0,1.7-0.3,2.2-1c34.4-34.3,34.4-34.3,34.4-34.3c1.3-1.3,1.3-3.4,0-4.6c-34.4-34.3-34.4-34.3-34.4-34.3
			C252.6,143.5,251.7,143.2,250.9,143.2z M250.9,215.5c-0.1,0-0.3,0-0.3-0.1c-34.4-34.3-34.4-34.3-34.4-34.3c-0.1-0.1-0.1-0.4,0-0.7
			c34.4-34.3,34.4-34.3,34.4-34.3c0-0.1,0.1-0.1,0.3-0.1c0.1,0,0.1,0,0.3,0.1c34.2,34.3,34.2,34.3,34.2,34.3c0.3,0.3,0.3,0.6,0,0.7
			c-34.2,34.3-34.2,34.3-34.2,34.3C251,215.5,251,215.5,250.9,215.5z"/>
		<path style="clip-path:url(#SVGID_00000098193504676618419910000017502210206912000906_);fill:#646569;" d="M315.4,159.2
			c-0.7,0-1.5-0.3-2.1-0.8c-1-1.1-1-2.9,0.1-3.9c12.2-11.4,12.2-11.4,12.2-11.4c0.3-0.3,0.6-0.8,0.6-1.3c0-0.4-0.1-0.8-0.3-1.1
			c-11.4-14-11.4-14-11.4-14c-3.1-3.2-3.1-3.2-3.1-3.2c-1.8-1.7-3.6-1.7-5.8-1.5c-0.7,0-0.7,0-0.7,0c-25,0-25,0-25,0
			c-1.5,0-2.8-1.3-2.8-2.8c0-1.7,1.3-2.8,2.8-2.8c25.7-0.1,25.7-0.1,25.7-0.1c2.4,0,6.2,0,9.7,3.4c3.2,3.2,3.2,3.2,3.2,3.2
			c0.1,0.1,0.1,0.1,0.3,0.3c11.2,14,11.2,14,11.2,14c1.3,1.3,1.8,3.2,1.7,5.2c-0.1,2-1,3.8-2.4,5.1c-12.1,11.2-12.1,11.2-12.1,11.2
			C316.8,159,316.1,159.2,315.4,159.2z"/>
		
			<rect x="214" y="235.7" style="clip-path:url(#SVGID_00000098193504676618419910000017502210206912000906_);fill:#646569;" width="5.6" height="28.1"/>
		<path style="clip-path:url(#SVGID_00000098193504676618419910000017502210206912000906_);fill:#646569;" d="M284.3,263.7
			c-1.5,0-2.8-1.1-2.8-2.8c0-19.6,0-19.6,0-19.6c0-1.6,1.3-2.8,2.8-2.8c1.5,0,2.8,1.3,2.8,2.8c0,19.6,0,19.6,0,19.6
			C287.1,262.6,285.8,263.7,284.3,263.7z"/>
		<path style="clip-path:url(#SVGID_00000098193504676618419910000017502210206912000906_);fill:#65656A;" d="M306.9,317.2
			c-5.8,0-5.8,0-5.8,0c0-42.5,0-42.5,0-42.5c0-3.5-1-9.5-8-9.5c-82.1,0-82.1,0-82.1,0c-5.3,0-11.1,3.9-11.1,9.5
			c0,42.5,0,42.5,0,42.5c-5.6,0-5.6,0-5.6,0c0-42.5,0-42.5,0-42.5c0-8.3,7.4-15.2,16.7-15.2c82.1,0,82.1,0,82.1,0
			c8.3,0,13.7,6,13.7,15.2V317.2z"/>
		
			<rect x="198.5" y="284.9" style="clip-path:url(#SVGID_00000098193504676618419910000017502210206912000906_);fill:#65656A;" width="104" height="5.6"/>
		<path style="clip-path:url(#SVGID_00000098193504676618419910000017502210206912000906_);fill:#65656A;" d="M257.6,394.6
			c-84.6,0-84.6,0-84.6,0c-6,0-12.3-6.3-12.3-12.4c0-38.6,0-38.6,0-38.6c0-4.2,3.1-6.7,5.6-8.8c29.6-21.2,29.6-21.2,29.6-21.2
			c0.4-0.4,1-0.6,1.7-0.6c62.8,0,62.8,0,62.8,0c1.5,0,2.8,1.3,2.8,2.8c0,1.5-1.3,2.8-2.8,2.8c-62,0-62,0-62,0
			c-28.6,20.6-28.6,20.6-28.6,20.6c-2.1,1.7-3.5,2.9-3.5,4.3c0,38.6,0,38.6,0,38.6c0,2.9,3.8,6.7,6.7,6.7c84.6,0,84.6,0,84.6,0
			c1.5,0,2.8,1.3,2.8,2.8C260.4,393.3,259.2,394.6,257.6,394.6z"/>
		<path style="clip-path:url(#SVGID_00000098193504676618419910000017502210206912000906_);fill:#65656A;" d="M329.4,394.6
			c-85.9,0-85.9,0-85.9,0c-1.5,0-2.8-1.3-2.8-2.8c0-1.5,1.3-2.8,2.8-2.8c85.9,0,85.9,0,85.9,0c2.9,0,5.5-3.8,5.5-6.7
			c0-38.6,0-38.6,0-38.6c0-1.5-0.9-2.7-3-4.5C304,318.6,304,318.6,304,318.6c-63.3,0-63.3,0-63.3,0c-1.5,0-2.8-1.3-2.8-2.8
			c0-1.5,1.3-2.8,2.8-2.8c64.3,0,64.3,0,64.3,0c0.6,0,1.1,0.3,1.7,0.6c28.6,21.1,28.6,21.1,28.6,21.1c2.7,2.1,5.2,4.8,5.2,9
			c0,38.6,0,38.6,0,38.6C340.5,388,335.8,394.6,329.4,394.6z"/>
		<path style="clip-path:url(#SVGID_00000098193504676618419910000017502210206912000906_);fill:#65656A;" d="M213.7,370.8
			c0,3.7-2.8,6.6-6.5,6.6c-3.5,0-6.4-2.9-6.4-6.6c0-3.5,2.9-6.5,6.4-6.5C210.9,364.4,213.7,367.3,213.7,370.8z"/>
		<path style="clip-path:url(#SVGID_00000098193504676618419910000017502210206912000906_);fill:#65656A;" d="M235.3,370.8
			c0,3.7-2.8,6.6-6.4,6.6c-3.5,0-6.5-2.9-6.5-6.6c0-3.5,3-6.5,6.5-6.5C232.5,364.4,235.3,367.3,235.3,370.8z"/>
		<path style="clip-path:url(#SVGID_00000098193504676618419910000017502210206912000906_);fill:#65656A;" d="M256.9,370.8
			c0,3.7-2.9,6.6-6.5,6.6c-3.6,0-6.4-2.9-6.4-6.6c0-3.5,2.8-6.5,6.4-6.5C254,364.4,256.9,367.3,256.9,370.8z"/>
		<path style="clip-path:url(#SVGID_00000098193504676618419910000017502210206912000906_);fill:#65656A;" d="M278.5,370.8
			c0,3.7-3,6.6-6.5,6.6c-3.6,0-6.4-2.9-6.4-6.6c0-3.5,2.8-6.5,6.4-6.5C275.6,364.4,278.5,367.3,278.5,370.8z"/>
		<path style="clip-path:url(#SVGID_00000098193504676618419910000017502210206912000906_);fill:#65656A;" d="M300.1,370.8
			c0,3.7-2.9,6.6-6.4,6.6c-3.7,0-6.5-2.9-6.5-6.6c0-3.5,2.8-6.5,6.5-6.5C297.2,364.4,300.1,367.3,300.1,370.8z"/>
		<path style="clip-path:url(#SVGID_00000098193504676618419910000017502210206912000906_);fill:#65656A;" d="M250.9,143.9
			c-0.1,0-0.3,0-0.3,0.1c-34.4,34.3-34.4,34.3-34.4,34.3c-0.1,0.1-0.1,0.4,0,0.6c34.4,34.4,34.4,34.4,34.4,34.4
			c0.1,0.1,0.4,0.1,0.6,0c34.2-34.4,34.2-34.4,34.2-34.4c0.3-0.1,0.3-0.4,0-0.6C251.2,144,251.2,144,251.2,144
			C251,143.9,251,143.9,250.9,143.9z M253.1,215.2 M250.9,219c-1.6,0-3.1-0.6-4.4-1.8c-34.2-34.3-34.2-34.3-34.2-34.3
			c-2.4-2.4-2.4-6.2,0-8.6c34.2-34.4,34.2-34.4,34.2-34.4c2.4-2.2,6.3-2.2,8.6,0c34.4,34.4,34.4,34.4,34.4,34.4
			c2.4,2.4,2.4,6.2,0,8.6c-34.4,34.3-34.4,34.3-34.4,34.3C254,218.4,252.4,219,250.9,219z"/>
		<path style="clip-path:url(#SVGID_00000098193504676618419910000017502210206912000906_);fill:#646569;" d="M250.9,143.6
			c-20.5,0-37.2,16.7-37.2,37.2s16.7,37.1,37.2,37.1c20.5,0,37.2-16.6,37.2-37.1S271.4,143.6,250.9,143.6z M250.9,223.5
			c-23.6,0-42.8-19.1-42.8-42.7c0-23.6,19.2-42.8,42.8-42.8c23.6,0,42.8,19.2,42.8,42.8C293.7,204.4,274.4,223.5,250.9,223.5z
			 M252.1,116.5c-35.5,0-64.3,28.9-64.3,64.3c0,35.4,28.8,64.1,64.3,64.1c35.3,0,64.1-28.8,64.1-64.1
			C316.3,145.4,287.5,116.5,252.1,116.5z M252.1,250.6c-38.6,0-69.9-31.3-69.9-69.8c0-38.6,31.3-69.9,69.9-69.9
			c38.4,0,69.7,31.3,69.7,69.9C321.9,219.3,290.6,250.6,252.1,250.6z"/>
		<path style="clip-path:url(#SVGID_00000098193504676618419910000017502210206912000906_);fill:#65656A;" d="M200.2,355.3
			c-18.5,0-18.5,0-18.5,0c-1.6,0-2.8-1.3-2.8-2.8c0-1.5,1.3-2.8,2.8-2.8c18.5,0,18.5,0,18.5,0c2,0,4.6-2.7,4.6-4.8c0-15,0-15,0-15
			c0-1.7,1.3-2.9,2.8-2.9c1.6,0,2.8,1.3,2.8,2.8c0,15.2,0,15.2,0,15.2C210.5,350.1,205.3,355.3,200.2,355.3z"/>
		<path style="clip-path:url(#SVGID_00000098193504676618419910000017502210206912000906_);fill:#65656A;" d="M319.5,355.3
			c-17.8,0-17.8,0-17.8,0c-5.2,0-10.5-5.2-10.5-10.4c-0.1-15-0.1-15-0.1-15c0-1.5,1.3-2.8,2.8-2.9c1.5,0,2.8,1.3,2.8,2.8
			c0.1,15.2,0.1,15.2,0.1,15.2c0,2,2.8,4.8,4.9,4.8c17.8,0,17.8,0,17.8,0c1.6,0,2.8,1.3,2.8,2.8C322.3,354,321,355.3,319.5,355.3z"
			/>
		<path style="clip-path:url(#SVGID_00000098193504676618419910000017502210206912000906_);fill:#65656A;" d="M187.3,374.1
			c0,1.3-1,2.2-2.1,2.2c-4.2,0-4.2,0-4.2,0c-1.1,0-2.1-1-2.1-2.2c0-9.7,0-9.7,0-9.7c0-1.1,1-2.1,2.1-2.1c4.2,0,4.2,0,4.2,0
			c1.1,0,2.1,1,2.1,2.1V374.1z"/>
		<path style="clip-path:url(#SVGID_00000098193504676618419910000017502210206912000906_);fill:#65656A;" d="M322.3,374.1
			c0,1.3-1,2.2-2.3,2.2c-4.1,0-4.1,0-4.1,0c-1.3,0-2.1-1-2.1-2.2c0-9.7,0-9.7,0-9.7c0-1.1,0.8-2.1,2.1-2.1c4.1,0,4.1,0,4.1,0
			c1.3,0,2.3,1,2.3,2.1V374.1z"/>
		<path style="clip-path:url(#SVGID_00000098193504676618419910000017502210206912000906_);fill:#65656A;" d="M149.3,408.6
			c0,11.4,0,11.4,0,11.4c199.7,0,199.7,0,199.7,0c0-11.4,0-11.4,0-11.4H149.3z M348.9,425.6c-199.7,0-199.7,0-199.7,0
			c-3.1,0-5.6-2.5-5.6-5.6c0-11.4,0-11.4,0-11.4c0-3.1,2.5-5.6,5.6-5.6c199.7,0,199.7,0,199.7,0c3.1,0,5.6,2.5,5.6,5.6
			c0,11.4,0,11.4,0,11.4C354.6,423.1,352,425.6,348.9,425.6z"/>
		<path style="clip-path:url(#SVGID_00000098193504676618419910000017502210206912000906_);fill:#65656A;" d="M190.1,441
			c0,1.5-1.3,2.8-2.8,2.8c-16.8,0-16.8,0-16.8,0c-1.5,0-2.8-1.3-2.8-2.8c0-5.6,0-5.6,0-5.6c0-1.5,1.3-2.8,2.8-2.8
			c16.8,0,16.8,0,16.8,0c1.5,0,2.8,1.3,2.8,2.8V441z"/>
		<path style="clip-path:url(#SVGID_00000098193504676618419910000017502210206912000906_);fill:#65656A;" d="M336.3,441
			c0,1.5-1.3,2.8-2.8,2.8c-16.8,0-16.8,0-16.8,0c-1.5,0-2.8-1.3-2.8-2.8c0-5.6,0-5.6,0-5.6c0-1.5,1.3-2.8,2.8-2.8
			c16.8,0,16.8,0,16.8,0c1.6,0,2.8,1.3,2.8,2.8V441z"/>
		<path style="clip-path:url(#SVGID_00000098193504676618419910000017502210206912000906_);fill:#65656A;" d="M133.9,417.2
			c-8.4,0-8.4,0-8.4,0c-3.1,0-7-4.1-7-7.2c0-19.6,0-19.6,0-19.6c0-1,0.4-2,1.1-2.8c1.5-1.4,3.8-1.4,5.5-1.4c0.4,0,0.4,0,0.4,0
			c22.4,0,22.4,0,22.4,0c1.5,0,2.8,1.3,2.8,2.8c0,1.5-1.3,2.8-2.8,2.8c-22.9,0-22.9,0-22.9,0c-0.3,0-0.6,0-1,0c0,18.1,0,18.1,0,18.1
			c0.3,0.6,1.1,1.4,1.7,1.5c8.1,0,8.1,0,8.1,0c1.5,0,2.8,1.3,2.8,2.8C136.7,415.9,135.4,417.2,133.9,417.2z"/>
		<path style="clip-path:url(#SVGID_00000098193504676618419910000017502210206912000906_);fill:#65656A;" d="M111.4,405.1
			c0,1.3-1,2.1-2.1,2.1c-4.2,0-4.2,0-4.2,0c-1.1,0-2.1-0.8-2.1-2.1c0-9.8,0-9.8,0-9.8c0-1.1,1-2.1,2.1-2.1c4.2,0,4.2,0,4.2,0
			c1.1,0,2.1,1,2.1,2.1V405.1z"/>
		<path style="clip-path:url(#SVGID_00000098193504676618419910000017502210206912000906_);fill:#65656A;" d="M374.3,409.7
			 M372.8,417.2c-8.4,0-8.4,0-8.4,0c-1.5,0-2.8-1.3-2.8-2.9c0-1.6,1.3-2.8,2.8-2.8c8.3,0,8.3,0,8.3,0c0.6-0.1,1.4-1,1.5-1.5
			c0-18.1,0-18.1,0-18.1c-0.3,0-0.7,0-1,0c-0.4,0-0.4,0-0.4,0c-22.4,0-22.4,0-22.4,0c-1.5,0-2.8-1.3-2.8-2.8c0-1.5,1.3-2.8,2.8-2.8
			c22.9,0,22.9,0,22.9,0c1.7,0,4.1,0,5.5,1.4c0.8,0.8,1.1,1.8,1.1,2.8c0,19.6,0,19.6,0,19.6C379.8,413.1,375.9,417.2,372.8,417.2z"
			/>
		<path style="clip-path:url(#SVGID_00000098193504676618419910000017502210206912000906_);fill:#65656A;" d="M395.4,395.3
			c0-1.1-1-2.1-2.1-2.1c-4.2,0-4.2,0-4.2,0c-1.3,0-2.1,1-2.1,2.1c0,9.8,0,9.8,0,9.8c0,1.3,0.8,2.1,2.1,2.1c4.2,0,4.2,0,4.2,0
			c1.1,0,2.1-0.8,2.1-2.1V395.3z"/>
	</g>
</g>
<g id="Client_-_IOT_IO">
</g>
<g id="Client_-_IOT_PLC">
</g>
<g id="Client_-_IOT_Patient_Monitor">
</g>
<g id="Client_-_IOT_Camera">
</g>
<g id="Client_-_IOT_Scanner">
</g>
<g id="IOT_-_TV_Cast">
</g>
<g id="Client_-_Printer">
</g>
<g id="Client_-_Game_Console">
</g>
<g id="Client_-_IP_Phone">
</g>
<g id="Client_-_Laptop">
</g>
<g id="Client_-_Desktop">
</g>
<g id="Client_-_Workstation">
</g>
<g id="Client_-_Tablet">
</g>
<g id="Client_-_Mobile_2">
</g>
<g id="Client_-_Mobile_1">
</g>
<g id="Device_-_EdgeConnect_Enterprise_Cloud">
</g>
<g id="Device_-_EdgeConnect_Enterprise_Virtual">
</g>
<g id="Device_-_EdgeConnect_Enterprise_Appliance">
</g>
<g id="Device_-_Core_Agg_Leaf_Switch">
</g>
<g id="Device_-_Access_Switch">
</g>
<g id="Device_-_Gateway_Headend">
</g>
<g id="Device_-_Gateway_Branch">
</g>
<g id="Device_-_Gateway_Campus">
</g>
<g id="Device_-_UXI_Sensor_New">
</g>
<g id="Device_-_UXI_Sensor">
</g>
<g id="Device_-_AP500_Series_Microbranch">
</g>
<g id="Device_-_AP600_Series">
</g>
<g id="Device_-_AP500_Series">
</g>
<g id="Device_-_Outdoor_AP">
</g>
</svg>
