<?xml version="1.0" encoding="utf-8"?>
<!-- Generator: Adobe Illustrator 26.3.1, SVG Export Plug-In . SVG Version: 6.00 Build 0)  -->
<svg version="1.1" xmlns="http://www.w3.org/2000/svg" xmlns:xlink="http://www.w3.org/1999/xlink" x="0px" y="0px"
	 viewBox="0 0 500 500" style="enable-background:new 0 0 500 500;" xml:space="preserve">
<style type="text/css">
	.st0{fill:#FFFFFF;}
	.st1{fill:#FF8300;}
	.st2{fill:#F78200;}
	.st3{fill:#F7931E;}
	.st4{fill:#5D5D5D;}
	.st5{fill:#FFFFFF;stroke:#65656A;stroke-width:12;stroke-miterlimit:10;}
	.st6{display:none;fill:#979797;stroke:#979797;stroke-width:3;stroke-linecap:round;stroke-linejoin:round;stroke-miterlimit:10;}
	.st7{fill:#979797;}
	.st8{fill:#65656A;}
	.st9{stroke:#009245;stroke-width:3;stroke-miterlimit:10;}
	.st10{fill:#F58220;}
	.st11{clip-path:url(#SVGID_00000075130691087692557590000017346023464315209345_);fill:#5E5E5E;}
	.st12{clip-path:url(#SVGID_00000182501448019542726570000008442192923265196970_);fill:#FFFFFF;}
	.st13{clip-path:url(#SVGID_00000132777528720768316070000016167163079704416904_);fill:#FFFFFF;}
	.st14{clip-path:url(#SVGID_00000132777528720768316070000016167163079704416904_);fill:#FF8300;}
	.st15{clip-path:url(#SVGID_00000119806246122708421850000003256089966390562202_);fill:#FFFFFF;}
	.st16{clip-path:url(#SVGID_00000119806246122708421850000003256089966390562202_);fill:#ADE1F0;}
	.st17{clip-path:url(#SVGID_00000034795153977486917660000011181072868191277192_);fill:#65656A;}
	.st18{clip-path:url(#SVGID_00000034795153977486917660000011181072868191277192_);fill:#646569;}
	.st19{clip-path:url(#SVGID_00000034795153977486917660000011181072868191277192_);fill:#D0D0D2;}
	.st20{clip-path:url(#SVGID_00000107554031634474539650000003780689147832671639_);fill:#FFFFFF;}
	.st21{clip-path:url(#SVGID_00000107554031634474539650000003780689147832671639_);fill:#646569;}
	.st22{clip-path:url(#SVGID_00000107554031634474539650000003780689147832671639_);fill:#65656A;}
	
		.st23{clip-path:url(#SVGID_00000021819918345102519360000007168760851462162564_);fill:#FFFFFF;stroke:#000000;stroke-miterlimit:10;}
	.st24{clip-path:url(#SVGID_00000021819918345102519360000007168760851462162564_);fill:#646569;}
	.st25{clip-path:url(#SVGID_00000021819918345102519360000007168760851462162564_);fill:#65656A;}
	
		.st26{clip-path:url(#SVGID_00000021819918345102519360000007168760851462162564_);fill:none;stroke:#65656A;stroke-width:0.1925;stroke-linecap:round;stroke-linejoin:round;stroke-miterlimit:10;}
	.st27{clip-path:url(#SVGID_00000129163558278450070820000010789294139375863453_);fill:#FFFFFF;}
	.st28{clip-path:url(#SVGID_00000129163558278450070820000010789294139375863453_);fill:#65656A;}
	.st29{clip-path:url(#SVGID_00000129163558278450070820000010789294139375863453_);fill:#646569;}
	.st30{clip-path:url(#SVGID_00000145025830660528693940000003895643611241034904_);fill:#FFFFFF;}
	.st31{clip-path:url(#SVGID_00000145025830660528693940000003895643611241034904_);fill:#646569;}
	.st32{clip-path:url(#SVGID_00000007399214171443451420000009686555858960959128_);fill:#FFFFFF;}
	.st33{clip-path:url(#SVGID_00000007399214171443451420000009686555858960959128_);fill:#65656A;}
	.st34{clip-path:url(#SVGID_00000007399214171443451420000009686555858960959128_);fill:#646569;}
	.st35{fill:#646569;}
	.st36{clip-path:url(#SVGID_00000003089207301686777440000002038104579969455235_);fill:#FFFFFF;}
	.st37{clip-path:url(#SVGID_00000003089207301686777440000002038104579969455235_);fill:#65666A;}
	
		.st38{clip-path:url(#SVGID_00000003089207301686777440000002038104579969455235_);fill:none;stroke:#65666A;stroke-width:0.1748;stroke-miterlimit:10;}
	.st39{clip-path:url(#SVGID_00000167375121885226530680000010744075626764716672_);fill:#FFFFFF;}
	.st40{clip-path:url(#SVGID_00000167375121885226530680000010744075626764716672_);fill:#646569;}
	.st41{fill:none;stroke:#65656A;stroke-width:3;stroke-miterlimit:10;}
	.st42{fill:#EC8020;}
	.st43{fill:#ED8020;}
	.st44{fill:none;stroke:#65656A;stroke-width:3;stroke-linecap:round;stroke-miterlimit:10;}
	.st45{fill:none;stroke:#646569;stroke-width:10;stroke-linejoin:round;stroke-miterlimit:10;}
	.st46{fill:none;stroke:#646569;stroke-width:10;stroke-miterlimit:10;}
	.st47{fill:none;stroke:#646569;stroke-width:10;stroke-linecap:round;stroke-miterlimit:10;}
	.st48{fill:none;stroke:#65656A;stroke-width:8;stroke-linecap:round;stroke-miterlimit:10;}
	.st49{fill:#FFFFFF;stroke:#65656A;stroke-width:8;stroke-linecap:round;stroke-linejoin:round;stroke-miterlimit:10;}
	.st50{fill:none;stroke:#65656A;stroke-width:8;stroke-miterlimit:10;}
</style>
<g id="Function_-_Central_APIs">
</g>
<g id="Function_-_Central_Route_Orchestrator">
</g>
<g id="Function_-_Central_Tunnel_Orchestrator">
</g>
<g id="Function_-_Central_NetConductor">
</g>
<g id="Function_-_Central_Network_Management">
</g>
<g id="Function_-_Central_Network_Insights">
</g>
<g id="Function_-_Central_Client_Insights">
</g>
<g id="Function_-_ClearPass_Policy_Manager">
</g>
<g id="Function_-_UXI_APIs">
</g>
<g id="Function_-_UXI_Dashboard">
</g>
<g id="Function_-_Orchestrator_Global_Enterprise">
</g>
<g id="Function_-_Orchestrator">
</g>
<g id="Function_-_Pensando_Policy_and_Services_Manager">
</g>
<g id="Function_-_Fabric_Composer">
</g>
<g id="Generic_-_Virtual_Machine">
</g>
<g id="Generic_-_Server_Single">
</g>
<g id="Generic_-_Server_Multi">
</g>
<g id="Generic_-_Router">
</g>
<g id="Generic_-_Firewall">
</g>
<g id="Wi-Fi_Signal">
</g>
<g id="Generic_-_Cloud_Function_Container_Grey">
</g>
<g id="Generic_-_Cloud_Function_Container_White">
</g>
<g id="Generic_-_Cloud_Internet_Circuit">
</g>
<g id="Generic_-_Cloud_Private_Circuit">
</g>
<g id="Generic_-_Cloud">
</g>
<g id="Client_-_IOT_Sensor">
</g>
<g id="Client_-_IOT_IO">
</g>
<g id="Client_-_IOT_PLC">
</g>
<g id="Client_-_IOT_Patient_Monitor">
</g>
<g id="Client_-_IOT_Camera">
</g>
<g id="Client_-_IOT_Scanner">
</g>
<g id="IOT_-_TV_Cast">
</g>
<g id="Client_-_Printer">
</g>
<g id="Client_-_Game_Console">
</g>
<g id="Client_-_IP_Phone">
</g>
<g id="Client_-_Laptop">
</g>
<g id="Client_-_Desktop">
</g>
<g id="Client_-_Workstation">
</g>
<g id="Client_-_Tablet">
	<g>
		<path id="Background_00000140709677485397894240000001225380020279904167_" class="st0" d="M374.8,478H146.1
			c-25,0-45.2-20.3-45.2-45.2V67.2c0-25,20.3-45.2,45.2-45.2h228.7c25,0,45.2,20.3,45.2,45.2v365.5C420,457.7,399.8,478,374.8,478z"
			/>
		<g>
			<path class="st8" d="M377.7,485H146.2c-28.8,0-53.1-24-53.1-52.4V62.2c0-26.9,22.8-47.2,53.1-47.2h231.5
				c29.2,0,49.6,19.4,49.6,47.2v245.3c0,4.3-3.5,7.8-7.8,7.8s-7.8-3.5-7.8-7.8V62.2c0-19.1-13.3-31.5-33.9-31.5H146.2
				c-18.6,0-37.4,10.8-37.4,31.5v370.4c0,19.5,17.5,36.7,37.4,36.7h231.5c19,0,33.9-16.1,33.9-36.7v-83.4c0-4.3,3.5-7.8,7.8-7.8
				s7.8,3.5,7.8,7.8v83.4C427.3,462,405.5,485,377.7,485z"/>
		</g>
		<g>
			<path class="st8" d="M416.8,411.9H108.7c-4.3,0-7.8-3.5-7.8-7.8s3.5-7.8,7.8-7.8h308.1c4.3,0,7.8,3.5,7.8,7.8
				S421.1,411.9,416.8,411.9z"/>
		</g>
		<g>
			<path class="st8" d="M416.8,103.8H103.5c-4.3,0-7.8-3.5-7.8-7.8c0-4.3,3.5-7.8,7.8-7.8h313.3c4.3,0,7.8,3.5,7.8,7.8
				C424.7,100.3,421.1,103.8,416.8,103.8z"/>
		</g>
		<g>
			<path class="st8" d="M261.9,453.9c-8,0-14.5-6.5-14.5-14.5c0-8,6.5-14.6,14.5-14.6c8,0,14.5,6.5,14.5,14.6
				C276.4,447.3,269.9,453.9,261.9,453.9z M261.9,438.2c-0.6,0-1.1,0.5-1.1,1.1c0,1.2,2.3,1.2,2.3,0
				C263,438.7,262.5,438.2,261.9,438.2z"/>
		</g>
	</g>
</g>
<g id="Client_-_Mobile_2">
</g>
<g id="Client_-_Mobile_1">
</g>
<g id="Device_-_EdgeConnect_Enterprise_Cloud">
</g>
<g id="Device_-_EdgeConnect_Enterprise_Virtual">
</g>
<g id="Device_-_EdgeConnect_Enterprise_Appliance">
</g>
<g id="Device_-_Core_Agg_Leaf_Switch">
</g>
<g id="Device_-_Access_Switch">
</g>
<g id="Device_-_Gateway_Headend">
</g>
<g id="Device_-_Gateway_Branch">
</g>
<g id="Device_-_Gateway_Campus">
</g>
<g id="Device_-_UXI_Sensor_New">
</g>
<g id="Device_-_UXI_Sensor">
</g>
<g id="Device_-_AP500_Series_Microbranch">
</g>
<g id="Device_-_AP600_Series">
</g>
<g id="Device_-_AP500_Series">
</g>
<g id="Device_-_Outdoor_AP">
</g>
</svg>
