<?xml version="1.0" encoding="utf-8"?>
<!-- Generator: Adobe Illustrator 26.3.1, SVG Export Plug-In . SVG Version: 6.00 Build 0)  -->
<svg version="1.1" xmlns="http://www.w3.org/2000/svg" xmlns:xlink="http://www.w3.org/1999/xlink" x="0px" y="0px"
	 viewBox="0 0 500 500" style="enable-background:new 0 0 500 500;" xml:space="preserve">
<style type="text/css">
	.st0{fill:#FFFFFF;}
	.st1{fill:#FF8300;}
	.st2{fill:#F78200;}
	.st3{fill:#F7931E;}
	.st4{fill:#5D5D5D;}
	.st5{fill:#FFFFFF;stroke:#65656A;stroke-width:12;stroke-miterlimit:10;}
	.st6{display:none;fill:#979797;stroke:#979797;stroke-width:3;stroke-linecap:round;stroke-linejoin:round;stroke-miterlimit:10;}
	.st7{fill:#979797;}
	.st8{fill:#65656A;}
	.st9{stroke:#009245;stroke-width:3;stroke-miterlimit:10;}
	.st10{fill:#F58220;}
	.st11{clip-path:url(#SVGID_00000014621296466024249940000010156242880738294441_);fill:#5E5E5E;}
	.st12{clip-path:url(#SVGID_00000138558203649674813290000017793532005548136601_);fill:#FFFFFF;}
	.st13{clip-path:url(#SVGID_00000090259018476669858470000005940384474431928735_);fill:#FFFFFF;}
	.st14{clip-path:url(#SVGID_00000090259018476669858470000005940384474431928735_);fill:#FF8300;}
	.st15{clip-path:url(#SVGID_00000019671271585900232300000008836548243648957092_);fill:#FFFFFF;}
	.st16{clip-path:url(#SVGID_00000019671271585900232300000008836548243648957092_);fill:#ADE1F0;}
	.st17{clip-path:url(#SVGID_00000106114904948775938060000015944054636423272579_);fill:#65656A;}
	.st18{clip-path:url(#SVGID_00000106114904948775938060000015944054636423272579_);fill:#646569;}
	.st19{clip-path:url(#SVGID_00000106114904948775938060000015944054636423272579_);fill:#D0D0D2;}
	.st20{clip-path:url(#SVGID_00000168836667736755385390000001641381969722029961_);fill:#FFFFFF;}
	.st21{clip-path:url(#SVGID_00000168836667736755385390000001641381969722029961_);fill:#646569;}
	.st22{clip-path:url(#SVGID_00000168836667736755385390000001641381969722029961_);fill:#65656A;}
	
		.st23{clip-path:url(#SVGID_00000141414278072564694010000015157907871210181256_);fill:#FFFFFF;stroke:#000000;stroke-miterlimit:10;}
	.st24{clip-path:url(#SVGID_00000141414278072564694010000015157907871210181256_);fill:#646569;}
	.st25{clip-path:url(#SVGID_00000141414278072564694010000015157907871210181256_);fill:#65656A;}
	
		.st26{clip-path:url(#SVGID_00000141414278072564694010000015157907871210181256_);fill:none;stroke:#65656A;stroke-width:0.1925;stroke-linecap:round;stroke-linejoin:round;stroke-miterlimit:10;}
	.st27{clip-path:url(#SVGID_00000170266965059300232090000014780631668923874237_);fill:#FFFFFF;}
	.st28{clip-path:url(#SVGID_00000170266965059300232090000014780631668923874237_);fill:#65656A;}
	.st29{clip-path:url(#SVGID_00000170266965059300232090000014780631668923874237_);fill:#646569;}
	.st30{clip-path:url(#SVGID_00000109708630085496527890000007881667967592863913_);fill:#FFFFFF;}
	.st31{clip-path:url(#SVGID_00000109708630085496527890000007881667967592863913_);fill:#646569;}
	.st32{clip-path:url(#SVGID_00000074400982561222910670000018346585008350207417_);fill:#FFFFFF;}
	.st33{clip-path:url(#SVGID_00000074400982561222910670000018346585008350207417_);fill:#65656A;}
	.st34{clip-path:url(#SVGID_00000074400982561222910670000018346585008350207417_);fill:#646569;}
	.st35{fill:#646569;}
	.st36{clip-path:url(#SVGID_00000090283794211273871460000009086396121659031738_);fill:#FFFFFF;}
	.st37{clip-path:url(#SVGID_00000090283794211273871460000009086396121659031738_);fill:#65666A;}
	
		.st38{clip-path:url(#SVGID_00000090283794211273871460000009086396121659031738_);fill:none;stroke:#65666A;stroke-width:0.1748;stroke-miterlimit:10;}
	.st39{clip-path:url(#SVGID_00000178888822309939832690000015918954517582872735_);fill:#FFFFFF;}
	.st40{clip-path:url(#SVGID_00000178888822309939832690000015918954517582872735_);fill:#646569;}
	.st41{fill:none;stroke:#65656A;stroke-width:3;stroke-miterlimit:10;}
	.st42{fill:#EC8020;}
	.st43{fill:#ED8020;}
	.st44{fill:none;stroke:#65656A;stroke-width:3;stroke-linecap:round;stroke-miterlimit:10;}
	.st45{fill:none;stroke:#646569;stroke-width:10;stroke-linejoin:round;stroke-miterlimit:10;}
	.st46{fill:none;stroke:#646569;stroke-width:10;stroke-miterlimit:10;}
	.st47{fill:none;stroke:#646569;stroke-width:10;stroke-linecap:round;stroke-miterlimit:10;}
	.st48{fill:none;stroke:#65656A;stroke-width:8;stroke-linecap:round;stroke-miterlimit:10;}
	.st49{fill:#FFFFFF;stroke:#65656A;stroke-width:8;stroke-linecap:round;stroke-linejoin:round;stroke-miterlimit:10;}
	.st50{fill:none;stroke:#65656A;stroke-width:8;stroke-miterlimit:10;}
</style>
<g id="Function_-_Central_APIs">
</g>
<g id="Function_-_Central_Route_Orchestrator">
</g>
<g id="Function_-_Central_Tunnel_Orchestrator">
</g>
<g id="Function_-_Central_NetConductor">
</g>
<g id="Function_-_Central_Network_Management">
</g>
<g id="Function_-_Central_Network_Insights">
</g>
<g id="Function_-_Central_Client_Insights">
</g>
<g id="Function_-_ClearPass_Policy_Manager">
</g>
<g id="Function_-_UXI_APIs">
</g>
<g id="Function_-_UXI_Dashboard">
</g>
<g id="Function_-_Orchestrator_Global_Enterprise">
</g>
<g id="Function_-_Orchestrator">
</g>
<g id="Function_-_Pensando_Policy_and_Services_Manager">
</g>
<g id="Function_-_Fabric_Composer">
</g>
<g id="Generic_-_Virtual_Machine">
</g>
<g id="Generic_-_Server_Single">
</g>
<g id="Generic_-_Server_Multi">
</g>
<g id="Generic_-_Router">
</g>
<g id="Generic_-_Firewall">
</g>
<g id="Wi-Fi_Signal">
</g>
<g id="Generic_-_Cloud_Function_Container_Grey">
</g>
<g id="Generic_-_Cloud_Function_Container_White">
</g>
<g id="Generic_-_Cloud_Internet_Circuit">
</g>
<g id="Generic_-_Cloud_Private_Circuit">
</g>
<g id="Generic_-_Cloud">
</g>
<g id="Client_-_IOT_Sensor">
</g>
<g id="Client_-_IOT_IO">
</g>
<g id="Client_-_IOT_PLC">
</g>
<g id="Client_-_IOT_Patient_Monitor">
</g>
<g id="Client_-_IOT_Camera">
</g>
<g id="Client_-_IOT_Scanner">
	<g>
		<defs>
			<rect id="SVGID_00000086656374250289769360000002966240182884941240_" x="18.9" width="445.7" height="500"/>
		</defs>
		<clipPath id="SVGID_00000031199651213840446560000014813319369733003159_">
			<use xlink:href="#SVGID_00000086656374250289769360000002966240182884941240_"  style="overflow:visible;"/>
		</clipPath>
		<path style="clip-path:url(#SVGID_00000031199651213840446560000014813319369733003159_);fill:#FFFFFF;" d="M352.1,174.7
			l-235.7,41.1c-10.4,0-18.9-8.5-18.9-18.9V29.1c0-10.4,8.5-18.9,18.9-18.9l249.1,47.6c10.4,0,39.2,34.9,39.2,45.4l-5.2,36.2
			C399.4,149.7,362.5,174.7,352.1,174.7z"/>
		
			<rect x="288.6" y="151.7" transform="matrix(0.9811 -0.1937 0.1937 0.9811 -51.9053 69.9169)" style="clip-path:url(#SVGID_00000031199651213840446560000014813319369733003159_);fill:#FFFFFF;" width="86.1" height="297.4"/>
		<path style="clip-path:url(#SVGID_00000031199651213840446560000014813319369733003159_);fill:#FFFFFF;" d="M264.1,250.8l-8.7,1.7
			c-5.5,1.1-9.1,6.4-8,12l10,50.6c1.1,5.5,6.4,9.1,12,8l8.7-1.7c5.5-1.1,9.1-6.4,8-12l-10-50.6C274.9,253.3,269.6,249.7,264.1,250.8
			z"/>
		<path style="clip-path:url(#SVGID_00000031199651213840446560000014813319369733003159_);fill:#FFFFFF;" d="M297.7,433.5v8.9
			c0,5.6,4.6,10.2,10.2,10.2h120.6c5.6,0,10.2-4.6,10.2-10.2v-8.9c0-5.6-4.6-10.2-10.2-10.2H307.9
			C302.2,423.3,297.7,427.9,297.7,433.5z"/>
		<path style="clip-path:url(#SVGID_00000031199651213840446560000014813319369733003159_);fill:#FFFFFF;" d="M51,359v83.4
			c0,5.6,4.6,10.2,10.2,10.2h165.6c5.6,0,10.2-4.6,10.2-10.2V359c0-5.6-4.6-10.2-10.2-10.2H61.1C55.5,348.8,51,353.4,51,359z"/>
		<path style="clip-path:url(#SVGID_00000031199651213840446560000014813319369733003159_);fill:#65656A;" d="M264.3,189.3
			c2.1,0,4,1.5,4.4,3.7c46.4,227.3,46.4,227.3,46.4,227.3c0.3,1.3,0,2.8-0.9,3.8c-0.9,1.2-2.2,1.8-3.6,1.8c-5.5,0-9.6,4.1-9.6,9.2
			c0,4.6,0,4.6,0,4.6c0,5,4.2,9.2,9.2,9.2c117.2,0,117.2,0,117.2,0c5.2,0,9.2-4.1,9.2-9.2c0-4.6,0-4.6,0-4.6c0-5-4-9.2-9.2-9.2
			c-27.6,0-27.6,0-27.6,0c-2.7,0-4.7-2.1-4.7-4.7c-0.3-7.8-30.1-152.3-50.1-247.7c-0.3-1.2,0-2.5,0.7-3.5c0.6-1,1.8-1.6,3-1.9
			c11.1-2.1,11.1-2.1,11.1-2.1c0.1,0,0.3,0,0.6,0c23-6.8,39.3-28.1,39.3-52.9c0-23.5-17.2-49.7-55.9-55.2h-0.2
			C111.1,14.2,111.1,14.2,111.1,14.2c-4.9,0.1-8.8,4.3-8.8,9.2c0,179.4,0,179.4,0,179.4c0,4.9,4,9,8.9,9.2
			c152.3-22.6,152.3-22.6,152.3-22.6C263.8,189.3,264,189.3,264.3,189.3z M427.5,458.1c-117.2,0-117.2,0-117.2,0
			c-10.2,0-18.5-8.3-18.5-18.5c0-4.6,0-4.6,0-4.6c0-8.4,5.6-15.5,13.3-17.7c-44.5-218.1-44.5-218.1-44.5-218.1
			c-148.5,21.9-148.5,21.9-148.5,21.9c-0.1,0.1-0.4,0.1-0.6,0.1c-10.2,0-18.5-8.3-18.5-18.5c0-179.4,0-179.4,0-179.4
			c0-10.2,8.3-18.5,18.5-18.5c0.3,0,0.6,0,0.9,0.2c232.9,43.6,232.9,43.6,232.9,43.6c37.5,5.3,63.8,31.8,63.8,64.3
			c0,31.9-22.8,58.6-53.9,63.6c7.9,37.6,43.6,208.5,48.7,240c23.6,0,23.6,0,23.6,0c10.2,0,18.6,8.3,18.6,18.5c0,4.6,0,4.6,0,4.6
			C446,449.9,437.7,458.1,427.5,458.1z"/>
		
			<rect x="70" y="363.2" style="clip-path:url(#SVGID_00000031199651213840446560000014813319369733003159_);fill:#65656A;" width="148.5" height="71.3"/>
		
			<rect x="88.2" y="355.2" style="clip-path:url(#SVGID_00000031199651213840446560000014813319369733003159_);fill:#FFFFFF;" width="17.9" height="86.6"/>
		
			<rect x="182.7" y="355.2" style="clip-path:url(#SVGID_00000031199651213840446560000014813319369733003159_);fill:#FFFFFF;" width="17.9" height="86.6"/>
		
			<rect x="130.2" y="355.2" style="clip-path:url(#SVGID_00000031199651213840446560000014813319369733003159_);fill:#FFFFFF;" width="9.1" height="86.6"/>
		
			<rect x="152.7" y="355.2" style="clip-path:url(#SVGID_00000031199651213840446560000014813319369733003159_);fill:#FFFFFF;" width="8.9" height="86.6"/>
		<path style="clip-path:url(#SVGID_00000031199651213840446560000014813319369733003159_);fill:#65656A;" d="M63.6,350.8
			c-5,0-9.3,4.1-9.3,9.3c0,78.8,0,78.8,0,78.8c0,5,4.3,9.3,9.3,9.3c160.6,0,160.6,0,160.6,0c5.1,0,9.4-4.3,9.4-9.3
			c0-78.8,0-78.8,0-78.8c0-5.2-4.3-9.3-9.4-9.3H63.6z M224.2,457.6c-160.6,0-160.6,0-160.6,0c-10.2,0-18.7-8.4-18.7-18.6
			c0-78.8,0-78.8,0-78.8c0-10.4,8.5-18.8,18.7-18.8c160.6,0,160.6,0,160.6,0c10.2,0,18.7,8.4,18.7,18.8c0,78.8,0,78.8,0,78.8
			C242.9,449.1,234.5,457.6,224.2,457.6z"/>
		<path style="clip-path:url(#SVGID_00000031199651213840446560000014813319369733003159_);fill:#646569;" d="M265.4,327.3
			c-2.7,0-5.3-0.7-7.6-2.2c-3.1-2.1-5-5.2-5.8-8.7C241.7,264,241.7,264,241.7,264c-1.3-7.4,3.4-14.5,10.8-15.8
			c25.2-4.9,25.2-4.9,25.2-4.9c1.8,9,1.8,9,1.8,9c-25.2,4.9-25.2,4.9-25.2,4.9c-2.4,0.4-3.9,2.7-3.4,5
			c10.4,52.3,10.4,52.3,10.4,52.3c0.2,1.2,0.9,2.1,1.8,2.7c0.9,0.7,2.1,0.9,3.1,0.7c26.2-5,26.2-5,26.2-5c1.8,9,1.8,9,1.8,9
			c-26.2,5.2-26.2,5.2-26.2,5.2C267.1,327.3,266.3,327.3,265.4,327.3z"/>
	</g>
</g>
<g id="IOT_-_TV_Cast">
</g>
<g id="Client_-_Printer">
</g>
<g id="Client_-_Game_Console">
</g>
<g id="Client_-_IP_Phone">
</g>
<g id="Client_-_Laptop">
</g>
<g id="Client_-_Desktop">
</g>
<g id="Client_-_Workstation">
</g>
<g id="Client_-_Tablet">
</g>
<g id="Client_-_Mobile_2">
</g>
<g id="Client_-_Mobile_1">
</g>
<g id="Device_-_EdgeConnect_Enterprise_Cloud">
</g>
<g id="Device_-_EdgeConnect_Enterprise_Virtual">
</g>
<g id="Device_-_EdgeConnect_Enterprise_Appliance">
</g>
<g id="Device_-_Core_Agg_Leaf_Switch">
</g>
<g id="Device_-_Access_Switch">
</g>
<g id="Device_-_Gateway_Headend">
</g>
<g id="Device_-_Gateway_Branch">
</g>
<g id="Device_-_Gateway_Campus">
</g>
<g id="Device_-_UXI_Sensor_New">
</g>
<g id="Device_-_UXI_Sensor">
</g>
<g id="Device_-_AP500_Series_Microbranch">
</g>
<g id="Device_-_AP600_Series">
</g>
<g id="Device_-_AP500_Series">
</g>
<g id="Device_-_Outdoor_AP">
</g>
</svg>
