<?xml version="1.0" encoding="utf-8"?>
<!-- Generator: Adobe Illustrator 26.3.1, SVG Export Plug-In . SVG Version: 6.00 Build 0)  -->
<svg version="1.1" xmlns="http://www.w3.org/2000/svg" xmlns:xlink="http://www.w3.org/1999/xlink" x="0px" y="0px"
	 viewBox="0 0 500 500" style="enable-background:new 0 0 500 500;" xml:space="preserve">
<style type="text/css">
	.st0{fill:#FFFFFF;}
	.st1{fill:#FF8300;}
	.st2{fill:#F78200;}
	.st3{fill:#F7931E;}
	.st4{fill:#5D5D5D;}
	.st5{fill:#FFFFFF;stroke:#65656A;stroke-width:12;stroke-miterlimit:10;}
	.st6{display:none;fill:#979797;stroke:#979797;stroke-width:3;stroke-linecap:round;stroke-linejoin:round;stroke-miterlimit:10;}
	.st7{fill:#979797;}
	.st8{fill:#65656A;}
	.st9{stroke:#009245;stroke-width:3;stroke-miterlimit:10;}
	.st10{fill:#F58220;}
	.st11{clip-path:url(#SVGID_00000183216659944902731750000010261132388785151931_);fill:#5E5E5E;}
	.st12{clip-path:url(#SVGID_00000164515435987357537190000018092868338602383536_);fill:#FFFFFF;}
	.st13{clip-path:url(#SVGID_00000075158034202393594030000016674833379090065810_);fill:#FFFFFF;}
	.st14{clip-path:url(#SVGID_00000075158034202393594030000016674833379090065810_);fill:#FF8300;}
	.st15{clip-path:url(#SVGID_00000182523596722276611760000003299874575342512261_);fill:#FFFFFF;}
	.st16{clip-path:url(#SVGID_00000182523596722276611760000003299874575342512261_);fill:#ADE1F0;}
	.st17{clip-path:url(#SVGID_00000039120711092159747400000005406090402813472950_);fill:#65656A;}
	.st18{clip-path:url(#SVGID_00000039120711092159747400000005406090402813472950_);fill:#646569;}
	.st19{clip-path:url(#SVGID_00000039120711092159747400000005406090402813472950_);fill:#D0D0D2;}
	.st20{clip-path:url(#SVGID_00000183208548296143643260000010535122279850867103_);fill:#FFFFFF;}
	.st21{clip-path:url(#SVGID_00000183208548296143643260000010535122279850867103_);fill:#646569;}
	.st22{clip-path:url(#SVGID_00000183208548296143643260000010535122279850867103_);fill:#65656A;}
	
		.st23{clip-path:url(#SVGID_00000010297206452485810690000009279781449261240505_);fill:#FFFFFF;stroke:#000000;stroke-miterlimit:10;}
	.st24{clip-path:url(#SVGID_00000010297206452485810690000009279781449261240505_);fill:#646569;}
	.st25{clip-path:url(#SVGID_00000010297206452485810690000009279781449261240505_);fill:#65656A;}
	
		.st26{clip-path:url(#SVGID_00000010297206452485810690000009279781449261240505_);fill:none;stroke:#65656A;stroke-width:0.1925;stroke-linecap:round;stroke-linejoin:round;stroke-miterlimit:10;}
	.st27{clip-path:url(#SVGID_00000137818902387162952830000009648502000691050152_);fill:#FFFFFF;}
	.st28{clip-path:url(#SVGID_00000137818902387162952830000009648502000691050152_);fill:#65656A;}
	.st29{clip-path:url(#SVGID_00000137818902387162952830000009648502000691050152_);fill:#646569;}
	.st30{clip-path:url(#SVGID_00000152983342786875772670000001196068725435105983_);fill:#FFFFFF;}
	.st31{clip-path:url(#SVGID_00000152983342786875772670000001196068725435105983_);fill:#646569;}
	.st32{clip-path:url(#SVGID_00000124875279249493334330000005047525553464055978_);fill:#FFFFFF;}
	.st33{clip-path:url(#SVGID_00000124875279249493334330000005047525553464055978_);fill:#65656A;}
	.st34{clip-path:url(#SVGID_00000124875279249493334330000005047525553464055978_);fill:#646569;}
	.st35{fill:#646569;}
	.st36{clip-path:url(#SVGID_00000178170717213207264070000016149435467274771862_);fill:#FFFFFF;}
	.st37{clip-path:url(#SVGID_00000178170717213207264070000016149435467274771862_);fill:#65666A;}
	
		.st38{clip-path:url(#SVGID_00000178170717213207264070000016149435467274771862_);fill:none;stroke:#65666A;stroke-width:0.1748;stroke-miterlimit:10;}
	.st39{clip-path:url(#SVGID_00000098209008782978305860000011423941647739060630_);fill:#FFFFFF;}
	.st40{clip-path:url(#SVGID_00000098209008782978305860000011423941647739060630_);fill:#646569;}
	.st41{fill:none;stroke:#65656A;stroke-width:3;stroke-miterlimit:10;}
	.st42{fill:#EC8020;}
	.st43{fill:#ED8020;}
	.st44{fill:none;stroke:#65656A;stroke-width:3;stroke-linecap:round;stroke-miterlimit:10;}
	.st45{fill:none;stroke:#646569;stroke-width:10;stroke-linejoin:round;stroke-miterlimit:10;}
	.st46{fill:none;stroke:#646569;stroke-width:10;stroke-miterlimit:10;}
	.st47{fill:none;stroke:#646569;stroke-width:10;stroke-linecap:round;stroke-miterlimit:10;}
	.st48{fill:none;stroke:#65656A;stroke-width:8;stroke-linecap:round;stroke-miterlimit:10;}
	.st49{fill:#FFFFFF;stroke:#65656A;stroke-width:8;stroke-linecap:round;stroke-linejoin:round;stroke-miterlimit:10;}
	.st50{fill:none;stroke:#65656A;stroke-width:8;stroke-miterlimit:10;}
</style>
<g id="Function_-_Central_APIs">
</g>
<g id="Function_-_Central_Route_Orchestrator">
</g>
<g id="Function_-_Central_Tunnel_Orchestrator">
</g>
<g id="Function_-_Central_NetConductor">
</g>
<g id="Function_-_Central_Network_Management">
</g>
<g id="Function_-_Central_Network_Insights">
</g>
<g id="Function_-_Central_Client_Insights">
</g>
<g id="Function_-_ClearPass_Policy_Manager">
</g>
<g id="Function_-_UXI_APIs">
</g>
<g id="Function_-_UXI_Dashboard">
</g>
<g id="Function_-_Orchestrator_Global_Enterprise">
</g>
<g id="Function_-_Orchestrator">
</g>
<g id="Function_-_Pensando_Policy_and_Services_Manager">
</g>
<g id="Function_-_Fabric_Composer">
</g>
<g id="Generic_-_Virtual_Machine">
</g>
<g id="Generic_-_Server_Single">
</g>
<g id="Generic_-_Server_Multi">
</g>
<g id="Generic_-_Router">
</g>
<g id="Generic_-_Firewall">
</g>
<g id="Wi-Fi_Signal">
</g>
<g id="Generic_-_Cloud_Function_Container_Grey">
</g>
<g id="Generic_-_Cloud_Function_Container_White">
</g>
<g id="Generic_-_Cloud_Internet_Circuit">
</g>
<g id="Generic_-_Cloud_Private_Circuit">
</g>
<g id="Generic_-_Cloud">
</g>
<g id="Client_-_IOT_Sensor">
</g>
<g id="Client_-_IOT_IO">
	<g>
		<defs>
			<rect id="SVGID_00000166636633155444102760000017227194745817817267_" y="47.7" width="500" height="375.8"/>
		</defs>
		<clipPath id="SVGID_00000047045289900831474210000008577945498305720221_">
			<use xlink:href="#SVGID_00000166636633155444102760000017227194745817817267_"  style="overflow:visible;"/>
		</clipPath>
		<path style="clip-path:url(#SVGID_00000047045289900831474210000008577945498305720221_);fill:#FFFFFF;" d="M463.5,368.1h-424
			c-5.2,0-9.5-4.2-9.5-9.5V96.4c0-5.2,4.2-9.5,9.5-9.5h424c5.2,0,9.5,4.2,9.5,9.5v262.2C473,363.9,468.8,368.1,463.5,368.1z"/>
		<path style="clip-path:url(#SVGID_00000047045289900831474210000008577945498305720221_);fill:#FFFFFF;" d="M471,302.8H29.6
			c-5.2,0-9.5-4.2-9.5-9.5v-131c0-5.2,4.2-9.5,9.5-9.5H471c5.2,0,9.5,4.2,9.5,9.5v131C480.4,298.5,476.2,302.8,471,302.8z"/>
		<path style="clip-path:url(#SVGID_00000047045289900831474210000008577945498305720221_);fill:#FFFFFF;" d="M468.1,335.1H36
			c-5.2,0-9.5-4.2-9.5-9.5V125.7c0-5.2,4.2-9.5,9.5-9.5h432.1c5.2,0,9.5,4.2,9.5,9.5v199.9C477.6,330.8,473.4,335.1,468.1,335.1z"/>
		<path style="clip-path:url(#SVGID_00000047045289900831474210000008577945498305720221_);fill:#646569;" d="M216.6,378.2
			c0,1.5-1.2,2.9-2.8,2.9c-5.7,0-5.7,0-5.7,0c-1.6,0-2.8-1.4-2.8-2.9c0-5.9,0-5.9,0-5.9c0-1.5,1.2-2.9,2.8-2.9c5.7,0,5.7,0,5.7,0
			c1.6,0,2.8,1.4,2.8,2.9V378.2z"/>
		<path style="clip-path:url(#SVGID_00000047045289900831474210000008577945498305720221_);fill:#646569;" d="M307.9,378.2
			c0,1.5-1.3,2.9-2.8,2.9c-5.7,0-5.7,0-5.7,0c-1.6,0-3-1.4-3-2.9c0-5.9,0-5.9,0-5.9c0-1.5,1.4-2.9,3-2.9c5.7,0,5.7,0,5.7,0
			c1.5,0,2.8,1.4,2.8,2.9V378.2z"/>
		<path style="clip-path:url(#SVGID_00000047045289900831474210000008577945498305720221_);fill:#65656A;" d="M285.1,378.2
			c-57,0-57,0-57,0c-1.7,0-3-1.4-3-2.9c0-1.7,1.3-3,3-3c57,0,57,0,57,0c1.6,0,2.8,1.4,2.8,3C287.9,376.8,286.7,378.2,285.1,378.2z"
			/>
		<path style="clip-path:url(#SVGID_00000047045289900831474210000008577945498305720221_);fill:#65656A;" d="M26.9,156.1
			c-3.1,0-5.7,2.6-5.7,5.7c0,131.9,0,131.9,0,131.9c0,3.2,2.5,5.7,5.7,5.7c445,0,445,0,445,0c3.1,0,5.7-2.6,5.7-5.7
			c0-131.9,0-131.9,0-131.9c0-3.2-2.5-5.7-5.7-5.7H26.9z M471.9,305c-445,0-445,0-445,0c-6.3,0-11.4-5.1-11.4-11.4
			c0-131.9,0-131.9,0-131.9c0-6.3,5.1-11.4,11.4-11.4c445,0,445,0,445,0c6.3,0,11.4,5.1,11.4,11.4c0,131.9,0,131.9,0,131.9
			C483.3,299.9,478.2,305,471.9,305z"/>
		<path style="clip-path:url(#SVGID_00000047045289900831474210000008577945498305720221_);fill:#65656A;" d="M477.6,154.6
			c-1.5,0-2.8-1.2-2.8-2.9c0-29.6,0-29.6,0-29.6c0-2.1-2.1-3.3-4-3.3c-437.5,0-437.5,0-437.5,0c-2.1,0-3.4,1.2-3.4,3.3
			c0,29.6,0,29.6,0,29.6c0,1.7-1.2,2.9-2.9,2.9c-1.5,0-2.8-1.2-2.8-2.9c0-29.6,0-29.6,0-29.6c0-5.3,3.9-9.2,9.1-9.2
			c437.5,0,437.5,0,437.5,0c5.5,0,9.7,4,9.7,9.2c0,29.6,0,29.6,0,29.6C480.4,153.4,479.2,154.6,477.6,154.6z"/>
		<path style="clip-path:url(#SVGID_00000047045289900831474210000008577945498305720221_);fill:#65656A;" d="M470.7,339.4
			c-437.5,0-437.5,0-437.5,0c-5.5,0-9.1-5.6-9.1-10.7c0-28.1,0-28.1,0-28.1c0-1.5,1.3-2.9,2.8-2.9c1.6,0,2.9,1.4,2.9,2.9
			c0,28.1,0,28.1,0,28.1c0,2.3,1.5,4.9,3.4,4.9c437.5,0,437.5,0,437.5,0c1.9,0,4-2.7,4-4.9c0-28.1,0-28.1,0-28.1
			c0-1.5,1.3-2.9,2.8-2.9c1.7,0,2.9,1.4,2.9,2.9c0,28.1,0,28.1,0,28.1C480.4,333.7,476.4,339.4,470.7,339.4z"/>
		<path style="clip-path:url(#SVGID_00000047045289900831474210000008577945498305720221_);fill:#65656A;" d="M467.6,371
			c-430.7-0.1-430.7-0.1-430.7-0.1c-5.4,0-10-4.5-10-9.6c0-26.1,0-26.1,0-26.1c0-1.5,1.3-2.9,2.9-2.9c1.6,0,2.8,1.4,2.8,2.9
			c0,26.1,0,26.1,0,26.1c0,2,2.1,3.8,4.3,3.8c430.7,0.3,430.7,0.3,430.7,0.3c2.2,0,4.3-2,4.3-3.9c0-26.3,0-26.3,0-26.3
			c0-1.5,1.3-2.9,2.8-2.9c1.6,0,2.8,1.4,2.8,2.9c0,26.3,0,26.3,0,26.3C477.6,366.5,473,371,467.6,371z"/>
		<path style="clip-path:url(#SVGID_00000047045289900831474210000008577945498305720221_);fill:#65656A;" d="M471.9,117.3
			c-1.5,0-2.8-1.2-2.8-2.9c0-21.9,0-21.9,0-21.9c0-1.8-0.3-2.4-2.7-2.4c-428.7,0-428.7,0-428.7,0c-2.1,0-5.1,0.7-5.1,2.4
			c0,21.9,0,21.9,0,21.9c0,1.7-1.2,2.9-2.8,2.9c-1.5,0-2.9-1.2-2.9-2.9c0-21.9,0-21.9,0-21.9c0-4.8,4.5-8.1,10.8-8.1
			c428.7,0,428.7,0,428.7,0c5.4,0,8.4,2.9,8.4,8.1c0,21.9,0,21.9,0,21.9C474.8,116.1,473.6,117.3,471.9,117.3z"/>
		<path style="clip-path:url(#SVGID_00000047045289900831474210000008577945498305720221_);fill:#65656A;" d="M68.8,229.5
			c0,5.1-4.2,9.3-9.3,9.3c-5.1,0-9.1-4.2-9.1-9.3c0-5.1,4-9.2,9.1-9.2C64.6,220.4,68.8,224.4,68.8,229.5z"/>
		<path style="clip-path:url(#SVGID_00000047045289900831474210000008577945498305720221_);fill:#65656A;" d="M106,229.5
			c0,5.1-4.2,9.3-9.3,9.3c-5.1,0-9.1-4.2-9.1-9.3c0-5.1,4-9.2,9.1-9.2C101.8,220.4,106,224.4,106,229.5z"/>
		<path style="clip-path:url(#SVGID_00000047045289900831474210000008577945498305720221_);fill:#65656A;" d="M142.8,229.5
			c0,5.1-4,9.3-9.1,9.3c-5.1,0-9.1-4.2-9.1-9.3c0-5.1,4-9.2,9.1-9.2C138.7,220.4,142.8,224.4,142.8,229.5z"/>
		<path style="clip-path:url(#SVGID_00000047045289900831474210000008577945498305720221_);fill:#65656A;" d="M72.5,303.5
			c-1.5,0-2.9-1.2-2.9-2.9c0-11.4,0-11.4,0-11.4c0-1.5,1.3-2.9,2.9-2.9c1.6,0,3,1.4,3,2.9c0,11.4,0,11.4,0,11.4
			C75.5,302.3,74.2,303.5,72.5,303.5z"/>
		<path style="clip-path:url(#SVGID_00000047045289900831474210000008577945498305720221_);fill:#65656A;" d="M44.1,134.6
			c-1.7,0-2.9-1.4-2.9-2.9c0-11.6,0-11.6,0-11.6c0-1.5,1.2-2.9,2.9-2.9c1.5,0,2.8,1.4,2.8,2.9c0,11.6,0,11.6,0,11.6
			C46.9,133.3,45.6,134.6,44.1,134.6z"/>
		<path style="clip-path:url(#SVGID_00000047045289900831474210000008577945498305720221_);fill:#65656A;" d="M44.1,337.9
			c-1.7,0-2.9-1.2-2.9-2.9c0-14.3,0-14.3,0-14.3c0-1.7,1.2-2.9,2.9-2.9c1.5,0,2.8,1.2,2.8,2.9c0,14.3,0,14.3,0,14.3
			C46.9,336.7,45.6,337.9,44.1,337.9z"/>
		<path style="clip-path:url(#SVGID_00000047045289900831474210000008577945498305720221_);fill:#65656A;" d="M61.1,337.9
			c-1.5,0-2.8-1.2-2.8-2.9c0-14.3,0-14.3,0-14.3c0-1.7,1.3-2.9,2.8-2.9c1.6,0,2.8,1.2,2.8,2.9c0,14.3,0,14.3,0,14.3
			C64,336.7,62.8,337.9,61.1,337.9z"/>
		<path style="clip-path:url(#SVGID_00000047045289900831474210000008577945498305720221_);fill:#65656A;" d="M78.3,337.9
			c-1.6,0-2.8-1.2-2.8-2.9c0-14.3,0-14.3,0-14.3c0-1.7,1.2-2.9,2.8-2.9c1.5,0,2.8,1.2,2.8,2.9c0,14.3,0,14.3,0,14.3
			C81.2,336.7,79.8,337.9,78.3,337.9z"/>
		<path style="clip-path:url(#SVGID_00000047045289900831474210000008577945498305720221_);fill:#65656A;" d="M95.4,337.9
			c-1.5,0-2.8-1.2-2.8-2.9c0-14.3,0-14.3,0-14.3c0-1.7,1.3-2.9,2.8-2.9c1.6,0,2.8,1.2,2.8,2.9c0,14.3,0,14.3,0,14.3
			C98.2,336.7,97,337.9,95.4,337.9z"/>
		<path style="clip-path:url(#SVGID_00000047045289900831474210000008577945498305720221_);fill:#65656A;" d="M112.6,337.9
			c-1.6,0-2.8-1.2-2.8-2.9c0-14.3,0-14.3,0-14.3c0-1.7,1.2-2.9,2.8-2.9c1.5,0,2.8,1.2,2.8,2.9c0,14.3,0,14.3,0,14.3
			C115.4,336.7,114.1,337.9,112.6,337.9z"/>
		<path style="clip-path:url(#SVGID_00000047045289900831474210000008577945498305720221_);fill:#65656A;" d="M129.6,337.9
			c-1.5,0-2.8-1.2-2.8-2.9c0-14.3,0-14.3,0-14.3c0-1.7,1.3-2.9,2.8-2.9c1.6,0,2.8,1.2,2.8,2.9c0,14.3,0,14.3,0,14.3
			C132.4,336.7,131.3,337.9,129.6,337.9z"/>
		<path style="clip-path:url(#SVGID_00000047045289900831474210000008577945498305720221_);fill:#65656A;" d="M146.8,337.9
			c-1.6,0-2.8-1.2-2.8-2.9c0-14.3,0-14.3,0-14.3c0-1.7,1.2-2.9,2.8-2.9c1.5,0,2.8,1.2,2.8,2.9c0,14.3,0,14.3,0,14.3
			C149.6,336.7,148.3,337.9,146.8,337.9z"/>
		<path style="clip-path:url(#SVGID_00000047045289900831474210000008577945498305720221_);fill:#65656A;" d="M163.8,337.9
			c-1.5,0-2.8-1.2-2.8-2.9c0-14.3,0-14.3,0-14.3c0-1.7,1.3-2.9,2.8-2.9c1.6,0,2.8,1.2,2.8,2.9c0,14.3,0,14.3,0,14.3
			C166.7,336.7,165.5,337.9,163.8,337.9z"/>
		<path style="clip-path:url(#SVGID_00000047045289900831474210000008577945498305720221_);fill:#65656A;" d="M181,337.9
			c-1.6,0-2.8-1.2-2.8-2.9c0-14.3,0-14.3,0-14.3c0-1.7,1.2-2.9,2.8-2.9c1.5,0,2.8,1.2,2.8,2.9c0,14.3,0,14.3,0,14.3
			C183.9,336.7,182.5,337.9,181,337.9z"/>
		<path style="clip-path:url(#SVGID_00000047045289900831474210000008577945498305720221_);fill:#65656A;" d="M198.1,337.9
			c-1.5,0-2.8-1.2-2.8-2.9c0-14.3,0-14.3,0-14.3c0-1.7,1.3-2.9,2.8-2.9c1.7,0,2.9,1.2,2.9,2.9c0,14.3,0,14.3,0,14.3
			C200.9,336.7,199.7,337.9,198.1,337.9z"/>
		<path style="clip-path:url(#SVGID_00000047045289900831474210000008577945498305720221_);fill:#65656A;" d="M215.3,337.9
			c-1.6,0-2.8-1.2-2.8-2.9c0-14.3,0-14.3,0-14.3c0-1.7,1.2-2.9,2.8-2.9c1.5,0,2.8,1.2,2.8,2.9c0,14.3,0,14.3,0,14.3
			C218.1,336.7,216.8,337.9,215.3,337.9z"/>
		<path style="clip-path:url(#SVGID_00000047045289900831474210000008577945498305720221_);fill:#65656A;" d="M232.3,337.9
			c-1.5,0-2.8-1.2-2.8-2.9c0-14.3,0-14.3,0-14.3c0-1.7,1.3-2.9,2.8-2.9c1.6,0,2.8,1.2,2.8,2.9c0,14.3,0,14.3,0,14.3
			C235.1,336.7,233.9,337.9,232.3,337.9z"/>
		<path style="clip-path:url(#SVGID_00000047045289900831474210000008577945498305720221_);fill:#65656A;" d="M249.5,337.9
			c-1.6,0-2.8-1.2-2.8-2.9c0-14.3,0-14.3,0-14.3c0-1.7,1.2-2.9,2.8-2.9c1.5,0,2.8,1.2,2.8,2.9c0,14.3,0,14.3,0,14.3
			C252.3,336.7,251,337.9,249.5,337.9z"/>
		<path style="clip-path:url(#SVGID_00000047045289900831474210000008577945498305720221_);fill:#65656A;" d="M266.5,337.9
			c-1.5,0-2.8-1.2-2.8-2.9c0-14.3,0-14.3,0-14.3c0-1.7,1.3-2.9,2.8-2.9c1.6,0,2.9,1.2,2.9,2.9c0,14.3,0,14.3,0,14.3
			C269.4,336.7,268.2,337.9,266.5,337.9z"/>
		<path style="clip-path:url(#SVGID_00000047045289900831474210000008577945498305720221_);fill:#65656A;" d="M283.7,337.9
			c-1.7,0-2.9-1.2-2.9-2.9c0-14.3,0-14.3,0-14.3c0-1.7,1.2-2.9,2.9-2.9c1.5,0,2.8,1.2,2.8,2.9c0,14.3,0,14.3,0,14.3
			C286.6,336.7,285.2,337.9,283.7,337.9z"/>
		<path style="clip-path:url(#SVGID_00000047045289900831474210000008577945498305720221_);fill:#65656A;" d="M300.8,337.9
			c-1.5,0-2.8-1.2-2.8-2.9c0-14.3,0-14.3,0-14.3c0-1.7,1.3-2.9,2.8-2.9c1.6,0,2.8,1.2,2.8,2.9c0,14.3,0,14.3,0,14.3
			C303.6,336.7,302.4,337.9,300.8,337.9z"/>
		<path style="clip-path:url(#SVGID_00000047045289900831474210000008577945498305720221_);fill:#65656A;" d="M318,337.9
			c-1.6,0-2.8-1.2-2.8-2.9c0-14.3,0-14.3,0-14.3c0-1.7,1.2-2.9,2.8-2.9c1.5,0,2.8,1.2,2.8,2.9c0,14.3,0,14.3,0,14.3
			C320.8,336.7,319.4,337.9,318,337.9z"/>
		<path style="clip-path:url(#SVGID_00000047045289900831474210000008577945498305720221_);fill:#65656A;" d="M61.1,134.6
			c-1.5,0-2.8-1.4-2.8-2.9c0-14.4,0-14.4,0-14.4c0-1.5,1.3-2.9,2.8-2.9c1.6,0,2.8,1.4,2.8,2.9c0,14.4,0,14.4,0,14.4
			C64,133.3,62.8,134.6,61.1,134.6z"/>
		<path style="clip-path:url(#SVGID_00000047045289900831474210000008577945498305720221_);fill:#65656A;" d="M78.3,134.6
			c-1.6,0-2.8-1.4-2.8-2.9c0-14.4,0-14.4,0-14.4c0-1.5,1.2-2.9,2.8-2.9c1.5,0,2.8,1.4,2.8,2.9c0,14.4,0,14.4,0,14.4
			C81.2,133.3,79.8,134.6,78.3,134.6z"/>
		<path style="clip-path:url(#SVGID_00000047045289900831474210000008577945498305720221_);fill:#65656A;" d="M95.4,134.6
			c-1.5,0-2.8-1.4-2.8-2.9c0-14.4,0-14.4,0-14.4c0-1.5,1.3-2.9,2.8-2.9c1.6,0,2.8,1.4,2.8,2.9c0,14.4,0,14.4,0,14.4
			C98.2,133.3,97,134.6,95.4,134.6z"/>
		<path style="clip-path:url(#SVGID_00000047045289900831474210000008577945498305720221_);fill:#65656A;" d="M112.6,134.6
			c-1.6,0-2.8-1.4-2.8-2.9c0-14.4,0-14.4,0-14.4c0-1.5,1.2-2.9,2.8-2.9c1.5,0,2.8,1.4,2.8,2.9c0,14.4,0,14.4,0,14.4
			C115.4,133.3,114.1,134.6,112.6,134.6z"/>
		<path style="clip-path:url(#SVGID_00000047045289900831474210000008577945498305720221_);fill:#65656A;" d="M129.6,134.6
			c-1.5,0-2.8-1.4-2.8-2.9c0-14.4,0-14.4,0-14.4c0-1.5,1.3-2.9,2.8-2.9c1.6,0,2.8,1.4,2.8,2.9c0,14.4,0,14.4,0,14.4
			C132.4,133.3,131.3,134.6,129.6,134.6z"/>
		<path style="clip-path:url(#SVGID_00000047045289900831474210000008577945498305720221_);fill:#65656A;" d="M146.8,134.6
			c-1.6,0-2.8-1.4-2.8-2.9c0-14.4,0-14.4,0-14.4c0-1.5,1.2-2.9,2.8-2.9c1.5,0,2.8,1.4,2.8,2.9c0,14.4,0,14.4,0,14.4
			C149.6,133.3,148.3,134.6,146.8,134.6z"/>
		<path style="clip-path:url(#SVGID_00000047045289900831474210000008577945498305720221_);fill:#65656A;" d="M163.8,134.6
			c-1.5,0-2.8-1.4-2.8-2.9c0-14.4,0-14.4,0-14.4c0-1.5,1.3-2.9,2.8-2.9c1.6,0,2.8,1.4,2.8,2.9c0,14.4,0,14.4,0,14.4
			C166.7,133.3,165.5,134.6,163.8,134.6z"/>
		<path style="clip-path:url(#SVGID_00000047045289900831474210000008577945498305720221_);fill:#65656A;" d="M181,134.6
			c-1.6,0-2.8-1.4-2.8-2.9c0-14.4,0-14.4,0-14.4c0-1.5,1.2-2.9,2.8-2.9c1.5,0,2.8,1.4,2.8,2.9c0,14.4,0,14.4,0,14.4
			C183.9,133.3,182.5,134.6,181,134.6z"/>
		<path style="clip-path:url(#SVGID_00000047045289900831474210000008577945498305720221_);fill:#65656A;" d="M198.1,134.6
			c-1.5,0-2.8-1.4-2.8-2.9c0-14.4,0-14.4,0-14.4c0-1.5,1.3-2.9,2.8-2.9c1.7,0,2.9,1.4,2.9,2.9c0,14.4,0,14.4,0,14.4
			C200.9,133.3,199.7,134.6,198.1,134.6z"/>
		<path style="clip-path:url(#SVGID_00000047045289900831474210000008577945498305720221_);fill:#65656A;" d="M215.3,134.6
			c-1.6,0-2.8-1.4-2.8-2.9c0-14.4,0-14.4,0-14.4c0-1.5,1.2-2.9,2.8-2.9c1.5,0,2.8,1.4,2.8,2.9c0,14.4,0,14.4,0,14.4
			C218.1,133.3,216.8,134.6,215.3,134.6z"/>
		<path style="clip-path:url(#SVGID_00000047045289900831474210000008577945498305720221_);fill:#65656A;" d="M232.3,134.6
			c-1.5,0-2.8-1.4-2.8-2.9c0-14.4,0-14.4,0-14.4c0-1.5,1.3-2.9,2.8-2.9c1.6,0,2.8,1.4,2.8,2.9c0,14.4,0,14.4,0,14.4
			C235.1,133.3,233.9,134.6,232.3,134.6z"/>
		<path style="clip-path:url(#SVGID_00000047045289900831474210000008577945498305720221_);fill:#65656A;" d="M249.5,134.6
			c-1.6,0-2.8-1.4-2.8-2.9c0-14.4,0-14.4,0-14.4c0-1.5,1.2-2.9,2.8-2.9c1.5,0,2.8,1.4,2.8,2.9c0,14.4,0,14.4,0,14.4
			C252.3,133.3,251,134.6,249.5,134.6z"/>
		<path style="clip-path:url(#SVGID_00000047045289900831474210000008577945498305720221_);fill:#65656A;" d="M266.5,134.6
			c-1.5,0-2.8-1.4-2.8-2.9c0-14.4,0-14.4,0-14.4c0-1.5,1.3-2.9,2.8-2.9c1.6,0,2.9,1.4,2.9,2.9c0,14.4,0,14.4,0,14.4
			C269.4,133.3,268.2,134.6,266.5,134.6z"/>
		<path style="clip-path:url(#SVGID_00000047045289900831474210000008577945498305720221_);fill:#65656A;" d="M283.7,134.6
			c-1.7,0-2.9-1.4-2.9-2.9c0-14.4,0-14.4,0-14.4c0-1.5,1.2-2.9,2.9-2.9c1.5,0,2.8,1.4,2.8,2.9c0,14.4,0,14.4,0,14.4
			C286.6,133.3,285.2,134.6,283.7,134.6z"/>
		<path style="clip-path:url(#SVGID_00000047045289900831474210000008577945498305720221_);fill:#65656A;" d="M300.8,134.6
			c-1.5,0-2.8-1.4-2.8-2.9c0-14.4,0-14.4,0-14.4c0-1.5,1.3-2.9,2.8-2.9c1.6,0,2.8,1.4,2.8,2.9c0,14.4,0,14.4,0,14.4
			C303.6,133.3,302.4,134.6,300.8,134.6z"/>
		<path style="clip-path:url(#SVGID_00000047045289900831474210000008577945498305720221_);fill:#65656A;" d="M318,134.6
			c-1.6,0-2.8-1.4-2.8-2.9c0-14.4,0-14.4,0-14.4c0-1.5,1.2-2.9,2.8-2.9c1.5,0,2.8,1.4,2.8,2.9c0,14.4,0,14.4,0,14.4
			C320.8,133.3,319.4,134.6,318,134.6z"/>
		<path style="clip-path:url(#SVGID_00000047045289900831474210000008577945498305720221_);fill:#65656A;" d="M335,134.6
			c-1.5,0-2.8-1.4-2.8-2.9c0-14.4,0-14.4,0-14.4c0-1.5,1.3-2.9,2.8-2.9c1.6,0,2.8,1.4,2.8,2.9c0,14.4,0,14.4,0,14.4
			C337.8,133.3,336.6,134.6,335,134.6z"/>
		<path style="clip-path:url(#SVGID_00000047045289900831474210000008577945498305720221_);fill:#65656A;" d="M352.2,134.6
			c-1.6,0-2.8-1.4-2.8-2.9c0-14.4,0-14.4,0-14.4c0-1.5,1.2-2.9,2.8-2.9c1.5,0,2.9,1.4,2.9,2.9c0,14.4,0,14.4,0,14.4
			C355,133.3,353.7,134.6,352.2,134.6z"/>
		<path style="clip-path:url(#SVGID_00000047045289900831474210000008577945498305720221_);fill:#65656A;" d="M89.7,303.5
			c-1.6,0-2.8-1.2-2.8-2.9c0-11.4,0-11.4,0-11.4c0-1.5,1.2-2.9,2.8-2.9s2.8,1.4,2.8,2.9c0,11.4,0,11.4,0,11.4
			C92.5,302.3,91.3,303.5,89.7,303.5z"/>
		<path style="clip-path:url(#SVGID_00000047045289900831474210000008577945498305720221_);fill:#65656A;" d="M106.7,303.5
			c-1.5,0-2.8-1.2-2.8-2.9c0-11.4,0-11.4,0-11.4c0-1.5,1.3-2.9,2.8-2.9c1.6,0,3,1.4,3,2.9c0,11.4,0,11.4,0,11.4
			C109.7,302.3,108.4,303.5,106.7,303.5z"/>
		<path style="clip-path:url(#SVGID_00000047045289900831474210000008577945498305720221_);fill:#65656A;" d="M123.9,303.5
			c-1.6,0-2.8-1.2-2.8-2.9c0-11.4,0-11.4,0-11.4c0-1.5,1.2-2.9,2.8-2.9c1.6,0,2.8,1.4,2.8,2.9c0,11.4,0,11.4,0,11.4
			C126.8,302.3,125.6,303.5,123.9,303.5z"/>
		<path style="clip-path:url(#SVGID_00000047045289900831474210000008577945498305720221_);fill:#65656A;" d="M141,303.5
			c-1.5,0-2.8-1.2-2.8-2.9c0-11.4,0-11.4,0-11.4c0-1.5,1.3-2.9,2.8-2.9c1.6,0,3,1.4,3,2.9c0,11.4,0,11.4,0,11.4
			C144,302.3,142.6,303.5,141,303.5z"/>
		<path style="clip-path:url(#SVGID_00000047045289900831474210000008577945498305720221_);fill:#65656A;" d="M158.2,303.5
			c-1.7,0-2.9-1.2-2.9-2.9c0-11.4,0-11.4,0-11.4c0-1.5,1.2-2.9,2.9-2.9c1.6,0,2.8,1.4,2.8,2.9c0,11.4,0,11.4,0,11.4
			C161,302.3,159.8,303.5,158.2,303.5z"/>
		<path style="clip-path:url(#SVGID_00000047045289900831474210000008577945498305720221_);fill:#65656A;" d="M175.2,303.5
			c-1.5,0-2.8-1.2-2.8-2.9c0-11.4,0-11.4,0-11.4c0-1.5,1.3-2.9,2.8-2.9c1.6,0,3,1.4,3,2.9c0,11.4,0,11.4,0,11.4
			C178.2,302.3,176.8,303.5,175.2,303.5z"/>
		<path style="clip-path:url(#SVGID_00000047045289900831474210000008577945498305720221_);fill:#65656A;" d="M192.4,303.5
			c-1.6,0-2.8-1.2-2.8-2.9c0-11.4,0-11.4,0-11.4c0-1.5,1.2-2.9,2.8-2.9c1.6,0,2.8,1.4,2.8,2.9c0,11.4,0,11.4,0,11.4
			C195.2,302.3,194,303.5,192.4,303.5z"/>
		<path style="clip-path:url(#SVGID_00000047045289900831474210000008577945498305720221_);fill:#65656A;" d="M209.4,303.5
			c-1.5,0-2.8-1.2-2.8-2.9c0-11.4,0-11.4,0-11.4c0-1.5,1.3-2.9,2.8-2.9c1.6,0,3,1.4,3,2.9c0,11.4,0,11.4,0,11.4
			C212.4,302.3,211.1,303.5,209.4,303.5z"/>
		<path style="clip-path:url(#SVGID_00000047045289900831474210000008577945498305720221_);fill:#65656A;" d="M226.6,303.5
			c-1.6,0-2.8-1.2-2.8-2.9c0-11.4,0-11.4,0-11.4c0-1.5,1.2-2.9,2.8-2.9c1.5,0,2.9,1.4,2.9,2.9c0,11.4,0,11.4,0,11.4
			C229.5,302.3,228.1,303.5,226.6,303.5z"/>
		<path style="clip-path:url(#SVGID_00000047045289900831474210000008577945498305720221_);fill:#65656A;" d="M243.7,303.5
			c-1.5,0-2.8-1.2-2.8-2.9c0-11.4,0-11.4,0-11.4c0-1.5,1.3-2.9,2.8-2.9c1.6,0,3,1.4,3,2.9c0,11.4,0,11.4,0,11.4
			C246.7,302.3,245.3,303.5,243.7,303.5z"/>
		<path style="clip-path:url(#SVGID_00000047045289900831474210000008577945498305720221_);fill:#65656A;" d="M260.9,303.5
			c-1.6,0-2.8-1.2-2.8-2.9c0-11.4,0-11.4,0-11.4c0-1.5,1.2-2.9,2.8-2.9c1.5,0,2.8,1.4,2.8,2.9c0,11.4,0,11.4,0,11.4
			C263.7,302.3,262.3,303.5,260.9,303.5z"/>
		<path style="clip-path:url(#SVGID_00000047045289900831474210000008577945498305720221_);fill:#65656A;" d="M277.9,303.5
			c-1.5,0-2.8-1.2-2.8-2.9c0-11.4,0-11.4,0-11.4c0-1.5,1.3-2.9,2.8-2.9c1.6,0,3,1.4,3,2.9c0,11.4,0,11.4,0,11.4
			C280.9,302.3,279.5,303.5,277.9,303.5z"/>
		<path style="clip-path:url(#SVGID_00000047045289900831474210000008577945498305720221_);fill:#65656A;" d="M295.1,303.5
			c-1.6,0-2.8-1.2-2.8-2.9c0-11.4,0-11.4,0-11.4c0-1.5,1.2-2.9,2.8-2.9c1.5,0,2.9,1.4,2.9,2.9c0,11.4,0,11.4,0,11.4
			C297.9,302.3,296.6,303.5,295.1,303.5z"/>
		<path style="clip-path:url(#SVGID_00000047045289900831474210000008577945498305720221_);fill:#65656A;" d="M312.1,303.5
			c-1.5,0-2.8-1.2-2.8-2.9c0-11.4,0-11.4,0-11.4c0-1.5,1.4-2.9,2.8-2.9c1.6,0,3,1.4,3,2.9c0,11.4,0,11.4,0,11.4
			C315.1,302.3,313.8,303.5,312.1,303.5z"/>
		<path style="clip-path:url(#SVGID_00000047045289900831474210000008577945498305720221_);fill:#65656A;" d="M329.3,303.5
			c-1.6,0-2.8-1.2-2.8-2.9c0-11.4,0-11.4,0-11.4c0-1.5,1.2-2.9,2.8-2.9c1.5,0,2.8,1.4,2.8,2.9c0,11.4,0,11.4,0,11.4
			C332.2,302.3,330.8,303.5,329.3,303.5z"/>
		<path style="clip-path:url(#SVGID_00000047045289900831474210000008577945498305720221_);fill:#65656A;" d="M346.4,303.5
			c-1.5,0-2.8-1.2-2.8-2.9c0-11.4,0-11.4,0-11.4c0-1.5,1.3-2.9,2.8-2.9c1.6,0,3,1.4,3,2.9c0,11.4,0,11.4,0,11.4
			C349.3,302.3,348,303.5,346.4,303.5z"/>
		<path style="clip-path:url(#SVGID_00000047045289900831474210000008577945498305720221_);fill:#65656A;" d="M363.5,303.5
			c-1.6,0-2.8-1.2-2.8-2.9c0-11.4,0-11.4,0-11.4c0-1.5,1.2-2.9,2.8-2.9c1.5,0,2.8,1.4,2.8,2.9c0,11.4,0,11.4,0,11.4
			C366.4,302.3,365,303.5,363.5,303.5z"/>
		<path style="clip-path:url(#SVGID_00000047045289900831474210000008577945498305720221_);fill:#65656A;" d="M380.6,303.5
			c-1.5,0-2.8-1.2-2.8-2.9c0-11.4,0-11.4,0-11.4c0-1.5,1.3-2.9,2.8-2.9c1.7,0,3,1.4,3,2.9c0,11.4,0,11.4,0,11.4
			C383.6,302.3,382.2,303.5,380.6,303.5z"/>
		<path style="clip-path:url(#SVGID_00000047045289900831474210000008577945498305720221_);fill:#65656A;" d="M397.8,303.5
			c-1.6,0-2.8-1.2-2.8-2.9c0-11.4,0-11.4,0-11.4c0-1.5,1.2-2.9,2.8-2.9c1.5,0,2.8,1.4,2.8,2.9c0,11.4,0,11.4,0,11.4
			C400.6,302.3,399.3,303.5,397.8,303.5z"/>
		<path style="clip-path:url(#SVGID_00000047045289900831474210000008577945498305720221_);fill:#65656A;" d="M414.8,303.5
			c-1.5,0-2.8-1.2-2.8-2.9c0-11.4,0-11.4,0-11.4c0-1.5,1.3-2.9,2.8-2.9c1.6,0,3,1.4,3,2.9c0,11.4,0,11.4,0,11.4
			C417.8,302.3,416.5,303.5,414.8,303.5z"/>
		<path style="clip-path:url(#SVGID_00000047045289900831474210000008577945498305720221_);fill:#65656A;" d="M432,303.5
			c-1.6,0-2.8-1.2-2.8-2.9c0-11.4,0-11.4,0-11.4c0-1.5,1.2-2.9,2.8-2.9c1.5,0,2.8,1.4,2.8,2.9c0,11.4,0,11.4,0,11.4
			C434.8,302.3,433.5,303.5,432,303.5z"/>
		<path style="clip-path:url(#SVGID_00000047045289900831474210000008577945498305720221_);fill:#65656A;" d="M72.5,166.2
			c-1.5,0-2.9-1.4-2.9-3c0-8.6,0-8.6,0-8.6c0-1.5,1.3-2.9,2.9-2.9c1.6,0,3,1.4,3,2.9c0,8.6,0,8.6,0,8.6
			C75.5,164.8,74.2,166.2,72.5,166.2z"/>
		<path style="clip-path:url(#SVGID_00000047045289900831474210000008577945498305720221_);fill:#65656A;" d="M89.7,166.2
			c-1.6,0-2.8-1.4-2.8-3c0-8.6,0-8.6,0-8.6c0-1.5,1.2-2.9,2.8-2.9s2.8,1.4,2.8,2.9c0,8.6,0,8.6,0,8.6
			C92.5,164.8,91.3,166.2,89.7,166.2z"/>
		<path style="clip-path:url(#SVGID_00000047045289900831474210000008577945498305720221_);fill:#65656A;" d="M106.7,166.2
			c-1.5,0-2.8-1.4-2.8-3c0-8.6,0-8.6,0-8.6c0-1.5,1.3-2.9,2.8-2.9c1.6,0,3,1.4,3,2.9c0,8.6,0,8.6,0,8.6
			C109.7,164.8,108.4,166.2,106.7,166.2z"/>
		<path style="clip-path:url(#SVGID_00000047045289900831474210000008577945498305720221_);fill:#65656A;" d="M123.9,166.2
			c-1.6,0-2.8-1.4-2.8-3c0-8.6,0-8.6,0-8.6c0-1.5,1.2-2.9,2.8-2.9c1.6,0,2.8,1.4,2.8,2.9c0,8.6,0,8.6,0,8.6
			C126.8,164.8,125.6,166.2,123.9,166.2z"/>
		<path style="clip-path:url(#SVGID_00000047045289900831474210000008577945498305720221_);fill:#65656A;" d="M141,166.2
			c-1.5,0-2.8-1.4-2.8-3c0-8.6,0-8.6,0-8.6c0-1.5,1.3-2.9,2.8-2.9c1.6,0,3,1.4,3,2.9c0,8.6,0,8.6,0,8.6
			C144,164.8,142.6,166.2,141,166.2z"/>
		<path style="clip-path:url(#SVGID_00000047045289900831474210000008577945498305720221_);fill:#65656A;" d="M158.2,166.2
			c-1.7,0-2.9-1.4-2.9-3c0-8.6,0-8.6,0-8.6c0-1.5,1.2-2.9,2.9-2.9c1.6,0,2.8,1.4,2.8,2.9c0,8.6,0,8.6,0,8.6
			C161,164.8,159.8,166.2,158.2,166.2z"/>
		<path style="clip-path:url(#SVGID_00000047045289900831474210000008577945498305720221_);fill:#65656A;" d="M175.2,166.2
			c-1.5,0-2.8-1.4-2.8-3c0-8.6,0-8.6,0-8.6c0-1.5,1.3-2.9,2.8-2.9c1.6,0,3,1.4,3,2.9c0,8.6,0,8.6,0,8.6
			C178.2,164.8,176.8,166.2,175.2,166.2z"/>
		<path style="clip-path:url(#SVGID_00000047045289900831474210000008577945498305720221_);fill:#65656A;" d="M192.4,166.2
			c-1.6,0-2.8-1.4-2.8-3c0-8.6,0-8.6,0-8.6c0-1.5,1.2-2.9,2.8-2.9c1.6,0,2.8,1.4,2.8,2.9c0,8.6,0,8.6,0,8.6
			C195.2,164.8,194,166.2,192.4,166.2z"/>
		<path style="clip-path:url(#SVGID_00000047045289900831474210000008577945498305720221_);fill:#65656A;" d="M209.4,166.2
			c-1.5,0-2.8-1.4-2.8-3c0-8.6,0-8.6,0-8.6c0-1.5,1.3-2.9,2.8-2.9c1.6,0,3,1.4,3,2.9c0,8.6,0,8.6,0,8.6
			C212.4,164.8,211.1,166.2,209.4,166.2z"/>
		<path style="clip-path:url(#SVGID_00000047045289900831474210000008577945498305720221_);fill:#65656A;" d="M226.6,166.2
			c-1.6,0-2.8-1.4-2.8-3c0-8.6,0-8.6,0-8.6c0-1.5,1.2-2.9,2.8-2.9c1.5,0,2.9,1.4,2.9,2.9c0,8.6,0,8.6,0,8.6
			C229.5,164.8,228.1,166.2,226.6,166.2z"/>
		<path style="clip-path:url(#SVGID_00000047045289900831474210000008577945498305720221_);fill:#65656A;" d="M243.7,166.2
			c-1.5,0-2.8-1.4-2.8-3c0-8.6,0-8.6,0-8.6c0-1.5,1.3-2.9,2.8-2.9c1.6,0,3,1.4,3,2.9c0,8.6,0,8.6,0,8.6
			C246.7,164.8,245.3,166.2,243.7,166.2z"/>
		<path style="clip-path:url(#SVGID_00000047045289900831474210000008577945498305720221_);fill:#65656A;" d="M260.9,166.2
			c-1.6,0-2.8-1.4-2.8-3c0-8.6,0-8.6,0-8.6c0-1.5,1.2-2.9,2.8-2.9c1.5,0,2.8,1.4,2.8,2.9c0,8.6,0,8.6,0,8.6
			C263.7,164.8,262.3,166.2,260.9,166.2z"/>
		<path style="clip-path:url(#SVGID_00000047045289900831474210000008577945498305720221_);fill:#65656A;" d="M277.9,166.2
			c-1.5,0-2.8-1.4-2.8-3c0-8.6,0-8.6,0-8.6c0-1.5,1.3-2.9,2.8-2.9c1.6,0,3,1.4,3,2.9c0,8.6,0,8.6,0,8.6
			C280.9,164.8,279.5,166.2,277.9,166.2z"/>
		<path style="clip-path:url(#SVGID_00000047045289900831474210000008577945498305720221_);fill:#65656A;" d="M295.1,166.2
			c-1.6,0-2.8-1.4-2.8-3c0-8.6,0-8.6,0-8.6c0-1.5,1.2-2.9,2.8-2.9c1.5,0,2.9,1.4,2.9,2.9c0,8.6,0,8.6,0,8.6
			C297.9,164.8,296.6,166.2,295.1,166.2z"/>
		<path style="clip-path:url(#SVGID_00000047045289900831474210000008577945498305720221_);fill:#65656A;" d="M312.1,166.2
			c-1.5,0-2.8-1.4-2.8-3c0-8.6,0-8.6,0-8.6c0-1.5,1.4-2.9,2.8-2.9c1.6,0,3,1.4,3,2.9c0,8.6,0,8.6,0,8.6
			C315.1,164.8,313.8,166.2,312.1,166.2z"/>
		<path style="clip-path:url(#SVGID_00000047045289900831474210000008577945498305720221_);fill:#65656A;" d="M329.3,166.2
			c-1.6,0-2.8-1.4-2.8-3c0-8.6,0-8.6,0-8.6c0-1.5,1.2-2.9,2.8-2.9c1.5,0,2.8,1.4,2.8,2.9c0,8.6,0,8.6,0,8.6
			C332.2,164.8,330.8,166.2,329.3,166.2z"/>
		<path style="clip-path:url(#SVGID_00000047045289900831474210000008577945498305720221_);fill:#65656A;" d="M346.4,166.2
			c-1.5,0-2.8-1.4-2.8-3c0-8.6,0-8.6,0-8.6c0-1.5,1.3-2.9,2.8-2.9c1.6,0,3,1.4,3,2.9c0,8.6,0,8.6,0,8.6
			C349.3,164.8,348,166.2,346.4,166.2z"/>
		<path style="clip-path:url(#SVGID_00000047045289900831474210000008577945498305720221_);fill:#65656A;" d="M363.5,166.2
			c-1.6,0-2.8-1.4-2.8-3c0-8.6,0-8.6,0-8.6c0-1.5,1.2-2.9,2.8-2.9c1.5,0,2.8,1.4,2.8,2.9c0,8.6,0,8.6,0,8.6
			C366.4,164.8,365,166.2,363.5,166.2z"/>
		<path style="clip-path:url(#SVGID_00000047045289900831474210000008577945498305720221_);fill:#65656A;" d="M380.6,166.2
			c-1.5,0-2.8-1.4-2.8-3c0-8.6,0-8.6,0-8.6c0-1.5,1.3-2.9,2.8-2.9c1.7,0,3,1.4,3,2.9c0,8.6,0,8.6,0,8.6
			C383.6,164.8,382.2,166.2,380.6,166.2z"/>
		<path style="clip-path:url(#SVGID_00000047045289900831474210000008577945498305720221_);fill:#65656A;" d="M397.8,166.2
			c-1.6,0-2.8-1.4-2.8-3c0-8.6,0-8.6,0-8.6c0-1.5,1.2-2.9,2.8-2.9c1.5,0,2.8,1.4,2.8,2.9c0,8.6,0,8.6,0,8.6
			C400.6,164.8,399.3,166.2,397.8,166.2z"/>
		<path style="clip-path:url(#SVGID_00000047045289900831474210000008577945498305720221_);fill:#65656A;" d="M414.8,166.2
			c-1.5,0-2.8-1.4-2.8-3c0-8.6,0-8.6,0-8.6c0-1.5,1.3-2.9,2.8-2.9c1.6,0,3,1.4,3,2.9c0,8.6,0,8.6,0,8.6
			C417.8,164.8,416.5,166.2,414.8,166.2z"/>
		<path style="clip-path:url(#SVGID_00000047045289900831474210000008577945498305720221_);fill:#65656A;" d="M432,166.2
			c-1.6,0-2.8-1.4-2.8-3c0-8.6,0-8.6,0-8.6c0-1.5,1.2-2.9,2.8-2.9c1.5,0,2.8,1.4,2.8,2.9c0,8.6,0,8.6,0,8.6
			C434.8,164.8,433.5,166.2,432,166.2z"/>
		<path style="clip-path:url(#SVGID_00000047045289900831474210000008577945498305720221_);fill:#65656A;" d="M389.3,335.1
			c-1.6,0-2.8-1.2-2.8-2.9c0-11.4,0-11.4,0-11.4c0-1.7,1.2-2.9,2.8-2.9c1.5,0,2.8,1.2,2.8,2.9c0,11.4,0,11.4,0,11.4
			C392.1,333.9,390.7,335.1,389.3,335.1z"/>
		<path style="clip-path:url(#SVGID_00000047045289900831474210000008577945498305720221_);fill:#65656A;" d="M406.3,335.1
			c-1.5,0-2.8-1.2-2.8-2.9c0-11.4,0-11.4,0-11.4c0-1.7,1.3-2.9,2.8-2.9c1.6,0,2.9,1.2,2.9,2.9c0,11.4,0,11.4,0,11.4
			C409.1,333.9,407.9,335.1,406.3,335.1z"/>
		<path style="clip-path:url(#SVGID_00000047045289900831474210000008577945498305720221_);fill:#65656A;" d="M423.5,335.1
			c-1.7,0-2.9-1.2-2.9-2.9c0-11.4,0-11.4,0-11.4c0-1.7,1.2-2.9,2.9-2.9c1.5,0,2.8,1.2,2.8,2.9c0,11.4,0,11.4,0,11.4
			C426.3,333.9,425,335.1,423.5,335.1z"/>
		<path style="clip-path:url(#SVGID_00000047045289900831474210000008577945498305720221_);fill:#65656A;" d="M440.5,335.1
			c-1.5,0-2.8-1.2-2.8-2.9c0-11.4,0-11.4,0-11.4c0-1.7,1.3-2.9,2.8-2.9c1.6,0,2.8,1.2,2.8,2.9c0,11.4,0,11.4,0,11.4
			C443.4,333.9,442.2,335.1,440.5,335.1z"/>
		<path style="clip-path:url(#SVGID_00000047045289900831474210000008577945498305720221_);fill:#65656A;" d="M457.7,335.1
			c-1.6,0-2.8-1.2-2.8-2.9c0-11.4,0-11.4,0-11.4c0-1.7,1.2-2.9,2.8-2.9c1.5,0,2.8,1.2,2.8,2.9c0,11.4,0,11.4,0,11.4
			C460.6,333.9,459.2,335.1,457.7,335.1z"/>
		<path style="clip-path:url(#SVGID_00000047045289900831474210000008577945498305720221_);fill:#65656A;" d="M213.8,233.4
			c-45.6,0-45.6,0-45.6,0c-1.6,0-2.8-1.3-2.8-2.9c0-1.6,1.2-2.9,2.8-2.9c45.6,0,45.6,0,45.6,0c1.6,0,2.8,1.2,2.8,2.9
			C216.6,232.1,215.4,233.4,213.8,233.4z"/>
		<path style="clip-path:url(#SVGID_00000047045289900831474210000008577945498305720221_);fill:#65656A;" d="M128.3,103.1
			c-45.7,0-45.7,0-45.7,0c-1.5,0-2.8-1.3-2.8-2.9c0-1.6,1.3-2.9,2.8-2.9c45.7,0,45.7,0,45.7,0c1.5,0,2.8,1.2,2.8,2.9
			C131.1,101.7,129.8,103.1,128.3,103.1z"/>
		<path style="clip-path:url(#SVGID_00000047045289900831474210000008577945498305720221_);fill:#65656A;" d="M199.6,103.1
			c-45.7,0-45.7,0-45.7,0c-1.5,0-2.8-1.3-2.8-2.9c0-1.6,1.3-2.9,2.8-2.9c45.7,0,45.7,0,45.7,0c1.5,0,2.8,1.2,2.8,2.9
			C202.4,101.7,201.1,103.1,199.6,103.1z"/>
		<path style="clip-path:url(#SVGID_00000047045289900831474210000008577945498305720221_);fill:#65656A;" d="M270.9,103.1
			c-45.7,0-45.7,0-45.7,0c-1.5,0-2.8-1.3-2.8-2.9c0-1.6,1.3-2.9,2.8-2.9c45.7,0,45.7,0,45.7,0c1.5,0,2.8,1.2,2.8,2.9
			C273.7,101.7,272.4,103.1,270.9,103.1z"/>
		<path style="clip-path:url(#SVGID_00000047045289900831474210000008577945498305720221_);fill:#65656A;" d="M345,103.1
			c-45.6,0-45.6,0-45.6,0c-1.6,0-3-1.3-3-2.9c0-1.6,1.4-2.9,3-2.9c45.6,0,45.6,0,45.6,0c1.5,0,2.8,1.2,2.8,2.9
			C347.8,101.7,346.5,103.1,345,103.1z"/>
		<path style="clip-path:url(#SVGID_00000047045289900831474210000008577945498305720221_);fill:#65656A;" d="M287.9,233.4
			c-42.8,0-42.8,0-42.8,0c-1.6,0-2.8-1.3-2.8-2.9c0-1.6,1.2-2.9,2.8-2.9c42.8,0,42.8,0,42.8,0c1.6,0,2.8,1.2,2.8,2.9
			C290.7,232.1,289.6,233.4,287.9,233.4z"/>
		<path style="clip-path:url(#SVGID_00000047045289900831474210000008577945498305720221_);fill:#65656A;" d="M364.9,233.4
			c-45.6,0-45.6,0-45.6,0c-1.5,0-2.8-1.3-2.8-2.9c0-1.6,1.3-2.9,2.8-2.9c45.6,0,45.6,0,45.6,0c1.6,0,3,1.2,3,2.9
			C367.9,232.1,366.5,233.4,364.9,233.4z"/>
		<path style="clip-path:url(#SVGID_00000047045289900831474210000008577945498305720221_);fill:#65656A;" d="M436.3,355.2
			c-57.1,0-57.1,0-57.1,0c-1.6,0-2.8-1.3-2.8-2.9c0-1.6,1.2-2.9,2.8-2.9c57.1,0,57.1,0,57.1,0c1.5,0,2.9,1.2,2.9,2.9
			C439.2,353.9,437.8,355.2,436.3,355.2z"/>
		<path style="clip-path:url(#SVGID_00000047045289900831474210000008577945498305720221_);fill:#65656A;" d="M423.5,266.3
			c-1.7,0-2.9-1.2-2.9-2.9c0-71.6,0-71.6,0-71.6c0-1.5,1.2-2.9,2.9-2.9c1.5,0,2.8,1.4,2.8,2.9c0,71.6,0,71.6,0,71.6
			C426.3,265.1,425,266.3,423.5,266.3z"/>
		<path style="clip-path:url(#SVGID_00000047045289900831474210000008577945498305720221_);fill:#65656A;" d="M394.9,266.3
			c-1.7,0-2.8-1.2-2.8-2.9c0-71.6,0-71.6,0-71.6c0-1.5,1.2-2.9,2.8-2.9c1.5,0,2.8,1.4,2.8,2.9c0,71.6,0,71.6,0,71.6
			C397.8,265.1,396.4,266.3,394.9,266.3z"/>
	</g>
</g>
<g id="Client_-_IOT_PLC">
</g>
<g id="Client_-_IOT_Patient_Monitor">
</g>
<g id="Client_-_IOT_Camera">
</g>
<g id="Client_-_IOT_Scanner">
</g>
<g id="IOT_-_TV_Cast">
</g>
<g id="Client_-_Printer">
</g>
<g id="Client_-_Game_Console">
</g>
<g id="Client_-_IP_Phone">
</g>
<g id="Client_-_Laptop">
</g>
<g id="Client_-_Desktop">
</g>
<g id="Client_-_Workstation">
</g>
<g id="Client_-_Tablet">
</g>
<g id="Client_-_Mobile_2">
</g>
<g id="Client_-_Mobile_1">
</g>
<g id="Device_-_EdgeConnect_Enterprise_Cloud">
</g>
<g id="Device_-_EdgeConnect_Enterprise_Virtual">
</g>
<g id="Device_-_EdgeConnect_Enterprise_Appliance">
</g>
<g id="Device_-_Core_Agg_Leaf_Switch">
</g>
<g id="Device_-_Access_Switch">
</g>
<g id="Device_-_Gateway_Headend">
</g>
<g id="Device_-_Gateway_Branch">
</g>
<g id="Device_-_Gateway_Campus">
</g>
<g id="Device_-_UXI_Sensor_New">
</g>
<g id="Device_-_UXI_Sensor">
</g>
<g id="Device_-_AP500_Series_Microbranch">
</g>
<g id="Device_-_AP600_Series">
</g>
<g id="Device_-_AP500_Series">
</g>
<g id="Device_-_Outdoor_AP">
</g>
</svg>
