<?xml version="1.0" encoding="utf-8"?>
<!-- Generator: Adobe Illustrator 26.3.1, SVG Export Plug-In . SVG Version: 6.00 Build 0)  -->
<svg version="1.1" xmlns="http://www.w3.org/2000/svg" xmlns:xlink="http://www.w3.org/1999/xlink" x="0px" y="0px"
	 viewBox="0 0 500 500" style="enable-background:new 0 0 500 500;" xml:space="preserve">
<style type="text/css">
	.st0{fill:#FFFFFF;}
	.st1{fill:#FF8300;}
	.st2{fill:#F78200;}
	.st3{fill:#F7931E;}
	.st4{fill:#5D5D5D;}
	.st5{fill:#FFFFFF;stroke:#65656A;stroke-width:12;stroke-miterlimit:10;}
	.st6{display:none;fill:#979797;stroke:#979797;stroke-width:3;stroke-linecap:round;stroke-linejoin:round;stroke-miterlimit:10;}
	.st7{fill:#979797;}
	.st8{fill:#65656A;}
	.st9{stroke:#009245;stroke-width:3;stroke-miterlimit:10;}
	.st10{fill:#F58220;}
	.st11{clip-path:url(#SVGID_00000084529108837500935920000002718552180650505646_);fill:#5E5E5E;}
	.st12{clip-path:url(#SVGID_00000088119902375652401430000015105157719254725540_);fill:#FFFFFF;}
	.st13{clip-path:url(#SVGID_00000124157924160730491870000007994205598352528278_);fill:#FFFFFF;}
	.st14{clip-path:url(#SVGID_00000124157924160730491870000007994205598352528278_);fill:#FF8300;}
	.st15{clip-path:url(#SVGID_00000080917243305976387130000002487745062644617919_);fill:#FFFFFF;}
	.st16{clip-path:url(#SVGID_00000080917243305976387130000002487745062644617919_);fill:#ADE1F0;}
	.st17{clip-path:url(#SVGID_00000006681111503847365950000015420638193411417225_);fill:#65656A;}
	.st18{clip-path:url(#SVGID_00000006681111503847365950000015420638193411417225_);fill:#646569;}
	.st19{clip-path:url(#SVGID_00000006681111503847365950000015420638193411417225_);fill:#D0D0D2;}
	.st20{clip-path:url(#SVGID_00000165954250634505756710000010622076026950280351_);fill:#FFFFFF;}
	.st21{clip-path:url(#SVGID_00000165954250634505756710000010622076026950280351_);fill:#646569;}
	.st22{clip-path:url(#SVGID_00000165954250634505756710000010622076026950280351_);fill:#65656A;}
	
		.st23{clip-path:url(#SVGID_00000048497207833097232120000002225111525285497244_);fill:#FFFFFF;stroke:#000000;stroke-miterlimit:10;}
	.st24{clip-path:url(#SVGID_00000048497207833097232120000002225111525285497244_);fill:#646569;}
	.st25{clip-path:url(#SVGID_00000048497207833097232120000002225111525285497244_);fill:#65656A;}
	
		.st26{clip-path:url(#SVGID_00000048497207833097232120000002225111525285497244_);fill:none;stroke:#65656A;stroke-width:0.1925;stroke-linecap:round;stroke-linejoin:round;stroke-miterlimit:10;}
	.st27{clip-path:url(#SVGID_00000062895501764248266410000016361465088722903433_);fill:#FFFFFF;}
	.st28{clip-path:url(#SVGID_00000062895501764248266410000016361465088722903433_);fill:#65656A;}
	.st29{clip-path:url(#SVGID_00000062895501764248266410000016361465088722903433_);fill:#646569;}
	.st30{clip-path:url(#SVGID_00000183963962016200603920000012259076674910265473_);fill:#FFFFFF;}
	.st31{clip-path:url(#SVGID_00000183963962016200603920000012259076674910265473_);fill:#646569;}
	.st32{clip-path:url(#SVGID_00000067212203963841936760000001609970665846079628_);fill:#FFFFFF;}
	.st33{clip-path:url(#SVGID_00000067212203963841936760000001609970665846079628_);fill:#65656A;}
	.st34{clip-path:url(#SVGID_00000067212203963841936760000001609970665846079628_);fill:#646569;}
	.st35{fill:#646569;}
	.st36{clip-path:url(#SVGID_00000176023049831682610400000008626373353585884035_);fill:#FFFFFF;}
	.st37{clip-path:url(#SVGID_00000176023049831682610400000008626373353585884035_);fill:#65666A;}
	
		.st38{clip-path:url(#SVGID_00000176023049831682610400000008626373353585884035_);fill:none;stroke:#65666A;stroke-width:0.1748;stroke-miterlimit:10;}
	.st39{clip-path:url(#SVGID_00000054951156731397611090000002314753131356521108_);fill:#FFFFFF;}
	.st40{clip-path:url(#SVGID_00000054951156731397611090000002314753131356521108_);fill:#646569;}
	.st41{fill:none;stroke:#65656A;stroke-width:3;stroke-miterlimit:10;}
	.st42{fill:#EC8020;}
	.st43{fill:#ED8020;}
	.st44{fill:none;stroke:#65656A;stroke-width:3;stroke-linecap:round;stroke-miterlimit:10;}
	.st45{fill:none;stroke:#646569;stroke-width:10;stroke-linejoin:round;stroke-miterlimit:10;}
	.st46{fill:none;stroke:#646569;stroke-width:10;stroke-miterlimit:10;}
	.st47{fill:none;stroke:#646569;stroke-width:10;stroke-linecap:round;stroke-miterlimit:10;}
	.st48{fill:none;stroke:#65656A;stroke-width:8;stroke-linecap:round;stroke-miterlimit:10;}
	.st49{fill:#FFFFFF;stroke:#65656A;stroke-width:8;stroke-linecap:round;stroke-linejoin:round;stroke-miterlimit:10;}
	.st50{fill:none;stroke:#65656A;stroke-width:8;stroke-miterlimit:10;}
</style>
<g id="Function_-_Central_APIs">
</g>
<g id="Function_-_Central_Route_Orchestrator">
</g>
<g id="Function_-_Central_Tunnel_Orchestrator">
</g>
<g id="Function_-_Central_NetConductor">
</g>
<g id="Function_-_Central_Network_Management">
</g>
<g id="Function_-_Central_Network_Insights">
</g>
<g id="Function_-_Central_Client_Insights">
</g>
<g id="Function_-_ClearPass_Policy_Manager">
</g>
<g id="Function_-_UXI_APIs">
</g>
<g id="Function_-_UXI_Dashboard">
</g>
<g id="Function_-_Orchestrator_Global_Enterprise">
</g>
<g id="Function_-_Orchestrator">
</g>
<g id="Function_-_Pensando_Policy_and_Services_Manager">
</g>
<g id="Function_-_Fabric_Composer">
</g>
<g id="Generic_-_Virtual_Machine">
</g>
<g id="Generic_-_Server_Single">
</g>
<g id="Generic_-_Server_Multi">
</g>
<g id="Generic_-_Router">
</g>
<g id="Generic_-_Firewall">
</g>
<g id="Wi-Fi_Signal">
</g>
<g id="Generic_-_Cloud_Function_Container_Grey">
</g>
<g id="Generic_-_Cloud_Function_Container_White">
</g>
<g id="Generic_-_Cloud_Internet_Circuit">
</g>
<g id="Generic_-_Cloud_Private_Circuit">
</g>
<g id="Generic_-_Cloud">
</g>
<g id="Client_-_IOT_Sensor">
</g>
<g id="Client_-_IOT_IO">
</g>
<g id="Client_-_IOT_PLC">
	<g>
		<defs>
			<rect id="SVGID_00000015349292696396616510000011011460216246979726_" x="6.2" y="114.9" width="488.6" height="266.2"/>
		</defs>
		<clipPath id="SVGID_00000171678948845438583500000004434838936306283913_">
			<use xlink:href="#SVGID_00000015349292696396616510000011011460216246979726_"  style="overflow:visible;"/>
		</clipPath>
		
			<path style="clip-path:url(#SVGID_00000171678948845438583500000004434838936306283913_);fill:#FFFFFF;stroke:#000000;stroke-miterlimit:10;" d="
			M468.5,361.8H28.2c-3.8,0-6.9-3.1-6.9-6.9V133.8c0-3.8,3.1-6.9,6.9-6.9h440.4c3.8,0,6.9,3.1,6.9,6.9V355
			C475.4,358.8,472.3,361.8,468.5,361.8z"/>
		<path style="clip-path:url(#SVGID_00000171678948845438583500000004434838936306283913_);fill:#646569;" d="M103.3,205.6
			c0,1.5-1.2,2.7-2.7,2.7c-8.3,0-8.3,0-8.3,0c-1.5,0-2.7-1.2-2.7-2.7c0-52,0-52,0-52c0-1.5,1.2-2.9,2.7-2.9c8.3,0,8.3,0,8.3,0
			c1.5,0,2.7,1.4,2.7,2.9V205.6z"/>
		<path style="clip-path:url(#SVGID_00000171678948845438583500000004434838936306283913_);fill:#65656A;" d="M27.8,130.3
			c-3,0-5.4,2.4-5.4,5.4c0,219.4,0,219.4,0,219.4c0,3,2.4,5.4,5.4,5.4c439.3,0,439.3,0,439.3,0c3,0,5.6-2.4,5.6-5.4
			c0-219.4,0-219.4,0-219.4c0-3-2.6-5.4-5.6-5.4H27.8z M467.1,366c-439.3,0-439.3,0-439.3,0c-6,0-11-5-11-11
			c0-219.4,0-219.4,0-219.4c0-6,5-10.9,11-10.9c439.3,0,439.3,0,439.3,0c6.1,0,11,4.8,11,10.9c0,219.4,0,219.4,0,219.4
			C478.1,361.1,473.1,366,467.1,366z"/>
		<path style="clip-path:url(#SVGID_00000171678948845438583500000004434838936306283913_);fill:#65656A;" d="M129.5,364.7
			c-1.5,0-2.7-1.2-2.7-2.7c0-233.1,0-233.1,0-233.1c0-1.5,1.2-2.7,2.7-2.7c1.5,0,2.7,1.2,2.7,2.7c0,233.1,0,233.1,0,233.1
			C132.2,363.5,131,364.7,129.5,364.7z"/>
		<path style="clip-path:url(#SVGID_00000171678948845438583500000004434838936306283913_);fill:#65656A;" d="M187.1,364.7
			c-1.5,0-2.9-1.2-2.9-2.7c0-233.1,0-233.1,0-233.1c0-1.5,1.4-2.7,2.9-2.7c1.5,0,2.7,1.2,2.7,2.7c0,233.1,0,233.1,0,233.1
			C189.9,363.5,188.6,364.7,187.1,364.7z"/>
		<path style="clip-path:url(#SVGID_00000171678948845438583500000004434838936306283913_);fill:#65656A;" d="M244.7,364.7
			c-1.5,0-2.7-1.2-2.7-2.7c0-233.1,0-233.1,0-233.1c0-1.5,1.2-2.7,2.7-2.7c1.5,0,2.9,1.2,2.9,2.7c0,233.1,0,233.1,0,233.1
			C247.5,363.5,246.2,364.7,244.7,364.7z"/>
		<path style="clip-path:url(#SVGID_00000171678948845438583500000004434838936306283913_);fill:#65656A;" d="M302.3,364.7
			c-1.5,0-2.7-1.2-2.7-2.7c0-233.1,0-233.1,0-233.1c0-1.5,1.2-2.7,2.7-2.7c1.5,0,2.7,1.2,2.7,2.7c0,233.1,0,233.1,0,233.1
			C305.1,363.5,303.9,364.7,302.3,364.7z"/>
		<path style="clip-path:url(#SVGID_00000171678948845438583500000004434838936306283913_);fill:#65656A;" d="M360,364.7
			c-1.5,0-2.7-1.2-2.7-2.7c0-233.1,0-233.1,0-233.1c0-1.5,1.2-2.7,2.7-2.7c1.5,0,2.7,1.2,2.7,2.7c0,233.1,0,233.1,0,233.1
			C362.8,363.5,361.5,364.7,360,364.7z"/>
		<path style="clip-path:url(#SVGID_00000171678948845438583500000004434838936306283913_);fill:#65656A;" d="M417.7,364.7
			c-1.5,0-2.7-1.2-2.7-2.7c0-233.1,0-233.1,0-233.1c0-1.5,1.2-2.7,2.7-2.7c1.5,0,2.7,1.2,2.7,2.7c0,233.1,0,233.1,0,233.1
			C420.4,363.5,419.2,364.7,417.7,364.7z"/>
		
			<line style="clip-path:url(#SVGID_00000171678948845438583500000004434838936306283913_);fill:none;stroke:#65656A;stroke-width:0.1925;stroke-linecap:round;stroke-linejoin:round;stroke-miterlimit:10;" x1="475.4" y1="361.8" x2="475.4" y2="361.8"/>
		<path style="clip-path:url(#SVGID_00000171678948845438583500000004434838936306283913_);fill:#65656A;" d="M167.2,304.4
			c0,4.5-3.8,8.1-8.3,8.1c-4.5,0-8.2-3.6-8.2-8.1c0-4.5,3.6-8.3,8.2-8.3C163.4,296.1,167.2,299.9,167.2,304.4z"/>
		<path style="clip-path:url(#SVGID_00000171678948845438583500000004434838936306283913_);fill:#65656A;" d="M454.7,161.8
			c0,1.5-1.2,2.7-2.7,2.7c-19.2,0-19.2,0-19.2,0c-1.5,0-2.7-1.2-2.7-2.7c0-5.4,0-5.4,0-5.4c0-1.5,1.2-2.7,2.7-2.7
			c19.2,0,19.2,0,19.2,0c1.5,0,2.7,1.2,2.7,2.7V161.8z"/>
		<path style="clip-path:url(#SVGID_00000171678948845438583500000004434838936306283913_);fill:#65656A;" d="M454.7,175.5
			c0,1.5-1.2,2.7-2.7,2.7c-19.2,0-19.2,0-19.2,0c-1.5,0-2.7-1.2-2.7-2.7c0-5.4,0-5.4,0-5.4c0-1.5,1.2-2.7,2.7-2.7
			c19.2,0,19.2,0,19.2,0c1.5,0,2.7,1.2,2.7,2.7V175.5z"/>
		<path style="clip-path:url(#SVGID_00000171678948845438583500000004434838936306283913_);fill:#65656A;" d="M454.7,189.2
			c0,1.5-1.2,2.7-2.7,2.7c-19.2,0-19.2,0-19.2,0c-1.5,0-2.7-1.2-2.7-2.7c0-5.4,0-5.4,0-5.4c0-1.5,1.2-2.9,2.7-2.9
			c19.2,0,19.2,0,19.2,0c1.5,0,2.7,1.4,2.7,2.9V189.2z"/>
		<path style="clip-path:url(#SVGID_00000171678948845438583500000004434838936306283913_);fill:#65656A;" d="M454.7,202.9
			c0,1.5-1.2,2.7-2.7,2.7c-19.2,0-19.2,0-19.2,0c-1.5,0-2.7-1.2-2.7-2.7c0-5.4,0-5.4,0-5.4c0-1.5,1.2-2.9,2.7-2.9
			c19.2,0,19.2,0,19.2,0c1.5,0,2.7,1.4,2.7,2.9V202.9z"/>
		<path style="clip-path:url(#SVGID_00000171678948845438583500000004434838936306283913_);fill:#65656A;" d="M454.7,216.6
			c0,1.5-1.2,2.7-2.7,2.7c-19.2,0-19.2,0-19.2,0c-1.5,0-2.7-1.2-2.7-2.7c0-5.6,0-5.6,0-5.6c0-1.5,1.2-2.7,2.7-2.7
			c19.2,0,19.2,0,19.2,0c1.5,0,2.7,1.2,2.7,2.7V216.6z"/>
		<path style="clip-path:url(#SVGID_00000171678948845438583500000004434838936306283913_);fill:#65656A;" d="M454.7,230.4
			c0,1.5-1.2,2.7-2.7,2.7c-19.2,0-19.2,0-19.2,0c-1.5,0-2.7-1.2-2.7-2.7c0-5.6,0-5.6,0-5.6c0-1.5,1.2-2.7,2.7-2.7
			c19.2,0,19.2,0,19.2,0c1.5,0,2.7,1.2,2.7,2.7V230.4z"/>
		<path style="clip-path:url(#SVGID_00000171678948845438583500000004434838936306283913_);fill:#65656A;" d="M454.7,244.1
			c0,1.5-1.2,2.7-2.7,2.7c-19.2,0-19.2,0-19.2,0c-1.5,0-2.7-1.2-2.7-2.7c0-5.6,0-5.6,0-5.6c0-1.5,1.2-2.7,2.7-2.7
			c19.2,0,19.2,0,19.2,0c1.5,0,2.7,1.2,2.7,2.7V244.1z"/>
		<path style="clip-path:url(#SVGID_00000171678948845438583500000004434838936306283913_);fill:#65656A;" d="M454.7,257.8
			c0,1.5-1.2,2.7-2.7,2.7c-19.2,0-19.2,0-19.2,0c-1.5,0-2.7-1.2-2.7-2.7c0-5.6,0-5.6,0-5.6c0-1.5,1.2-2.7,2.7-2.7
			c19.2,0,19.2,0,19.2,0c1.5,0,2.7,1.2,2.7,2.7V257.8z"/>
		<path style="clip-path:url(#SVGID_00000171678948845438583500000004434838936306283913_);fill:#65656A;" d="M454.7,271.5
			c0,1.5-1.2,2.7-2.7,2.7c-19.2,0-19.2,0-19.2,0c-1.5,0-2.7-1.2-2.7-2.7c0-5.6,0-5.6,0-5.6c0-1.5,1.2-2.7,2.7-2.7
			c19.2,0,19.2,0,19.2,0c1.5,0,2.7,1.2,2.7,2.7V271.5z"/>
		<path style="clip-path:url(#SVGID_00000171678948845438583500000004434838936306283913_);fill:#65656A;" d="M397.2,161.8
			c0,1.5-1.4,2.7-2.9,2.7c-19.2,0-19.2,0-19.2,0c-1.5,0-2.7-1.2-2.7-2.7c0-5.4,0-5.4,0-5.4c0-1.5,1.2-2.7,2.7-2.7
			c19.2,0,19.2,0,19.2,0c1.5,0,2.9,1.2,2.9,2.7V161.8z"/>
		<path style="clip-path:url(#SVGID_00000171678948845438583500000004434838936306283913_);fill:#65656A;" d="M397.2,175.5
			c0,1.5-1.4,2.7-2.9,2.7c-19.2,0-19.2,0-19.2,0c-1.5,0-2.7-1.2-2.7-2.7c0-5.4,0-5.4,0-5.4c0-1.5,1.2-2.7,2.7-2.7
			c19.2,0,19.2,0,19.2,0c1.5,0,2.9,1.2,2.9,2.7V175.5z"/>
		<path style="clip-path:url(#SVGID_00000171678948845438583500000004434838936306283913_);fill:#65656A;" d="M397.2,189.2
			c0,1.5-1.4,2.7-2.9,2.7c-19.2,0-19.2,0-19.2,0c-1.5,0-2.7-1.2-2.7-2.7c0-5.4,0-5.4,0-5.4c0-1.5,1.2-2.9,2.7-2.9
			c19.2,0,19.2,0,19.2,0c1.5,0,2.9,1.4,2.9,2.9V189.2z"/>
		<path style="clip-path:url(#SVGID_00000171678948845438583500000004434838936306283913_);fill:#65656A;" d="M397.2,202.9
			c0,1.5-1.4,2.7-2.9,2.7c-19.2,0-19.2,0-19.2,0c-1.5,0-2.7-1.2-2.7-2.7c0-5.4,0-5.4,0-5.4c0-1.5,1.2-2.9,2.7-2.9
			c19.2,0,19.2,0,19.2,0c1.5,0,2.9,1.4,2.9,2.9V202.9z"/>
		<path style="clip-path:url(#SVGID_00000171678948845438583500000004434838936306283913_);fill:#65656A;" d="M397.2,216.6
			c0,1.5-1.4,2.7-2.9,2.7c-19.2,0-19.2,0-19.2,0c-1.5,0-2.7-1.2-2.7-2.7c0-5.6,0-5.6,0-5.6c0-1.5,1.2-2.7,2.7-2.7
			c19.2,0,19.2,0,19.2,0c1.5,0,2.9,1.2,2.9,2.7V216.6z"/>
		<path style="clip-path:url(#SVGID_00000171678948845438583500000004434838936306283913_);fill:#65656A;" d="M397.2,230.4
			c0,1.5-1.4,2.7-2.9,2.7c-19.2,0-19.2,0-19.2,0c-1.5,0-2.7-1.2-2.7-2.7c0-5.6,0-5.6,0-5.6c0-1.5,1.2-2.7,2.7-2.7
			c19.2,0,19.2,0,19.2,0c1.5,0,2.9,1.2,2.9,2.7V230.4z"/>
		<path style="clip-path:url(#SVGID_00000171678948845438583500000004434838936306283913_);fill:#65656A;" d="M397.2,244.1
			c0,1.5-1.4,2.7-2.9,2.7c-19.2,0-19.2,0-19.2,0c-1.5,0-2.7-1.2-2.7-2.7c0-5.6,0-5.6,0-5.6c0-1.5,1.2-2.7,2.7-2.7
			c19.2,0,19.2,0,19.2,0c1.5,0,2.9,1.2,2.9,2.7V244.1z"/>
		<path style="clip-path:url(#SVGID_00000171678948845438583500000004434838936306283913_);fill:#65656A;" d="M397.2,257.8
			c0,1.5-1.4,2.7-2.9,2.7c-19.2,0-19.2,0-19.2,0c-1.5,0-2.7-1.2-2.7-2.7c0-5.6,0-5.6,0-5.6c0-1.5,1.2-2.7,2.7-2.7
			c19.2,0,19.2,0,19.2,0c1.5,0,2.9,1.2,2.9,2.7V257.8z"/>
		<path style="clip-path:url(#SVGID_00000171678948845438583500000004434838936306283913_);fill:#65656A;" d="M397.2,271.5
			c0,1.5-1.4,2.7-2.9,2.7c-19.2,0-19.2,0-19.2,0c-1.5,0-2.7-1.2-2.7-2.7c0-5.6,0-5.6,0-5.6c0-1.5,1.2-2.7,2.7-2.7
			c19.2,0,19.2,0,19.2,0c1.5,0,2.9,1.2,2.9,2.7V271.5z"/>
		<path style="clip-path:url(#SVGID_00000171678948845438583500000004434838936306283913_);fill:#65656A;" d="M339.5,161.8
			c0,1.5-1.2,2.7-2.7,2.7c-19.3,0-19.3,0-19.3,0c-1.5,0-2.7-1.2-2.7-2.7c0-5.4,0-5.4,0-5.4c0-1.5,1.2-2.7,2.7-2.7
			c19.3,0,19.3,0,19.3,0c1.5,0,2.7,1.2,2.7,2.7V161.8z"/>
		<path style="clip-path:url(#SVGID_00000171678948845438583500000004434838936306283913_);fill:#65656A;" d="M339.5,175.5
			c0,1.5-1.2,2.7-2.7,2.7c-19.3,0-19.3,0-19.3,0c-1.5,0-2.7-1.2-2.7-2.7c0-5.4,0-5.4,0-5.4c0-1.5,1.2-2.7,2.7-2.7
			c19.3,0,19.3,0,19.3,0c1.5,0,2.7,1.2,2.7,2.7V175.5z"/>
		<path style="clip-path:url(#SVGID_00000171678948845438583500000004434838936306283913_);fill:#65656A;" d="M353.2,175.5
			c0,1.5-1.4,2.7-2.9,2.7c-5.4,0-5.4,0-5.4,0c-1.5,0-2.7-1.2-2.7-2.7c0-5.4,0-5.4,0-5.4c0-1.5,1.2-2.7,2.7-2.7c5.4,0,5.4,0,5.4,0
			c1.5,0,2.9,1.2,2.9,2.7V175.5z"/>
		<path style="clip-path:url(#SVGID_00000171678948845438583500000004434838936306283913_);fill:#65656A;" d="M339.5,189.2
			c0,1.5-1.2,2.7-2.7,2.7c-19.3,0-19.3,0-19.3,0c-1.5,0-2.7-1.2-2.7-2.7c0-5.4,0-5.4,0-5.4c0-1.5,1.2-2.9,2.7-2.9
			c19.3,0,19.3,0,19.3,0c1.5,0,2.7,1.4,2.7,2.9V189.2z"/>
		<path style="clip-path:url(#SVGID_00000171678948845438583500000004434838936306283913_);fill:#65656A;" d="M339.5,202.9
			c0,1.5-1.2,2.7-2.7,2.7c-19.3,0-19.3,0-19.3,0c-1.5,0-2.7-1.2-2.7-2.7c0-5.4,0-5.4,0-5.4c0-1.5,1.2-2.9,2.7-2.9
			c19.3,0,19.3,0,19.3,0c1.5,0,2.7,1.4,2.7,2.9V202.9z"/>
		<path style="clip-path:url(#SVGID_00000171678948845438583500000004434838936306283913_);fill:#65656A;" d="M339.5,216.6
			c0,1.5-1.2,2.7-2.7,2.7c-19.3,0-19.3,0-19.3,0c-1.5,0-2.7-1.2-2.7-2.7c0-5.6,0-5.6,0-5.6c0-1.5,1.2-2.7,2.7-2.7
			c19.3,0,19.3,0,19.3,0c1.5,0,2.7,1.2,2.7,2.7V216.6z"/>
		<path style="clip-path:url(#SVGID_00000171678948845438583500000004434838936306283913_);fill:#65656A;" d="M339.5,230.4
			c0,1.5-1.2,2.7-2.7,2.7c-19.3,0-19.3,0-19.3,0c-1.5,0-2.7-1.2-2.7-2.7c0-5.6,0-5.6,0-5.6c0-1.5,1.2-2.7,2.7-2.7
			c19.3,0,19.3,0,19.3,0c1.5,0,2.7,1.2,2.7,2.7V230.4z"/>
		<path style="clip-path:url(#SVGID_00000171678948845438583500000004434838936306283913_);fill:#65656A;" d="M339.5,244.1
			c0,1.5-1.2,2.7-2.7,2.7c-19.3,0-19.3,0-19.3,0c-1.5,0-2.7-1.2-2.7-2.7c0-5.6,0-5.6,0-5.6c0-1.5,1.2-2.7,2.7-2.7
			c19.3,0,19.3,0,19.3,0c1.5,0,2.7,1.2,2.7,2.7V244.1z"/>
		<path style="clip-path:url(#SVGID_00000171678948845438583500000004434838936306283913_);fill:#65656A;" d="M339.5,257.8
			c0,1.5-1.2,2.7-2.7,2.7c-19.3,0-19.3,0-19.3,0c-1.5,0-2.7-1.2-2.7-2.7c0-5.6,0-5.6,0-5.6c0-1.5,1.2-2.7,2.7-2.7
			c19.3,0,19.3,0,19.3,0c1.5,0,2.7,1.2,2.7,2.7V257.8z"/>
		<path style="clip-path:url(#SVGID_00000171678948845438583500000004434838936306283913_);fill:#65656A;" d="M339.5,271.5
			c0,1.5-1.2,2.7-2.7,2.7c-19.3,0-19.3,0-19.3,0c-1.5,0-2.7-1.2-2.7-2.7c0-5.6,0-5.6,0-5.6c0-1.5,1.2-2.7,2.7-2.7
			c19.3,0,19.3,0,19.3,0c1.5,0,2.7,1.2,2.7,2.7V271.5z"/>
		<path style="clip-path:url(#SVGID_00000171678948845438583500000004434838936306283913_);fill:#65656A;" d="M281.8,161.8
			c0,1.5-1.2,2.7-2.7,2.7c-19.3,0-19.3,0-19.3,0c-1.5,0-2.7-1.2-2.7-2.7c0-5.4,0-5.4,0-5.4c0-1.5,1.2-2.7,2.7-2.7
			c19.3,0,19.3,0,19.3,0c1.5,0,2.7,1.2,2.7,2.7V161.8z"/>
		<path style="clip-path:url(#SVGID_00000171678948845438583500000004434838936306283913_);fill:#65656A;" d="M281.8,175.5
			c0,1.5-1.2,2.7-2.7,2.7c-19.3,0-19.3,0-19.3,0c-1.5,0-2.7-1.2-2.7-2.7c0-5.4,0-5.4,0-5.4c0-1.5,1.2-2.7,2.7-2.7
			c19.3,0,19.3,0,19.3,0c1.5,0,2.7,1.2,2.7,2.7V175.5z"/>
		<path style="clip-path:url(#SVGID_00000171678948845438583500000004434838936306283913_);fill:#65656A;" d="M281.8,189.2
			c0,1.5-1.2,2.7-2.7,2.7c-19.3,0-19.3,0-19.3,0c-1.5,0-2.7-1.2-2.7-2.7c0-5.4,0-5.4,0-5.4c0-1.5,1.2-2.9,2.7-2.9
			c19.3,0,19.3,0,19.3,0c1.5,0,2.7,1.4,2.7,2.9V189.2z"/>
		<path style="clip-path:url(#SVGID_00000171678948845438583500000004434838936306283913_);fill:#65656A;" d="M281.8,202.9
			c0,1.5-1.2,2.7-2.7,2.7c-19.3,0-19.3,0-19.3,0c-1.5,0-2.7-1.2-2.7-2.7c0-5.4,0-5.4,0-5.4c0-1.5,1.2-2.9,2.7-2.9
			c19.3,0,19.3,0,19.3,0c1.5,0,2.7,1.4,2.7,2.9V202.9z"/>
		<path style="clip-path:url(#SVGID_00000171678948845438583500000004434838936306283913_);fill:#65656A;" d="M166.4,161.8
			c0,1.5-1.2,2.7-2.7,2.7c-19.2,0-19.2,0-19.2,0c-1.5,0-2.7-1.2-2.7-2.7c0-5.4,0-5.4,0-5.4c0-1.5,1.2-2.7,2.7-2.7
			c19.2,0,19.2,0,19.2,0c1.5,0,2.7,1.2,2.7,2.7V161.8z"/>
		<path style="clip-path:url(#SVGID_00000171678948845438583500000004434838936306283913_);fill:#65656A;" d="M64.8,205.6
			c0,1.5-1.2,2.7-2.7,2.7c-19.2,0-19.2,0-19.2,0c-1.5,0-2.7-1.2-2.7-2.7c0-52,0-52,0-52c0-1.5,1.2-2.9,2.7-2.9c19.2,0,19.2,0,19.2,0
			c1.5,0,2.7,1.4,2.7,2.9V205.6z"/>
		<path style="clip-path:url(#SVGID_00000171678948845438583500000004434838936306283913_);fill:#65656A;" d="M166.4,175.5
			c0,1.5-1.2,2.7-2.7,2.7c-19.2,0-19.2,0-19.2,0c-1.5,0-2.7-1.2-2.7-2.7c0-5.4,0-5.4,0-5.4c0-1.5,1.2-2.7,2.7-2.7
			c19.2,0,19.2,0,19.2,0c1.5,0,2.7,1.2,2.7,2.7V175.5z"/>
		<path style="clip-path:url(#SVGID_00000171678948845438583500000004434838936306283913_);fill:#65656A;" d="M166.4,189.2
			c0,1.5-1.2,2.7-2.7,2.7c-19.2,0-19.2,0-19.2,0c-1.5,0-2.7-1.2-2.7-2.7c0-5.4,0-5.4,0-5.4c0-1.5,1.2-2.9,2.7-2.9
			c19.2,0,19.2,0,19.2,0c1.5,0,2.7,1.4,2.7,2.9V189.2z"/>
		<path style="clip-path:url(#SVGID_00000171678948845438583500000004434838936306283913_);fill:#65656A;" d="M166.4,202.9
			c0,1.5-1.2,2.7-2.7,2.7c-19.2,0-19.2,0-19.2,0c-1.5,0-2.7-1.2-2.7-2.7c0-5.4,0-5.4,0-5.4c0-1.5,1.2-2.9,2.7-2.9
			c19.2,0,19.2,0,19.2,0c1.5,0,2.7,1.4,2.7,2.9V202.9z"/>
		<path style="clip-path:url(#SVGID_00000171678948845438583500000004434838936306283913_);fill:#65656A;" d="M281.8,216.6
			c0,1.5-1.2,2.7-2.7,2.7c-19.3,0-19.3,0-19.3,0c-1.5,0-2.7-1.2-2.7-2.7c0-5.6,0-5.6,0-5.6c0-1.5,1.2-2.7,2.7-2.7
			c19.3,0,19.3,0,19.3,0c1.5,0,2.7,1.2,2.7,2.7V216.6z"/>
		<path style="clip-path:url(#SVGID_00000171678948845438583500000004434838936306283913_);fill:#65656A;" d="M281.8,230.4
			c0,1.5-1.2,2.7-2.7,2.7c-19.3,0-19.3,0-19.3,0c-1.5,0-2.7-1.2-2.7-2.7c0-5.6,0-5.6,0-5.6c0-1.5,1.2-2.7,2.7-2.7
			c19.3,0,19.3,0,19.3,0c1.5,0,2.7,1.2,2.7,2.7V230.4z"/>
		<path style="clip-path:url(#SVGID_00000171678948845438583500000004434838936306283913_);fill:#65656A;" d="M281.8,244.1
			c0,1.5-1.2,2.7-2.7,2.7c-19.3,0-19.3,0-19.3,0c-1.5,0-2.7-1.2-2.7-2.7c0-5.6,0-5.6,0-5.6c0-1.5,1.2-2.7,2.7-2.7
			c19.3,0,19.3,0,19.3,0c1.5,0,2.7,1.2,2.7,2.7V244.1z"/>
		<path style="clip-path:url(#SVGID_00000171678948845438583500000004434838936306283913_);fill:#65656A;" d="M210.4,241.4
			c0,1.5-1.2,2.7-2.7,2.7c-2.7,0-2.7,0-2.7,0c-1.5,0-2.7-1.2-2.7-2.7c0-8.3,0-8.3,0-8.3c0-1.5,1.2-2.7,2.7-2.7c2.7,0,2.7,0,2.7,0
			c1.5,0,2.7,1.2,2.7,2.7V241.4z"/>
		<path style="clip-path:url(#SVGID_00000171678948845438583500000004434838936306283913_);fill:#65656A;" d="M281.8,257.8
			c0,1.5-1.2,2.7-2.7,2.7c-19.3,0-19.3,0-19.3,0c-1.5,0-2.7-1.2-2.7-2.7c0-5.6,0-5.6,0-5.6c0-1.5,1.2-2.7,2.7-2.7
			c19.3,0,19.3,0,19.3,0c1.5,0,2.7,1.2,2.7,2.7V257.8z"/>
		<path style="clip-path:url(#SVGID_00000171678948845438583500000004434838936306283913_);fill:#65656A;" d="M281.8,271.5
			c0,1.5-1.2,2.7-2.7,2.7c-19.3,0-19.3,0-19.3,0c-1.5,0-2.7-1.2-2.7-2.7c0-5.6,0-5.6,0-5.6c0-1.5,1.2-2.7,2.7-2.7
			c19.3,0,19.3,0,19.3,0c1.5,0,2.7,1.2,2.7,2.7V271.5z"/>
		<path style="clip-path:url(#SVGID_00000171678948845438583500000004434838936306283913_);fill:#65656A;" d="M224.9,304.4
			c0,4.5-3.8,8.1-8.3,8.1c-4.5,0-8.3-3.6-8.3-8.1c0-4.5,3.8-8.3,8.3-8.3C221.1,296.1,224.9,299.9,224.9,304.4z"/>
		<path style="clip-path:url(#SVGID_00000171678948845438583500000004434838936306283913_);fill:#65656A;" d="M73.9,271.4
			c0,4.7-3.8,8.3-8.3,8.3c-4.5,0-8.3-3.6-8.3-8.3c0-4.5,3.8-8.1,8.3-8.1C70.1,263.2,73.9,266.8,73.9,271.4z"/>
		<path style="clip-path:url(#SVGID_00000171678948845438583500000004434838936306283913_);fill:#65656A;" d="M73.9,301.5
			c0,4.7-3.8,8.3-8.3,8.3c-4.5,0-8.3-3.6-8.3-8.3c0-4.5,3.8-8.1,8.3-8.1C70.1,293.4,73.9,297,73.9,301.5z"/>
		<path style="clip-path:url(#SVGID_00000171678948845438583500000004434838936306283913_);fill:#65656A;" d="M73.9,323.5
			c0,4.5-3.8,8.1-8.3,8.1c-4.5,0-8.3-3.6-8.3-8.1c0-4.5,3.8-8.3,8.3-8.3C70.1,315.2,73.9,319,73.9,323.5z"/>
		<path style="clip-path:url(#SVGID_00000171678948845438583500000004434838936306283913_);fill:#65656A;" d="M73.9,345.4
			c0,4.7-3.8,8.3-8.3,8.3c-4.5,0-8.3-3.6-8.3-8.3c0-4.5,3.8-8.1,8.3-8.1C70.1,337.3,73.9,340.9,73.9,345.4z"/>
		<path style="clip-path:url(#SVGID_00000171678948845438583500000004434838936306283913_);fill:#65656A;" d="M106.8,271.4
			c0,4.7-3.8,8.3-8.3,8.3c-4.5,0-8.2-3.6-8.2-8.3c0-4.5,3.6-8.1,8.2-8.1C103,263.2,106.8,266.8,106.8,271.4z"/>
		<path style="clip-path:url(#SVGID_00000171678948845438583500000004434838936306283913_);fill:#65656A;" d="M282.4,304.4
			c0,4.5-3.6,8.1-8.2,8.1c-4.5,0-8.3-3.6-8.3-8.1c0-4.5,3.8-8.3,8.3-8.3C278.8,296.1,282.4,299.9,282.4,304.4z"/>
		<path style="clip-path:url(#SVGID_00000171678948845438583500000004434838936306283913_);fill:#65656A;" d="M340.1,304.4
			c0,4.5-3.6,8.1-8.2,8.1c-4.5,0-8.3-3.6-8.3-8.1c0-4.5,3.8-8.3,8.3-8.3C336.5,296.1,340.1,299.9,340.1,304.4z"/>
		<path style="clip-path:url(#SVGID_00000171678948845438583500000004434838936306283913_);fill:#65656A;" d="M397.8,304.4
			c0,4.5-3.6,8.1-8.2,8.1c-4.7,0-8.3-3.6-8.3-8.1c0-4.5,3.6-8.3,8.3-8.3C394.2,296.1,397.8,299.9,397.8,304.4z"/>
		<path style="clip-path:url(#SVGID_00000171678948845438583500000004434838936306283913_);fill:#65656A;" d="M455.5,304.4
			c0,4.5-3.6,8.1-8.3,8.1c-4.5,0-8.2-3.6-8.2-8.1c0-4.5,3.6-8.3,8.2-8.3C451.8,296.1,455.5,299.9,455.5,304.4z"/>
		<path style="clip-path:url(#SVGID_00000171678948845438583500000004434838936306283913_);fill:#646569;" d="M213.1,211.1
			c0,1.7-1.2,2.9-2.7,2.9c-8.2,0-8.2,0-8.2,0c-1.5,0-2.9-1.2-2.9-2.9c0-54.7,0-54.7,0-54.7c0-1.5,1.4-2.7,2.9-2.7c8.2,0,8.2,0,8.2,0
			c1.5,0,2.7,1.2,2.7,2.7V211.1z"/>
		<path style="clip-path:url(#SVGID_00000171678948845438583500000004434838936306283913_);fill:#646569;" d="M232.4,279.7
			c0,1.5-1.4,2.7-2.9,2.7c-8.1,0-8.1,0-8.1,0c-1.5,0-2.7-1.2-2.7-2.7c0-52,0-52,0-52c0-1.5,1.2-2.9,2.7-2.9c8.1,0,8.1,0,8.1,0
			c1.5,0,2.9,1.4,2.9,2.9V279.7z"/>
		<path style="clip-path:url(#SVGID_00000171678948845438583500000004434838936306283913_);fill:#646569;" d="M174.8,279.7
			c0,1.5-1.2,2.7-2.7,2.7c-8.3,0-8.3,0-8.3,0c-1.5,0-2.7-1.2-2.7-2.7c0-19.1,0-19.1,0-19.1c0-1.5,1.2-2.7,2.7-2.7c8.3,0,8.3,0,8.3,0
			c1.5,0,2.7,1.2,2.7,2.7V279.7z"/>
	</g>
</g>
<g id="Client_-_IOT_Patient_Monitor">
</g>
<g id="Client_-_IOT_Camera">
</g>
<g id="Client_-_IOT_Scanner">
</g>
<g id="IOT_-_TV_Cast">
</g>
<g id="Client_-_Printer">
</g>
<g id="Client_-_Game_Console">
</g>
<g id="Client_-_IP_Phone">
</g>
<g id="Client_-_Laptop">
</g>
<g id="Client_-_Desktop">
</g>
<g id="Client_-_Workstation">
</g>
<g id="Client_-_Tablet">
</g>
<g id="Client_-_Mobile_2">
</g>
<g id="Client_-_Mobile_1">
</g>
<g id="Device_-_EdgeConnect_Enterprise_Cloud">
</g>
<g id="Device_-_EdgeConnect_Enterprise_Virtual">
</g>
<g id="Device_-_EdgeConnect_Enterprise_Appliance">
</g>
<g id="Device_-_Core_Agg_Leaf_Switch">
</g>
<g id="Device_-_Access_Switch">
</g>
<g id="Device_-_Gateway_Headend">
</g>
<g id="Device_-_Gateway_Branch">
</g>
<g id="Device_-_Gateway_Campus">
</g>
<g id="Device_-_UXI_Sensor_New">
</g>
<g id="Device_-_UXI_Sensor">
</g>
<g id="Device_-_AP500_Series_Microbranch">
</g>
<g id="Device_-_AP600_Series">
</g>
<g id="Device_-_AP500_Series">
</g>
<g id="Device_-_Outdoor_AP">
</g>
</svg>
