<?xml version="1.0" encoding="utf-8"?>
<!-- Generator: Adobe Illustrator 26.3.1, SVG Export Plug-In . SVG Version: 6.00 Build 0)  -->
<svg version="1.1" xmlns="http://www.w3.org/2000/svg" xmlns:xlink="http://www.w3.org/1999/xlink" x="0px" y="0px"
	 viewBox="0 0 500 500" style="enable-background:new 0 0 500 500;" xml:space="preserve">
<style type="text/css">
	.st0{fill:#FFFFFF;}
	.st1{fill:#FF8300;}
	.st2{fill:#F78200;}
	.st3{fill:#F7931E;}
	.st4{fill:#5D5D5D;}
	.st5{fill:#FFFFFF;stroke:#65656A;stroke-width:12;stroke-miterlimit:10;}
	.st6{display:none;fill:#979797;stroke:#979797;stroke-width:3;stroke-linecap:round;stroke-linejoin:round;stroke-miterlimit:10;}
	.st7{fill:#979797;}
	.st8{fill:#65656A;}
	.st9{stroke:#009245;stroke-width:3;stroke-miterlimit:10;}
	.st10{fill:#F58220;}
	.st11{clip-path:url(#SVGID_00000080173131644671168760000005095645009767251596_);fill:#5E5E5E;}
	.st12{clip-path:url(#SVGID_00000074427626146031505410000010095075776449791364_);fill:#FFFFFF;}
	.st13{clip-path:url(#SVGID_00000076602762525668143250000007064891179913573527_);fill:#FFFFFF;}
	.st14{clip-path:url(#SVGID_00000076602762525668143250000007064891179913573527_);fill:#FF8300;}
	.st15{clip-path:url(#SVGID_00000000923421716898025380000013649141140582599581_);fill:#FFFFFF;}
	.st16{clip-path:url(#SVGID_00000000923421716898025380000013649141140582599581_);fill:#ADE1F0;}
	.st17{clip-path:url(#SVGID_00000025401787208946760160000001040527307806486417_);fill:#65656A;}
	.st18{clip-path:url(#SVGID_00000025401787208946760160000001040527307806486417_);fill:#646569;}
	.st19{clip-path:url(#SVGID_00000025401787208946760160000001040527307806486417_);fill:#D0D0D2;}
	.st20{clip-path:url(#SVGID_00000032639897130985849730000007710530886064211625_);fill:#FFFFFF;}
	.st21{clip-path:url(#SVGID_00000032639897130985849730000007710530886064211625_);fill:#646569;}
	.st22{clip-path:url(#SVGID_00000032639897130985849730000007710530886064211625_);fill:#65656A;}
	
		.st23{clip-path:url(#SVGID_00000033368669906543970010000000930944643055846026_);fill:#FFFFFF;stroke:#000000;stroke-miterlimit:10;}
	.st24{clip-path:url(#SVGID_00000033368669906543970010000000930944643055846026_);fill:#646569;}
	.st25{clip-path:url(#SVGID_00000033368669906543970010000000930944643055846026_);fill:#65656A;}
	
		.st26{clip-path:url(#SVGID_00000033368669906543970010000000930944643055846026_);fill:none;stroke:#65656A;stroke-width:0.1925;stroke-linecap:round;stroke-linejoin:round;stroke-miterlimit:10;}
	.st27{clip-path:url(#SVGID_00000109023176124083226020000017319534748892447926_);fill:#FFFFFF;}
	.st28{clip-path:url(#SVGID_00000109023176124083226020000017319534748892447926_);fill:#65656A;}
	.st29{clip-path:url(#SVGID_00000109023176124083226020000017319534748892447926_);fill:#646569;}
	.st30{clip-path:url(#SVGID_00000088836551143185209770000003900851596871535498_);fill:#FFFFFF;}
	.st31{clip-path:url(#SVGID_00000088836551143185209770000003900851596871535498_);fill:#646569;}
	.st32{clip-path:url(#SVGID_00000145030545994015652380000011754490386984772790_);fill:#FFFFFF;}
	.st33{clip-path:url(#SVGID_00000145030545994015652380000011754490386984772790_);fill:#65656A;}
	.st34{clip-path:url(#SVGID_00000145030545994015652380000011754490386984772790_);fill:#646569;}
	.st35{fill:#646569;}
	.st36{clip-path:url(#SVGID_00000103986444238775445890000008953581053558809477_);fill:#FFFFFF;}
	.st37{clip-path:url(#SVGID_00000103986444238775445890000008953581053558809477_);fill:#65666A;}
	
		.st38{clip-path:url(#SVGID_00000103986444238775445890000008953581053558809477_);fill:none;stroke:#65666A;stroke-width:0.1748;stroke-miterlimit:10;}
	.st39{clip-path:url(#SVGID_00000086674688004330103510000014571592408794138259_);fill:#FFFFFF;}
	.st40{clip-path:url(#SVGID_00000086674688004330103510000014571592408794138259_);fill:#646569;}
	.st41{fill:none;stroke:#65656A;stroke-width:3;stroke-miterlimit:10;}
	.st42{fill:#EC8020;}
	.st43{fill:#ED8020;}
	.st44{fill:none;stroke:#65656A;stroke-width:3;stroke-linecap:round;stroke-miterlimit:10;}
	.st45{fill:none;stroke:#646569;stroke-width:10;stroke-linejoin:round;stroke-miterlimit:10;}
	.st46{fill:none;stroke:#646569;stroke-width:10;stroke-miterlimit:10;}
	.st47{fill:none;stroke:#646569;stroke-width:10;stroke-linecap:round;stroke-miterlimit:10;}
	.st48{fill:none;stroke:#65656A;stroke-width:8;stroke-linecap:round;stroke-miterlimit:10;}
	.st49{fill:#FFFFFF;stroke:#65656A;stroke-width:8;stroke-linecap:round;stroke-linejoin:round;stroke-miterlimit:10;}
	.st50{fill:none;stroke:#65656A;stroke-width:8;stroke-miterlimit:10;}
</style>
<g id="Function_-_Central_APIs">
</g>
<g id="Function_-_Central_Route_Orchestrator">
</g>
<g id="Function_-_Central_Tunnel_Orchestrator">
</g>
<g id="Function_-_Central_NetConductor">
</g>
<g id="Function_-_Central_Network_Management">
</g>
<g id="Function_-_Central_Network_Insights">
</g>
<g id="Function_-_Central_Client_Insights">
</g>
<g id="Function_-_ClearPass_Policy_Manager">
</g>
<g id="Function_-_UXI_APIs">
</g>
<g id="Function_-_UXI_Dashboard">
</g>
<g id="Function_-_Orchestrator_Global_Enterprise">
</g>
<g id="Function_-_Orchestrator">
</g>
<g id="Function_-_Pensando_Policy_and_Services_Manager">
</g>
<g id="Function_-_Fabric_Composer">
</g>
<g id="Generic_-_Virtual_Machine">
</g>
<g id="Generic_-_Server_Single">
</g>
<g id="Generic_-_Server_Multi">
</g>
<g id="Generic_-_Router">
</g>
<g id="Generic_-_Firewall">
</g>
<g id="Wi-Fi_Signal">
</g>
<g id="Generic_-_Cloud_Function_Container_Grey">
</g>
<g id="Generic_-_Cloud_Function_Container_White">
</g>
<g id="Generic_-_Cloud_Internet_Circuit">
</g>
<g id="Generic_-_Cloud_Private_Circuit">
</g>
<g id="Generic_-_Cloud">
</g>
<g id="Client_-_IOT_Sensor">
</g>
<g id="Client_-_IOT_IO">
</g>
<g id="Client_-_IOT_PLC">
</g>
<g id="Client_-_IOT_Patient_Monitor">
</g>
<g id="Client_-_IOT_Camera">
</g>
<g id="Client_-_IOT_Scanner">
</g>
<g id="IOT_-_TV_Cast">
</g>
<g id="Client_-_Printer">
</g>
<g id="Client_-_Game_Console">
</g>
<g id="Client_-_IP_Phone">
</g>
<g id="Client_-_Laptop">
</g>
<g id="Client_-_Desktop">
</g>
<g id="Client_-_Workstation">
</g>
<g id="Client_-_Tablet">
</g>
<g id="Client_-_Mobile_2">
</g>
<g id="Client_-_Mobile_1">
</g>
<g id="Device_-_EdgeConnect_Enterprise_Cloud">
</g>
<g id="Device_-_EdgeConnect_Enterprise_Virtual">
</g>
<g id="Device_-_EdgeConnect_Enterprise_Appliance">
</g>
<g id="Device_-_Core_Agg_Leaf_Switch">
</g>
<g id="Device_-_Access_Switch">
</g>
<g id="Device_-_Gateway_Headend">
</g>
<g id="Device_-_Gateway_Branch">
</g>
<g id="Device_-_Gateway_Campus">
</g>
<g id="Device_-_UXI_Sensor_New">
</g>
<g id="Device_-_UXI_Sensor">
</g>
<g id="Device_-_AP500_Series_Microbranch">
</g>
<g id="Device_-_AP600_Series">
</g>
<g id="Device_-_AP500_Series">
	<g>
		<path id="Background" class="st0" d="M306.2,482.9H190.7c-96.9,0-175.4-78.5-175.4-175.4V191.9C15.2,95,93.8,16.5,190.7,16.5
			h115.5c96.9,0,175.4,78.5,175.4,175.4v115.5C481.6,404.3,403.1,482.9,306.2,482.9z"/>
		<g>
			<g>
				<g>
					<path class="st8" d="M252.2,495.6l-7.5,0c-130-0.8-203.6-44-224.8-131.8c-0.5-2.5-11.5-55.2-12.5-111.4l-0.1,0c0-1,0-1.9,0-2.9
						c0-0.6,0-1.1,0-1.7h0c0-0.9,0-1.8,0-2.7c0-7.5,0-15.3,0.5-22.1c1.3-23.1,5.4-48.5,5.6-49.5l14.7,2.4c0,0.3-4.1,25.7-5.4,48.1
						c-0.4,6.4-0.4,13.9-0.5,21.2c0,1,0,1.9,0,2.9l0.1,1.7l-0.1,1.7c1,55.2,12.1,108.6,12.2,109.2c19.8,81.9,87.9,120.2,214.2,120.2
						h3.6V495.6z"/>
				</g>
				<g>
					<path class="st8" d="M26.1,189.2l-14.8-1.9c3.6-27.9,8.6-45.7,8.8-46.5c11.5-53.9,47.9-96.2,99.9-115.7
						c1.9-0.8,51.1-20,124.6-20.7v0h7.5v14.9h-3.6C175.8,19.3,126,38.8,125.5,39C78.2,56.7,45.1,95.1,34.6,144.4
						C34.5,145,29.6,162.4,26.1,189.2z"/>
				</g>
				<g>
					<path class="st8" d="M255.3,495.6h-8v-14.9h4.1c126.3,0,194.4-38.3,214.2-120.4c0.1-0.3,11.3-53.4,12.2-108.7l-0.1-1.7l0.1-1
						c-0.9-54.9-12.2-103.9-12.3-104.4c-10.5-49.4-43.6-87.8-90.7-105.4C374,38.8,324,19.3,251.4,19.3h-4.1V4.4l8,0
						C328.8,5.1,377.9,24.4,380,25.2c51.9,19.4,88.3,61.7,99.9,116.1c0.5,2,11.7,50.9,12.7,107.3l0,0c0,0.6,0,1.2,0,1.8
						c0,0.6,0,1.2,0,1.8h0c-1,56.5-12,109-12.5,111.3C458.8,451.6,385.3,494.7,255.3,495.6L255.3,495.6z"/>
				</g>
			</g>
		</g>
		<g>
			<path class="st8" d="M351.5,101.2c-2.9,0-5.6-1.7-6.8-4.5l-29.8-69.5c-1.6-3.8,0.1-8.2,3.9-9.8c3.8-1.6,8.2,0.1,9.8,3.9
				l29.8,69.5c1.6,3.8-0.1,8.2-3.9,9.8C353.4,101,352.5,101.2,351.5,101.2z"/>
		</g>
		<g>
			<path class="st8" d="M294.4,88.8c-2.6,0-5.2-1.4-6.5-3.8l-37.2-67c-2-3.6-0.7-8.1,2.9-10.1c3.6-2,8.1-0.7,10.1,2.9l37.2,67
				c2,3.6,0.7,8.1-2.9,10.1C296.9,88.5,295.6,88.8,294.4,88.8z"/>
		</g>
		<g>
			<path class="st8" d="M239.8,93.7c-2.6,0-5.2-1.4-6.5-3.8l-37.2-67c-2-3.6-0.7-8.1,2.9-10.1c3.6-2,8.1-0.7,10.1,2.9l37.2,67
				c2,3.6,0.7,8.1-2.9,10.1C242.3,93.4,241.1,93.7,239.8,93.7z"/>
		</g>
		<g>
			<path class="st8" d="M190.2,98.7c-2,0-4-0.8-5.5-2.4l-54.6-59.5c-2.8-3-2.6-7.7,0.5-10.5c3-2.8,7.7-2.6,10.5,0.5l54.6,59.5
				c2.8,3,2.6,7.7-0.5,10.5C193.8,98,192,98.7,190.2,98.7z"/>
		</g>
		<g>
			<path class="st8" d="M145.6,113.6c-1.2,0-2.4-0.3-3.5-0.9L67.7,73c-3.6-1.9-5-6.4-3.1-10.1c1.9-3.6,6.4-5,10.1-3.1l74.4,39.7
				c3.6,1.9,5,6.4,3.1,10.1C150.8,112.1,148.2,113.6,145.6,113.6z"/>
		</g>
		<g>
			<path class="st8" d="M110.9,143.3c-0.3,0-0.7,0-1-0.1l-74.4-9.9c-4.1-0.5-6.9-4.3-6.4-8.4c0.5-4.1,4.3-6.9,8.4-6.4l74.4,9.9
				c4.1,0.5,6.9,4.3,6.4,8.4C117.7,140.6,114.5,143.3,110.9,143.3z"/>
		</g>
		<g>
			<path class="st8" d="M26.5,197.9c-3.9,0-7.1-3-7.4-6.9c-0.3-4.1,2.8-7.7,6.8-8l64.5-5c4.1-0.5,7.7,2.7,8,6.8
				c0.3,4.1-2.8,7.7-6.8,8l-64.5,5C26.9,197.9,26.7,197.9,26.5,197.9z"/>
		</g>
		<g>
			<path class="st8" d="M19.2,271c-2.9,0-5.6-1.7-6.9-4.5c-1.6-3.8,0.2-8.2,3.9-9.8l66.9-28.4c3.8-1.6,8.2,0.2,9.8,3.9
				c1.6,3.8-0.2,8.2-3.9,9.8l-66.9,28.4C21.1,270.8,20.1,271,19.2,271z"/>
		</g>
		<g>
			<path class="st8" d="M21.5,336.8c-2.7,0-5.2-1.4-6.6-3.9c-1.9-3.6-0.6-8.1,3-10.1l64.5-34.7c3.6-2,8.1-0.6,10.1,3
				c1.9,3.6,0.6,8.1-3,10.1l-64.5,34.7C23.9,336.5,22.7,336.8,21.5,336.8z"/>
		</g>
		<g>
			<path class="st8" d="M393.6,98.7c-4.1,0-7.4-3.3-7.4-7.4V41.6c0-4.1,3.3-7.4,7.4-7.4c4.1,0,7.4,3.3,7.4,7.4v49.6
				C401.1,95.3,397.8,98.7,393.6,98.7z"/>
		</g>
		<g>
			<path class="st8" d="M438.3,207.8c-1.3,0-2.6-0.3-3.7-1c-3.5-2.1-4.7-6.6-2.7-10.2l34.7-59.5c2.1-3.6,6.6-4.8,10.2-2.7
				c3.5,2.1,4.7,6.6,2.7,10.2l-34.7,59.5C443.3,206.5,440.8,207.8,438.3,207.8z"/>
		</g>
		<g>
			<path class="st8" d="M418.4,168.1c-0.9,0-1.9-0.2-2.8-0.5c-3.8-1.5-5.7-5.9-4.1-9.7l29.8-74.4c1.5-3.8,5.9-5.7,9.7-4.1
				c3.8,1.5,5.7,5.9,4.1,9.7l-29.8,74.4C424.2,166.4,421.4,168.1,418.4,168.1z"/>
		</g>
		<g>
			<path class="st8" d="M433.3,277.3c-1.8,0-3.6-0.6-5-1.9c-3-2.8-3.3-7.5-0.5-10.5l49.6-54.6c2.8-3,7.5-3.3,10.5-0.5
				c3,2.8,3.3,7.5,0.5,10.5l-49.6,54.6C437.4,276.5,435.4,277.3,433.3,277.3z"/>
		</g>
		<g>
			<path class="st8" d="M433.3,331.9c-2.5,0-5-1.3-6.4-3.6c-2.1-3.5-1-8.1,2.6-10.2l49.6-29.8c3.5-2.1,8.1-1,10.2,2.6
				c2.1,3.5,1,8.1-2.6,10.2l-49.6,29.8C436,331.5,434.6,331.9,433.3,331.9z"/>
		</g>
		<g>
			<path class="st8" d="M418.5,391.4c-2.8,0-5.5-1.6-6.8-4.4c-1.7-3.7,0-8.2,3.7-9.9l54.6-24.8c3.7-1.7,8.2,0,9.9,3.7
				c1.7,3.7,0,8.2-3.7,9.9l-54.6,24.8C420.5,391.2,419.5,391.4,418.5,391.4z"/>
		</g>
		<g>
			<path class="st8" d="M433.3,436c-0.5,0-1-0.1-1.6-0.2L362.3,421c-4-0.9-6.6-4.8-5.7-8.8c0.9-4,4.8-6.6,8.8-5.7l69.5,14.9
				c4,0.9,6.6,4.8,5.7,8.8C439.9,433.7,436.8,436,433.3,436z"/>
		</g>
		<g>
			<path class="st8" d="M373.8,475.7c-1.3,0-2.6-0.3-3.7-1L310.5,440c-3.5-2.1-4.7-6.6-2.7-10.2c2.1-3.6,6.6-4.8,10.2-2.7l59.5,34.7
				c3.5,2.1,4.7,6.6,2.7,10.2C378.8,474.4,376.3,475.7,373.8,475.7z"/>
		</g>
		<g>
			<path class="st8" d="M314.3,490.6c-1.6,0-3.3-0.5-4.6-1.6L260,449.3c-3.2-2.6-3.7-7.2-1.2-10.5c2.6-3.2,7.3-3.7,10.5-1.2
				l49.6,39.7c3.2,2.6,3.7,7.2,1.2,10.5C318.6,489.7,316.4,490.6,314.3,490.6z"/>
		</g>
		<g>
			<path class="st8" d="M244.8,495.6c-2.1,0-4.1-0.8-5.6-2.5l-39.7-44.7c-2.7-3.1-2.5-7.8,0.6-10.5c3.1-2.7,7.8-2.5,10.5,0.6
				l39.7,44.7c2.7,3.1,2.5,7.8-0.6,10.5C248.3,495,246.6,495.6,244.8,495.6z"/>
		</g>
		<g>
			<path class="st8" d="M171.5,486.8c-3,0-5.9-1.9-7-4.9l-19.8-54.6c-1.4-3.9,0.6-8.1,4.5-9.5c3.9-1.4,8.1,0.6,9.5,4.5l19.8,54.6
				c1.4,3.9-0.6,8.1-4.5,9.5C173.2,486.7,172.4,486.8,171.5,486.8z"/>
		</g>
		<g>
			<path class="st8" d="M114.7,468.4c-3.6,0-6.7-2.6-7.3-6.2l-9.9-59.5c-0.7-4.1,2.1-7.9,6.1-8.6c4-0.7,7.9,2.1,8.6,6.1l9.9,59.5
				c0.7,4.1-2.1,7.9-6.1,8.6C115.6,468.4,115.1,468.4,114.7,468.4z"/>
		</g>
		<g>
			<path class="st8" d="M51.3,416.2c-1.2,0-2.4-0.3-3.6-0.9c-3.6-2-4.9-6.5-3-10.1l29.8-54.6c2-3.6,6.5-4.9,10.1-3
				c3.6,2,4.9,6.5,3,10.1l-29.8,54.6C56.5,414.8,53.9,416.2,51.3,416.2z"/>
		</g>
	</g>
</g>
<g id="Device_-_Outdoor_AP">
</g>
</svg>
