<?xml version="1.0" encoding="utf-8"?>
<!-- Generator: Adobe Illustrator 26.3.1, SVG Export Plug-In . SVG Version: 6.00 Build 0)  -->
<svg version="1.1" xmlns="http://www.w3.org/2000/svg" xmlns:xlink="http://www.w3.org/1999/xlink" x="0px" y="0px"
	 viewBox="0 0 500 500" style="enable-background:new 0 0 500 500;" xml:space="preserve">
<style type="text/css">
	.st0{fill:#FFFFFF;}
	.st1{fill:#FF8300;}
	.st2{fill:#F78200;}
	.st3{fill:#F7931E;}
	.st4{fill:#5D5D5D;}
	.st5{fill:#FFFFFF;stroke:#65656A;stroke-width:12;stroke-miterlimit:10;}
	.st6{display:none;fill:#979797;stroke:#979797;stroke-width:3;stroke-linecap:round;stroke-linejoin:round;stroke-miterlimit:10;}
	.st7{fill:#979797;}
	.st8{fill:#65656A;}
	.st9{stroke:#009245;stroke-width:3;stroke-miterlimit:10;}
	.st10{fill:#F58220;}
	.st11{clip-path:url(#SVGID_00000119113529007741972150000009045581552484786054_);fill:#5E5E5E;}
	.st12{clip-path:url(#SVGID_00000029734195047386798210000010376950367469010578_);fill:#FFFFFF;}
	.st13{clip-path:url(#SVGID_00000160154885640348309880000006273125823098486171_);fill:#FFFFFF;}
	.st14{clip-path:url(#SVGID_00000160154885640348309880000006273125823098486171_);fill:#FF8300;}
	.st15{clip-path:url(#SVGID_00000143616759260164646620000009688445020070122686_);fill:#FFFFFF;}
	.st16{clip-path:url(#SVGID_00000143616759260164646620000009688445020070122686_);fill:#ADE1F0;}
	.st17{clip-path:url(#SVGID_00000119092491434912668110000008992370143356300960_);fill:#65656A;}
	.st18{clip-path:url(#SVGID_00000119092491434912668110000008992370143356300960_);fill:#646569;}
	.st19{clip-path:url(#SVGID_00000119092491434912668110000008992370143356300960_);fill:#D0D0D2;}
	.st20{clip-path:url(#SVGID_00000023264723978252111000000006203094256319754886_);fill:#FFFFFF;}
	.st21{clip-path:url(#SVGID_00000023264723978252111000000006203094256319754886_);fill:#646569;}
	.st22{clip-path:url(#SVGID_00000023264723978252111000000006203094256319754886_);fill:#65656A;}
	
		.st23{clip-path:url(#SVGID_00000114765441222408976830000000405545967490346173_);fill:#FFFFFF;stroke:#000000;stroke-miterlimit:10;}
	.st24{clip-path:url(#SVGID_00000114765441222408976830000000405545967490346173_);fill:#646569;}
	.st25{clip-path:url(#SVGID_00000114765441222408976830000000405545967490346173_);fill:#65656A;}
	
		.st26{clip-path:url(#SVGID_00000114765441222408976830000000405545967490346173_);fill:none;stroke:#65656A;stroke-width:0.1925;stroke-linecap:round;stroke-linejoin:round;stroke-miterlimit:10;}
	.st27{clip-path:url(#SVGID_00000055671023176701329220000004269701306830015104_);fill:#FFFFFF;}
	.st28{clip-path:url(#SVGID_00000055671023176701329220000004269701306830015104_);fill:#65656A;}
	.st29{clip-path:url(#SVGID_00000055671023176701329220000004269701306830015104_);fill:#646569;}
	.st30{clip-path:url(#SVGID_00000033329928322645462490000004434543118459138982_);fill:#FFFFFF;}
	.st31{clip-path:url(#SVGID_00000033329928322645462490000004434543118459138982_);fill:#646569;}
	.st32{clip-path:url(#SVGID_00000121992403510543081100000008619924269618208144_);fill:#FFFFFF;}
	.st33{clip-path:url(#SVGID_00000121992403510543081100000008619924269618208144_);fill:#65656A;}
	.st34{clip-path:url(#SVGID_00000121992403510543081100000008619924269618208144_);fill:#646569;}
	.st35{fill:#646569;}
	.st36{clip-path:url(#SVGID_00000035521509099951505350000007203983111555039649_);fill:#FFFFFF;}
	.st37{clip-path:url(#SVGID_00000035521509099951505350000007203983111555039649_);fill:#65666A;}
	
		.st38{clip-path:url(#SVGID_00000035521509099951505350000007203983111555039649_);fill:none;stroke:#65666A;stroke-width:0.1748;stroke-miterlimit:10;}
	.st39{clip-path:url(#SVGID_00000141424808518704810420000002173426313980161179_);fill:#FFFFFF;}
	.st40{clip-path:url(#SVGID_00000141424808518704810420000002173426313980161179_);fill:#646569;}
	.st41{fill:none;stroke:#65656A;stroke-width:3;stroke-miterlimit:10;}
	.st42{fill:#EC8020;}
	.st43{fill:#ED8020;}
	.st44{fill:none;stroke:#65656A;stroke-width:3;stroke-linecap:round;stroke-miterlimit:10;}
	.st45{fill:none;stroke:#646569;stroke-width:10;stroke-linejoin:round;stroke-miterlimit:10;}
	.st46{fill:none;stroke:#646569;stroke-width:10;stroke-miterlimit:10;}
	.st47{fill:none;stroke:#646569;stroke-width:10;stroke-linecap:round;stroke-miterlimit:10;}
	.st48{fill:none;stroke:#65656A;stroke-width:8;stroke-linecap:round;stroke-miterlimit:10;}
	.st49{fill:#FFFFFF;stroke:#65656A;stroke-width:8;stroke-linecap:round;stroke-linejoin:round;stroke-miterlimit:10;}
	.st50{fill:none;stroke:#65656A;stroke-width:8;stroke-miterlimit:10;}
</style>
<g id="Function_-_Central_APIs">
</g>
<g id="Function_-_Central_Route_Orchestrator">
</g>
<g id="Function_-_Central_Tunnel_Orchestrator">
</g>
<g id="Function_-_Central_NetConductor">
</g>
<g id="Function_-_Central_Network_Management">
</g>
<g id="Function_-_Central_Network_Insights">
</g>
<g id="Function_-_Central_Client_Insights">
</g>
<g id="Function_-_ClearPass_Policy_Manager">
</g>
<g id="Function_-_UXI_APIs">
</g>
<g id="Function_-_UXI_Dashboard">
</g>
<g id="Function_-_Orchestrator_Global_Enterprise">
</g>
<g id="Function_-_Orchestrator">
</g>
<g id="Function_-_Pensando_Policy_and_Services_Manager">
</g>
<g id="Function_-_Fabric_Composer">
</g>
<g id="Generic_-_Virtual_Machine">
</g>
<g id="Generic_-_Server_Single">
</g>
<g id="Generic_-_Server_Multi">
</g>
<g id="Generic_-_Router">
</g>
<g id="Generic_-_Firewall">
</g>
<g id="Wi-Fi_Signal">
</g>
<g id="Generic_-_Cloud_Function_Container_Grey">
</g>
<g id="Generic_-_Cloud_Function_Container_White">
</g>
<g id="Generic_-_Cloud_Internet_Circuit">
</g>
<g id="Generic_-_Cloud_Private_Circuit">
</g>
<g id="Generic_-_Cloud">
</g>
<g id="Client_-_IOT_Sensor">
</g>
<g id="Client_-_IOT_IO">
</g>
<g id="Client_-_IOT_PLC">
</g>
<g id="Client_-_IOT_Patient_Monitor">
</g>
<g id="Client_-_IOT_Camera">
</g>
<g id="Client_-_IOT_Scanner">
</g>
<g id="IOT_-_TV_Cast">
</g>
<g id="Client_-_Printer">
</g>
<g id="Client_-_Game_Console">
</g>
<g id="Client_-_IP_Phone">
</g>
<g id="Client_-_Laptop">
</g>
<g id="Client_-_Desktop">
</g>
<g id="Client_-_Workstation">
</g>
<g id="Client_-_Tablet">
</g>
<g id="Client_-_Mobile_2">
</g>
<g id="Client_-_Mobile_1">
</g>
<g id="Device_-_EdgeConnect_Enterprise_Cloud">
</g>
<g id="Device_-_EdgeConnect_Enterprise_Virtual">
</g>
<g id="Device_-_EdgeConnect_Enterprise_Appliance">
</g>
<g id="Device_-_Core_Agg_Leaf_Switch">
</g>
<g id="Device_-_Access_Switch">
</g>
<g id="Device_-_Gateway_Headend">
</g>
<g id="Device_-_Gateway_Branch">
</g>
<g id="Device_-_Gateway_Campus">
	<g>
		<path class="st0" d="M402,428.8H84.7c-21.1,0-38.1-17.1-38.1-38.1V55c0-21.1,17.1-38.1,38.1-38.1H402c21.1,0,38.1,17.1,38.1,38.1
			v335.7C440.1,411.7,423,428.8,402,428.8z"/>
		<g>
			<path class="st43" d="M363.4,491.5h-53.9c-4.1,0-7.4-3.3-7.4-7.4c0-4.1,3.3-7.4,7.4-7.4h53.9c4.1,0,7.4,3.3,7.4,7.4
				C370.8,488.2,367.5,491.5,363.4,491.5z"/>
		</g>
		<g>
			<path class="st43" d="M270.2,491.5h-53.9c-4.1,0-7.4-3.3-7.4-7.4c0-4.1,3.3-7.4,7.4-7.4h53.9c4.1,0,7.4,3.3,7.4,7.4
				C277.6,488.2,274.3,491.5,270.2,491.5z"/>
		</g>
		<g>
			<path class="st43" d="M172.2,491.5h-49c-4.1,0-7.4-3.3-7.4-7.4c0-4.1,3.3-7.4,7.4-7.4h49c4.1,0,7.4,3.3,7.4,7.4
				C179.5,488.2,176.2,491.5,172.2,491.5z"/>
		</g>
		<g>
			<g>
				<path class="st43" d="M412.5,467h-53.9c-4.1,0-7.4-3.3-7.4-7.4s3.3-7.4,7.4-7.4h53.9c4.1,0,7.4,3.3,7.4,7.4S416.5,467,412.5,467
					z"/>
			</g>
			<g>
				<path class="st43" d="M319.3,467h-49c-4.1,0-7.4-3.3-7.4-7.4s3.3-7.4,7.4-7.4h49c4.1,0,7.4,3.3,7.4,7.4S323.4,467,319.3,467z"/>
			</g>
			<g>
				<path class="st43" d="M231,467h-53.9c-4.1,0-7.4-3.3-7.4-7.4s3.3-7.4,7.4-7.4H231c4.1,0,7.4,3.3,7.4,7.4S235.1,467,231,467z"/>
			</g>
			<g>
				<path class="st43" d="M142.7,467H88.8c-4.1,0-7.4-3.3-7.4-7.4s3.3-7.4,7.4-7.4h53.9c4.1,0,7.4,3.3,7.4,7.4S146.8,467,142.7,467z
					"/>
			</g>
			<g>
				<g>
					<g>
						<path class="st8" d="M192.4,58.5c-1.4,0-2.9-0.6-4-1.8c-1.9-2.2-1.7-5.6,0.4-7.5c16.6-14.8,38.2-22.6,60.1-22
							c20.1,0.6,39.5,8.4,54.6,21.7c2.2,1.9,2.4,5.3,0.5,7.5c-1.9,2.2-5.3,2.4-7.5,0.5c-13.3-11.8-30.3-18.5-47.9-19.1
							c-19.4-0.7-38.1,6.3-52.7,19.3C194.9,58,193.6,58.5,192.4,58.5z"/>
					</g>
					<g>
						<g>
							<path class="st8" d="M288.8,63.8c-0.1-0.1-0.3-0.2-0.4-0.4c0,0-0.1,0-0.1-0.1c-11.4-9.5-25.1-14.8-39.9-15.2
								c-16.2-0.4-32.1,5.1-44.6,15.8c-2.2,1.9-2.5,5.3-0.6,7.5c1,1.2,2.5,1.9,4,1.9c1.2,0,2.5-0.4,3.5-1.3
								c10.5-9,23.7-13.8,37.3-13.3c12.5,0.4,24.1,4.9,33.7,13c0.1,0.1,0.2,0.1,0.2,0.1c1,0.8,2.1,1.2,3.3,1.2c1.5,0,3-0.6,4-1.8
								C291.2,69.1,291,65.7,288.8,63.8z"/>
						</g>
					</g>
					<g>
						<path class="st8" d="M222.7,88.9c-1.6,0-3.1-0.7-4.2-2c-1.8-2.3-1.5-5.7,0.9-7.5c8.1-6.4,18.1-9.7,28.3-9.4
							c8.9,0.3,17.5,3.3,24.7,8.6c2.4,1.8,2.9,5.1,1.1,7.5c-1.7,2.4-5.1,2.8-7.4,1.1c-5.5-4.1-11.9-6.3-18.6-6.5
							c-7.8-0.3-15.2,2.2-21.4,7.1C225,88.6,223.8,88.9,222.7,88.9z"/>
					</g>
				</g>
			</g>
			<g>
				<g>
					<g>
						<path class="st8" d="M303.3,389c1.5,0,2.9,0.6,3.9,1.8c2,2.2,1.8,5.6-0.4,7.5c-16.6,14.9-38.2,22.6-60.1,22
							c-20.1-0.6-39.5-8.4-54.6-21.7c-2.2-1.9-2.4-5.3-0.5-7.5c2-2.2,5.3-2.4,7.5-0.4c13.3,11.7,30.3,18.5,47.9,19.1
							c19.4,0.7,38.1-6.3,52.7-19.3C300.7,389.5,302,389,303.3,389z"/>
					</g>
					<g>
						<path class="st8" d="M292.5,376c-1-1.2-2.5-1.9-4-1.9c-1.2,0-2.5,0.4-3.5,1.3c-10.5,9-23.7,13.8-37.3,13.3
							c-12.5-0.4-24.1-4.9-33.7-13c-0.1-0.1-0.2-0.1-0.2-0.1c-1-0.8-2.1-1.2-3.3-1.2c-1.5,0-3,0.6-4,1.8c-2,2.2-1.7,5.6,0.5,7.5
							c0.1,0.1,0.3,0.2,0.5,0.3c0,0,0,0,0,0c11.4,9.5,25.2,14.8,40,15.3c16.2,0.4,32.1-5.1,44.6-15.8
							C294.1,381.6,294.4,378.2,292.5,376z"/>
					</g>
					<g>
						<path class="st8" d="M273,358.5c1.6,0,3.1,0.7,4.2,2c1.8,2.3,1.4,5.7-0.9,7.5c-8.1,6.4-18,9.7-28.3,9.4
							c-8.9-0.3-17.5-3.2-24.7-8.6c-2.4-1.8-2.9-5.1-1.1-7.5c1.8-2.4,5.1-2.8,7.5-1.1c5.4,4.1,11.9,6.3,18.6,6.5
							c7.8,0.3,15.2-2.2,21.4-7.1C270.7,358.9,271.8,358.5,273,358.5z"/>
					</g>
				</g>
			</g>
			<g>
				<g>
					<g>
						<path class="st8" d="M81.2,169.1c0-1.5,0.6-2.9,1.8-4c2.2-2,5.6-1.8,7.5,0.4c14.8,16.6,22.6,38.2,22,60.1
							c-0.6,20.1-8.4,39.5-21.7,54.6c-2,2.2-5.3,2.4-7.5,0.5c-2.2-1.9-2.4-5.3-0.5-7.5c11.8-13.3,18.5-30.3,19.1-47.9
							c0.7-19.4-6.3-38.1-19.3-52.7C81.7,171.7,81.2,170.4,81.2,169.1z"/>
					</g>
					<g>
						<path class="st8" d="M76.2,265.1c9.5-11.4,14.8-25.2,15.3-40c0.4-16.2-5.1-32.1-15.8-44.6c-1.9-2.2-5.3-2.5-7.5-0.6
							c-1.2,1.1-1.9,2.5-1.9,4c0,1.2,0.4,2.5,1.3,3.5c9,10.5,13.8,23.7,13.3,37.4c-0.4,12.5-4.9,24.1-13,33.7c0,0,0,0,0,0
							c0,0,0,0,0,0c-0.9,1-1.3,2.3-1.3,3.5c0,1.5,0.6,3,1.8,4c2.2,2,5.6,1.7,7.5-0.5c0-0.1,0.1-0.1,0.1-0.2c0,0,0,0,0,0
							C76.1,265.3,76.1,265.2,76.2,265.1C76.2,265.1,76.2,265.1,76.2,265.1C76.2,265.1,76.2,265.1,76.2,265.1z"/>
					</g>
					<g>
						<path class="st8" d="M50.7,199.4c0-1.6,0.7-3.1,2-4.2c2.3-1.8,5.6-1.4,7.5,0.9c6.4,8.1,9.7,18.1,9.4,28.3
							c-0.3,8.9-3.3,17.5-8.6,24.7c-1.8,2.4-5.1,2.8-7.5,1.1c-2.4-1.7-2.8-5.1-1.1-7.4c4.1-5.4,6.3-11.9,6.5-18.6
							c0.3-7.8-2.2-15.2-7.1-21.4C51.1,201.7,50.7,200.6,50.7,199.4z"/>
					</g>
				</g>
			</g>
			<g>
				<g>
					<g>
						<path class="st8" d="M403.8,289c0,1.5-0.6,2.9-1.8,4c-2.2,2-5.6,1.8-7.5-0.4c-14.8-16.7-22.6-38.2-22-60.1
							c0.6-20.1,8.4-39.5,21.7-54.6c1.9-2.2,5.3-2.4,7.5-0.5c2.2,1.9,2.4,5.3,0.5,7.5c-11.8,13.3-18.5,30.3-19.1,47.9
							c-0.7,19.4,6.2,38.1,19.3,52.7C403.4,286.4,403.8,287.7,403.8,289z"/>
					</g>
					<g>
						<path class="st8" d="M417.5,270.7c-9-10.5-13.8-23.7-13.3-37.4c0.4-12.5,4.9-24.1,13-33.7c0.1-0.1,0.1-0.1,0.1-0.2
							c0.8-1,1.2-2.1,1.2-3.3c0-1.5-0.6-3-1.8-4c-2.2-1.9-5.6-1.7-7.5,0.5c0,0-0.1,0.1-0.1,0.2c0,0,0,0,0,0
							c-9.7,11.4-15,25.4-15.5,40.3c-0.4,16.2,5.1,32.1,15.8,44.6c1.9,2.2,5.3,2.5,7.5,0.6c1.2-1,1.8-2.5,1.8-4
							C418.8,272.9,418.3,271.7,417.5,270.7z"/>
					</g>
					<g>
						<path class="st8" d="M434.3,258.7c0,1.6-0.7,3.1-2,4.2c-2.3,1.8-5.7,1.4-7.5-0.9c-6.4-8.1-9.7-18.1-9.4-28.3
							c0.3-8.9,3.2-17.5,8.6-24.7c1.8-2.4,5.1-2.9,7.5-1.1c2.3,1.8,2.8,5.1,1.1,7.4c-4.1,5.4-6.3,11.9-6.5,18.6
							c-0.3,7.8,2.2,15.2,7.1,21.4C434,256.3,434.3,257.5,434.3,258.7z"/>
					</g>
				</g>
			</g>
			<g>
				<path class="st42" d="M228.9,146.4c0-4.9-4-8.6-8.9-8.6c-4.9,0-8.9,4.1-8.9,9l0,45.6l-81.6-81.6c-3.5-3.5-9.1-3.4-12.6,0
					c-1.8,1.7-2.6,4-2.6,6.3c0,2.3,0.9,3.1,2.6,4.9l81.6,80.2h-44.6c-4.9,0-8.9,4.9-8.9,9.8c0,4.9,4,9.8,8.9,9.8h75L228.9,146.4z"/>
			</g>
			<g>
				<path class="st42" d="M288.6,109.2c-4.9,0-8.4,4-8.4,8.9c0,4.9,4.2,8.9,9.1,8.9l45.6,0l-81.5,81.6c-3.5,3.5-3.4,9.1,0,12.6
					c1.7,1.7,4,2.6,6.3,2.6c2.3,0,5.1-0.9,6.8-2.6l82.1-81.6v44.6c0,4.9,2.4,8.9,7.4,8.9c4.9,0,7.3-4,7.3-8.9v-75L288.6,109.2z"/>
			</g>
			<g>
				<path class="st42" d="M260.4,322.4c0,4.9,4.9,8.9,9.8,8.9c4.9,0,9.8-4,9.8-8.9v-45.5l81.5,81.6c3.5,3.5,9.1,3.5,12.5,0
					c1.8-1.7,2.6-4,2.6-6.3c0-2.3-0.9-6.2-2.6-7.9L292.4,261h44.6c4.9,0,8.9-2.4,8.9-7.4c0-4.9-4-7.3-8.9-7.3h-76.6V322.4z"/>
			</g>
			<g>
				<path class="st42" d="M197.8,356.5c4.9,0,8.3-4,8.3-8.9c0-4.9-4.3-8.9-9.2-8.9l-45.6,0l81.5-81.6c3.5-3.5,3.4-9.1,0-12.6
					c-1.8-1.8-4-2.6-6.3-2.6c-2.3,0-4.6,0.9-6.3,2.6l-81.6,81.6l0-44.6c0-4.9-2.8-8.9-7.7-8.9c-4.9,0-7.7,4-7.7,8.9v75.1
					L197.8,356.5z"/>
			</g>
			<g>
				<path class="st8" d="M397.1,437.6H90c-29.9,0-54.3-24.3-54.3-54.3l0-319.9C35.7,33.5,60,9.1,90,9.1l307.3,0
					c30,0,54.4,24.4,54.4,54.3v319.9C451.7,413.2,427.2,437.6,397.1,437.6z M90,23.8c-21.8,0-39.6,17.8-39.6,39.6l0,319.9
					c0,21.8,17.7,39.6,39.6,39.6h307.2c22,0,39.9-17.8,39.9-39.6V63.4c0-21.8-17.8-39.6-39.7-39.6L90,23.8z"/>
			</g>
		</g>
	</g>
</g>
<g id="Device_-_UXI_Sensor_New">
</g>
<g id="Device_-_UXI_Sensor">
</g>
<g id="Device_-_AP500_Series_Microbranch">
</g>
<g id="Device_-_AP600_Series">
</g>
<g id="Device_-_AP500_Series">
</g>
<g id="Device_-_Outdoor_AP">
</g>
</svg>
