<?xml version="1.0" encoding="utf-8"?>
<!-- Generator: Adobe Illustrator 26.3.1, SVG Export Plug-In . SVG Version: 6.00 Build 0)  -->
<svg version="1.1" xmlns="http://www.w3.org/2000/svg" xmlns:xlink="http://www.w3.org/1999/xlink" x="0px" y="0px"
	 viewBox="0 0 500 500" style="enable-background:new 0 0 500 500;" xml:space="preserve">
<style type="text/css">
	.st0{fill:#FFFFFF;}
	.st1{fill:#FF8300;}
	.st2{fill:#F78200;}
	.st3{fill:#F7931E;}
	.st4{fill:#5D5D5D;}
	.st5{fill:#FFFFFF;stroke:#65656A;stroke-width:12;stroke-miterlimit:10;}
	.st6{display:none;fill:#979797;stroke:#979797;stroke-width:3;stroke-linecap:round;stroke-linejoin:round;stroke-miterlimit:10;}
	.st7{fill:#979797;}
	.st8{fill:#65656A;}
	.st9{stroke:#009245;stroke-width:3;stroke-miterlimit:10;}
	.st10{fill:#F58220;}
	.st11{clip-path:url(#SVGID_00000121969381073127457470000004437177135784658097_);fill:#5E5E5E;}
	.st12{clip-path:url(#SVGID_00000060746464984573801900000004442985244448060038_);fill:#FFFFFF;}
	.st13{clip-path:url(#SVGID_00000137833281727290829980000005197997254446898621_);fill:#FFFFFF;}
	.st14{clip-path:url(#SVGID_00000137833281727290829980000005197997254446898621_);fill:#FF8300;}
	.st15{clip-path:url(#SVGID_00000134947219532624863680000012764007311558686387_);fill:#FFFFFF;}
	.st16{clip-path:url(#SVGID_00000134947219532624863680000012764007311558686387_);fill:#ADE1F0;}
	.st17{clip-path:url(#SVGID_00000154425246190288946340000013285274935280759701_);fill:#65656A;}
	.st18{clip-path:url(#SVGID_00000154425246190288946340000013285274935280759701_);fill:#646569;}
	.st19{clip-path:url(#SVGID_00000154425246190288946340000013285274935280759701_);fill:#D0D0D2;}
	.st20{clip-path:url(#SVGID_00000135692053441730135070000006656742422236590219_);fill:#FFFFFF;}
	.st21{clip-path:url(#SVGID_00000135692053441730135070000006656742422236590219_);fill:#646569;}
	.st22{clip-path:url(#SVGID_00000135692053441730135070000006656742422236590219_);fill:#65656A;}
	
		.st23{clip-path:url(#SVGID_00000144315667531943048810000016093389183730125753_);fill:#FFFFFF;stroke:#000000;stroke-miterlimit:10;}
	.st24{clip-path:url(#SVGID_00000144315667531943048810000016093389183730125753_);fill:#646569;}
	.st25{clip-path:url(#SVGID_00000144315667531943048810000016093389183730125753_);fill:#65656A;}
	
		.st26{clip-path:url(#SVGID_00000144315667531943048810000016093389183730125753_);fill:none;stroke:#65656A;stroke-width:0.1925;stroke-linecap:round;stroke-linejoin:round;stroke-miterlimit:10;}
	.st27{clip-path:url(#SVGID_00000134942645977060631010000016500161271489615756_);fill:#FFFFFF;}
	.st28{clip-path:url(#SVGID_00000134942645977060631010000016500161271489615756_);fill:#65656A;}
	.st29{clip-path:url(#SVGID_00000134942645977060631010000016500161271489615756_);fill:#646569;}
	.st30{clip-path:url(#SVGID_00000099641452435411661730000005449165448638131617_);fill:#FFFFFF;}
	.st31{clip-path:url(#SVGID_00000099641452435411661730000005449165448638131617_);fill:#646569;}
	.st32{clip-path:url(#SVGID_00000103228533309909079940000004323505363055646615_);fill:#FFFFFF;}
	.st33{clip-path:url(#SVGID_00000103228533309909079940000004323505363055646615_);fill:#65656A;}
	.st34{clip-path:url(#SVGID_00000103228533309909079940000004323505363055646615_);fill:#646569;}
	.st35{fill:#646569;}
	.st36{clip-path:url(#SVGID_00000153701268183973603990000017641384635463619252_);fill:#FFFFFF;}
	.st37{clip-path:url(#SVGID_00000153701268183973603990000017641384635463619252_);fill:#65666A;}
	
		.st38{clip-path:url(#SVGID_00000153701268183973603990000017641384635463619252_);fill:none;stroke:#65666A;stroke-width:0.1748;stroke-miterlimit:10;}
	.st39{clip-path:url(#SVGID_00000040535168700018194330000017338978958225562537_);fill:#FFFFFF;}
	.st40{clip-path:url(#SVGID_00000040535168700018194330000017338978958225562537_);fill:#646569;}
	.st41{fill:none;stroke:#65656A;stroke-width:3;stroke-miterlimit:10;}
	.st42{fill:#EC8020;}
	.st43{fill:#ED8020;}
	.st44{fill:none;stroke:#65656A;stroke-width:3;stroke-linecap:round;stroke-miterlimit:10;}
	.st45{fill:none;stroke:#646569;stroke-width:10;stroke-linejoin:round;stroke-miterlimit:10;}
	.st46{fill:none;stroke:#646569;stroke-width:10;stroke-miterlimit:10;}
	.st47{fill:none;stroke:#646569;stroke-width:10;stroke-linecap:round;stroke-miterlimit:10;}
	.st48{fill:none;stroke:#65656A;stroke-width:8;stroke-linecap:round;stroke-miterlimit:10;}
	.st49{fill:#FFFFFF;stroke:#65656A;stroke-width:8;stroke-linecap:round;stroke-linejoin:round;stroke-miterlimit:10;}
	.st50{fill:none;stroke:#65656A;stroke-width:8;stroke-miterlimit:10;}
</style>
<g id="Function_-_Central_APIs">
</g>
<g id="Function_-_Central_Route_Orchestrator">
</g>
<g id="Function_-_Central_Tunnel_Orchestrator">
</g>
<g id="Function_-_Central_NetConductor">
</g>
<g id="Function_-_Central_Network_Management">
</g>
<g id="Function_-_Central_Network_Insights">
</g>
<g id="Function_-_Central_Client_Insights">
</g>
<g id="Function_-_ClearPass_Policy_Manager">
</g>
<g id="Function_-_UXI_APIs">
</g>
<g id="Function_-_UXI_Dashboard">
</g>
<g id="Function_-_Orchestrator_Global_Enterprise">
</g>
<g id="Function_-_Orchestrator">
</g>
<g id="Function_-_Pensando_Policy_and_Services_Manager">
</g>
<g id="Function_-_Fabric_Composer">
</g>
<g id="Generic_-_Virtual_Machine">
</g>
<g id="Generic_-_Server_Single">
</g>
<g id="Generic_-_Server_Multi">
</g>
<g id="Generic_-_Router">
</g>
<g id="Generic_-_Firewall">
</g>
<g id="Wi-Fi_Signal">
</g>
<g id="Generic_-_Cloud_Function_Container_Grey">
</g>
<g id="Generic_-_Cloud_Function_Container_White">
</g>
<g id="Generic_-_Cloud_Internet_Circuit">
</g>
<g id="Generic_-_Cloud_Private_Circuit">
</g>
<g id="Generic_-_Cloud">
</g>
<g id="Client_-_IOT_Sensor">
</g>
<g id="Client_-_IOT_IO">
</g>
<g id="Client_-_IOT_PLC">
</g>
<g id="Client_-_IOT_Patient_Monitor">
</g>
<g id="Client_-_IOT_Camera">
</g>
<g id="Client_-_IOT_Scanner">
</g>
<g id="IOT_-_TV_Cast">
</g>
<g id="Client_-_Printer">
</g>
<g id="Client_-_Game_Console">
</g>
<g id="Client_-_IP_Phone">
</g>
<g id="Client_-_Laptop">
</g>
<g id="Client_-_Desktop">
</g>
<g id="Client_-_Workstation">
</g>
<g id="Client_-_Tablet">
</g>
<g id="Client_-_Mobile_2">
</g>
<g id="Client_-_Mobile_1">
</g>
<g id="Device_-_EdgeConnect_Enterprise_Cloud">
</g>
<g id="Device_-_EdgeConnect_Enterprise_Virtual">
</g>
<g id="Device_-_EdgeConnect_Enterprise_Appliance">
</g>
<g id="Device_-_Core_Agg_Leaf_Switch">
</g>
<g id="Device_-_Access_Switch">
</g>
<g id="Device_-_Gateway_Headend">
	<g>
		<g>
			<path id="Background_00000147935598188744744690000005602196044850554291_" class="st0" d="M346.5,393.4H36.8
				c-4.5,0-8.2-3.7-8.2-8.2V67.4c0-4.5,3.7-8.2,8.2-8.2h309.7c4.5,0,8.2,3.7,8.2,8.2v317.9C354.7,389.8,351,393.4,346.5,393.4z"/>
			<g>
				<path class="st43" d="M289.5,450.5h-44.8c-3.4,0-6.1-2.7-6.1-6.1s2.7-6.1,6.1-6.1h44.8c3.4,0,6.1,2.7,6.1,6.1
					S292.8,450.5,289.5,450.5z"/>
			</g>
			<g>
				<path class="st43" d="M212,450.5h-44.8c-3.4,0-6.1-2.7-6.1-6.1s2.7-6.1,6.1-6.1H212c3.4,0,6.1,2.7,6.1,6.1
					S215.4,450.5,212,450.5z"/>
			</g>
			<g>
				<path class="st43" d="M130.5,450.5H89.7c-3.4,0-6.1-2.7-6.1-6.1s2.7-6.1,6.1-6.1h40.8c3.4,0,6.1,2.7,6.1,6.1
					S133.9,450.5,130.5,450.5z"/>
			</g>
			<g>
				<g>
					<path class="st43" d="M330.2,430.1h-44.8c-3.4,0-6.1-2.7-6.1-6.1s2.7-6.1,6.1-6.1h44.8c3.4,0,6.1,2.7,6.1,6.1
						S333.6,430.1,330.2,430.1z"/>
				</g>
				<g>
					<path class="st43" d="M252.8,430.1H212c-3.4,0-6.1-2.7-6.1-6.1s2.7-6.1,6.1-6.1h40.8c3.4,0,6.1,2.7,6.1,6.1
						S256.2,430.1,252.8,430.1z"/>
				</g>
				<g>
					<path class="st43" d="M179.4,430.1h-44.8c-3.4,0-6.1-2.7-6.1-6.1s2.7-6.1,6.1-6.1h44.8c3.4,0,6.1,2.7,6.1,6.1
						S182.8,430.1,179.4,430.1z"/>
				</g>
				<g>
					<path class="st43" d="M106,430.1H61.2c-3.4,0-6.1-2.7-6.1-6.1s2.7-6.1,6.1-6.1H106c3.4,0,6.1,2.7,6.1,6.1
						S109.4,430.1,106,430.1z"/>
				</g>
				<g>
					<g>
						<g>
							<path class="st8" d="M147.3,90.5c-1.2,0-2.4-0.5-3.3-1.5c-1.6-1.8-1.5-4.6,0.4-6.3c13.8-12.3,31.8-18.8,50-18.3
								c16.7,0.5,32.8,7,45.4,18.1c1.8,1.6,2,4.4,0.4,6.3c-1.6,1.8-4.4,2-6.3,0.4c-11-9.8-25.2-15.4-39.8-15.9
								c-16.1-0.6-31.7,5.2-43.8,16C149.4,90.2,148.3,90.5,147.3,90.5z"/>
						</g>
						<g>
							<path class="st8" d="M159.6,102.9c-1.2,0-2.5-0.5-3.4-1.6c-1.6-1.9-1.4-4.7,0.5-6.3c10.4-8.9,23.6-13.5,37.1-13.2
								c12.4,0.4,23.9,4.8,33.4,12.9c1.9,1.6,2.1,4.4,0.5,6.3c-1.6,1.8-4.4,2.1-6.3,0.5c-7.9-6.7-17.6-10.5-28-10.8
								c-11.3-0.4-22.3,3.6-31,11C161.7,102.6,160.6,102.9,159.6,102.9z"/>
						</g>
						<g>
							<path class="st8" d="M224.5,102.7c-1,0-2.1-0.4-2.9-1.1c-1.9-1.5-2.2-4.2-0.8-6.1c1.5-1.9,4.3-2.3,6.3-0.8
								c0.1,0.1,0.3,0.2,0.4,0.3c1.8,1.6,2,4.4,0.4,6.3C226.9,102.2,225.7,102.7,224.5,102.7z"/>
						</g>
						<g>
							<path class="st8" d="M172.5,115.9c-1.3,0-2.6-0.6-3.5-1.7c-1.5-1.9-1.2-4.7,0.7-6.2c6.7-5.3,15-8.1,23.5-7.8
								c7.4,0.2,14.5,2.7,20.5,7.2c2,1.5,2.4,4.2,0.9,6.2c-1.4,2-4.2,2.4-6.2,0.9c-4.5-3.4-9.9-5.2-15.5-5.4
								c-6.5-0.2-12.6,1.8-17.8,5.9C174.4,115.6,173.4,115.9,172.5,115.9z"/>
						</g>
					</g>
				</g>
				<g>
					<g>
						<g>
							<path class="st8" d="M239.5,365.3c1.2,0,2.4,0.5,3.3,1.5c1.6,1.8,1.5,4.6-0.3,6.3c-13.8,12.3-31.8,18.8-50,18.3
								c-16.7-0.5-32.8-6.9-45.4-18.1c-1.8-1.6-2-4.4-0.4-6.3c1.6-1.8,4.4-2,6.2-0.4c11,9.8,25.2,15.4,39.8,15.8
								c16.1,0.6,31.7-5.2,43.8-16C237.4,365.7,238.4,365.3,239.5,365.3z"/>
						</g>
						<g>
							<path class="st8" d="M227.2,352.9c1.2,0,2.5,0.5,3.4,1.6c1.6,1.8,1.4,4.6-0.5,6.3c-10.4,8.9-23.6,13.5-37.1,13.2
								c-12.4-0.4-24-4.8-33.5-12.9c-1.9-1.6-2.1-4.4-0.5-6.2c1.6-1.9,4.4-2.1,6.2-0.5c8,6.7,17.6,10.5,28,10.8
								c11.3,0.4,22.3-3.6,31-11C225.1,353.3,226.2,352.9,227.2,352.9z"/>
						</g>
						<g>
							<path class="st8" d="M162.3,353.1c1,0,2.1,0.4,2.9,1.1c1.9,1.5,2.3,4.2,0.8,6.1c-1.5,1.9-4.3,2.3-6.3,0.8
								c-0.1-0.1-0.3-0.2-0.4-0.3c-1.8-1.6-2-4.4-0.4-6.3C159.8,353.6,161.1,353.1,162.3,353.1z"/>
						</g>
						<g>
							<path class="st8" d="M214.3,340c1.3,0,2.6,0.6,3.5,1.7c1.5,1.9,1.2,4.7-0.7,6.2c-6.7,5.3-15,8.1-23.5,7.8
								c-7.4-0.2-14.5-2.7-20.5-7.2c-2-1.5-2.4-4.2-0.9-6.2c1.5-2,4.2-2.4,6.2-0.9c4.5,3.4,9.9,5.2,15.5,5.4
								c6.5,0.2,12.6-1.8,17.8-5.9C212.4,340.3,213.3,340,214.3,340z"/>
						</g>
					</g>
				</g>
				<g>
					<g>
						<g>
							<path class="st8" d="M54.9,182.5c0-1.2,0.5-2.4,1.5-3.3c1.8-1.6,4.6-1.5,6.2,0.4c12.3,13.8,18.8,31.8,18.3,50
								c-0.5,16.7-7,32.8-18.1,45.4c-1.6,1.8-4.4,2-6.3,0.4c-1.8-1.6-2-4.4-0.4-6.3c9.8-11,15.4-25.2,15.9-39.8
								c0.6-16.1-5.2-31.7-16-43.8C55.2,184.6,54.9,183.6,54.9,182.5z"/>
						</g>
						<g>
							<path class="st8" d="M42.5,194.8c0-1.2,0.5-2.5,1.5-3.4c1.9-1.6,4.7-1.4,6.3,0.5c8.9,10.4,13.5,23.6,13.2,37.1
								c-0.4,12.4-4.8,24-12.9,33.5c-1.6,1.9-4.4,2.1-6.2,0.5c-1.9-1.6-2.1-4.4-0.5-6.2c6.7-8,10.5-17.6,10.8-28
								c0.4-11.3-3.6-22.4-11-31.1C42.8,196.9,42.5,195.8,42.5,194.8z"/>
						</g>
						<g>
							<path class="st8" d="M42.7,259.7c0-1,0.4-2.1,1.1-2.9c1.5-2,4.2-2.3,6.1-0.8c1.9,1.5,2.3,4.3,0.8,6.3
								c-0.1,0.1-0.2,0.3-0.3,0.4c-1.6,1.8-4.4,2-6.3,0.4C43.2,262.2,42.7,260.9,42.7,259.7z"/>
						</g>
						<g>
							<path class="st8" d="M29.5,207.7c0-1.3,0.6-2.6,1.7-3.5c1.9-1.5,4.7-1.2,6.2,0.7c5.3,6.7,8.1,15,7.9,23.5
								c-0.2,7.4-2.7,14.5-7.2,20.5c-1.5,2-4.2,2.4-6.2,0.9c-2-1.4-2.4-4.2-0.9-6.2c3.4-4.5,5.2-9.9,5.4-15.5
								c0.2-6.5-1.8-12.6-5.9-17.8C29.8,209.6,29.5,208.6,29.5,207.7z"/>
						</g>
					</g>
				</g>
				<g>
					<g>
						<g>
							<path class="st8" d="M323.1,282.1c0,1.2-0.5,2.4-1.5,3.3c-1.8,1.6-4.6,1.5-6.3-0.3c-12.3-13.8-18.8-31.8-18.2-50
								c0.5-16.7,6.9-32.8,18.1-45.4c1.6-1.8,4.4-2,6.3-0.4c1.8,1.6,2,4.4,0.4,6.3c-9.8,11-15.4,25.2-15.9,39.8
								c-0.6,16.1,5.2,31.7,16,43.8C322.7,280,323.1,281.1,323.1,282.1z"/>
						</g>
						<g>
							<path class="st8" d="M335.4,269.8c0,1.2-0.5,2.5-1.5,3.3c-1.9,1.6-4.7,1.4-6.2-0.5c-8.9-10.4-13.5-23.6-13.2-37.1
								c0.4-12.4,4.8-24,12.9-33.5c1.6-1.9,4.4-2.1,6.2-0.5c1.9,1.6,2.1,4.4,0.5,6.2c-6.7,8-10.5,17.6-10.8,28
								c-0.4,11.3,3.6,22.3,11,31.1C335.1,267.7,335.5,268.8,335.4,269.8z"/>
						</g>
						<g>
							<path class="st8" d="M335.2,204.9c0,1-0.4,2.1-1.1,2.9c-1.5,1.9-4.2,2.3-6.1,0.8c-2-1.5-2.3-4.3-0.8-6.3
								c0.1-0.1,0.2-0.3,0.3-0.4c1.6-1.8,4.4-2,6.3-0.4C334.7,202.5,335.2,203.7,335.2,204.9z"/>
						</g>
						<g>
							<path class="st8" d="M348.4,257c0,1.3-0.6,2.6-1.7,3.5c-1.9,1.5-4.7,1.2-6.2-0.7c-5.3-6.7-8.1-15-7.8-23.5
								c0.2-7.4,2.7-14.5,7.2-20.5c1.5-2,4.2-2.4,6.2-0.9c1.9,1.5,2.4,4.2,0.9,6.2c-3.4,4.5-5.2,9.9-5.4,15.5
								c-0.2,6.5,1.8,12.6,5.9,17.8C348.1,255,348.4,256,348.4,257z"/>
						</g>
					</g>
				</g>
				<g>
					<path class="st42" d="M177.7,163.6c0-4.1-3.3-7.2-7.4-7.2c-4.1,0-7.4,3.4-7.4,7.5l0,37.9L95,134.1c-2.9-2.9-7.6-2.8-10.5,0
						c-1.5,1.4-2.2,3.3-2.2,5.2c0,1.9,0.7,2.6,2.2,4l67.8,66.6h-37.1c-4.1,0-7.4,4.1-7.4,8.1c0,4.1,3.3,8.2,7.4,8.2h62.4
						L177.7,163.6z"/>
				</g>
				<g>
					<path class="st42" d="M227.2,132.7c-4.1,0-7,3.3-7,7.4c0,4.1,3.5,7.4,7.6,7.4l37.9,0l-67.7,67.8c-2.9,2.9-2.9,7.6,0,10.5
						c1.4,1.4,3.4,2.2,5.2,2.2c1.9,0,4.2-0.7,5.7-2.2l68.2-67.8v37.1c0,4.1,2,7.4,6.1,7.4c4.1,0,6.1-3.3,6.1-7.4v-62.4L227.2,132.7z
						"/>
				</g>
				<g>
					<path class="st42" d="M203.9,310c0,4.1,4.1,7.4,8.2,7.4c4.1,0,8.2-3.3,8.2-7.4v-37.8l67.7,67.8c2.9,2.9,7.5,2.9,10.4,0
						c1.5-1.4,2.2-3.4,2.2-5.2c0-1.9-0.8-5.2-2.2-6.6l-67.8-69.2h37.1c4.1,0,7.4-2,7.4-6.1c0-4.1-3.3-6.1-7.4-6.1h-63.7V310z"/>
				</g>
				<g>
					<path class="st42" d="M151.8,338.3c4.1,0,6.9-3.3,6.9-7.4c0-4.1-3.6-7.4-7.6-7.4l-37.9,0l67.8-67.8c2.9-2.9,2.8-7.6,0-10.5
						c-1.5-1.5-3.4-2.2-5.3-2.2c-1.9,0-3.8,0.7-5.2,2.2L102.6,313l0-37.1c0-4.1-2.3-7.4-6.4-7.4c-4.1,0-6.4,3.3-6.4,7.4v62.4
						L151.8,338.3z"/>
				</g>
				<g>
					<path class="st8" d="M317.5,405.7H62.1c-24.9,0-45.1-20.2-45.1-45.1l0-265.9c0-24.9,20.2-45.1,45.1-45.1l255.4,0
						c25,0,45.2,20.2,45.2,45.1v101.1c0,3.4-2.7,6.1-6.1,6.1c-3.4,0-6.1-2.7-6.1-6.1V94.6c0-18.1-14.8-32.9-33-32.9l-255.4,0
						c-18.1,0-32.9,14.8-32.9,32.9l0,266c0,18.1,14.8,32.9,32.9,32.9h255.3c3.4,0,6.1,2.7,6.1,6.1S320.8,405.7,317.5,405.7z"/>
				</g>
			</g>
		</g>
		<g>
			<circle id="Background_00000045589778658113883890000011073371309851389593_" class="st0" cx="405.7" cy="334.3" r="71.3"/>
			<g>
				<path class="st8" d="M402.6,413.6c-20.6,0-41.2-7.8-56.9-23.5c-15.2-15.2-23.6-35.4-23.6-56.9c0-21.5,8.4-41.7,23.6-56.9
					c15.2-15.2,35.4-23.6,56.9-23.6c0,0,0,0,0,0c21.5,0,41.7,8.4,56.9,23.6l0,0l0,0c15.2,15.2,23.6,35.4,23.6,56.9
					c0,21.5-8.4,41.7-23.6,56.9C443.7,405.8,423.1,413.6,402.6,413.6z M402.6,265c-18.2,0-35.3,7.1-48.2,20
					c-12.9,12.9-20,30-20,48.2c0,18.2,7.1,35.3,20,48.2c26.6,26.6,69.8,26.6,96.4,0c12.9-12.9,20-30,20-48.2
					c0-18.2-7.1-35.3-20-48.2l0,0C437.9,272.1,420.8,265,402.6,265z"/>
			</g>
			<g>
				<g>
					<path class="st8" d="M392.1,330.2c-1.6,0-3.1-0.6-4.3-1.8l-26.1-26.1c-2.4-2.4-2.4-6.3,0-8.6c2.4-2.4,6.3-2.4,8.6,0l26.1,26.1
						c2.4,2.4,2.4,6.3,0,8.6C395.3,329.6,393.7,330.2,392.1,330.2z"/>
				</g>
				<g>
					<path class="st8" d="M364.9,323.6c-3.4,0-6.1-2.7-6.1-6.1v-20.6c0-3.4,2.7-6.1,6.1-6.1h20.6c3.4,0,6.1,2.7,6.1,6.1
						s-2.7,6.1-6.1,6.1H371v14.5C371,320.8,368.2,323.6,364.9,323.6z"/>
				</g>
			</g>
			<g>
				<g>
					<path class="st8" d="M439.1,377.2c-1.6,0-3.1-0.6-4.3-1.8l-26.1-26.1c-2.4-2.4-2.4-6.3,0-8.6c2.4-2.4,6.3-2.4,8.6,0l26.1,26.1
						c2.4,2.4,2.4,6.3,0,8.6C442.3,376.6,440.7,377.2,439.1,377.2z"/>
				</g>
				<g>
					<path class="st8" d="M440.3,378.4h-20.6c-3.4,0-6.1-2.7-6.1-6.1s2.7-6.1,6.1-6.1h14.5v-14.5c0-3.4,2.7-6.1,6.1-6.1
						c3.4,0,6.1,2.7,6.1,6.1v20.6C446.4,375.7,443.7,378.4,440.3,378.4z"/>
				</g>
			</g>
			<g>
				<g>
					<path class="st10" d="M410.4,327.6c-1.6,0-3.1-0.6-4.3-1.8c-2.4-2.4-2.4-6.3,0-8.6l26.1-26.1c2.4-2.4,6.3-2.4,8.6,0
						c2.4,2.4,2.4,6.3,0,8.6l-26.1,26.1C413.5,327,412,327.6,410.4,327.6z"/>
				</g>
				<g>
					<path class="st10" d="M437.7,321c-3.4,0-6.1-2.7-6.1-6.1v-14.5h-14.5c-3.4,0-6.1-2.7-6.1-6.1s2.7-6.1,6.1-6.1h20.6
						c3.4,0,6.1,2.7,6.1,6.1v20.6C443.8,318.2,441.1,321,437.7,321z"/>
				</g>
			</g>
			<g>
				<g>
					<path class="st10" d="M364.6,373.4c-1.6,0-3.1-0.6-4.3-1.8c-2.4-2.4-2.4-6.3,0-8.6l26.1-26.1c2.4-2.4,6.3-2.4,8.6,0
						c2.4,2.4,2.4,6.3,0,8.6l-26.1,26.1C367.7,372.8,366.2,373.4,364.6,373.4z"/>
				</g>
				<g>
					<path class="st10" d="M384,374.6h-20.6c-3.4,0-6.1-2.7-6.1-6.1v-20.6c0-3.4,2.7-6.1,6.1-6.1c3.4,0,6.1,2.7,6.1,6.1v14.5H384
						c3.4,0,6.1,2.7,6.1,6.1S387.4,374.6,384,374.6z"/>
				</g>
			</g>
		</g>
	</g>
</g>
<g id="Device_-_Gateway_Branch">
</g>
<g id="Device_-_Gateway_Campus">
</g>
<g id="Device_-_UXI_Sensor_New">
</g>
<g id="Device_-_UXI_Sensor">
</g>
<g id="Device_-_AP500_Series_Microbranch">
</g>
<g id="Device_-_AP600_Series">
</g>
<g id="Device_-_AP500_Series">
</g>
<g id="Device_-_Outdoor_AP">
</g>
</svg>
