<?xml version="1.0" encoding="utf-8"?>
<!-- Generator: Adobe Illustrator 26.3.1, SVG Export Plug-In . SVG Version: 6.00 Build 0)  -->
<svg version="1.1" xmlns="http://www.w3.org/2000/svg" xmlns:xlink="http://www.w3.org/1999/xlink" x="0px" y="0px"
	 viewBox="0 0 500 500" style="enable-background:new 0 0 500 500;" xml:space="preserve">
<style type="text/css">
	.st0{fill:#FFFFFF;}
	.st1{fill:#FF8300;}
	.st2{fill:#F78200;}
	.st3{fill:#F7931E;}
	.st4{fill:#5D5D5D;}
	.st5{fill:#FFFFFF;stroke:#65656A;stroke-width:12;stroke-miterlimit:10;}
	.st6{display:none;fill:#979797;stroke:#979797;stroke-width:3;stroke-linecap:round;stroke-linejoin:round;stroke-miterlimit:10;}
	.st7{fill:#979797;}
	.st8{fill:#65656A;}
	.st9{stroke:#009245;stroke-width:3;stroke-miterlimit:10;}
	.st10{fill:#F58220;}
	.st11{clip-path:url(#SVGID_00000103987518028870817270000015363572029660924077_);fill:#5E5E5E;}
	.st12{clip-path:url(#SVGID_00000124858296118322180750000015924362885126921379_);fill:#FFFFFF;}
	.st13{clip-path:url(#SVGID_00000066489402870763831520000018378518763329120427_);fill:#FFFFFF;}
	.st14{clip-path:url(#SVGID_00000066489402870763831520000018378518763329120427_);fill:#FF8300;}
	.st15{clip-path:url(#SVGID_00000011002653134820108440000001661581017672524734_);fill:#FFFFFF;}
	.st16{clip-path:url(#SVGID_00000011002653134820108440000001661581017672524734_);fill:#ADE1F0;}
	.st17{clip-path:url(#SVGID_00000051361969997540697850000012138499892884694153_);fill:#65656A;}
	.st18{clip-path:url(#SVGID_00000051361969997540697850000012138499892884694153_);fill:#646569;}
	.st19{clip-path:url(#SVGID_00000051361969997540697850000012138499892884694153_);fill:#D0D0D2;}
	.st20{clip-path:url(#SVGID_00000041253099236030194350000012471390717096717229_);fill:#FFFFFF;}
	.st21{clip-path:url(#SVGID_00000041253099236030194350000012471390717096717229_);fill:#646569;}
	.st22{clip-path:url(#SVGID_00000041253099236030194350000012471390717096717229_);fill:#65656A;}
	
		.st23{clip-path:url(#SVGID_00000101785562492246356380000005484767756335095443_);fill:#FFFFFF;stroke:#000000;stroke-miterlimit:10;}
	.st24{clip-path:url(#SVGID_00000101785562492246356380000005484767756335095443_);fill:#646569;}
	.st25{clip-path:url(#SVGID_00000101785562492246356380000005484767756335095443_);fill:#65656A;}
	
		.st26{clip-path:url(#SVGID_00000101785562492246356380000005484767756335095443_);fill:none;stroke:#65656A;stroke-width:0.1925;stroke-linecap:round;stroke-linejoin:round;stroke-miterlimit:10;}
	.st27{clip-path:url(#SVGID_00000029760323030620630640000013509816699945090485_);fill:#FFFFFF;}
	.st28{clip-path:url(#SVGID_00000029760323030620630640000013509816699945090485_);fill:#65656A;}
	.st29{clip-path:url(#SVGID_00000029760323030620630640000013509816699945090485_);fill:#646569;}
	.st30{clip-path:url(#SVGID_00000176763724635603491230000014214820333879990440_);fill:#FFFFFF;}
	.st31{clip-path:url(#SVGID_00000176763724635603491230000014214820333879990440_);fill:#646569;}
	.st32{clip-path:url(#SVGID_00000064325370074520049770000012250521402049850253_);fill:#FFFFFF;}
	.st33{clip-path:url(#SVGID_00000064325370074520049770000012250521402049850253_);fill:#65656A;}
	.st34{clip-path:url(#SVGID_00000064325370074520049770000012250521402049850253_);fill:#646569;}
	.st35{fill:#646569;}
	.st36{clip-path:url(#SVGID_00000144328679423815705880000012303217695830463639_);fill:#FFFFFF;}
	.st37{clip-path:url(#SVGID_00000144328679423815705880000012303217695830463639_);fill:#65666A;}
	
		.st38{clip-path:url(#SVGID_00000144328679423815705880000012303217695830463639_);fill:none;stroke:#65666A;stroke-width:0.1748;stroke-miterlimit:10;}
	.st39{clip-path:url(#SVGID_00000106117591562967172460000006581667383940733603_);fill:#FFFFFF;}
	.st40{clip-path:url(#SVGID_00000106117591562967172460000006581667383940733603_);fill:#646569;}
	.st41{fill:none;stroke:#65656A;stroke-width:3;stroke-miterlimit:10;}
	.st42{fill:#EC8020;}
	.st43{fill:#ED8020;}
	.st44{fill:none;stroke:#65656A;stroke-width:3;stroke-linecap:round;stroke-miterlimit:10;}
	.st45{fill:none;stroke:#646569;stroke-width:10;stroke-linejoin:round;stroke-miterlimit:10;}
	.st46{fill:none;stroke:#646569;stroke-width:10;stroke-miterlimit:10;}
	.st47{fill:none;stroke:#646569;stroke-width:10;stroke-linecap:round;stroke-miterlimit:10;}
	.st48{fill:none;stroke:#65656A;stroke-width:8;stroke-linecap:round;stroke-miterlimit:10;}
	.st49{fill:#FFFFFF;stroke:#65656A;stroke-width:8;stroke-linecap:round;stroke-linejoin:round;stroke-miterlimit:10;}
	.st50{fill:none;stroke:#65656A;stroke-width:8;stroke-miterlimit:10;}
</style>
<g id="Function_-_Central_APIs">
</g>
<g id="Function_-_Central_Route_Orchestrator">
</g>
<g id="Function_-_Central_Tunnel_Orchestrator">
</g>
<g id="Function_-_Central_NetConductor">
</g>
<g id="Function_-_Central_Network_Management">
</g>
<g id="Function_-_Central_Network_Insights">
</g>
<g id="Function_-_Central_Client_Insights">
</g>
<g id="Function_-_ClearPass_Policy_Manager">
</g>
<g id="Function_-_UXI_APIs">
</g>
<g id="Function_-_UXI_Dashboard">
</g>
<g id="Function_-_Orchestrator_Global_Enterprise">
</g>
<g id="Function_-_Orchestrator">
</g>
<g id="Function_-_Pensando_Policy_and_Services_Manager">
</g>
<g id="Function_-_Fabric_Composer">
</g>
<g id="Generic_-_Virtual_Machine">
</g>
<g id="Generic_-_Server_Single">
</g>
<g id="Generic_-_Server_Multi">
</g>
<g id="Generic_-_Router">
</g>
<g id="Generic_-_Firewall">
</g>
<g id="Wi-Fi_Signal">
</g>
<g id="Generic_-_Cloud_Function_Container_Grey">
</g>
<g id="Generic_-_Cloud_Function_Container_White">
</g>
<g id="Generic_-_Cloud_Internet_Circuit">
</g>
<g id="Generic_-_Cloud_Private_Circuit">
</g>
<g id="Generic_-_Cloud">
</g>
<g id="Client_-_IOT_Sensor">
</g>
<g id="Client_-_IOT_IO">
</g>
<g id="Client_-_IOT_PLC">
</g>
<g id="Client_-_IOT_Patient_Monitor">
</g>
<g id="Client_-_IOT_Camera">
</g>
<g id="Client_-_IOT_Scanner">
</g>
<g id="IOT_-_TV_Cast">
</g>
<g id="Client_-_Printer">
</g>
<g id="Client_-_Game_Console">
</g>
<g id="Client_-_IP_Phone">
</g>
<g id="Client_-_Laptop">
</g>
<g id="Client_-_Desktop">
</g>
<g id="Client_-_Workstation">
</g>
<g id="Client_-_Tablet">
</g>
<g id="Client_-_Mobile_2">
</g>
<g id="Client_-_Mobile_1">
</g>
<g id="Device_-_EdgeConnect_Enterprise_Cloud">
</g>
<g id="Device_-_EdgeConnect_Enterprise_Virtual">
</g>
<g id="Device_-_EdgeConnect_Enterprise_Appliance">
</g>
<g id="Device_-_Core_Agg_Leaf_Switch">
</g>
<g id="Device_-_Access_Switch">
</g>
<g id="Device_-_Gateway_Headend">
</g>
<g id="Device_-_Gateway_Branch">
	<g>
		<g>
			<path id="Background_00000098935075927726283590000009877721921756998829_" class="st0" d="M329.6,414.4H27.6
				c-4.2,0-7.7-3.4-7.7-7.7V40.3c0-4.2,3.4-7.7,7.7-7.7h302.1c4.2,0,7.7,3.4,7.7,7.7v366.4C337.3,411,333.9,414.4,329.6,414.4z"/>
			<g>
				<g>
					<g>
						<path class="st8" d="M138.4,113.8c-1.2,0-2.4-0.5-3.2-1.5c-1.6-1.8-1.4-4.5,0.4-6.1c13.6-12.1,31.1-18.4,49-17.9
							c16.4,0.5,32.2,6.8,44.5,17.7c1.8,1.6,2,4.3,0.4,6.1c-1.6,1.8-4.3,2-6.1,0.4c-10.8-9.6-24.7-15.1-39-15.5
							c-15.8-0.6-31.1,5.1-42.9,15.7C140.5,113.4,139.4,113.8,138.4,113.8z"/>
					</g>
					<g>
						<path class="st8" d="M163.1,138.6c-1.3,0-2.6-0.6-3.4-1.6c-1.5-1.9-1.2-4.6,0.7-6.1c6.6-5.2,14.7-7.9,23.1-7.7
							c7.3,0.2,14.2,2.7,20.1,7c1.9,1.4,2.3,4.1,0.9,6.1c-1.4,1.9-4.1,2.3-6.1,0.9c-4.4-3.3-9.7-5.1-15.2-5.3
							c-6.4-0.2-12.4,1.8-17.4,5.8C165,138.4,164,138.6,163.1,138.6z"/>
					</g>
				</g>
			</g>
			<g>
				<g>
					<g>
						<path class="st8" d="M228.7,383.1c1.2,0,2.4,0.5,3.2,1.4c1.6,1.8,1.5,4.5-0.3,6.1c-13.6,12.1-31.1,18.4-49,17.9
							c-16.4-0.5-32.2-6.8-44.5-17.7c-1.8-1.6-1.9-4.3-0.4-6.1c1.6-1.8,4.3-2,6.1-0.4c10.8,9.6,24.7,15.1,39,15.5
							c15.8,0.6,31.1-5.1,43-15.7C226.7,383.5,227.7,383.1,228.7,383.1z"/>
					</g>
					<g>
						<path class="st8" d="M204.1,358.3c1.3,0,2.5,0.6,3.4,1.6c1.5,1.9,1.2,4.6-0.7,6.1c-6.6,5.2-14.7,7.9-23.1,7.7
							c-7.3-0.2-14.2-2.6-20.1-7c-1.9-1.4-2.3-4.1-0.9-6.1c1.4-1.9,4.2-2.3,6.1-0.9c4.4,3.3,9.7,5.1,15.2,5.3
							c6.4,0.2,12.4-1.8,17.4-5.8C202.2,358.6,203.1,358.3,204.1,358.3z"/>
					</g>
				</g>
			</g>
			<g>
				<g>
					<g>
						<path class="st8" d="M47.8,204c0-1.2,0.5-2.4,1.5-3.2c1.8-1.6,4.5-1.4,6.1,0.4c12.1,13.6,18.4,31.1,17.9,49
							c-0.5,16.4-6.8,32.2-17.7,44.5c-1.6,1.8-4.3,2-6.1,0.4c-1.8-1.6-1.9-4.3-0.4-6.1c9.6-10.8,15.1-24.7,15.5-39
							c0.6-15.8-5.1-31.1-15.7-43C48.2,206,47.8,205,47.8,204z"/>
					</g>
					<g>
						<path class="st8" d="M23,228.6c0-1.3,0.6-2.5,1.7-3.4c1.9-1.5,4.6-1.2,6.1,0.7c5.2,6.6,7.9,14.7,7.7,23.1
							c-0.2,7.3-2.7,14.2-7,20.1c-1.4,1.9-4.1,2.3-6.1,0.9c-1.9-1.4-2.3-4.1-0.9-6.1c3.3-4.4,5.1-9.7,5.3-15.2
							c0.2-6.4-1.8-12.4-5.8-17.4C23.3,230.5,23,229.6,23,228.6z"/>
					</g>
				</g>
			</g>
			<g>
				<g>
					<g>
						<path class="st8" d="M310.7,301.6c0,1.2-0.5,2.4-1.5,3.2c-1.8,1.6-4.5,1.4-6.1-0.3c-12.1-13.6-18.4-31.1-17.9-49
							c0.5-16.4,6.8-32.2,17.7-44.5c1.6-1.8,4.3-2,6.1-0.4c1.8,1.6,2,4.3,0.4,6.1c-9.6,10.8-15.1,24.7-15.5,39
							c-0.6,15.8,5.1,31.1,15.7,43C310.3,299.5,310.7,300.6,310.7,301.6z"/>
					</g>
					<g>
						<g>
							<path class="st8" d="M153.3,124.9c8.5-7.3,19.3-11.2,30.4-10.8c10.2,0.3,19.7,4,27.4,10.6c0,0,0.1,0.1,0.2,0.1
								c0.8,0.7,1.8,1,2.7,1c1.2,0,2.4-0.5,3.3-1.5c1.6-1.8,1.4-4.5-0.4-6.1c-0.1-0.1-0.3-0.2-0.4-0.3c0,0,0,0-0.1,0
								c-9.3-7.8-20.5-12.1-32.5-12.4c-13.2-0.4-26.2,4.2-36.4,12.9c-1.8,1.6-2,4.3-0.5,6.1c0.9,1,2.1,1.5,3.3,1.5
								C151.4,126,152.5,125.6,153.3,124.9z"/>
						</g>
						<g>
							<path class="st8" d="M216.7,371c-1,0-2,0.3-2.8,1c-8.5,7.3-19.3,11.2-30.4,10.8c-10.2-0.3-19.6-4-27.5-10.6
								c0,0-0.1,0-0.2-0.1c-0.8-0.7-1.7-1-2.7-1c-1.2,0-2.4,0.5-3.3,1.5c-1.6,1.8-1.4,4.5,0.4,6.1c0.1,0.1,0.3,0.2,0.4,0.3
								c0,0,0,0,0,0c9.3,7.8,20.5,12.1,32.6,12.5c13.2,0.3,26.2-4.2,36.3-12.9c1.8-1.6,2-4.3,0.5-6.1
								C219.1,371.5,217.9,371,216.7,371z"/>
						</g>
						<g>
							<path class="st8" d="M43.3,213.2c-1.6-1.8-4.3-2-6.1-0.5c-1,0.9-1.5,2.1-1.5,3.3c0,1,0.3,2,1.1,2.8
								c7.3,8.5,11.2,19.3,10.8,30.4c-0.3,10.2-4,19.6-10.6,27.4c0,0,0,0,0,0c0,0,0,0,0,0c-0.7,0.8-1.1,1.8-1.1,2.9
								c0,1.2,0.5,2.4,1.5,3.3c1.8,1.6,4.5,1.4,6.1-0.4c0.1-0.1,0.2-0.3,0.3-0.4c0,0,0,0,0,0c7.8-9.3,12.1-20.5,12.4-32.6
								C56.6,236.3,52,223.4,43.3,213.2z"/>
						</g>
						<g>
							<path class="st8" d="M321.7,286.7c-7.3-8.5-11.2-19.3-10.8-30.4c0.3-10.2,4-19.6,10.6-27.4c0,0,0-0.1,0.1-0.1
								c0.7-0.8,1-1.8,1-2.8c0-1.2-0.5-2.4-1.5-3.3c-1.8-1.6-4.5-1.4-6.1,0.4c0,0-0.1,0.1-0.1,0.1c0,0,0,0,0,0
								c-7.9,9.3-12.2,20.7-12.6,32.8c-0.4,13.2,4.2,26.2,12.9,36.3c1.5,1.8,4.3,2,6.1,0.5c1-0.8,1.5-2.1,1.5-3.3
								C322.8,288.5,322.5,287.5,321.7,286.7z"/>
						</g>
					</g>
					<g>
						<path class="st8" d="M335.5,276.9c0,1.3-0.6,2.6-1.6,3.4c-1.9,1.5-4.6,1.2-6.1-0.7c-5.2-6.6-7.9-14.7-7.7-23.1
							c0.2-7.3,2.6-14.2,7-20.1c1.4-1.9,4.2-2.3,6.1-0.9c1.9,1.4,2.3,4.2,0.9,6.1c-3.3,4.4-5.1,9.7-5.3,15.2
							c-0.2,6.4,1.8,12.4,5.8,17.4C335.2,275,335.5,276,335.5,276.9z"/>
					</g>
				</g>
			</g>
			<g>
				<path class="st42" d="M168.2,184.1c0-4-3.4-6.4-7.4-6.4c-4,0-7.4,4.1-7.4,8.1V223L87,156.5c-2.8-2.8-7.4-2.8-10.2,0
					c-1.4,1.4-2.1,3.3-2.1,5.1c0,1.9,0.7,2.3,2.2,3.7l66.5,65.1H107c-4,0-7.3,2.9-7.3,6.9c0,4,3.3,6.9,7.3,6.9h61.1L168.2,184.1z"/>
			</g>
			<g>
				<path class="st42" d="M216.6,155.1c-4,0-6.8,3.3-6.8,7.2c0,4,3.5,7.3,7.5,7.3l37.2,0l-66.4,66.5c-2.8,2.8-2.8,7.4,0,10.3
					c1.4,1.4,3.3,2.1,5.1,2.1c1.9,0,3.1-0.7,4.5-2.1l65.9-66.5v36.4c0,4,2.9,7.3,6.9,7.3c4,0,6.9-3.3,6.9-7.3v-61.1L216.6,155.1z"/>
			</g>
			<g>
				<path class="st42" d="M194.7,328.9c0,4,2.9,7.3,6.9,7.3c4,0,6.9-3.2,6.9-7.3v-37.1l67,66.5c2.8,2.9,7.7,2.8,10.5,0
					c1.4-1.4,2.3-3.3,2.3-5.1c0-1.8-0.7-4-2.1-5.4L219.9,281h36.4c4,0,7.3-2.9,7.3-6.9c0-4-3.3-6.9-7.3-6.9h-61.5V328.9z"/>
			</g>
			<g>
				<path class="st42" d="M141.7,356.6c4,0,7.3-3.3,7.3-7.3c0-4-3.2-7.2-7.2-7.3l-37.1,0l66.5-66.4c2.8-2.9,2.8-7.4,0-10.3
					c-1.4-1.4-3.3-2.1-5.1-2.1c-1.9,0-3.7,0.7-5.1,2.1l-66.5,66.4l0-36.4c0-4-3.4-7.3-7.4-7.3c-4,0-7.4,3.3-7.4,7.3v61.1
					L141.7,356.6z"/>
			</g>
			<g>
				<path class="st8" d="M305.2,423.6H54.9c-24.9,0-45.1-20.3-45.1-45.2l0-313.8c0-25.1,20.8-46.2,45.5-46.3l250.6,0
					c24.5,0,45.1,21.2,45.1,46.2v163.5c0,3.8-3.1,6.9-6.9,6.9c-3.8,0-6.9-3.1-6.9-6.9V64.7c0-17.6-14.3-32.4-31.3-32.4l-250.6,0
					c-17.2,0-31.8,14.9-31.7,32.5l0,313.8c0,17.3,14.1,31.4,31.3,31.4h250.2c3.8,0,6.9,3.1,6.9,6.9
					C312.1,420.5,309,423.6,305.2,423.6z"/>
			</g>
			<g>
				<path class="st43" d="M332.7,451.2h-50.6c-3.8,0-6.9-3.1-6.9-6.9s3.1-6.9,6.9-6.9h50.6c3.8,0,6.9,3.1,6.9,6.9
					S336.5,451.2,332.7,451.2z"/>
			</g>
			<g>
				<path class="st43" d="M249.9,451.2h-50.6c-3.8,0-6.9-3.1-6.9-6.9s3.1-6.9,6.9-6.9h50.6c3.8,0,6.9,3.1,6.9,6.9
					S253.7,451.2,249.9,451.2z"/>
			</g>
			<g>
				<path class="st43" d="M291.3,474.2h-50.6c-3.8,0-6.9-3.1-6.9-6.9s3.1-6.9,6.9-6.9h50.6c3.8,0,6.9,3.1,6.9,6.9
					S295.1,474.2,291.3,474.2z"/>
			</g>
			<g>
				<path class="st43" d="M203.9,474.2h-50.6c-3.8,0-6.9-3.1-6.9-6.9s3.1-6.9,6.9-6.9h50.6c3.8,0,6.9,3.1,6.9,6.9
					S207.7,474.2,203.9,474.2z"/>
			</g>
			<g>
				<path class="st43" d="M116.5,474.2H65.9c-3.8,0-6.9-3.1-6.9-6.9s3.1-6.9,6.9-6.9h50.6c3.8,0,6.9,3.1,6.9,6.9
					S120.3,474.2,116.5,474.2z"/>
			</g>
			<g>
				<path class="st43" d="M162.5,451.2h-46c-3.8,0-6.9-3.1-6.9-6.9s3.1-6.9,6.9-6.9h46c3.8,0,6.9,3.1,6.9,6.9
					S166.3,451.2,162.5,451.2z"/>
			</g>
			<g>
				<path class="st43" d="M79.7,451.2H29.1c-3.8,0-6.9-3.1-6.9-6.9s3.1-6.9,6.9-6.9h50.6c3.8,0,6.9,3.1,6.9,6.9
					S83.5,451.2,79.7,451.2z"/>
			</g>
			<g>
				<path class="st8" d="M341.9,83.2H24.5c-3.8,0-6.9-3.1-6.9-6.9s3.1-6.9,6.9-6.9h317.4c3.8,0,6.9,3.1,6.9,6.9
					S345.7,83.2,341.9,83.2z"/>
			</g>
			<g>
				<path class="st8" d="M102.7,48.7c0,6.4-5.1,11.5-11.5,11.5l0,0c-6.4,0-11.5-5.1-11.5-11.5l0,0c0-6.4,5.1-11.5,11.5-11.5l0,0
					C97.6,37.2,102.7,42.4,102.7,48.7L102.7,48.7z"/>
			</g>
			<g>
				<path class="st8" d="M190.1,48.7c0,6.4-5.1,11.5-11.5,11.5l0,0c-6.4,0-11.5-5.1-11.5-11.5l0,0c0-6.4,5.1-11.5,11.5-11.5l0,0
					C185,37.2,190.1,42.4,190.1,48.7L190.1,48.7z"/>
			</g>
			<g>
				<path class="st8" d="M277.5,48.7c0,6.4-5.1,11.5-11.5,11.5l0,0c-6.4,0-11.5-5.1-11.5-11.5l0,0c0-6.4,5.1-11.5,11.5-11.5l0,0
					C272.4,37.2,277.5,42.4,277.5,48.7L277.5,48.7z"/>
			</g>
		</g>
		<g>
			<circle id="Background_00000106123828339260719200000011161455672359190447_" class="st0" cx="404" cy="356.9" r="80.5"/>
			<g>
				<path class="st8" d="M405.1,446.4c-23.2,0-46.5-8.8-64.2-26.5c-17.1-17.1-26.6-39.9-26.6-64.2c0-24.2,9.4-47,26.6-64.2
					c17.1-17.1,39.9-26.6,64.2-26.6c0,0,0,0,0,0c24.2,0,47,9.4,64.2,26.6l0,0l0,0c17.1,17.1,26.6,39.9,26.6,64.2
					c0,24.2-9.4,47-26.6,64.2C451.6,437.5,428.4,446.4,405.1,446.4z M405.1,278.7c-20.6,0-39.9,8-54.4,22.5
					c-14.5,14.5-22.5,33.9-22.5,54.4c0,20.6,8,39.9,22.5,54.4c30,30,78.8,30,108.8,0c14.5-14.5,22.5-33.9,22.5-54.4
					c0-20.5-8-39.9-22.5-54.4l0,0C445,286.7,425.7,278.7,405.1,278.7z"/>
			</g>
			<g>
				<g>
					<path class="st8" d="M393.4,352.3c-1.8,0-3.5-0.7-4.9-2L359,320.8c-2.7-2.7-2.7-7.1,0-9.8c2.7-2.7,7.1-2.7,9.8,0l29.5,29.5
						c2.7,2.7,2.7,7.1,0,9.8C396.9,351.6,395.1,352.3,393.4,352.3z"/>
				</g>
				<g>
					<path class="st8" d="M362.6,344.8c-3.8,0-6.9-3.1-6.9-6.9v-23.3c0-3.8,3.1-6.9,6.9-6.9h23.3c3.8,0,6.9,3.1,6.9,6.9
						s-3.1,6.9-6.9,6.9h-16.4v16.4C369.5,341.7,366.4,344.8,362.6,344.8z"/>
				</g>
			</g>
			<g>
				<g>
					<path class="st8" d="M446.4,405.3c-1.8,0-3.5-0.7-4.9-2l-29.5-29.5c-2.7-2.7-2.7-7.1,0-9.8c2.7-2.7,7.1-2.7,9.8,0l29.5,29.5
						c2.7,2.7,2.7,7.1,0,9.8C449.9,404.7,448.2,405.3,446.4,405.3z"/>
				</g>
				<g>
					<path class="st8" d="M447.7,406.7h-23.3c-3.8,0-6.9-3.1-6.9-6.9s3.1-6.9,6.9-6.9h16.4v-16.4c0-3.8,3.1-6.9,6.9-6.9
						c3.8,0,6.9,3.1,6.9,6.9v23.3C454.6,403.6,451.5,406.7,447.7,406.7z"/>
				</g>
			</g>
			<g>
				<g>
					<path class="st10" d="M414,349.4c-1.8,0-3.5-0.7-4.9-2c-2.7-2.7-2.7-7.1,0-9.8l29.5-29.5c2.7-2.7,7.1-2.7,9.8,0
						c2.7,2.7,2.7,7.1,0,9.8l-29.5,29.5C417.5,348.7,415.8,349.4,414,349.4z"/>
				</g>
				<g>
					<path class="st10" d="M444.8,341.8c-3.8,0-6.9-3.1-6.9-6.9v-16.4h-16.4c-3.8,0-6.9-3.1-6.9-6.9c0-3.8,3.1-6.9,6.9-6.9h23.3
						c3.8,0,6.9,3.1,6.9,6.9v23.3C451.7,338.8,448.6,341.8,444.8,341.8z"/>
				</g>
			</g>
			<g>
				<g>
					<path class="st10" d="M362.3,401.1c-1.8,0-3.5-0.7-4.9-2c-2.7-2.7-2.7-7.1,0-9.8l29.5-29.5c2.7-2.7,7.1-2.7,9.8,0
						c2.7,2.7,2.7,7.1,0,9.8L367.2,399C365.8,400.4,364,401.1,362.3,401.1z"/>
				</g>
				<g>
					<path class="st10" d="M384.2,402.4H361c-3.8,0-6.9-3.1-6.9-6.9v-23.3c0-3.8,3.1-6.9,6.9-6.9c3.8,0,6.9,3.1,6.9,6.9v16.4h16.4
						c3.8,0,6.9,3.1,6.9,6.9S388,402.4,384.2,402.4z"/>
				</g>
			</g>
		</g>
	</g>
</g>
<g id="Device_-_Gateway_Campus">
</g>
<g id="Device_-_UXI_Sensor_New">
</g>
<g id="Device_-_UXI_Sensor">
</g>
<g id="Device_-_AP500_Series_Microbranch">
</g>
<g id="Device_-_AP600_Series">
</g>
<g id="Device_-_AP500_Series">
</g>
<g id="Device_-_Outdoor_AP">
</g>
</svg>
