<?xml version="1.0" encoding="utf-8"?>
<!-- Generator: Adobe Illustrator 26.3.1, SVG Export Plug-In . SVG Version: 6.00 Build 0)  -->
<svg version="1.1" xmlns="http://www.w3.org/2000/svg" xmlns:xlink="http://www.w3.org/1999/xlink" x="0px" y="0px"
	 viewBox="0 0 500 500" style="enable-background:new 0 0 500 500;" xml:space="preserve">
<style type="text/css">
	.st0{fill:#FFFFFF;}
	.st1{fill:#FF8300;}
	.st2{fill:#F78200;}
	.st3{fill:#F7931E;}
	.st4{fill:#5D5D5D;}
	.st5{fill:#FFFFFF;stroke:#65656A;stroke-width:12;stroke-miterlimit:10;}
	.st6{display:none;fill:#979797;stroke:#979797;stroke-width:3;stroke-linecap:round;stroke-linejoin:round;stroke-miterlimit:10;}
	.st7{fill:#979797;}
	.st8{fill:#65656A;}
	.st9{stroke:#009245;stroke-width:3;stroke-miterlimit:10;}
	.st10{fill:#F58220;}
	.st11{clip-path:url(#SVGID_00000145047171337531159770000015288189193628002695_);fill:#5E5E5E;}
	.st12{clip-path:url(#SVGID_00000060727618914269118730000004947039143048719521_);fill:#FFFFFF;}
	.st13{clip-path:url(#SVGID_00000135680958201336821670000011988748696628243844_);fill:#FFFFFF;}
	.st14{clip-path:url(#SVGID_00000135680958201336821670000011988748696628243844_);fill:#FF8300;}
	.st15{clip-path:url(#SVGID_00000062890595664994634300000004347989086425072299_);fill:#FFFFFF;}
	.st16{clip-path:url(#SVGID_00000062890595664994634300000004347989086425072299_);fill:#ADE1F0;}
	.st17{clip-path:url(#SVGID_00000064333996601097257900000015218995776547144330_);fill:#65656A;}
	.st18{clip-path:url(#SVGID_00000064333996601097257900000015218995776547144330_);fill:#646569;}
	.st19{clip-path:url(#SVGID_00000064333996601097257900000015218995776547144330_);fill:#D0D0D2;}
	.st20{clip-path:url(#SVGID_00000018947778099133717740000010169755336749839761_);fill:#FFFFFF;}
	.st21{clip-path:url(#SVGID_00000018947778099133717740000010169755336749839761_);fill:#646569;}
	.st22{clip-path:url(#SVGID_00000018947778099133717740000010169755336749839761_);fill:#65656A;}
	
		.st23{clip-path:url(#SVGID_00000020401286061640023090000005748622008916921746_);fill:#FFFFFF;stroke:#000000;stroke-miterlimit:10;}
	.st24{clip-path:url(#SVGID_00000020401286061640023090000005748622008916921746_);fill:#646569;}
	.st25{clip-path:url(#SVGID_00000020401286061640023090000005748622008916921746_);fill:#65656A;}
	
		.st26{clip-path:url(#SVGID_00000020401286061640023090000005748622008916921746_);fill:none;stroke:#65656A;stroke-width:0.1925;stroke-linecap:round;stroke-linejoin:round;stroke-miterlimit:10;}
	.st27{clip-path:url(#SVGID_00000098198450096877789230000003648080507476881052_);fill:#FFFFFF;}
	.st28{clip-path:url(#SVGID_00000098198450096877789230000003648080507476881052_);fill:#65656A;}
	.st29{clip-path:url(#SVGID_00000098198450096877789230000003648080507476881052_);fill:#646569;}
	.st30{clip-path:url(#SVGID_00000132775255341041121560000007040555441001378745_);fill:#FFFFFF;}
	.st31{clip-path:url(#SVGID_00000132775255341041121560000007040555441001378745_);fill:#646569;}
	.st32{clip-path:url(#SVGID_00000082357388343009809330000015599393847666524826_);fill:#FFFFFF;}
	.st33{clip-path:url(#SVGID_00000082357388343009809330000015599393847666524826_);fill:#65656A;}
	.st34{clip-path:url(#SVGID_00000082357388343009809330000015599393847666524826_);fill:#646569;}
	.st35{fill:#646569;}
	.st36{clip-path:url(#SVGID_00000061435690929918318980000008311990586886191259_);fill:#FFFFFF;}
	.st37{clip-path:url(#SVGID_00000061435690929918318980000008311990586886191259_);fill:#65666A;}
	
		.st38{clip-path:url(#SVGID_00000061435690929918318980000008311990586886191259_);fill:none;stroke:#65666A;stroke-width:0.1748;stroke-miterlimit:10;}
	.st39{clip-path:url(#SVGID_00000049940463626878766110000005917836551136449668_);fill:#FFFFFF;}
	.st40{clip-path:url(#SVGID_00000049940463626878766110000005917836551136449668_);fill:#646569;}
	.st41{fill:none;stroke:#65656A;stroke-width:3;stroke-miterlimit:10;}
	.st42{fill:#EC8020;}
	.st43{fill:#ED8020;}
	.st44{fill:none;stroke:#65656A;stroke-width:3;stroke-linecap:round;stroke-miterlimit:10;}
	.st45{fill:none;stroke:#646569;stroke-width:10;stroke-linejoin:round;stroke-miterlimit:10;}
	.st46{fill:none;stroke:#646569;stroke-width:10;stroke-miterlimit:10;}
	.st47{fill:none;stroke:#646569;stroke-width:10;stroke-linecap:round;stroke-miterlimit:10;}
	.st48{fill:none;stroke:#65656A;stroke-width:8;stroke-linecap:round;stroke-miterlimit:10;}
	.st49{fill:#FFFFFF;stroke:#65656A;stroke-width:8;stroke-linecap:round;stroke-linejoin:round;stroke-miterlimit:10;}
	.st50{fill:none;stroke:#65656A;stroke-width:8;stroke-miterlimit:10;}
</style>
<g id="Function_-_Central_APIs">
</g>
<g id="Function_-_Central_Route_Orchestrator">
</g>
<g id="Function_-_Central_Tunnel_Orchestrator">
</g>
<g id="Function_-_Central_NetConductor">
</g>
<g id="Function_-_Central_Network_Management">
</g>
<g id="Function_-_Central_Network_Insights">
</g>
<g id="Function_-_Central_Client_Insights">
</g>
<g id="Function_-_ClearPass_Policy_Manager">
</g>
<g id="Function_-_UXI_APIs">
</g>
<g id="Function_-_UXI_Dashboard">
</g>
<g id="Function_-_Orchestrator_Global_Enterprise">
</g>
<g id="Function_-_Orchestrator">
</g>
<g id="Function_-_Pensando_Policy_and_Services_Manager">
</g>
<g id="Function_-_Fabric_Composer">
</g>
<g id="Generic_-_Virtual_Machine">
</g>
<g id="Generic_-_Server_Single">
</g>
<g id="Generic_-_Server_Multi">
</g>
<g id="Generic_-_Router">
</g>
<g id="Generic_-_Firewall">
</g>
<g id="Wi-Fi_Signal">
</g>
<g id="Generic_-_Cloud_Function_Container_Grey">
</g>
<g id="Generic_-_Cloud_Function_Container_White">
</g>
<g id="Generic_-_Cloud_Internet_Circuit">
</g>
<g id="Generic_-_Cloud_Private_Circuit">
</g>
<g id="Generic_-_Cloud">
</g>
<g id="Client_-_IOT_Sensor">
</g>
<g id="Client_-_IOT_IO">
</g>
<g id="Client_-_IOT_PLC">
</g>
<g id="Client_-_IOT_Patient_Monitor">
</g>
<g id="Client_-_IOT_Camera">
</g>
<g id="Client_-_IOT_Scanner">
</g>
<g id="IOT_-_TV_Cast">
</g>
<g id="Client_-_Printer">
</g>
<g id="Client_-_Game_Console">
</g>
<g id="Client_-_IP_Phone">
</g>
<g id="Client_-_Laptop">
</g>
<g id="Client_-_Desktop">
</g>
<g id="Client_-_Workstation">
</g>
<g id="Client_-_Tablet">
</g>
<g id="Client_-_Mobile_2">
</g>
<g id="Client_-_Mobile_1">
</g>
<g id="Device_-_EdgeConnect_Enterprise_Cloud">
</g>
<g id="Device_-_EdgeConnect_Enterprise_Virtual">
</g>
<g id="Device_-_EdgeConnect_Enterprise_Appliance">
</g>
<g id="Device_-_Core_Agg_Leaf_Switch">
</g>
<g id="Device_-_Access_Switch">
	<g>
		<path id="Background_00000104687349491578973320000013668097218248578691_" class="st0" d="M429.3,471.5h-357
			c-21.4,0-38.8-17.4-38.8-38.8V62.9c0-21.4,17.4-38.8,38.8-38.8h357c21.4,0,38.8,17.4,38.8,38.8v369.8
			C468.2,454.1,450.8,471.5,429.3,471.5z"/>
		<g>
			<path class="st42" d="M145.6,256.3c3.8,3.8,10,3.8,13.8,0c3.8-3.8,3.8-10,0-13.8l-35.2-35.2l126.2,0c5.4,0,9.7-4.4,9.7-9.8
				c0-2.7-1.1-5.1-2.8-6.9c-1.8-1.8-4.2-2.8-6.9-2.8l-126.2,0l34.5-34.5c3.8-3.8,3.8-10,0-13.8c-3.8-3.8-10-3.8-13.8,0l-58.1,58.1
				L145.6,256.3z"/>
		</g>
		<g>
			<path class="st42" d="M355,83.2c-3.8-3.8-10-3.8-13.8,0c-3.8,3.8-3.8,10,0,13.8l35.2,35.2l-126.2,0c-5.4,0-9.7,4.4-9.7,9.7
				c0,2.7,1.1,5.1,2.9,6.9c1.8,1.8,4.2,2.8,6.9,2.9l126.2,0l-34.5,34.5c-3.8,3.8-3.8,10,0,13.8c3.8,3.8,10,3.8,13.8,0l58-58
				L355,83.2z"/>
		</g>
		<g>
			<path class="st42" d="M145.6,416c3.8,3.8,10,3.8,13.8,0c3.8-3.8,3.8-10,0-13.8l-35.2-35.2l126.2,0c5.4,0,9.7-4.4,9.7-9.8
				c0-2.7-1.1-5.1-2.8-6.9c-1.8-1.8-4.2-2.8-6.9-2.8l-126.2,0l34.5-34.5c3.8-3.8,3.8-10,0-13.8c-3.8-3.8-10-3.8-13.8,0l-58.1,58.1
				L145.6,416z"/>
		</g>
		<g>
			<path class="st42" d="M355,243c-3.8-3.8-10-3.8-13.8,0c-3.8,3.8-3.8,10,0,13.8l35.2,35.2l-126.2,0c-5.4,0-9.7,4.4-9.7,9.7
				c0,2.7,1.1,5.1,2.9,6.9c1.8,1.8,4.2,2.8,6.9,2.9l126.2,0L341.8,346c-3.8,3.8-3.8,10,0,13.8c3.8,3.8,10,3.8,13.8,0l58-58L355,243z
				"/>
		</g>
		<g>
			<path class="st8" d="M416.9,480.6H80.9c-33.3,0-59.4-25.2-59.4-57.3l0-349c0-32.4,26.6-58.9,59.4-58.9l337.3,0.3
				c32.9,0,60.7,27.3,60.7,59.7v350C478.9,456.4,451.7,480.6,416.9,480.6z M80.9,31.5c-23.9,0-43.3,19.2-43.3,42.8l0,349
				c0,23.5,18.6,41.2,43.3,41.2h336.1c22.6,0,45.9-14.6,45.9-39.1v-350c0-23.6-20.4-43.6-44.6-43.6L80.9,31.5z"/>
		</g>
	</g>
</g>
<g id="Device_-_Gateway_Headend">
</g>
<g id="Device_-_Gateway_Branch">
</g>
<g id="Device_-_Gateway_Campus">
</g>
<g id="Device_-_UXI_Sensor_New">
</g>
<g id="Device_-_UXI_Sensor">
</g>
<g id="Device_-_AP500_Series_Microbranch">
</g>
<g id="Device_-_AP600_Series">
</g>
<g id="Device_-_AP500_Series">
</g>
<g id="Device_-_Outdoor_AP">
</g>
</svg>
