<?xml version="1.0" encoding="utf-8"?>
<!-- Generator: Adobe Illustrator 26.3.1, SVG Export Plug-In . SVG Version: 6.00 Build 0)  -->
<svg version="1.1" xmlns="http://www.w3.org/2000/svg" xmlns:xlink="http://www.w3.org/1999/xlink" x="0px" y="0px"
	 viewBox="0 0 500 500" style="enable-background:new 0 0 500 500;" xml:space="preserve">
<style type="text/css">
	.st0{fill:#FFFFFF;}
	.st1{fill:#FF8300;}
	.st2{fill:#F78200;}
	.st3{fill:#F7931E;}
	.st4{fill:#5D5D5D;}
	.st5{fill:#FFFFFF;stroke:#65656A;stroke-width:12;stroke-miterlimit:10;}
	.st6{display:none;fill:#979797;stroke:#979797;stroke-width:3;stroke-linecap:round;stroke-linejoin:round;stroke-miterlimit:10;}
	.st7{fill:#979797;}
	.st8{fill:#65656A;}
	.st9{stroke:#009245;stroke-width:3;stroke-miterlimit:10;}
	.st10{fill:#F58220;}
	.st11{clip-path:url(#SVGID_00000108989599777149410070000002707680937389448851_);fill:#5E5E5E;}
	.st12{clip-path:url(#SVGID_00000134952718969529547180000000251531076058525573_);fill:#FFFFFF;}
	.st13{clip-path:url(#SVGID_00000041986430208837269890000002200447702687169432_);fill:#FFFFFF;}
	.st14{clip-path:url(#SVGID_00000041986430208837269890000002200447702687169432_);fill:#FF8300;}
	.st15{clip-path:url(#SVGID_00000004546362440330213630000017745403357484805268_);fill:#FFFFFF;}
	.st16{clip-path:url(#SVGID_00000004546362440330213630000017745403357484805268_);fill:#ADE1F0;}
	.st17{clip-path:url(#SVGID_00000103955052368197655610000012199072686082955946_);fill:#65656A;}
	.st18{clip-path:url(#SVGID_00000103955052368197655610000012199072686082955946_);fill:#646569;}
	.st19{clip-path:url(#SVGID_00000103955052368197655610000012199072686082955946_);fill:#D0D0D2;}
	.st20{clip-path:url(#SVGID_00000010279944752953098430000014881765284425566863_);fill:#FFFFFF;}
	.st21{clip-path:url(#SVGID_00000010279944752953098430000014881765284425566863_);fill:#646569;}
	.st22{clip-path:url(#SVGID_00000010279944752953098430000014881765284425566863_);fill:#65656A;}
	
		.st23{clip-path:url(#SVGID_00000151519750608165954860000006615765307708957332_);fill:#FFFFFF;stroke:#000000;stroke-miterlimit:10;}
	.st24{clip-path:url(#SVGID_00000151519750608165954860000006615765307708957332_);fill:#646569;}
	.st25{clip-path:url(#SVGID_00000151519750608165954860000006615765307708957332_);fill:#65656A;}
	
		.st26{clip-path:url(#SVGID_00000151519750608165954860000006615765307708957332_);fill:none;stroke:#65656A;stroke-width:0.1925;stroke-linecap:round;stroke-linejoin:round;stroke-miterlimit:10;}
	.st27{clip-path:url(#SVGID_00000132053228811714782460000015260284898846347183_);fill:#FFFFFF;}
	.st28{clip-path:url(#SVGID_00000132053228811714782460000015260284898846347183_);fill:#65656A;}
	.st29{clip-path:url(#SVGID_00000132053228811714782460000015260284898846347183_);fill:#646569;}
	.st30{clip-path:url(#SVGID_00000065766124747626319300000003315520021050925756_);fill:#FFFFFF;}
	.st31{clip-path:url(#SVGID_00000065766124747626319300000003315520021050925756_);fill:#646569;}
	.st32{clip-path:url(#SVGID_00000016770118953536682950000001616318087667707555_);fill:#FFFFFF;}
	.st33{clip-path:url(#SVGID_00000016770118953536682950000001616318087667707555_);fill:#65656A;}
	.st34{clip-path:url(#SVGID_00000016770118953536682950000001616318087667707555_);fill:#646569;}
	.st35{fill:#646569;}
	.st36{clip-path:url(#SVGID_00000093157699495074985930000002982373821995763389_);fill:#FFFFFF;}
	.st37{clip-path:url(#SVGID_00000093157699495074985930000002982373821995763389_);fill:#65666A;}
	
		.st38{clip-path:url(#SVGID_00000093157699495074985930000002982373821995763389_);fill:none;stroke:#65666A;stroke-width:0.1748;stroke-miterlimit:10;}
	.st39{clip-path:url(#SVGID_00000127020076448943165020000009090385062481490364_);fill:#FFFFFF;}
	.st40{clip-path:url(#SVGID_00000127020076448943165020000009090385062481490364_);fill:#646569;}
	.st41{fill:none;stroke:#65656A;stroke-width:3;stroke-miterlimit:10;}
	.st42{fill:#EC8020;}
	.st43{fill:#ED8020;}
	.st44{fill:none;stroke:#65656A;stroke-width:3;stroke-linecap:round;stroke-miterlimit:10;}
	.st45{fill:none;stroke:#646569;stroke-width:10;stroke-linejoin:round;stroke-miterlimit:10;}
	.st46{fill:none;stroke:#646569;stroke-width:10;stroke-miterlimit:10;}
	.st47{fill:none;stroke:#646569;stroke-width:10;stroke-linecap:round;stroke-miterlimit:10;}
	.st48{fill:none;stroke:#65656A;stroke-width:8;stroke-linecap:round;stroke-miterlimit:10;}
	.st49{fill:#FFFFFF;stroke:#65656A;stroke-width:8;stroke-linecap:round;stroke-linejoin:round;stroke-miterlimit:10;}
	.st50{fill:none;stroke:#65656A;stroke-width:8;stroke-miterlimit:10;}
</style>
<g id="Function_-_Central_APIs">
</g>
<g id="Function_-_Central_Route_Orchestrator">
</g>
<g id="Function_-_Central_Tunnel_Orchestrator">
</g>
<g id="Function_-_Central_NetConductor">
</g>
<g id="Function_-_Central_Network_Management">
</g>
<g id="Function_-_Central_Network_Insights">
</g>
<g id="Function_-_Central_Client_Insights">
</g>
<g id="Function_-_ClearPass_Policy_Manager">
</g>
<g id="Function_-_UXI_APIs">
</g>
<g id="Function_-_UXI_Dashboard">
</g>
<g id="Function_-_Orchestrator_Global_Enterprise">
</g>
<g id="Function_-_Orchestrator">
</g>
<g id="Function_-_Pensando_Policy_and_Services_Manager">
</g>
<g id="Function_-_Fabric_Composer">
</g>
<g id="Generic_-_Virtual_Machine">
</g>
<g id="Generic_-_Server_Single">
</g>
<g id="Generic_-_Server_Multi">
</g>
<g id="Generic_-_Router">
</g>
<g id="Generic_-_Firewall">
</g>
<g id="Wi-Fi_Signal">
</g>
<g id="Generic_-_Cloud_Function_Container_Grey">
</g>
<g id="Generic_-_Cloud_Function_Container_White">
</g>
<g id="Generic_-_Cloud_Internet_Circuit">
</g>
<g id="Generic_-_Cloud_Private_Circuit">
</g>
<g id="Generic_-_Cloud">
</g>
<g id="Client_-_IOT_Sensor">
</g>
<g id="Client_-_IOT_IO">
</g>
<g id="Client_-_IOT_PLC">
</g>
<g id="Client_-_IOT_Patient_Monitor">
</g>
<g id="Client_-_IOT_Camera">
</g>
<g id="Client_-_IOT_Scanner">
</g>
<g id="IOT_-_TV_Cast">
</g>
<g id="Client_-_Printer">
</g>
<g id="Client_-_Game_Console">
</g>
<g id="Client_-_IP_Phone">
</g>
<g id="Client_-_Laptop">
</g>
<g id="Client_-_Desktop">
</g>
<g id="Client_-_Workstation">
</g>
<g id="Client_-_Tablet">
</g>
<g id="Client_-_Mobile_2">
</g>
<g id="Client_-_Mobile_1">
</g>
<g id="Device_-_EdgeConnect_Enterprise_Cloud">
</g>
<g id="Device_-_EdgeConnect_Enterprise_Virtual">
</g>
<g id="Device_-_EdgeConnect_Enterprise_Appliance">
</g>
<g id="Device_-_Core_Agg_Leaf_Switch">
</g>
<g id="Device_-_Access_Switch">
</g>
<g id="Device_-_Gateway_Headend">
</g>
<g id="Device_-_Gateway_Branch">
</g>
<g id="Device_-_Gateway_Campus">
</g>
<g id="Device_-_UXI_Sensor_New">
</g>
<g id="Device_-_UXI_Sensor">
</g>
<g id="Device_-_AP500_Series_Microbranch">
</g>
<g id="Device_-_AP600_Series">
</g>
<g id="Device_-_AP500_Series">
</g>
<g id="Device_-_Outdoor_AP">
	<rect x="253" y="66.2" class="st0" width="67.9" height="43.1"/>
	<polygon class="st0" points="276,104.5 52.3,229.6 29.8,188.3 253.6,63.2 	"/>
	<polygon class="st0" points="275.9,98.1 64,242.8 46,215.6 257.9,70.9 	"/>
	<rect x="308.2" y="66.2" class="st0" width="67.9" height="90.5"/>
	<rect x="202.1" y="178.2" class="st0" width="42.5" height="43.1"/>
	<path class="st0" d="M448.2,217H231.8c-11.8,0-21.3-9.5-21.3-21.3V165c0-11.8,9.5-21.3,21.3-21.3h216.4c11.8,0,21.3,9.5,21.3,21.3
		v30.7C469.5,207.5,460,217,448.2,217z"/>
	<rect x="185.1" y="186.8" class="st0" width="8.5" height="17.2"/>
	<rect x="231.8" y="165.3" class="st0" width="242" height="103.4"/>
	<path class="st0" d="M256,148.1h163.2c18.1,0,32.7,14.6,32.7,32.7v219c0,18.1-14.6,32.7-32.7,32.7H256c-18.1,0-32.7-14.6-32.7-32.7
		v-219C223.3,162.7,237.9,148.1,256,148.1z"/>
	<rect x="28" y="135.1" class="st0" width="38.2" height="142.2"/>
	<g>
		<g>
			<path class="st8" d="M473.8,281.6H302.4c-11.9,0-14.4-6.7-17.5-15.1l-0.6-1.7c-1.3-3.3,0.4-7.1,3.7-8.3c3.3-1.3,7,0.4,8.2,3.7
				l0.7,1.8c1,2.8,2.2,5.9,2.9,6.5c0,0,0.5,0.3,2.8,0.3h171.3c3.5,0,6.4,2.9,6.4,6.5S477.3,281.6,473.8,281.6z"/>
		</g>
		<g>
			<g>
				<path class="st8" d="M68.4,290.3H25.9c-3.5,0-6.4-2.9-6.4-6.5V133c0-3.6,2.9-6.5,6.4-6.5h42.5c3.5,0,6.4,2.9,6.4,6.5v22.8
					l175.7-97.4c0.9-0.5,2-0.8,3.1-0.8h124.8c3.5,0,6.4,2.9,6.4,6.5v77.6c0,3.6-2.9,6.5-6.4,6.5h-67.9c-3.5,0-6.4-2.9-6.4-6.5v-22.8
					c-9.1-0.2-26.3-0.2-38.4,1.4c-22.7,3-49.1,22.4-49.4,22.6L74.7,243.8v40C74.7,287.4,71.9,290.3,68.4,290.3z M32.3,277.3H62
					v-36.9c0-2.1,1-4.1,2.7-5.3l144.1-102.8c1.1-0.8,29.2-21.5,55.1-24.9c18.1-2.4,45.5-1.4,46.6-1.4c3.4,0.1,6.1,3,6.1,6.5v22.6
					h55.2V70.5H255.1L71.4,172.3c-2,1.1-4.4,1-6.3-0.1c-1.9-1.2-3.1-3.3-3.1-5.6v-27.2H32.3V277.3z"/>
			</g>
			<g>
				<g>
					<path class="st8" d="M475.9,279.5c-3.5,0-6.4-2.9-6.4-6.5v-86.2c0-19.9-18-38.8-37.1-38.8H243.9c-20,0-33.4,20-33.4,38.8V217
						h36.9c26.8,0,39.8,18.8,52.1,49.1c1.3,3.3-0.2,7.1-3.5,8.4c-3.3,1.4-7-0.2-8.3-3.5c-12.4-30.7-22.6-41.1-40.3-41.1h-43.3
						c-3.5,0-6.4-2.9-6.4-6.5v-36.6c0-28,21.1-51.7,46.1-51.7h188.4c26.1,0,49.9,24.6,49.9,51.7V273
						C482.3,276.6,479.4,279.5,475.9,279.5z"/>
				</g>
				<g>
					<path class="st8" d="M194.4,217h-10.2c-6.6,0-11.9-5.4-11.9-12.1v-19c0-6.7,5.3-12.1,11.9-12.1h10.2c6.6,0,11.9,5.4,11.9,12.1
						v19C206.3,211.6,201,217,194.4,217z M185.1,204.1h8.5v-17.2h-8.5V204.1z"/>
				</g>
				<g>
					<path class="st8" d="M414.6,441.1H270.1c-27.7,0-51.1-21.7-51.1-47.4v-88.5c0-22.3,0-47.7-8.5-78.7c-0.9-3.4,1-7,4.4-8
						c3.4-1,6.9,1,7.8,4.5c9,32.8,9,59,9,82.2v88.5c0,18.4,17.9,34.5,38.3,34.5h144.5c19.2,0,33.7-14.8,33.7-34.5V277.3
						c0-3.6,2.9-6.5,6.4-6.5s6.4,2.9,6.4,6.5v116.3C461,420.7,441.1,441.1,414.6,441.1z"/>
				</g>
			</g>
		</g>
	</g>
</g>
</svg>
