<?xml version="1.0" encoding="utf-8"?>
<!-- Generator: Adobe Illustrator 26.3.1, SVG Export Plug-In . SVG Version: 6.00 Build 0)  -->
<svg version="1.1" xmlns="http://www.w3.org/2000/svg" xmlns:xlink="http://www.w3.org/1999/xlink" x="0px" y="0px"
	 viewBox="0 0 500 500" style="enable-background:new 0 0 500 500;" xml:space="preserve">
<style type="text/css">
	.st0{fill:#FFFFFF;}
	.st1{fill:#FF8300;}
	.st2{fill:#F78200;}
	.st3{fill:#F7931E;}
	.st4{fill:#5D5D5D;}
	.st5{fill:#FFFFFF;stroke:#65656A;stroke-width:12;stroke-miterlimit:10;}
	.st6{display:none;fill:#979797;stroke:#979797;stroke-width:3;stroke-linecap:round;stroke-linejoin:round;stroke-miterlimit:10;}
	.st7{fill:#979797;}
	.st8{fill:#65656A;}
	.st9{stroke:#009245;stroke-width:3;stroke-miterlimit:10;}
	.st10{fill:#F58220;}
	.st11{clip-path:url(#SVGID_00000119086410086433207570000006192669661951789743_);fill:#5E5E5E;}
	.st12{clip-path:url(#SVGID_00000124883851380149232050000001846742870209495425_);fill:#FFFFFF;}
	.st13{clip-path:url(#SVGID_00000039126847940883407650000016495900918980942495_);fill:#FFFFFF;}
	.st14{clip-path:url(#SVGID_00000039126847940883407650000016495900918980942495_);fill:#FF8300;}
	.st15{clip-path:url(#SVGID_00000036212118915183509110000002303513993755863980_);fill:#FFFFFF;}
	.st16{clip-path:url(#SVGID_00000036212118915183509110000002303513993755863980_);fill:#ADE1F0;}
	.st17{clip-path:url(#SVGID_00000039108621540085055530000012381106964766045593_);fill:#65656A;}
	.st18{clip-path:url(#SVGID_00000039108621540085055530000012381106964766045593_);fill:#646569;}
	.st19{clip-path:url(#SVGID_00000039108621540085055530000012381106964766045593_);fill:#D0D0D2;}
	.st20{clip-path:url(#SVGID_00000127745315987627241280000016025955110028902320_);fill:#FFFFFF;}
	.st21{clip-path:url(#SVGID_00000127745315987627241280000016025955110028902320_);fill:#646569;}
	.st22{clip-path:url(#SVGID_00000127745315987627241280000016025955110028902320_);fill:#65656A;}
	
		.st23{clip-path:url(#SVGID_00000070833982224107402150000004219167059149137074_);fill:#FFFFFF;stroke:#000000;stroke-miterlimit:10;}
	.st24{clip-path:url(#SVGID_00000070833982224107402150000004219167059149137074_);fill:#646569;}
	.st25{clip-path:url(#SVGID_00000070833982224107402150000004219167059149137074_);fill:#65656A;}
	
		.st26{clip-path:url(#SVGID_00000070833982224107402150000004219167059149137074_);fill:none;stroke:#65656A;stroke-width:0.1925;stroke-linecap:round;stroke-linejoin:round;stroke-miterlimit:10;}
	.st27{clip-path:url(#SVGID_00000018933817668957216120000009660573602384788352_);fill:#FFFFFF;}
	.st28{clip-path:url(#SVGID_00000018933817668957216120000009660573602384788352_);fill:#65656A;}
	.st29{clip-path:url(#SVGID_00000018933817668957216120000009660573602384788352_);fill:#646569;}
	.st30{clip-path:url(#SVGID_00000148661707667923394630000013299702212100010661_);fill:#FFFFFF;}
	.st31{clip-path:url(#SVGID_00000148661707667923394630000013299702212100010661_);fill:#646569;}
	.st32{clip-path:url(#SVGID_00000036945829158353413150000000882012794815493517_);fill:#FFFFFF;}
	.st33{clip-path:url(#SVGID_00000036945829158353413150000000882012794815493517_);fill:#65656A;}
	.st34{clip-path:url(#SVGID_00000036945829158353413150000000882012794815493517_);fill:#646569;}
	.st35{fill:#646569;}
	.st36{clip-path:url(#SVGID_00000183209943917247875410000016133141950206917811_);fill:#FFFFFF;}
	.st37{clip-path:url(#SVGID_00000183209943917247875410000016133141950206917811_);fill:#65666A;}
	
		.st38{clip-path:url(#SVGID_00000183209943917247875410000016133141950206917811_);fill:none;stroke:#65666A;stroke-width:0.1748;stroke-miterlimit:10;}
	.st39{clip-path:url(#SVGID_00000183238262079309203110000012383272676703549118_);fill:#FFFFFF;}
	.st40{clip-path:url(#SVGID_00000183238262079309203110000012383272676703549118_);fill:#646569;}
	.st41{fill:none;stroke:#65656A;stroke-width:3;stroke-miterlimit:10;}
	.st42{fill:#EC8020;}
	.st43{fill:#ED8020;}
	.st44{fill:none;stroke:#65656A;stroke-width:3;stroke-linecap:round;stroke-miterlimit:10;}
	.st45{fill:none;stroke:#646569;stroke-width:10;stroke-linejoin:round;stroke-miterlimit:10;}
	.st46{fill:none;stroke:#646569;stroke-width:10;stroke-miterlimit:10;}
	.st47{fill:none;stroke:#646569;stroke-width:10;stroke-linecap:round;stroke-miterlimit:10;}
	.st48{fill:none;stroke:#65656A;stroke-width:8;stroke-linecap:round;stroke-miterlimit:10;}
	.st49{fill:#FFFFFF;stroke:#65656A;stroke-width:8;stroke-linecap:round;stroke-linejoin:round;stroke-miterlimit:10;}
	.st50{fill:none;stroke:#65656A;stroke-width:8;stroke-miterlimit:10;}
</style>
<g id="Function_-_Central_APIs">
</g>
<g id="Function_-_Central_Route_Orchestrator">
</g>
<g id="Function_-_Central_Tunnel_Orchestrator">
</g>
<g id="Function_-_Central_NetConductor">
</g>
<g id="Function_-_Central_Network_Management">
</g>
<g id="Function_-_Central_Network_Insights">
</g>
<g id="Function_-_Central_Client_Insights">
</g>
<g id="Function_-_ClearPass_Policy_Manager">
</g>
<g id="Function_-_UXI_APIs">
</g>
<g id="Function_-_UXI_Dashboard">
</g>
<g id="Function_-_Orchestrator_Global_Enterprise">
</g>
<g id="Function_-_Orchestrator">
</g>
<g id="Function_-_Pensando_Policy_and_Services_Manager">
</g>
<g id="Function_-_Fabric_Composer">
</g>
<g id="Generic_-_Virtual_Machine">
</g>
<g id="Generic_-_Server_Single">
</g>
<g id="Generic_-_Server_Multi">
</g>
<g id="Generic_-_Router">
</g>
<g id="Generic_-_Firewall">
</g>
<g id="Wi-Fi_Signal">
</g>
<g id="Generic_-_Cloud_Function_Container_Grey">
</g>
<g id="Generic_-_Cloud_Function_Container_White">
</g>
<g id="Generic_-_Cloud_Internet_Circuit">
</g>
<g id="Generic_-_Cloud_Private_Circuit">
</g>
<g id="Generic_-_Cloud">
</g>
<g id="Client_-_IOT_Sensor">
</g>
<g id="Client_-_IOT_IO">
</g>
<g id="Client_-_IOT_PLC">
</g>
<g id="Client_-_IOT_Patient_Monitor">
</g>
<g id="Client_-_IOT_Camera">
</g>
<g id="Client_-_IOT_Scanner">
</g>
<g id="IOT_-_TV_Cast">
</g>
<g id="Client_-_Printer">
</g>
<g id="Client_-_Game_Console">
</g>
<g id="Client_-_IP_Phone">
</g>
<g id="Client_-_Laptop">
</g>
<g id="Client_-_Desktop">
</g>
<g id="Client_-_Workstation">
</g>
<g id="Client_-_Tablet">
</g>
<g id="Client_-_Mobile_2">
</g>
<g id="Client_-_Mobile_1">
</g>
<g id="Device_-_EdgeConnect_Enterprise_Cloud">
</g>
<g id="Device_-_EdgeConnect_Enterprise_Virtual">
</g>
<g id="Device_-_EdgeConnect_Enterprise_Appliance">
</g>
<g id="Device_-_Core_Agg_Leaf_Switch">
</g>
<g id="Device_-_Access_Switch">
</g>
<g id="Device_-_Gateway_Headend">
</g>
<g id="Device_-_Gateway_Branch">
</g>
<g id="Device_-_Gateway_Campus">
</g>
<g id="Device_-_UXI_Sensor_New">
</g>
<g id="Device_-_UXI_Sensor">
	<path class="st0" d="M478.3,309.5H21.7c-2.1,0-3.8-1.7-3.8-3.8v-49.9c0-2.1,1.7-3.8,3.8-3.8h456.6c2.1,0,3.8,1.7,3.8,3.8v49.9
		C482.1,307.8,480.4,309.5,478.3,309.5z"/>
	<g>
		<g>
			<path class="st8" d="M466.6,249.8H33.4c-7.3,0-13.3-6-13.3-13.3v-4.4c0-7.3,6-13.3,13.3-13.3l214.4-28.7l218.8,28.7
				c7.3,0,13.3,6,13.3,13.3v4.4C479.9,243.8,473.9,249.8,466.6,249.8z"/>
		</g>
		<g>
			<path class="st1" d="M254.4,256.4c-3.7,0-6.6-3-6.6-6.6V210c0-3.7,3-6.6,6.6-6.6s6.6,3,6.6,6.6v39.8
				C261.1,253.5,258.1,256.4,254.4,256.4z"/>
		</g>
		<g>
			<g>
				<path class="st0" d="M280.9,256.4c-3.7,0-6.6-3-6.6-6.6V210c0-3.7,3-6.6,6.6-6.6c3.7,0,6.6,3,6.6,6.6v39.8
					C287.6,253.5,284.6,256.4,280.9,256.4z"/>
			</g>
			<g>
				<path class="st0" d="M307.5,256.4c-3.7,0-6.6-3-6.6-6.6V210c0-3.7,3-6.6,6.6-6.6s6.6,3,6.6,6.6v39.8
					C314.1,253.5,311.1,256.4,307.5,256.4z"/>
			</g>
			<g>
				<path class="st0" d="M334,256.4c-3.7,0-6.6-3-6.6-6.6V210c0-3.7,3-6.6,6.6-6.6c3.7,0,6.6,3,6.6,6.6v39.8
					C340.6,253.5,337.6,256.4,334,256.4z"/>
			</g>
			<g>
				<path class="st0" d="M360.5,256.4c-3.7,0-6.6-3-6.6-6.6V210c0-3.7,3-6.6,6.6-6.6s6.6,3,6.6,6.6v39.8
					C367.1,253.5,364.2,256.4,360.5,256.4z"/>
			</g>
			<g>
				<path class="st0" d="M387,256.4c-3.7,0-6.6-3-6.6-6.6V210c0-3.7,3-6.6,6.6-6.6c3.7,0,6.6,3,6.6,6.6v39.8
					C393.7,253.5,390.7,256.4,387,256.4z"/>
			</g>
			<g>
				<path class="st0" d="M413.6,256.4c-3.7,0-6.6-3-6.6-6.6V210c0-3.7,3-6.6,6.6-6.6s6.6,3,6.6,6.6v39.8
					C420.2,253.5,417.2,256.4,413.6,256.4z"/>
			</g>
			<g>
				<path class="st0" d="M440.1,256.4c-3.7,0-6.6-3-6.6-6.6V210c0-3.7,3-6.6,6.6-6.6c3.7,0,6.6,3,6.6,6.6v39.8
					C446.7,253.5,443.7,256.4,440.1,256.4z"/>
			</g>
			<g>
				<g>
					<path class="st0" d="M227.9,256.4c-3.7,0-6.6-3-6.6-6.6V210c0-3.7,3-6.6,6.6-6.6c3.7,0,6.6,3,6.6,6.6v39.8
						C234.5,253.5,231.6,256.4,227.9,256.4z"/>
				</g>
				<g>
					<path class="st0" d="M201.4,256.4c-3.7,0-6.6-3-6.6-6.6V210c0-3.7,3-6.6,6.6-6.6c3.7,0,6.6,3,6.6,6.6v39.8
						C208,253.5,205,256.4,201.4,256.4z"/>
				</g>
				<g>
					<path class="st0" d="M174.9,256.4c-3.7,0-6.6-3-6.6-6.6V210c0-3.7,3-6.6,6.6-6.6c3.7,0,6.6,3,6.6,6.6v39.8
						C181.5,253.5,178.5,256.4,174.9,256.4z"/>
				</g>
				<g>
					<path class="st0" d="M148.3,256.4c-3.7,0-6.6-3-6.6-6.6V210c0-3.7,3-6.6,6.6-6.6c3.7,0,6.6,3,6.6,6.6v39.8
						C155,253.5,152,256.4,148.3,256.4z"/>
				</g>
				<g>
					<path class="st0" d="M121.8,256.4c-3.7,0-6.6-3-6.6-6.6V210c0-3.7,3-6.6,6.6-6.6s6.6,3,6.6,6.6v39.8
						C128.4,253.5,125.5,256.4,121.8,256.4z"/>
				</g>
				<g>
					<path class="st0" d="M95.3,256.4c-3.7,0-6.6-3-6.6-6.6V210c0-3.7,3-6.6,6.6-6.6s6.6,3,6.6,6.6v39.8
						C101.9,253.5,98.9,256.4,95.3,256.4z"/>
				</g>
				<g>
					<path class="st0" d="M68.8,256.4c-3.7,0-6.6-3-6.6-6.6V210c0-3.7,3-6.6,6.6-6.6s6.6,3,6.6,6.6v39.8
						C75.4,253.5,72.4,256.4,68.8,256.4z"/>
				</g>
			</g>
		</g>
		<g>
			<path class="st8" d="M471.9,313.9H28.1c-11,0-19.9-8.9-19.9-19.9v-30.9c0-11,8.9-19.9,19.9-19.9h443.8c11,0,19.9,8.9,19.9,19.9
				V294C491.8,305,482.9,313.9,471.9,313.9z M28.1,256.4c-3.7,0-6.6,3-6.6,6.6V294c0,3.7,3,6.6,6.6,6.6h443.8c3.7,0,6.6-3,6.6-6.6
				v-30.9c0-3.7-3-6.6-6.6-6.6H28.1z"/>
		</g>
		<g>
			<g>
				<g>
					<path class="st0" d="M254.3,211.9c41.1,0,85.1,7.8,131.8,13c38.9,4.3,92.9,5.9,92.9,5.9s4.3-1.5,4.3-10.2
						c0-4.3-2.2-6.5-4.3-7.7c-2.8-1.5-146.9-50.7-223.8-50H250h-5.3c-76.9-0.7-221,48.5-223.8,50c-2.2,1.2-4.3,3.3-4.3,7.7
						c0,8.6,4.3,10.2,4.3,10.2s54-1.5,92.9-5.9c46.7-5.2,90.7-13,131.8-13h4.3H254.3z"/>
				</g>
			</g>
			<g>
				<g>
					<path class="st8" d="M479,237.4c-0.1,0-0.1,0-0.2,0c-0.5,0-54.7-1.6-93.4-5.9c-13.3-1.5-26.5-3.2-39.2-4.8
						c-32.3-4.2-62.9-8.1-91.8-8.1h-8.6c-29,0-59.5,3.9-91.8,8.1c-12.7,1.6-25.9,3.3-39.2,4.8c-38.7,4.3-92.9,5.9-93.4,5.9
						c-0.8,0-1.6-0.1-2.4-0.4c-0.9-0.3-8.7-3.5-8.7-16.4c0-6,2.8-10.8,7.8-13.5c4.3-2.3,149.5-51.5,227-50.8h10.4
						c77.6-0.7,222.7,48.5,226.9,50.8c5,2.7,7.8,7.5,7.8,13.5c0,12.9-7.8,16.1-8.7,16.4C480.5,237.3,479.8,237.4,479,237.4z
						 M475.8,225L475.8,225L475.8,225z M24.2,225L24.2,225L24.2,225z M245.7,205.3h8.6c29.8,0,60.8,4,93.5,8.2
						c12.7,1.6,25.8,3.3,39,4.8c33,3.7,77.7,5.3,89.4,5.7c0.2-0.7,0.4-1.8,0.4-3.5c0-1.4-0.3-1.5-0.9-1.8
						c-7.7-3.2-147-49.7-220.6-49.2h-10.6c-73.9-0.6-212.9,45.9-221,49.4c-0.1,0.1-0.5,0.3-0.5,1.6c0,1.6,0.2,2.7,0.4,3.5
						c11.8-0.4,56.4-2.1,89.4-5.7c13.2-1.5,26.3-3.2,39-4.8C184.9,209.3,215.9,205.3,245.7,205.3z"/>
				</g>
			</g>
		</g>
	</g>
</g>
<g id="Device_-_AP500_Series_Microbranch">
</g>
<g id="Device_-_AP600_Series">
</g>
<g id="Device_-_AP500_Series">
</g>
<g id="Device_-_Outdoor_AP">
</g>
</svg>
