<?xml version="1.0" encoding="utf-8"?>
<!-- Generator: Adobe Illustrator 26.3.1, SVG Export Plug-In . SVG Version: 6.00 Build 0)  -->
<svg version="1.1" xmlns="http://www.w3.org/2000/svg" xmlns:xlink="http://www.w3.org/1999/xlink" x="0px" y="0px"
	 viewBox="0 0 500 500" style="enable-background:new 0 0 500 500;" xml:space="preserve">
<style type="text/css">
	.st0{fill:#FFFFFF;}
	.st1{fill:#FF8300;}
	.st2{fill:#F78200;}
	.st3{fill:#F7931E;}
	.st4{fill:#5D5D5D;}
	.st5{fill:#FFFFFF;stroke:#65656A;stroke-width:12;stroke-miterlimit:10;}
	.st6{display:none;fill:#979797;stroke:#979797;stroke-width:3;stroke-linecap:round;stroke-linejoin:round;stroke-miterlimit:10;}
	.st7{fill:#979797;}
	.st8{fill:#65656A;}
	.st9{stroke:#009245;stroke-width:3;stroke-miterlimit:10;}
	.st10{fill:#F58220;}
	.st11{clip-path:url(#SVGID_00000056423014410085122220000014179975278740923836_);fill:#5E5E5E;}
	.st12{clip-path:url(#SVGID_00000165221317811448885890000014768007672307530920_);fill:#FFFFFF;}
	.st13{clip-path:url(#SVGID_00000170969926260520058390000001680847709350055565_);fill:#FFFFFF;}
	.st14{clip-path:url(#SVGID_00000170969926260520058390000001680847709350055565_);fill:#FF8300;}
	.st15{clip-path:url(#SVGID_00000004508489698123067220000014617237737605110191_);fill:#FFFFFF;}
	.st16{clip-path:url(#SVGID_00000004508489698123067220000014617237737605110191_);fill:#ADE1F0;}
	.st17{clip-path:url(#SVGID_00000047046166650651813760000004535704213423875772_);fill:#65656A;}
	.st18{clip-path:url(#SVGID_00000047046166650651813760000004535704213423875772_);fill:#646569;}
	.st19{clip-path:url(#SVGID_00000047046166650651813760000004535704213423875772_);fill:#D0D0D2;}
	.st20{clip-path:url(#SVGID_00000176016804096844361880000012344876640251394711_);fill:#FFFFFF;}
	.st21{clip-path:url(#SVGID_00000176016804096844361880000012344876640251394711_);fill:#646569;}
	.st22{clip-path:url(#SVGID_00000176016804096844361880000012344876640251394711_);fill:#65656A;}
	
		.st23{clip-path:url(#SVGID_00000070832683769839433520000006754065834865287595_);fill:#FFFFFF;stroke:#000000;stroke-miterlimit:10;}
	.st24{clip-path:url(#SVGID_00000070832683769839433520000006754065834865287595_);fill:#646569;}
	.st25{clip-path:url(#SVGID_00000070832683769839433520000006754065834865287595_);fill:#65656A;}
	
		.st26{clip-path:url(#SVGID_00000070832683769839433520000006754065834865287595_);fill:none;stroke:#65656A;stroke-width:0.1925;stroke-linecap:round;stroke-linejoin:round;stroke-miterlimit:10;}
	.st27{clip-path:url(#SVGID_00000103950475605887484740000002435106977378026130_);fill:#FFFFFF;}
	.st28{clip-path:url(#SVGID_00000103950475605887484740000002435106977378026130_);fill:#65656A;}
	.st29{clip-path:url(#SVGID_00000103950475605887484740000002435106977378026130_);fill:#646569;}
	.st30{clip-path:url(#SVGID_00000134957200712604297140000015517270788618267535_);fill:#FFFFFF;}
	.st31{clip-path:url(#SVGID_00000134957200712604297140000015517270788618267535_);fill:#646569;}
	.st32{clip-path:url(#SVGID_00000161596585970453198490000015313444728204465311_);fill:#FFFFFF;}
	.st33{clip-path:url(#SVGID_00000161596585970453198490000015313444728204465311_);fill:#65656A;}
	.st34{clip-path:url(#SVGID_00000161596585970453198490000015313444728204465311_);fill:#646569;}
	.st35{fill:#646569;}
	.st36{clip-path:url(#SVGID_00000175307572982165784970000016582683425900036230_);fill:#FFFFFF;}
	.st37{clip-path:url(#SVGID_00000175307572982165784970000016582683425900036230_);fill:#65666A;}
	
		.st38{clip-path:url(#SVGID_00000175307572982165784970000016582683425900036230_);fill:none;stroke:#65666A;stroke-width:0.1748;stroke-miterlimit:10;}
	.st39{clip-path:url(#SVGID_00000088833211007886067630000014329430366667806593_);fill:#FFFFFF;}
	.st40{clip-path:url(#SVGID_00000088833211007886067630000014329430366667806593_);fill:#646569;}
	.st41{fill:none;stroke:#65656A;stroke-width:3;stroke-miterlimit:10;}
	.st42{fill:#EC8020;}
	.st43{fill:#ED8020;}
	.st44{fill:none;stroke:#65656A;stroke-width:3;stroke-linecap:round;stroke-miterlimit:10;}
	.st45{fill:none;stroke:#646569;stroke-width:10;stroke-linejoin:round;stroke-miterlimit:10;}
	.st46{fill:none;stroke:#646569;stroke-width:10;stroke-miterlimit:10;}
	.st47{fill:none;stroke:#646569;stroke-width:10;stroke-linecap:round;stroke-miterlimit:10;}
	.st48{fill:none;stroke:#65656A;stroke-width:8;stroke-linecap:round;stroke-miterlimit:10;}
	.st49{fill:#FFFFFF;stroke:#65656A;stroke-width:8;stroke-linecap:round;stroke-linejoin:round;stroke-miterlimit:10;}
	.st50{fill:none;stroke:#65656A;stroke-width:8;stroke-miterlimit:10;}
</style>
<g id="Function_-_Central_APIs">
</g>
<g id="Function_-_Central_Route_Orchestrator">
</g>
<g id="Function_-_Central_Tunnel_Orchestrator">
</g>
<g id="Function_-_Central_NetConductor">
</g>
<g id="Function_-_Central_Network_Management">
</g>
<g id="Function_-_Central_Network_Insights">
</g>
<g id="Function_-_Central_Client_Insights">
</g>
<g id="Function_-_ClearPass_Policy_Manager">
</g>
<g id="Function_-_UXI_APIs">
</g>
<g id="Function_-_UXI_Dashboard">
</g>
<g id="Function_-_Orchestrator_Global_Enterprise">
</g>
<g id="Function_-_Orchestrator">
</g>
<g id="Function_-_Pensando_Policy_and_Services_Manager">
</g>
<g id="Function_-_Fabric_Composer">
</g>
<g id="Generic_-_Virtual_Machine">
</g>
<g id="Generic_-_Server_Single">
</g>
<g id="Generic_-_Server_Multi">
</g>
<g id="Generic_-_Router">
</g>
<g id="Generic_-_Firewall">
</g>
<g id="Wi-Fi_Signal">
</g>
<g id="Generic_-_Cloud_Function_Container_Grey">
</g>
<g id="Generic_-_Cloud_Function_Container_White">
</g>
<g id="Generic_-_Cloud_Internet_Circuit">
</g>
<g id="Generic_-_Cloud_Private_Circuit">
</g>
<g id="Generic_-_Cloud">
</g>
<g id="Client_-_IOT_Sensor">
</g>
<g id="Client_-_IOT_IO">
</g>
<g id="Client_-_IOT_PLC">
</g>
<g id="Client_-_IOT_Patient_Monitor">
</g>
<g id="Client_-_IOT_Camera">
</g>
<g id="Client_-_IOT_Scanner">
</g>
<g id="IOT_-_TV_Cast">
</g>
<g id="Client_-_Printer">
</g>
<g id="Client_-_Game_Console">
</g>
<g id="Client_-_IP_Phone">
</g>
<g id="Client_-_Laptop">
</g>
<g id="Client_-_Desktop">
</g>
<g id="Client_-_Workstation">
</g>
<g id="Client_-_Tablet">
</g>
<g id="Client_-_Mobile_2">
</g>
<g id="Client_-_Mobile_1">
</g>
<g id="Device_-_EdgeConnect_Enterprise_Cloud">
</g>
<g id="Device_-_EdgeConnect_Enterprise_Virtual">
</g>
<g id="Device_-_EdgeConnect_Enterprise_Appliance">
</g>
<g id="Device_-_Core_Agg_Leaf_Switch">
</g>
<g id="Device_-_Access_Switch">
</g>
<g id="Device_-_Gateway_Headend">
</g>
<g id="Device_-_Gateway_Branch">
</g>
<g id="Device_-_Gateway_Campus">
</g>
<g id="Device_-_UXI_Sensor_New">
</g>
<g id="Device_-_UXI_Sensor">
</g>
<g id="Device_-_AP500_Series_Microbranch">
</g>
<g id="Device_-_AP600_Series">
	<path class="st0" d="M294.7,487.1h-87.2c-104.8,0-189.8-85-189.8-189.8v-94.6c0-104.8,85-189.8,189.8-189.8h87.2
		c104.8,0,189.8,85,189.8,189.8v94.6C484.5,402.1,399.5,487.1,294.7,487.1z"/>
	<path class="st35" d="M253.1,492.6c-3.5,0-3.5,0-3.5,0c-35.9,0-67.9-3.2-95.1-9.6c-25.8-6-48.1-15.1-66.4-26.9
		c-33-21.4-53.9-51.7-64-92.8c0-0.1,0-0.1,0-0.1C24,362.6,12.9,308.7,11.8,253c0-0.9,0-2,0-2.9c0-0.6,0-1.2,0-1.7c0-1.1,0-2,0-2.9
		c0-7.3,0-15.1,0.5-21.7c1.2-23,5.5-48.8,5.5-49.1c9.8,1.5,9.8,1.5,9.8,1.5c0,0.3-4.1,25.6-5.5,48.2c-0.3,6.4-0.3,13.9-0.5,21.1
		c0,1.1,0,2.1,0,3.1c0.2,1.7,0.2,1.7,0.2,1.7c0,1.7,0,1.7,0,1.7c0.9,54.2,11.6,106.8,12.1,109.1c9.5,38.5,28.8,66.9,59.7,86.8
		c17.4,11.1,38.6,19.7,63.3,25.5c26.4,6.3,57.7,9.3,92.8,9.3c3.5,0,3.5,0,3.5,0V492.6z"/>
	<path class="st35" d="M25.5,189.6c-9.8-1.2-9.8-1.2-9.8-1.2c3.4-26.6,8.1-43.8,8.7-45.8c5.3-25,16.3-48.2,32.1-67.2
		c17.1-20.9,39.4-36.6,65.9-46.5c2.7-1.1,52.7-20.5,127.1-20.5c3.5,0,3.5,0,3.5,0c0,9.9,0,9.9,0,9.9c-3.5,0-3.5,0-3.5,0
		c-73.1,0-123.2,19.5-123.6,19.7c0,0.1,0,0.1,0,0.1c-25,9.3-45.8,24-61.8,43.5C49.5,99.4,39,121.4,34.1,144.9
		c-0.2,0.3-0.2,0.3-0.2,0.3C33.9,145.4,29,162.8,25.5,189.6z"/>
	<path class="st35" d="M252.3,492.6c-4.1,0-4.1,0-4.1,0c0-9.9,0-9.9,0-9.9c4.1,0,4.1,0,4.1,0c35,0,66.2-3.1,92.6-9.3
		c24.7-5.8,45.9-14.3,63.3-25.5c30.8-20,50.2-48.4,59.7-87c0.5-2,11.3-54.3,12.1-108.8c0-1.7,0-1.7,0-1.7c0-0.9,0-0.9,0-0.9
		c-0.9-54.9-12.2-104.1-12.4-104.6c-4.9-23.5-15.4-45.5-30.1-63.2c-16-19.5-36.8-34.2-61.7-43.5c-0.1-0.1-0.1-0.1-0.1-0.1
		c-0.5-0.2-50.7-19.7-123.5-19.7c-4.1,0-4.1,0-4.1,0c0-9.9,0-9.9,0-9.9c4.1,0,4.1,0,4.1,0c74.3,0,124.4,19.4,127.1,20.5
		c26.6,9.9,48.7,25.6,65.8,46.5c15.7,18.9,26.9,42.3,32.2,67.3c0.5,2,11.6,51.1,12.5,106.4c0,0.6,0,1.2,0,1.8s0,1.2,0,1.8
		c-0.9,56-12.2,109.7-12.4,110.2c0,0.2,0,0.2,0,0.2c-10.1,41.2-31,71.6-63.9,92.9c-18.3,11.8-40.6,20.9-66.4,26.9
		C320.1,489.4,288,492.6,252.3,492.6z"/>
	<path class="st35" d="M40.6,391.3c-2.6,0-4.7-2-4.9-4.7c-5-119.7,15.3-160.4,30.1-190c1.2-2.4,4.3-3.5,6.7-2.3
		c2.4,1.2,3.4,4.3,2.1,6.7c-14.3,28.7-33.9,68.1-29,185.3c0,2.7-2,5-4.7,5C40.8,391.3,40.8,391.3,40.6,391.3z"/>
	<path class="st35" d="M370.5,470.6c-49.3,0-95.1-9.5-133.1-27.9c-37.1-17.9-66.2-44.1-82.4-73.7c-1.4-2.4-0.5-5.3,2-6.7
		c2.3-1.2,5.3-0.5,6.7,2c15.1,27.8,42.9,52.5,78,69.6c40.8,19.7,90.8,28.8,144.7,26.7c2.6-0.2,5,2,5,4.6c0.1,2.8-2,5-4.7,5.2
		C381.3,470.6,375.8,470.6,370.5,470.6z"/>
	<path class="st35" d="M347,139.7c-1.7,0-3.4-0.9-4.3-2.6c-15.3-27.9-53.4-56.2-97.4-72c-25.3-9-51.4-13.9-77.7-14.5
		c-29.5-0.8-58.3,4.1-85.6,14.3c-2.6,1.1-5.5-0.3-6.4-2.9c-0.9-2.4,0.3-5.3,2.9-6.3c28.6-10.7,58.6-15.9,89.4-15.1
		c27.2,0.6,54.5,5.8,80.7,15.3c23.4,8.4,45.5,20.1,63.8,34c17.5,13.4,31,28.1,38.8,42.4c1.4,2.4,0.5,5.3-1.8,6.7
		C348.6,139.6,347.7,139.7,347,139.7z"/>
	<path class="st35" d="M406.2,307.3c-0.9,0-1.8-0.3-2.6-0.8c-2.3-1.5-2.9-4.6-1.4-6.9c27.6-41.5,41.1-81.7,41.1-122.5
		c0-35.7-10.1-73.7-31.6-119.7c-1.2-2.4-0.1-5.3,2.3-6.6c2.6-1.1,5.5,0,6.6,2.4c22.3,47.2,32.7,86.5,32.7,123.8
		c0,42.9-14.1,84.9-42.9,128C409.4,306.5,407.9,307.3,406.2,307.3z"/>
	<path class="st1" d="M193.6,400.1c5.3,0,9.8,4.3,9.8,9.6c0,5.3-4.4,9.8-9.8,9.8c-5.3,0-9.6-4.4-9.6-9.8
		C184,404.4,188.2,400.1,193.6,400.1z"/>
	<path class="st1" d="M214.5,414.5c5.3,0,9.6,4.4,9.6,9.8c0,5.3-4.3,9.6-9.6,9.6c-5.3,0-9.8-4.3-9.8-9.6
		C204.7,418.9,209.1,414.5,214.5,414.5z"/>
	<path class="st1" d="M238.4,427.4c5.3,0,9.8,4.3,9.8,9.6c0,5.4-4.4,9.6-9.8,9.6c-5.3,0-9.6-4.3-9.6-9.6
		C228.8,431.7,233.1,427.4,238.4,427.4z"/>
	<path class="st1" d="M263.2,437.3c5.3,0,9.8,4.3,9.8,9.6c0,5.3-4.4,9.6-9.8,9.6c-5.3,0-9.6-4.3-9.6-9.6
		C253.6,441.6,257.8,437.3,263.2,437.3z"/>
</g>
<g id="Device_-_AP500_Series">
</g>
<g id="Device_-_Outdoor_AP">
</g>
</svg>
