<?xml version="1.0" encoding="utf-8"?>
<!-- Generator: Adobe Illustrator 26.3.1, SVG Export Plug-In . SVG Version: 6.00 Build 0)  -->
<svg version="1.1" xmlns="http://www.w3.org/2000/svg" xmlns:xlink="http://www.w3.org/1999/xlink" x="0px" y="0px"
	 viewBox="0 0 500 500" style="enable-background:new 0 0 500 500;" xml:space="preserve">
<style type="text/css">
	.st0{fill:#FFFFFF;}
	.st1{fill:#FF8300;}
	.st2{fill:#F78200;}
	.st3{fill:#F7931E;}
	.st4{fill:#5D5D5D;}
	.st5{fill:#FFFFFF;stroke:#65656A;stroke-width:12;stroke-miterlimit:10;}
	.st6{display:none;fill:#979797;stroke:#979797;stroke-width:3;stroke-linecap:round;stroke-linejoin:round;stroke-miterlimit:10;}
	.st7{fill:#979797;}
	.st8{fill:#65656A;}
	.st9{stroke:#009245;stroke-width:3;stroke-miterlimit:10;}
	.st10{fill:#F58220;}
	.st11{clip-path:url(#SVGID_00000029733910064989036290000007343935567892657792_);fill:#5E5E5E;}
	.st12{clip-path:url(#SVGID_00000163073963042999895700000006757715612067632019_);fill:#FFFFFF;}
	.st13{clip-path:url(#SVGID_00000145015954266529980890000013921321422357206167_);fill:#FFFFFF;}
	.st14{clip-path:url(#SVGID_00000145015954266529980890000013921321422357206167_);fill:#FF8300;}
	.st15{clip-path:url(#SVGID_00000072273875284979124930000018121365071924876426_);fill:#FFFFFF;}
	.st16{clip-path:url(#SVGID_00000072273875284979124930000018121365071924876426_);fill:#ADE1F0;}
	.st17{clip-path:url(#SVGID_00000067958609625478772420000006228784193223229349_);fill:#65656A;}
	.st18{clip-path:url(#SVGID_00000067958609625478772420000006228784193223229349_);fill:#646569;}
	.st19{clip-path:url(#SVGID_00000067958609625478772420000006228784193223229349_);fill:#D0D0D2;}
	.st20{clip-path:url(#SVGID_00000157297519934415435170000005515205572189535652_);fill:#FFFFFF;}
	.st21{clip-path:url(#SVGID_00000157297519934415435170000005515205572189535652_);fill:#646569;}
	.st22{clip-path:url(#SVGID_00000157297519934415435170000005515205572189535652_);fill:#65656A;}
	
		.st23{clip-path:url(#SVGID_00000118380499975949641660000016996338153599170997_);fill:#FFFFFF;stroke:#000000;stroke-miterlimit:10;}
	.st24{clip-path:url(#SVGID_00000118380499975949641660000016996338153599170997_);fill:#646569;}
	.st25{clip-path:url(#SVGID_00000118380499975949641660000016996338153599170997_);fill:#65656A;}
	
		.st26{clip-path:url(#SVGID_00000118380499975949641660000016996338153599170997_);fill:none;stroke:#65656A;stroke-width:0.1925;stroke-linecap:round;stroke-linejoin:round;stroke-miterlimit:10;}
	.st27{clip-path:url(#SVGID_00000109733266375868692940000007667591555794460560_);fill:#FFFFFF;}
	.st28{clip-path:url(#SVGID_00000109733266375868692940000007667591555794460560_);fill:#65656A;}
	.st29{clip-path:url(#SVGID_00000109733266375868692940000007667591555794460560_);fill:#646569;}
	.st30{clip-path:url(#SVGID_00000163039924180590247940000001980632572394347692_);fill:#FFFFFF;}
	.st31{clip-path:url(#SVGID_00000163039924180590247940000001980632572394347692_);fill:#646569;}
	.st32{clip-path:url(#SVGID_00000133495712990365377930000012264237079575429790_);fill:#FFFFFF;}
	.st33{clip-path:url(#SVGID_00000133495712990365377930000012264237079575429790_);fill:#65656A;}
	.st34{clip-path:url(#SVGID_00000133495712990365377930000012264237079575429790_);fill:#646569;}
	.st35{fill:#646569;}
	.st36{clip-path:url(#SVGID_00000145028429979461958390000007443845266688938927_);fill:#FFFFFF;}
	.st37{clip-path:url(#SVGID_00000145028429979461958390000007443845266688938927_);fill:#65666A;}
	
		.st38{clip-path:url(#SVGID_00000145028429979461958390000007443845266688938927_);fill:none;stroke:#65666A;stroke-width:0.1748;stroke-miterlimit:10;}
	.st39{clip-path:url(#SVGID_00000003102593226450445630000002696594008103411587_);fill:#FFFFFF;}
	.st40{clip-path:url(#SVGID_00000003102593226450445630000002696594008103411587_);fill:#646569;}
	.st41{fill:none;stroke:#65656A;stroke-width:3;stroke-miterlimit:10;}
	.st42{fill:#EC8020;}
	.st43{fill:#ED8020;}
	.st44{fill:none;stroke:#65656A;stroke-width:3;stroke-linecap:round;stroke-miterlimit:10;}
	.st45{fill:none;stroke:#646569;stroke-width:10;stroke-linejoin:round;stroke-miterlimit:10;}
	.st46{fill:none;stroke:#646569;stroke-width:10;stroke-miterlimit:10;}
	.st47{fill:none;stroke:#646569;stroke-width:10;stroke-linecap:round;stroke-miterlimit:10;}
	.st48{fill:none;stroke:#65656A;stroke-width:8;stroke-linecap:round;stroke-miterlimit:10;}
	.st49{fill:#FFFFFF;stroke:#65656A;stroke-width:8;stroke-linecap:round;stroke-linejoin:round;stroke-miterlimit:10;}
	.st50{fill:none;stroke:#65656A;stroke-width:8;stroke-miterlimit:10;}
</style>
<g id="Function_-_Central_APIs">
</g>
<g id="Function_-_Central_Route_Orchestrator">
</g>
<g id="Function_-_Central_Tunnel_Orchestrator">
</g>
<g id="Function_-_Central_NetConductor">
</g>
<g id="Function_-_Central_Network_Management">
</g>
<g id="Function_-_Central_Network_Insights">
</g>
<g id="Function_-_Central_Client_Insights">
</g>
<g id="Function_-_ClearPass_Policy_Manager">
</g>
<g id="Function_-_UXI_APIs">
</g>
<g id="Function_-_UXI_Dashboard">
</g>
<g id="Function_-_Orchestrator_Global_Enterprise">
</g>
<g id="Function_-_Orchestrator">
</g>
<g id="Function_-_Pensando_Policy_and_Services_Manager">
</g>
<g id="Function_-_Fabric_Composer">
</g>
<g id="Generic_-_Virtual_Machine">
</g>
<g id="Generic_-_Server_Single">
</g>
<g id="Generic_-_Server_Multi">
</g>
<g id="Generic_-_Router">
</g>
<g id="Generic_-_Firewall">
</g>
<g id="Wi-Fi_Signal">
</g>
<g id="Generic_-_Cloud_Function_Container_Grey">
</g>
<g id="Generic_-_Cloud_Function_Container_White">
</g>
<g id="Generic_-_Cloud_Internet_Circuit">
</g>
<g id="Generic_-_Cloud_Private_Circuit">
</g>
<g id="Generic_-_Cloud">
</g>
<g id="Client_-_IOT_Sensor">
</g>
<g id="Client_-_IOT_IO">
</g>
<g id="Client_-_IOT_PLC">
</g>
<g id="Client_-_IOT_Patient_Monitor">
</g>
<g id="Client_-_IOT_Camera">
</g>
<g id="Client_-_IOT_Scanner">
</g>
<g id="IOT_-_TV_Cast">
</g>
<g id="Client_-_Printer">
</g>
<g id="Client_-_Game_Console">
</g>
<g id="Client_-_IP_Phone">
</g>
<g id="Client_-_Laptop">
</g>
<g id="Client_-_Desktop">
</g>
<g id="Client_-_Workstation">
</g>
<g id="Client_-_Tablet">
</g>
<g id="Client_-_Mobile_2">
</g>
<g id="Client_-_Mobile_1">
</g>
<g id="Device_-_EdgeConnect_Enterprise_Cloud">
</g>
<g id="Device_-_EdgeConnect_Enterprise_Virtual">
	<g>
		<rect x="29.9" y="91.5" class="st0" width="440.4" height="306.2"/>
		<path class="st35" d="M470.3,403.9c-41.1,0-41.1,0-41.1,0c-4.7,0-8.1-3.9-8.1-8.1c0-4.7,3.4-8.1,8.1-8.1c33,0,33,0,33,0
			c0-32.9,0-32.9,0-32.9c0-4.7,3.4-8.1,8.1-8.1c4.3,0,8.1,3.4,8.1,8.1c0,41.1,0,41.1,0,41.1C478.5,400,474.6,403.9,470.3,403.9z"/>
		<path class="st35" d="M214.2,403.9c-71.5,0-71.5,0-71.5,0c-4.7,0-8.1-3.9-8.1-8.1c0-4.7,3.4-8.1,8.1-8.1c71.5,0,71.5,0,71.5,0
			c4.7,0,8.1,3.4,8.1,8.1C222.4,400,219,403.9,214.2,403.9z M357.7,403.9c-71.9,0-71.9,0-71.9,0c-4.3,0-8.1-3.9-8.1-8.1
			c0-4.7,3.9-8.1,8.1-8.1c71.9,0,71.9,0,71.9,0c4.3,0,8.1,3.4,8.1,8.1C365.8,400,362,403.9,357.7,403.9z"/>
		<path class="st35" d="M70.8,403.9c-40.7,0-40.7,0-40.7,0c-4.7,0-8.6-3.9-8.6-8.1c0-41.1,0-41.1,0-41.1c0-4.7,3.9-8.1,8.6-8.1
			c4.3,0,8.1,3.4,8.1,8.1c0,32.9,0,32.9,0,32.9c32.5,0,32.5,0,32.5,0c4.7,0,8.6,3.4,8.6,8.1C79.4,400,75.5,403.9,70.8,403.9z"/>
		<path class="st35" d="M30.1,289.2c-4.7,0-8.6-3.8-8.6-8.5c0-73.6,0-73.6,0-73.6c0-4.7,3.9-8.1,8.6-8.1c4.3,0,8.1,3.4,8.1,8.1
			c0,73.6,0,73.6,0,73.6C38.2,285.4,34.4,289.2,30.1,289.2z"/>
		<path class="st35" d="M30.1,141.6c-4.7,0-8.6-3.9-8.6-8.1c0-41.1,0-41.1,0-41.1c0-4.7,3.9-8.1,8.6-8.1c40.7,0,40.7,0,40.7,0
			c4.7,0,8.6,3.4,8.6,8.1c0,4.3-3.9,8.1-8.6,8.1c-32.5,0-32.5,0-32.5,0c0,33,0,33,0,33C38.2,137.8,34.4,141.6,30.1,141.6z"/>
		<path class="st35" d="M214.2,100.5c-71.5,0-71.5,0-71.5,0c-4.7,0-8.1-3.8-8.1-8.1c0-4.7,3.4-8.1,8.1-8.1c71.5,0,71.5,0,71.5,0
			c4.7,0,8.1,3.4,8.1,8.1C222.4,96.7,219,100.5,214.2,100.5z M357.7,100.5c-71.9,0-71.9,0-71.9,0c-4.3,0-8.1-3.8-8.1-8.1
			c0-4.7,3.9-8.1,8.1-8.1c71.9,0,71.9,0,71.9,0c4.3,0,8.1,3.4,8.1,8.1C365.8,96.7,362,100.5,357.7,100.5z"/>
		<path class="st35" d="M470.3,141.6c-4.7,0-8.1-3.9-8.1-8.1c0-33,0-33,0-33c-33,0-33,0-33,0c-4.7,0-8.1-3.8-8.1-8.1
			c0-4.7,3.4-8.1,8.1-8.1c41.1,0,41.1,0,41.1,0c4.3,0,8.1,3.4,8.1,8.1c0,41.1,0,41.1,0,41.1C478.5,137.8,474.6,141.6,470.3,141.6z"
			/>
		<path class="st35" d="M470.3,289.2c-4.7,0-8.1-3.8-8.1-8.5c0-73.6,0-73.6,0-73.6c0-4.7,3.4-8.1,8.1-8.1c4.3,0,8.1,3.4,8.1,8.1
			c0,73.6,0,73.6,0,73.6C478.5,285.4,474.6,289.2,470.3,289.2z"/>
		<path class="st1" d="M258.8,169.8c95.1,145.5,95.1,145.5,95.1,145.5c4.7,6.9-0.4,15.8-8.6,15.8c-190.6,0-190.6,0-190.6,0
			c-8.1,0-13.3-9-8.6-15.8c95.1-145.5,95.1-145.5,95.1-145.5C245.5,163.9,254.5,163.9,258.8,169.8z"/>
	</g>
</g>
<g id="Device_-_EdgeConnect_Enterprise_Appliance">
</g>
<g id="Device_-_Core_Agg_Leaf_Switch">
</g>
<g id="Device_-_Access_Switch">
</g>
<g id="Device_-_Gateway_Headend">
</g>
<g id="Device_-_Gateway_Branch">
</g>
<g id="Device_-_Gateway_Campus">
</g>
<g id="Device_-_UXI_Sensor_New">
</g>
<g id="Device_-_UXI_Sensor">
</g>
<g id="Device_-_AP500_Series_Microbranch">
</g>
<g id="Device_-_AP600_Series">
</g>
<g id="Device_-_AP500_Series">
</g>
<g id="Device_-_Outdoor_AP">
</g>
</svg>
