<?xml version="1.0" encoding="utf-8"?>
<!-- Generator: Adobe Illustrator 26.3.1, SVG Export Plug-In . SVG Version: 6.00 Build 0)  -->
<svg version="1.1" xmlns="http://www.w3.org/2000/svg" xmlns:xlink="http://www.w3.org/1999/xlink" x="0px" y="0px"
	 viewBox="0 0 500 500" style="enable-background:new 0 0 500 500;" xml:space="preserve">
<style type="text/css">
	.st0{fill:#FFFFFF;}
	.st1{fill:#FF8300;}
	.st2{fill:#F78200;}
	.st3{fill:#F7931E;}
	.st4{fill:#5D5D5D;}
	.st5{fill:#FFFFFF;stroke:#65656A;stroke-width:12;stroke-miterlimit:10;}
	.st6{display:none;fill:#979797;stroke:#979797;stroke-width:3;stroke-linecap:round;stroke-linejoin:round;stroke-miterlimit:10;}
	.st7{fill:#979797;}
	.st8{fill:#65656A;}
	.st9{stroke:#009245;stroke-width:3;stroke-miterlimit:10;}
	.st10{fill:#F58220;}
	.st11{clip-path:url(#SVGID_00000047753256628598919150000004285791090324357053_);fill:#5E5E5E;}
	.st12{clip-path:url(#SVGID_00000145759977778233582920000007241098518689429396_);fill:#FFFFFF;}
	.st13{clip-path:url(#SVGID_00000055694709492562368770000001360667384348362938_);fill:#FFFFFF;}
	.st14{clip-path:url(#SVGID_00000055694709492562368770000001360667384348362938_);fill:#FF8300;}
	.st15{clip-path:url(#SVGID_00000170996008595414341220000004084092550320512387_);fill:#FFFFFF;}
	.st16{clip-path:url(#SVGID_00000170996008595414341220000004084092550320512387_);fill:#ADE1F0;}
	.st17{clip-path:url(#SVGID_00000150807747368219782180000009106547211880594107_);fill:#65656A;}
	.st18{clip-path:url(#SVGID_00000150807747368219782180000009106547211880594107_);fill:#646569;}
	.st19{clip-path:url(#SVGID_00000150807747368219782180000009106547211880594107_);fill:#D0D0D2;}
	.st20{clip-path:url(#SVGID_00000134210680724700524400000002469050690825062585_);fill:#FFFFFF;}
	.st21{clip-path:url(#SVGID_00000134210680724700524400000002469050690825062585_);fill:#646569;}
	.st22{clip-path:url(#SVGID_00000134210680724700524400000002469050690825062585_);fill:#65656A;}
	
		.st23{clip-path:url(#SVGID_00000177469052984256095190000000800814733657501853_);fill:#FFFFFF;stroke:#000000;stroke-miterlimit:10;}
	.st24{clip-path:url(#SVGID_00000177469052984256095190000000800814733657501853_);fill:#646569;}
	.st25{clip-path:url(#SVGID_00000177469052984256095190000000800814733657501853_);fill:#65656A;}
	
		.st26{clip-path:url(#SVGID_00000177469052984256095190000000800814733657501853_);fill:none;stroke:#65656A;stroke-width:0.1925;stroke-linecap:round;stroke-linejoin:round;stroke-miterlimit:10;}
	.st27{clip-path:url(#SVGID_00000130622505392217474820000008632458514396549805_);fill:#FFFFFF;}
	.st28{clip-path:url(#SVGID_00000130622505392217474820000008632458514396549805_);fill:#65656A;}
	.st29{clip-path:url(#SVGID_00000130622505392217474820000008632458514396549805_);fill:#646569;}
	.st30{clip-path:url(#SVGID_00000111909327722707723170000006803564856948862347_);fill:#FFFFFF;}
	.st31{clip-path:url(#SVGID_00000111909327722707723170000006803564856948862347_);fill:#646569;}
	.st32{clip-path:url(#SVGID_00000005945836117959147300000013611520184420825992_);fill:#FFFFFF;}
	.st33{clip-path:url(#SVGID_00000005945836117959147300000013611520184420825992_);fill:#65656A;}
	.st34{clip-path:url(#SVGID_00000005945836117959147300000013611520184420825992_);fill:#646569;}
	.st35{fill:#646569;}
	.st36{clip-path:url(#SVGID_00000033346295819638884300000016568664787976005040_);fill:#FFFFFF;}
	.st37{clip-path:url(#SVGID_00000033346295819638884300000016568664787976005040_);fill:#65666A;}
	
		.st38{clip-path:url(#SVGID_00000033346295819638884300000016568664787976005040_);fill:none;stroke:#65666A;stroke-width:0.1748;stroke-miterlimit:10;}
	.st39{clip-path:url(#SVGID_00000103233089104598152460000014328305437639186089_);fill:#FFFFFF;}
	.st40{clip-path:url(#SVGID_00000103233089104598152460000014328305437639186089_);fill:#646569;}
	.st41{fill:none;stroke:#65656A;stroke-width:3;stroke-miterlimit:10;}
	.st42{fill:#EC8020;}
	.st43{fill:#ED8020;}
	.st44{fill:none;stroke:#65656A;stroke-width:3;stroke-linecap:round;stroke-miterlimit:10;}
	.st45{fill:none;stroke:#646569;stroke-width:10;stroke-linejoin:round;stroke-miterlimit:10;}
	.st46{fill:none;stroke:#646569;stroke-width:10;stroke-miterlimit:10;}
	.st47{fill:none;stroke:#646569;stroke-width:10;stroke-linecap:round;stroke-miterlimit:10;}
	.st48{fill:none;stroke:#65656A;stroke-width:8;stroke-linecap:round;stroke-miterlimit:10;}
	.st49{fill:#FFFFFF;stroke:#65656A;stroke-width:8;stroke-linecap:round;stroke-linejoin:round;stroke-miterlimit:10;}
	.st50{fill:none;stroke:#65656A;stroke-width:8;stroke-miterlimit:10;}
</style>
<g id="Function_-_Central_APIs">
</g>
<g id="Function_-_Central_Route_Orchestrator">
</g>
<g id="Function_-_Central_Tunnel_Orchestrator">
</g>
<g id="Function_-_Central_NetConductor">
</g>
<g id="Function_-_Central_Network_Management">
</g>
<g id="Function_-_Central_Network_Insights">
	<circle class="st0" cx="250" cy="250" r="183"/>
	<path class="st1" d="M250.1,410.8c-88.7,0-160.9-72.2-160.9-160.9c0-88.6,72.1-160.7,160.9-160.7c88.6,0,160.7,72.2,160.7,160.7
		C410.8,338.6,338.6,410.8,250.1,410.8z M481.2,270.8c0-20.8,0-20.8,0-20.8c0-20.7,0-20.7,0-20.7c-39.8-6.5-39.8-6.5-39.8-6.5
		c-1-7.1-2.4-13.9-4.1-20.7c34.3-21.3,34.3-21.3,34.3-21.3c-8-19.2-8-19.2-8-19.2c-8-19.2-8-19.2-8-19.2
		c-39.2,9.3-39.2,9.3-39.2,9.3c-3.7-6.1-7.5-12-11.8-17.6c23.7-32.8,23.7-32.8,23.7-32.8c-14.8-14.6-14.8-14.6-14.8-14.6
		c-14.6-14.8-14.6-14.8-14.6-14.8C366,95.4,366,95.4,366,95.4c-5.6-4.3-11.4-8.1-17.6-11.8c9.3-39.2,9.3-39.2,9.3-39.2
		c-19.2-8-19.2-8-19.2-8c-19.2-8-19.2-8-19.2-8C298,62.7,298,62.7,298,62.7c-6.7-1.8-13.6-3.1-20.7-4.1c-6.5-39.8-6.5-39.8-6.5-39.8
		c-20.7,0-20.7,0-20.7,0c-20.9,0-20.9,0-20.9,0c-6.5,39.8-6.5,39.8-6.5,39.8c-7.1,1-13.9,2.4-20.7,4.1
		c-21.3-34.3-21.3-34.3-21.3-34.3c-19.2,8-19.2,8-19.2,8c-19.2,8-19.2,8-19.2,8c9.3,39.2,9.3,39.2,9.3,39.2
		c-6.1,3.7-12,7.5-17.6,11.8c-32.8-23.7-32.8-23.7-32.8-23.7C86.6,86.6,86.6,86.6,86.6,86.6c-14.6,14.6-14.6,14.6-14.6,14.6
		C95.4,134,95.4,134,95.4,134c-4.3,5.6-8.1,11.5-11.8,17.6c-39.2-9.3-39.2-9.3-39.2-9.3c-8,19.2-8,19.2-8,19.2
		c-8,19.2-8,19.2-8,19.2C62.8,202,62.8,202,62.8,202c-1.8,6.8-3.1,13.6-4.1,20.7c-39.8,6.5-39.8,6.5-39.8,6.5c0,20.7,0,20.7,0,20.7
		c0,20.8,0,20.8,0,20.8c39.8,6.5,39.8,6.5,39.8,6.5c1,7.1,2.4,13.9,4.1,20.7c-34.3,21.3-34.3,21.3-34.3,21.3c8,19.2,8,19.2,8,19.2
		c8,19.2,8,19.2,8,19.2c39.2-9.3,39.2-9.3,39.2-9.3c3.7,6.1,7.5,12,11.8,17.6c-23.5,32.8-23.5,32.8-23.5,32.8
		c14.6,14.6,14.6,14.6,14.6,14.6c14.6,14.6,14.6,14.6,14.6,14.6c32.8-23.5,32.8-23.5,32.8-23.5c5.6,4.3,11.5,8.1,17.6,11.8
		c-9.3,39.2-9.3,39.2-9.3,39.2c19.2,8,19.2,8,19.2,8c19.2,8,19.2,8,19.2,8c21.3-34.3,21.3-34.3,21.3-34.3c6.8,1.8,13.6,3.1,20.7,4.1
		c6.5,39.8,6.5,39.8,6.5,39.8c20.9,0,20.9,0,20.9,0c20.7,0,20.7,0,20.7,0c6.5-39.8,6.5-39.8,6.5-39.8c7.1-1,14-2.4,20.7-4.1
		c21.3,34.3,21.3,34.3,21.3,34.3c19.2-8,19.2-8,19.2-8c19.2-8,19.2-8,19.2-8c-9.3-39.2-9.3-39.2-9.3-39.2c6.2-3.7,12-7.5,17.6-11.8
		c32.8,23.5,32.8,23.5,32.8,23.5c14.6-14.6,14.6-14.6,14.6-14.6c14.8-14.6,14.8-14.6,14.8-14.6C404.6,366,404.6,366,404.6,366
		c4.3-5.6,8.1-11.5,11.8-17.6c39.2,9.3,39.2,9.3,39.2,9.3c8-19.2,8-19.2,8-19.2c8-19.2,8-19.2,8-19.2C437.2,298,437.2,298,437.2,298
		c1.8-6.8,3.1-13.6,4.1-20.7L481.2,270.8z"/>
	<path class="st1" d="M250.1,109.3c-77.6,0-140.8,63.1-140.8,140.6c0,77.6,63.1,140.7,140.8,140.7c77.5,0,140.6-63.1,140.6-140.7
		C390.7,172.5,327.6,109.3,250.1,109.3z"/>
	<path class="st0" d="M172.2,234.4c-3.1,0-5.7,2.5-5.7,5.5c0,3.1,2.5,5.7,5.7,5.7c2.9,0,5.5-2.5,5.5-5.7
		C177.6,236.9,175.1,234.4,172.2,234.4z M172.2,248.9c-5.1,0-9-3.9-9-9c0-4.9,3.9-8.8,9-8.8c4.9,0,8.8,3.9,8.8,8.8
		C181,244.9,177,248.9,172.2,248.9z"/>
	<path class="st0" d="M194.3,261.8c-3.1,0-5.7,2.5-5.7,5.7c0,3.1,2.5,5.7,5.7,5.7c3.1,0,5.7-2.5,5.7-5.7
		C199.9,264.3,197.4,261.8,194.3,261.8z M194.3,276.4c-4.9,0-9-4.1-9-9s4.1-9,9-9c4.9,0,9,4.1,9,9S199.2,276.4,194.3,276.4z"/>
	<path class="st0" d="M193.7,176.4c-3.1,0-5.5,2.5-5.5,5.7c0,2.9,2.4,5.5,5.5,5.5c3.1,0,5.7-2.5,5.7-5.5
		C199.3,179,196.8,176.4,193.7,176.4z M193.7,190.9c-4.9,0-8.8-3.9-8.8-8.8c0-5.1,3.9-9,8.8-9c4.9,0,9,3.9,9,9
		C202.7,187,198.6,190.9,193.7,190.9z"/>
	<path class="st0" d="M188,262.9c-0.6,0-1-0.2-1.4-0.6c-11.2-14.5-11.2-14.5-11.2-14.5c-0.6-0.6-0.6-1.8,0.2-2.4
		c0.8-0.4,1.8-0.4,2.4,0.4c11.4,14.3,11.4,14.3,11.4,14.3c0.6,0.8,0.4,1.8-0.4,2.3C188.8,262.7,188.4,262.9,188,262.9z"/>
	<path class="st0" d="M172.3,196.8c-3.1,0-5.7,2.5-5.7,5.7c0,3.1,2.5,5.5,5.7,5.5c3.1,0,5.7-2.4,5.7-5.5
		C178,199.3,175.5,196.8,172.3,196.8z M172.3,211.3c-4.9,0-9-3.9-9-8.8c0-4.9,4.1-9,9-9c4.9,0,9,4.1,9,9
		C181.3,207.4,177.2,211.3,172.3,211.3z"/>
	<path class="st0" d="M195.4,225.8c-3.1,0-5.7,2.5-5.7,5.7c0,3.1,2.5,5.7,5.7,5.7c3.1,0,5.7-2.5,5.7-5.7
		C201.1,228.3,198.6,225.8,195.4,225.8z M195.4,240.4c-4.9,0-9-4.1-9-9c0-4.9,4.1-9,9-9c4.9,0,9,4.1,9,9
		C204.4,236.3,200.3,240.4,195.4,240.4z"/>
	<path class="st0" d="M190.2,226.2c-0.6,0-1-0.2-1.4-0.6c-12.5-16-12.5-16-12.5-16c-0.4-0.8-0.4-1.8,0.4-2.4
		c0.8-0.6,1.8-0.4,2.4,0.2c12.3,16.2,12.3,16.2,12.3,16.2c0.6,0.6,0.6,1.8-0.2,2.4C190.7,226.2,190.5,226.2,190.2,226.2z"/>
	<path class="st0" d="M230.5,298.6c-3.5,0-6.1-1-7.8-2.7c-2.3-2.5-2.1-5.7-2-6.5c0-125.2,0-125.2,0-125.2c0-8.8,1.4-11.9,8.8-12.5
		c7-0.4,10.4,7.6,10.6,8c0,0.2,0,0.4,0,0.6c0.2,1,0.2,1,0.2,1c2.2-0.8,4.3-1.4,6.7-1.4c10.2,0,18.4,8.2,18.4,18.4c0,1-0.2,2-0.4,2.9
		c11.5,3.9,19.4,14.7,19.4,27c0,7-2.5,13.7-7.2,19c-0.6,0.6-1.8,0.8-2.4,0c-0.8-0.6-0.8-1.6-0.2-2.3c4.1-4.5,6.5-10.6,6.5-16.6
		c0-11.3-7.6-21.3-18.4-24.3c-1-0.2-1.4-1.2-1.2-2c0.4-1.4,0.6-2.5,0.6-3.7c0-8.4-6.8-15.1-15.1-15.1c-2.5,0-5.3,0.8-7.4,2.1
		c-0.6,0.2-1.2,0.2-1.8,0c-0.4-0.2-0.8-0.8-0.8-1.4c-0.2-3.3-0.2-3.3-0.2-3.3c-0.4-1.2-2.9-5.9-7-5.7c-4.5,0.4-5.7,0.8-5.7,9.2
		c0,125.4,0,125.4,0,125.4v0.2c0,0-0.4,2.3,1.2,3.7c1.2,1.4,3.5,2,6.8,1.8c4.9-0.4,6.1-4.3,6.8-8.6c0.2-0.8,0.4-1.4,0.6-1.8
		c0-0.6,0.2-1,0.8-1.2c0.4-0.4,1-0.4,1.4-0.4c1.6,0.6,3.3,1,4.9,1c1,0,1.8,0.8,1.8,1.6c0,1-0.8,1.8-1.8,1.8c-1.4,0-2.7-0.2-4.3-0.6
		c0,0.2,0,0.2,0,0.4c-0.8,3.3-2.2,10.4-9.8,11.2C231.6,298.6,231.1,298.6,230.5,298.6z"/>
	<path class="st0" d="M191.5,283.3c0.2,0,0.6,0,0.8,0.2c0.4,0.4,0.8,0.8,0.8,1.4c0.2,0.4,0.2,1,0.4,1.8c1,4.3,2.2,8.2,7,8.6
		c3.1,0.2,5.7-0.4,6.8-1.8c1.4-1.6,1.2-3.7,1.2-3.7v-0.2c0-125.4,0-125.4,0-125.4c0-8.4-1.2-8.8-5.7-9.2c-4.1-0.2-6.7,4.5-7.2,5.7
		c0,3.3,0,3.3,0,3.3c0,0.6-0.4,1.2-1,1.4c-0.4,0.2-1,0.2-1.6,0c-2.3-1.4-4.9-2.1-7.6-2.1c-8.2,0-14.9,6.7-14.9,15.1
		c0,1.2,0.2,2.4,0.6,3.7c0.2,0.8-0.4,1.8-1.2,2c-11,2.9-18.4,12.9-18.4,24.3c0,6.1,2.2,12.1,6.5,16.6c0.4,0.6,0.6,1.6,0,2.2
		c-3.1,4.3-4.9,9.4-4.9,14.9c0,10.6,6.9,20.2,17,23.5c0.6,0.4,1.2,1.2,1,2c0,0.8-0.2,1.4-0.2,2.1c0,8.2,6.8,14.9,15.1,14.9
		c1.6,0,3.1-0.4,4.9-1C191.1,283.3,191.3,283.3,191.5,283.3z M202.1,298.6c-0.6,0-1.4,0-2,0c-7.6-0.8-9.2-7.8-9.8-11.2
		c-0.2-0.2-0.2-0.2-0.2-0.4c-1.4,0.4-2.7,0.6-4.1,0.6c-10.2,0-18.4-8.2-18.4-18.2c0-0.4,0-1,0.2-1.4c-10.8-4.3-18-14.7-18-26.2
		c0-5.7,1.8-11.2,4.7-15.7c-4.1-5.1-6.3-11.5-6.3-18c0-12.3,7.8-23.1,19.2-27c0-1-0.2-2-0.2-2.9c0-10.2,8.2-18.4,18.2-18.4
		c2.3,0,4.7,0.6,6.8,1.4c0-1,0-1,0-1c0-0.2,0.2-0.4,0.2-0.6c0.2-0.4,3.5-8.4,10.6-8c7.4,0.6,8.8,3.7,8.8,12.5
		c0,125.2,0,125.2,0,125.2c0,0.8,0.2,3.9-2,6.5C208.2,297.6,205.4,298.6,202.1,298.6z"/>
	<path class="st0" d="M179.2,237.9c-0.8,0-1.4-0.4-1.6-1.2c-0.4-0.8,0.2-1.8,1-2.2c8.8-2.7,8.8-2.7,8.8-2.7c1-0.4,2,0.2,2.2,1
		c0.2,1-0.2,1.8-1,2.1c-8.8,2.9-8.8,2.9-8.8,2.9C179.6,237.9,179.4,237.9,179.2,237.9z"/>
	<path class="st0" d="M177.4,198c-0.6,0-1-0.4-1.4-0.8c-0.4-0.8-0.2-1.8,0.4-2.4c0.8-0.6,5.7-5.5,10-10c0.6-0.6,1.8-0.6,2.4,0
		c0.6,0.8,0.6,1.8,0,2.4c-3.5,3.7-9.6,10-10.4,10.4C178,197.8,177.8,198,177.4,198z"/>
	<path class="st0" d="M248.9,202.9c1-10.8,1-10.8,1-10.8c0-0.6-0.4-1-1-1c-10.8,1-10.8,1-10.8,1c-0.8,0-1,1-0.6,1.4
		c10,10,10,10,10,10C248.1,204,248.9,203.7,248.9,202.9z"/>
	<path class="st0" d="M235.4,207.4c-0.4,0-1-0.2-1.2-0.4c-0.8-0.8-0.8-1.8,0-2.3c8.2-8.4,8.2-8.4,8.2-8.4c0.8-0.6,1.8-0.6,2.3,0
		c0.8,0.6,0.8,1.8,0,2.4c-8.2,8.4-8.2,8.4-8.2,8.4C236.1,207.2,235.8,207.4,235.4,207.4z"/>
	<path class="st0" d="M237.5,258.4c10.8,0.8,10.8,0.8,10.8,0.8c0.6,0.2,1-0.4,1-0.8c-1-10.8-1-10.8-1-10.8c0-0.8-1-1.2-1.4-0.6
		c-10,9.8-10,9.8-10,9.8C236.5,257.5,236.7,258.4,237.5,258.4z"/>
	<path class="st0" d="M243,254.7c-0.4,0-0.8-0.2-1.2-0.4c-8.2-8.4-8.2-8.4-8.2-8.4c-0.8-0.6-0.8-1.6,0-2.3c0.6-0.6,1.6-0.6,2.4,0
		c8.2,8.4,8.2,8.4,8.2,8.4c0.8,0.6,0.8,1.6,0,2.4C244,254.5,243.4,254.7,243,254.7z"/>
	<path class="st0" d="M250.6,231.8c8.4-7,8.4-7,8.4-7c0.4-0.4,0.4-1,0-1.4c-8.2-7-8.2-7-8.2-7c-0.6-0.4-1.6,0-1.6,0.8
		c0,13.9,0,13.9,0,13.9C249.3,231.8,250.2,232.2,250.6,231.8z"/>
	<path class="st0" d="M250.8,225.8c-11.7,0-11.7,0-11.7,0c-1,0-1.6-0.8-1.6-1.8c0-0.8,0.6-1.6,1.6-1.6c11.7,0,11.7,0,11.7,0
		c1,0,1.8,0.8,1.8,1.6C252.6,225,251.8,225.8,250.8,225.8z"/>
	<path class="st0" d="M285.8,236.5c-7.2,0-14.7,2.9-20.2,8.4c-11.2,11.2-11.2,29.2,0,40.3c5.3,5.5,12.5,8.4,20.2,8.4
		c7.6,0,14.7-2.9,20.2-8.4c5.5-5.5,8.4-12.5,8.4-20.2c0-7.6-2.9-14.9-8.4-20.2C300.5,239.5,293.1,236.5,285.8,236.5z M285.8,297
		c-8.4,0-16.4-3.3-22.5-9.4c-12.5-12.3-12.5-32.7,0-45c12.3-12.5,32.7-12.5,45,0c6.1,6.1,9.4,13.9,9.4,22.5c0,8.4-3.3,16.4-9.4,22.5
		C302.3,293.7,294.3,297,285.8,297z"/>
	<path class="st0" d="M327.1,302.5c-1,0-1.8,0.4-2.5,1.2c-0.2,0.2-0.2,0.2-0.2,0.2c-1.4,1.4-1.4,3.7,0,5.1
		c19.6,19.6,19.6,19.6,19.6,19.6c1.4,1.4,3.7,1.4,5.1,0c0.2-0.2,0.2-0.2,0.2-0.2c1.6-1.4,1.6-3.7,0-5.1
		c-19.6-19.6-19.6-19.6-19.6-19.6C329.1,302.9,328.1,302.5,327.1,302.5z M346.5,333c-2,0-3.5-0.8-4.9-2.2
		C322,311.3,322,311.3,322,311.3c-2.7-2.7-2.7-7,0-9.8c0.2-0.2,0.2-0.2,0.2-0.2c2.7-2.7,7-2.7,9.8,0c19.6,19.6,19.6,19.6,19.6,19.6
		c2.7,2.7,2.7,7,0,9.8c-0.2,0.2-0.2,0.2-0.2,0.2C350,332.2,348.5,333,346.5,333z"/>
	<path class="st0" d="M318.7,299.7c-0.4,0-0.8-0.2-1.2-0.6c-6.8-6.9-6.8-6.9-6.8-6.9c-0.6-0.6-0.6-1.8,0-2.3c0.6-0.6,1.8-0.6,2.3,0
		c7,6.8,7,6.8,7,6.8c0.6,0.8,0.6,1.8,0,2.4C319.7,299.5,319.3,299.7,318.7,299.7z"/>
	<path class="st0" d="M269.4,264.3c2.5,2.5,9.2,8.6,17,8.6c7.6,0,14.5-6.1,16.8-8.6c-2.3-2.5-9.2-8.6-16.8-8.6
		C278.6,255.7,272,261.8,269.4,264.3z M286.4,276.3c-11.3,0-20.2-10.4-20.5-10.8c-0.4-0.6-0.4-1.6,0-2.2c0.4-0.4,9.2-11,20.5-11
		c11.2,0,20,10.6,20.4,11c0.6,0.6,0.6,1.6,0,2.2C306.4,265.9,297.6,276.3,286.4,276.3z"/>
	<path class="st0" d="M286.4,260.8c-2,0-3.5,1.6-3.5,3.5c0,2,1.6,3.5,3.5,3.5c2,0,3.5-1.6,3.5-3.5
		C290,262.4,288.4,260.8,286.4,260.8z M286.4,271.2c-3.9,0-6.8-3.1-6.8-6.9c0-3.7,2.9-6.8,6.8-6.8c3.7,0,6.9,3.1,6.9,6.8
		C293.3,268,290.1,271.2,286.4,271.2z"/>
</g>
<g id="Function_-_Central_Client_Insights">
</g>
<g id="Function_-_ClearPass_Policy_Manager">
</g>
<g id="Function_-_UXI_APIs">
</g>
<g id="Function_-_UXI_Dashboard">
</g>
<g id="Function_-_Orchestrator_Global_Enterprise">
</g>
<g id="Function_-_Orchestrator">
</g>
<g id="Function_-_Pensando_Policy_and_Services_Manager">
</g>
<g id="Function_-_Fabric_Composer">
</g>
<g id="Generic_-_Virtual_Machine">
</g>
<g id="Generic_-_Server_Single">
</g>
<g id="Generic_-_Server_Multi">
</g>
<g id="Generic_-_Router">
</g>
<g id="Generic_-_Firewall">
</g>
<g id="Wi-Fi_Signal">
</g>
<g id="Generic_-_Cloud_Function_Container_Grey">
</g>
<g id="Generic_-_Cloud_Function_Container_White">
</g>
<g id="Generic_-_Cloud_Internet_Circuit">
</g>
<g id="Generic_-_Cloud_Private_Circuit">
</g>
<g id="Generic_-_Cloud">
</g>
<g id="Client_-_IOT_Sensor">
</g>
<g id="Client_-_IOT_IO">
</g>
<g id="Client_-_IOT_PLC">
</g>
<g id="Client_-_IOT_Patient_Monitor">
</g>
<g id="Client_-_IOT_Camera">
</g>
<g id="Client_-_IOT_Scanner">
</g>
<g id="IOT_-_TV_Cast">
</g>
<g id="Client_-_Printer">
</g>
<g id="Client_-_Game_Console">
</g>
<g id="Client_-_IP_Phone">
</g>
<g id="Client_-_Laptop">
</g>
<g id="Client_-_Desktop">
</g>
<g id="Client_-_Workstation">
</g>
<g id="Client_-_Tablet">
</g>
<g id="Client_-_Mobile_2">
</g>
<g id="Client_-_Mobile_1">
</g>
<g id="Device_-_EdgeConnect_Enterprise_Cloud">
</g>
<g id="Device_-_EdgeConnect_Enterprise_Virtual">
</g>
<g id="Device_-_EdgeConnect_Enterprise_Appliance">
</g>
<g id="Device_-_Core_Agg_Leaf_Switch">
</g>
<g id="Device_-_Access_Switch">
</g>
<g id="Device_-_Gateway_Headend">
</g>
<g id="Device_-_Gateway_Branch">
</g>
<g id="Device_-_Gateway_Campus">
</g>
<g id="Device_-_UXI_Sensor_New">
</g>
<g id="Device_-_UXI_Sensor">
</g>
<g id="Device_-_AP500_Series_Microbranch">
</g>
<g id="Device_-_AP600_Series">
</g>
<g id="Device_-_AP500_Series">
</g>
<g id="Device_-_Outdoor_AP">
</g>
</svg>
