<?xml version="1.0" encoding="utf-8"?>
<!-- Generator: Adobe Illustrator 26.3.1, SVG Export Plug-In . SVG Version: 6.00 Build 0)  -->
<svg version="1.1" xmlns="http://www.w3.org/2000/svg" xmlns:xlink="http://www.w3.org/1999/xlink" x="0px" y="0px"
	 viewBox="0 0 500 500" style="enable-background:new 0 0 500 500;" xml:space="preserve">
<style type="text/css">
	.st0{fill:#FFFFFF;}
	.st1{fill:#FF8300;}
	.st2{fill:#F78200;}
	.st3{fill:#F7931E;}
	.st4{fill:#5D5D5D;}
	.st5{fill:#FFFFFF;stroke:#65656A;stroke-width:12;stroke-miterlimit:10;}
	.st6{display:none;fill:#979797;stroke:#979797;stroke-width:3;stroke-linecap:round;stroke-linejoin:round;stroke-miterlimit:10;}
	.st7{fill:#979797;}
	.st8{fill:#65656A;}
	.st9{stroke:#009245;stroke-width:3;stroke-miterlimit:10;}
	.st10{fill:#F58220;}
	.st11{clip-path:url(#SVGID_00000139998402101252879600000012107551528953376681_);fill:#5E5E5E;}
	.st12{clip-path:url(#SVGID_00000044153153559439351070000003689568768953321137_);fill:#FFFFFF;}
	.st13{clip-path:url(#SVGID_00000112612199788507806220000002746073339556527753_);fill:#FFFFFF;}
	.st14{clip-path:url(#SVGID_00000112612199788507806220000002746073339556527753_);fill:#FF8300;}
	.st15{clip-path:url(#SVGID_00000124135203807413680360000018427071973341588110_);fill:#FFFFFF;}
	.st16{clip-path:url(#SVGID_00000124135203807413680360000018427071973341588110_);fill:#ADE1F0;}
	.st17{clip-path:url(#SVGID_00000161593498484291626960000000010644576462454949_);fill:#65656A;}
	.st18{clip-path:url(#SVGID_00000161593498484291626960000000010644576462454949_);fill:#646569;}
	.st19{clip-path:url(#SVGID_00000161593498484291626960000000010644576462454949_);fill:#D0D0D2;}
	.st20{clip-path:url(#SVGID_00000122687491412752149050000007582851990743086223_);fill:#FFFFFF;}
	.st21{clip-path:url(#SVGID_00000122687491412752149050000007582851990743086223_);fill:#646569;}
	.st22{clip-path:url(#SVGID_00000122687491412752149050000007582851990743086223_);fill:#65656A;}
	
		.st23{clip-path:url(#SVGID_00000098190027476526281340000014385553638750626977_);fill:#FFFFFF;stroke:#000000;stroke-miterlimit:10;}
	.st24{clip-path:url(#SVGID_00000098190027476526281340000014385553638750626977_);fill:#646569;}
	.st25{clip-path:url(#SVGID_00000098190027476526281340000014385553638750626977_);fill:#65656A;}
	
		.st26{clip-path:url(#SVGID_00000098190027476526281340000014385553638750626977_);fill:none;stroke:#65656A;stroke-width:0.1925;stroke-linecap:round;stroke-linejoin:round;stroke-miterlimit:10;}
	.st27{clip-path:url(#SVGID_00000178184777309436549930000005777247260713869204_);fill:#FFFFFF;}
	.st28{clip-path:url(#SVGID_00000178184777309436549930000005777247260713869204_);fill:#65656A;}
	.st29{clip-path:url(#SVGID_00000178184777309436549930000005777247260713869204_);fill:#646569;}
	.st30{clip-path:url(#SVGID_00000093876923422125888780000009316468380719077284_);fill:#FFFFFF;}
	.st31{clip-path:url(#SVGID_00000093876923422125888780000009316468380719077284_);fill:#646569;}
	.st32{clip-path:url(#SVGID_00000091696200542936020600000009504224585599173787_);fill:#FFFFFF;}
	.st33{clip-path:url(#SVGID_00000091696200542936020600000009504224585599173787_);fill:#65656A;}
	.st34{clip-path:url(#SVGID_00000091696200542936020600000009504224585599173787_);fill:#646569;}
	.st35{fill:#646569;}
	.st36{clip-path:url(#SVGID_00000018959966231875026490000010894575296699259031_);fill:#FFFFFF;}
	.st37{clip-path:url(#SVGID_00000018959966231875026490000010894575296699259031_);fill:#65666A;}
	
		.st38{clip-path:url(#SVGID_00000018959966231875026490000010894575296699259031_);fill:none;stroke:#65666A;stroke-width:0.1748;stroke-miterlimit:10;}
	.st39{clip-path:url(#SVGID_00000081636589869153684320000018422318834449094032_);fill:#FFFFFF;}
	.st40{clip-path:url(#SVGID_00000081636589869153684320000018422318834449094032_);fill:#646569;}
	.st41{fill:none;stroke:#65656A;stroke-width:3;stroke-miterlimit:10;}
	.st42{fill:#EC8020;}
	.st43{fill:#ED8020;}
	.st44{fill:none;stroke:#65656A;stroke-width:3;stroke-linecap:round;stroke-miterlimit:10;}
	.st45{fill:none;stroke:#646569;stroke-width:10;stroke-linejoin:round;stroke-miterlimit:10;}
	.st46{fill:none;stroke:#646569;stroke-width:10;stroke-miterlimit:10;}
	.st47{fill:none;stroke:#646569;stroke-width:10;stroke-linecap:round;stroke-miterlimit:10;}
	.st48{fill:none;stroke:#65656A;stroke-width:8;stroke-linecap:round;stroke-miterlimit:10;}
	.st49{fill:#FFFFFF;stroke:#65656A;stroke-width:8;stroke-linecap:round;stroke-linejoin:round;stroke-miterlimit:10;}
	.st50{fill:none;stroke:#65656A;stroke-width:8;stroke-miterlimit:10;}
</style>
<g id="Function_-_Central_APIs">
</g>
<g id="Function_-_Central_Route_Orchestrator">
</g>
<g id="Function_-_Central_Tunnel_Orchestrator">
</g>
<g id="Function_-_Central_NetConductor">
</g>
<g id="Function_-_Central_Network_Management">
</g>
<g id="Function_-_Central_Network_Insights">
</g>
<g id="Function_-_Central_Client_Insights">
</g>
<g id="Function_-_ClearPass_Policy_Manager">
</g>
<g id="Function_-_UXI_APIs">
</g>
<g id="Function_-_UXI_Dashboard">
</g>
<g id="Function_-_Orchestrator_Global_Enterprise">
</g>
<g id="Function_-_Orchestrator">
</g>
<g id="Function_-_Pensando_Policy_and_Services_Manager">
</g>
<g id="Function_-_Fabric_Composer">
	<circle class="st0" cx="250" cy="250" r="183"/>
	<path class="st1" d="M244.3,409.4c-88.7,0-160.9-72.2-160.9-160.9c0-88.6,72.1-160.7,160.9-160.7C332.9,87.9,405,160,405,248.6
		C405,337.3,332.9,409.4,244.3,409.4z M475.4,269.4c0-20.8,0-20.8,0-20.8c0-20.7,0-20.7,0-20.7c-39.8-6.5-39.8-6.5-39.8-6.5
		c-1-7.1-2.4-13.9-4.1-20.7c34.3-21.3,34.3-21.3,34.3-21.3c-8-19.2-8-19.2-8-19.2c-8-19.2-8-19.2-8-19.2
		c-39.2,9.3-39.2,9.3-39.2,9.3c-3.7-6.1-7.5-12-11.8-17.6c23.7-32.8,23.7-32.8,23.7-32.8c-14.8-14.6-14.8-14.6-14.8-14.6
		c-14.6-14.8-14.6-14.8-14.6-14.8c-32.8,23.7-32.8,23.7-32.8,23.7c-5.6-4.3-11.4-8.1-17.6-11.8c9.3-39.2,9.3-39.2,9.3-39.2
		c-19.2-8-19.2-8-19.2-8c-19.2-8-19.2-8-19.2-8c-21.3,34.3-21.3,34.3-21.3,34.3c-6.7-1.8-13.6-3.1-20.7-4.1
		C265,17.5,265,17.5,265,17.5c-20.7,0-20.7,0-20.7,0c-20.9,0-20.9,0-20.9,0C217,57.3,217,57.3,217,57.3c-7.1,1-13.9,2.4-20.7,4.1
		C175,27.1,175,27.1,175,27.1c-19.2,8-19.2,8-19.2,8c-19.2,8-19.2,8-19.2,8c9.3,39.2,9.3,39.2,9.3,39.2c-6.1,3.7-12,7.5-17.6,11.8
		C95.4,70.4,95.4,70.4,95.4,70.4C80.8,85.2,80.8,85.2,80.8,85.2C66.2,99.8,66.2,99.8,66.2,99.8c23.5,32.8,23.5,32.8,23.5,32.8
		c-4.3,5.6-8.1,11.5-11.8,17.6c-39.2-9.3-39.2-9.3-39.2-9.3c-8,19.2-8,19.2-8,19.2c-8,19.2-8,19.2-8,19.2
		C57,200.7,57,200.7,57,200.7c-1.8,6.8-3.1,13.6-4.1,20.7c-39.8,6.5-39.8,6.5-39.8,6.5c0,20.7,0,20.7,0,20.7c0,20.8,0,20.8,0,20.8
		c39.8,6.5,39.8,6.5,39.8,6.5c1,7.1,2.4,13.9,4.1,20.7c-34.3,21.3-34.3,21.3-34.3,21.3c8,19.2,8,19.2,8,19.2c8,19.2,8,19.2,8,19.2
		c39.2-9.3,39.2-9.3,39.2-9.3c3.7,6.1,7.5,12,11.8,17.6c-23.5,32.8-23.5,32.8-23.5,32.8c14.6,14.6,14.6,14.6,14.6,14.6
		c14.6,14.6,14.6,14.6,14.6,14.6c32.8-23.5,32.8-23.5,32.8-23.5c5.6,4.3,11.5,8.1,17.6,11.8c-9.3,39.2-9.3,39.2-9.3,39.2
		c19.2,8,19.2,8,19.2,8c19.2,8,19.2,8,19.2,8c21.3-34.3,21.3-34.3,21.3-34.3c6.8,1.8,13.6,3.1,20.7,4.1c6.5,39.8,6.5,39.8,6.5,39.8
		c20.9,0,20.9,0,20.9,0c20.7,0,20.7,0,20.7,0c6.5-39.8,6.5-39.8,6.5-39.8c7.1-1,14-2.4,20.7-4.1c21.3,34.3,21.3,34.3,21.3,34.3
		c19.2-8,19.2-8,19.2-8c19.2-8,19.2-8,19.2-8c-9.3-39.2-9.3-39.2-9.3-39.2c6.2-3.7,12-7.5,17.6-11.8c32.8,23.5,32.8,23.5,32.8,23.5
		c14.6-14.6,14.6-14.6,14.6-14.6c14.8-14.6,14.8-14.6,14.8-14.6c-23.7-32.8-23.7-32.8-23.7-32.8c4.3-5.6,8.1-11.5,11.8-17.6
		c39.2,9.3,39.2,9.3,39.2,9.3c8-19.2,8-19.2,8-19.2c8-19.2,8-19.2,8-19.2c-34.3-21.3-34.3-21.3-34.3-21.3c1.8-6.8,3.1-13.6,4.1-20.7
		L475.4,269.4z"/>
	<path class="st1" d="M244.3,108c-77.6,0-140.8,63.1-140.8,140.6c0,77.6,63.1,140.7,140.8,140.7c77.5,0,140.6-63.1,140.6-140.7
		C384.9,171.1,321.8,108,244.3,108z"/>
	<rect x="159" y="180.7" class="st0" width="175.2" height="9.8"/>
	<rect x="159" y="244" class="st0" width="175.2" height="9.8"/>
	<rect x="159" y="307.3" class="st0" width="175.2" height="9.8"/>
	<path class="st0" d="M300.2,248.9c0,13.5-10.9,24.2-24.4,24.2c-13.5,0-24.2-10.8-24.2-24.2c0-13.5,10.8-24.4,24.2-24.4
		C289.3,224.5,300.2,235.4,300.2,248.9z"/>
	<path class="st0" d="M227.2,185.6c0,13.5-10.9,24.2-24.2,24.2c-13.5,0-24.4-10.8-24.4-24.2c0-13.5,10.9-24.4,24.4-24.4
		C216.2,161.2,227.2,172.1,227.2,185.6z"/>
	<path class="st0" d="M227.2,312.2c0,13.5-10.9,24.2-24.2,24.2c-13.5,0-24.4-10.8-24.4-24.2c0-13.5,10.9-24.4,24.4-24.4
		C216.2,287.8,227.2,298.7,227.2,312.2z"/>
</g>
<g id="Generic_-_Virtual_Machine">
</g>
<g id="Generic_-_Server_Single">
</g>
<g id="Generic_-_Server_Multi">
</g>
<g id="Generic_-_Router">
</g>
<g id="Generic_-_Firewall">
</g>
<g id="Wi-Fi_Signal">
</g>
<g id="Generic_-_Cloud_Function_Container_Grey">
</g>
<g id="Generic_-_Cloud_Function_Container_White">
</g>
<g id="Generic_-_Cloud_Internet_Circuit">
</g>
<g id="Generic_-_Cloud_Private_Circuit">
</g>
<g id="Generic_-_Cloud">
</g>
<g id="Client_-_IOT_Sensor">
</g>
<g id="Client_-_IOT_IO">
</g>
<g id="Client_-_IOT_PLC">
</g>
<g id="Client_-_IOT_Patient_Monitor">
</g>
<g id="Client_-_IOT_Camera">
</g>
<g id="Client_-_IOT_Scanner">
</g>
<g id="IOT_-_TV_Cast">
</g>
<g id="Client_-_Printer">
</g>
<g id="Client_-_Game_Console">
</g>
<g id="Client_-_IP_Phone">
</g>
<g id="Client_-_Laptop">
</g>
<g id="Client_-_Desktop">
</g>
<g id="Client_-_Workstation">
</g>
<g id="Client_-_Tablet">
</g>
<g id="Client_-_Mobile_2">
</g>
<g id="Client_-_Mobile_1">
</g>
<g id="Device_-_EdgeConnect_Enterprise_Cloud">
</g>
<g id="Device_-_EdgeConnect_Enterprise_Virtual">
</g>
<g id="Device_-_EdgeConnect_Enterprise_Appliance">
</g>
<g id="Device_-_Core_Agg_Leaf_Switch">
</g>
<g id="Device_-_Access_Switch">
</g>
<g id="Device_-_Gateway_Headend">
</g>
<g id="Device_-_Gateway_Branch">
</g>
<g id="Device_-_Gateway_Campus">
</g>
<g id="Device_-_UXI_Sensor_New">
</g>
<g id="Device_-_UXI_Sensor">
</g>
<g id="Device_-_AP500_Series_Microbranch">
</g>
<g id="Device_-_AP600_Series">
</g>
<g id="Device_-_AP500_Series">
</g>
<g id="Device_-_Outdoor_AP">
</g>
</svg>
