<?xml version="1.0" encoding="utf-8"?>
<!-- Generator: Adobe Illustrator 26.3.1, SVG Export Plug-In . SVG Version: 6.00 Build 0)  -->
<svg version="1.1" xmlns="http://www.w3.org/2000/svg" xmlns:xlink="http://www.w3.org/1999/xlink" x="0px" y="0px"
	 viewBox="0 0 500 500" style="enable-background:new 0 0 500 500;" xml:space="preserve">
<style type="text/css">
	.st0{fill:#FFFFFF;}
	.st1{fill:#FF8300;}
	.st2{fill:#F78200;}
	.st3{fill:#F7931E;}
	.st4{fill:#5D5D5D;}
	.st5{fill:#FFFFFF;stroke:#65656A;stroke-width:12;stroke-miterlimit:10;}
	.st6{display:none;fill:#979797;stroke:#979797;stroke-width:3;stroke-linecap:round;stroke-linejoin:round;stroke-miterlimit:10;}
	.st7{fill:#979797;}
	.st8{fill:#65656A;}
	.st9{stroke:#009245;stroke-width:3;stroke-miterlimit:10;}
	.st10{fill:#F58220;}
	.st11{clip-path:url(#SVGID_00000125561675807196801240000002439766291416983473_);fill:#5E5E5E;}
	.st12{clip-path:url(#SVGID_00000098186354359478051300000009001200181499411861_);fill:#FFFFFF;}
	.st13{clip-path:url(#SVGID_00000155859380601379101470000009416857913430201996_);fill:#FFFFFF;}
	.st14{clip-path:url(#SVGID_00000155859380601379101470000009416857913430201996_);fill:#FF8300;}
	.st15{clip-path:url(#SVGID_00000145046808068875018500000004293437640673723787_);fill:#FFFFFF;}
	.st16{clip-path:url(#SVGID_00000145046808068875018500000004293437640673723787_);fill:#ADE1F0;}
	.st17{clip-path:url(#SVGID_00000173146257864969510710000008592501081675660431_);fill:#65656A;}
	.st18{clip-path:url(#SVGID_00000173146257864969510710000008592501081675660431_);fill:#646569;}
	.st19{clip-path:url(#SVGID_00000173146257864969510710000008592501081675660431_);fill:#D0D0D2;}
	.st20{clip-path:url(#SVGID_00000054966356283680155370000008951947608049378189_);fill:#FFFFFF;}
	.st21{clip-path:url(#SVGID_00000054966356283680155370000008951947608049378189_);fill:#646569;}
	.st22{clip-path:url(#SVGID_00000054966356283680155370000008951947608049378189_);fill:#65656A;}
	
		.st23{clip-path:url(#SVGID_00000086692286480869170780000012055290437842362301_);fill:#FFFFFF;stroke:#000000;stroke-miterlimit:10;}
	.st24{clip-path:url(#SVGID_00000086692286480869170780000012055290437842362301_);fill:#646569;}
	.st25{clip-path:url(#SVGID_00000086692286480869170780000012055290437842362301_);fill:#65656A;}
	
		.st26{clip-path:url(#SVGID_00000086692286480869170780000012055290437842362301_);fill:none;stroke:#65656A;stroke-width:0.1925;stroke-linecap:round;stroke-linejoin:round;stroke-miterlimit:10;}
	.st27{clip-path:url(#SVGID_00000074402506501183791000000017871507861767600038_);fill:#FFFFFF;}
	.st28{clip-path:url(#SVGID_00000074402506501183791000000017871507861767600038_);fill:#65656A;}
	.st29{clip-path:url(#SVGID_00000074402506501183791000000017871507861767600038_);fill:#646569;}
	.st30{clip-path:url(#SVGID_00000017490374035883659670000016275722175435303612_);fill:#FFFFFF;}
	.st31{clip-path:url(#SVGID_00000017490374035883659670000016275722175435303612_);fill:#646569;}
	.st32{clip-path:url(#SVGID_00000140710918164947486030000010458449732125337728_);fill:#FFFFFF;}
	.st33{clip-path:url(#SVGID_00000140710918164947486030000010458449732125337728_);fill:#65656A;}
	.st34{clip-path:url(#SVGID_00000140710918164947486030000010458449732125337728_);fill:#646569;}
	.st35{fill:#646569;}
	.st36{clip-path:url(#SVGID_00000162338980175397447090000004416066265062450598_);fill:#FFFFFF;}
	.st37{clip-path:url(#SVGID_00000162338980175397447090000004416066265062450598_);fill:#65666A;}
	
		.st38{clip-path:url(#SVGID_00000162338980175397447090000004416066265062450598_);fill:none;stroke:#65666A;stroke-width:0.1748;stroke-miterlimit:10;}
	.st39{clip-path:url(#SVGID_00000024706534164186088160000014683404125427662979_);fill:#FFFFFF;}
	.st40{clip-path:url(#SVGID_00000024706534164186088160000014683404125427662979_);fill:#646569;}
	.st41{fill:none;stroke:#65656A;stroke-width:3;stroke-miterlimit:10;}
	.st42{fill:#EC8020;}
	.st43{fill:#ED8020;}
	.st44{fill:none;stroke:#65656A;stroke-width:3;stroke-linecap:round;stroke-miterlimit:10;}
	.st45{fill:none;stroke:#646569;stroke-width:10;stroke-linejoin:round;stroke-miterlimit:10;}
	.st46{fill:none;stroke:#646569;stroke-width:10;stroke-miterlimit:10;}
	.st47{fill:none;stroke:#646569;stroke-width:10;stroke-linecap:round;stroke-miterlimit:10;}
	.st48{fill:none;stroke:#65656A;stroke-width:8;stroke-linecap:round;stroke-miterlimit:10;}
	.st49{fill:#FFFFFF;stroke:#65656A;stroke-width:8;stroke-linecap:round;stroke-linejoin:round;stroke-miterlimit:10;}
	.st50{fill:none;stroke:#65656A;stroke-width:8;stroke-miterlimit:10;}
</style>
<g id="Function_-_Central_APIs">
</g>
<g id="Function_-_Central_Route_Orchestrator">
</g>
<g id="Function_-_Central_Tunnel_Orchestrator">
</g>
<g id="Function_-_Central_NetConductor">
	<circle class="st0" cx="250" cy="250" r="183"/>
	<path class="st1" d="M247,411c-90,0-162.7-73.2-162.7-162.7c0-90,72.7-162.7,162.7-162.7c89.5,0,162.7,72.7,162.7,162.7
		C409.7,337.8,336.6,411,247,411z M480.6,269.1c0-20.8,0-20.8,0-20.8c0-21.3,0-21.3,0-21.3c-40.3-6.6-40.3-6.6-40.3-6.6
		c-0.9-7.1-2.2-13.7-4-20.8c34.6-21.3,34.6-21.3,34.6-21.3c-8-19.5-8-19.5-8-19.5c-8-19.5-8-19.5-8-19.5
		c-39.9,9.3-39.9,9.3-39.9,9.3c-3.5-6.2-7.5-12-12-17.7C427,97.5,427,97.5,427,97.5c-14.6-14.6-14.6-14.6-14.6-14.6
		c-15.1-15.1-15.1-15.1-15.1-15.1C364,91.7,364,91.7,364,91.7c-5.3-4.4-11.5-8.4-17.7-12c9.3-39.9,9.3-39.9,9.3-39.9
		c-19.1-8-19.1-8-19.1-8c-19.5-8-19.5-8-19.5-8c-21.7,34.6-21.7,34.6-21.7,34.6c-6.6-1.8-13.7-3.1-20.8-4
		c-6.7-40.4-6.7-40.4-6.7-40.4c-20.8,0-20.8,0-20.8,0c-21.3,0-21.3,0-21.3,0c-6.7,40.4-6.7,40.4-6.7,40.4c-7.1,0.9-13.7,2.2-20.8,4
		C177,23.9,177,23.9,177,23.9c-19.5,8-19.5,8-19.5,8c-19.5,8-19.5,8-19.5,8c9.3,39.9,9.3,39.9,9.3,39.9c-6.2,3.5-12,7.5-17.7,12
		C96.3,67.8,96.3,67.8,96.3,67.8C81.6,82.9,81.6,82.9,81.6,82.9C66.6,97.5,66.6,97.5,66.6,97.5c23.9,33.3,23.9,33.3,23.9,33.3
		c-4.4,5.8-8.4,11.5-12,17.7c-39.9-9.3-39.9-9.3-39.9-9.3c-8,19.5-8,19.5-8,19.5c-8,19.5-8,19.5-8,19.5
		c34.6,21.3,34.6,21.3,34.6,21.3c-1.8,7.1-3.1,13.7-4,20.8C12.9,227,12.9,227,12.9,227c0,21.3,0,21.3,0,21.3c0,20.8,0,20.8,0,20.8
		c40.3,6.6,40.3,6.6,40.3,6.6c0.9,7.1,2.2,14.2,4,20.8c-34.6,21.7-34.6,21.7-34.6,21.7c8,19.5,8,19.5,8,19.5c8,19.1,8,19.1,8,19.1
		c39.9-9.3,39.9-9.3,39.9-9.3c3.5,6.2,7.5,12.4,12,18.2c-23.9,32.8-23.9,32.8-23.9,32.8c15.1,15.1,15.1,15.1,15.1,15.1
		c14.6,14.6,14.6,14.6,14.6,14.6c33.3-23.5,33.3-23.5,33.3-23.5c5.8,4,11.5,8,17.7,11.5c-9.3,39.9-9.3,39.9-9.3,39.9
		c19.5,8,19.5,8,19.5,8c19.5,8,19.5,8,19.5,8c21.3-34.6,21.3-34.6,21.3-34.6c7.1,1.8,13.7,3.1,20.8,4c6.7,40.3,6.7,40.3,6.7,40.3
		c21.3,0,21.3,0,21.3,0c20.8,0,20.8,0,20.8,0c6.7-40.3,6.7-40.3,6.7-40.3c7.1-0.9,14.2-2.2,20.8-4c21.7,34.6,21.7,34.6,21.7,34.6
		c19.5-8,19.5-8,19.5-8c19.1-8,19.1-8,19.1-8c-9.3-39.9-9.3-39.9-9.3-39.9c6.2-3.5,12.4-7.5,17.7-11.5
		c33.3,23.5,33.3,23.5,33.3,23.5c15.1-14.6,15.1-14.6,15.1-14.6c14.6-15.1,14.6-15.1,14.6-15.1c-23.9-32.8-23.9-32.8-23.9-32.8
		c4.4-5.8,8.4-12,12-18.2c39.9,9.3,39.9,9.3,39.9,9.3c8-19.1,8-19.1,8-19.1c8-19.5,8-19.5,8-19.5c-34.6-21.7-34.6-21.7-34.6-21.7
		c1.8-6.7,3.1-13.7,4-20.8L480.6,269.1z"/>
	<path class="st1" d="M247,105.9c-78.5,0-142.8,63.8-142.8,142.3S168.5,390.6,247,390.6s142.3-63.8,142.3-142.3
		S325.5,105.9,247,105.9z"/>
	<path class="st0" d="M247.9,132.1h-0.4c-9.8,0-17.7,3.5-23.1,9.3c-5.3,6.2-8,15.5-6.7,25.7c1.3,9.8,4.9,19.1,10.2,25.7
		c3.5,4.4,9.8,9.8,19.5,9.8c9.3,0,16-5.3,19.5-9.8c5.3-6.6,8.9-16,10.2-25.7c0.9-10.6-1.3-19.9-7.1-26.2
		C264.7,135.2,257.2,132.1,247.9,132.1z M247.5,212.8c-10.6,0-20-4.9-27.5-13.7c-6.2-8-10.6-19.1-12-31c-1.3-12.9,1.8-24.4,8.9-32.8
		c7.5-8.4,17.7-12.9,30.6-12.9c12.4,0,22.6,4,29.7,12c8,8.4,11.1,20.4,9.8,33.7c-1.8,12-5.8,23-12.4,31
		C267.4,207.9,258.1,212.8,247.5,212.8z"/>
	<path class="st0" d="M319.3,282.4v0.4c-20.4,0-20.4,0-20.4,0c-0.5,0-0.5,0-0.5,0.4c0-10.6-0.9-17.7-0.9-17.7
		c-39.5,0.9-50.1-11.5-50.1-11.5s-11.1,12.4-50.1,11.5c0,0-0.9,7.1-0.9,17.3c-21.3,0-21.3,0-21.3,0v-0.4c0-17.3,0-31,5.3-40.4
		c3.6-6.2,11.1-13.7,36.8-18.2c9.3,6.2,19.5,9.3,30.2,9.3c10.6,0,20.8-3.1,30.1-9.3c25.7,4.4,32.8,12,36.8,18.2
		C319.7,251.4,319.7,265.1,319.3,282.4z M277.2,214.1c-1.3-0.4-2.7,0-4,0.9c-7.5,5.3-16.4,8.4-25.7,8.4c-9.3,0-18.2-3.1-26.2-8.4
		c-0.9-0.9-2.2-1.3-3.6-0.9c-52.3,8-52.3,31.9-52.3,68.3c0,1.8,0,3.5,0,5.8c0,2.7,2.2,4.9,4.9,4.9c26.6,0,26.6,0,26.6,0
		c1.8,27.1,11.5,65.6,50.5,74.5c38.6-8.9,48.3-47.4,50.5-74.9c0,0.4,0.4,0.4,0.9,0.4c25.7,0,25.7,0,25.7,0c2.7,0,4.9-2.2,4.9-4.9
		c0-2.2,0-4,0-5.8C329.5,246,329.5,222.1,277.2,214.1z"/>
	<path class="st2" d="M242.1,335.6c-1.3,0-3.1-0.9-4-2.2c-13.3-18.6-13.3-18.6-13.3-18.6c-1.8-2.2-0.9-5.3,0.9-7.1
		c2.2-1.3,5.3-0.9,7.1,1.3c9.3,12.9,9.3,12.9,9.3,12.9c20-31.5,20-31.5,20-31.5c1.3-2.2,4.4-3.1,6.6-1.3c2.2,1.3,3.1,4.4,1.8,6.7
		c-23.9,37.7-23.9,37.7-23.9,37.7c-0.9,1.3-2.7,2.2-4,2.2C242.1,335.6,242.1,335.6,242.1,335.6z"/>
</g>
<g id="Function_-_Central_Network_Management">
</g>
<g id="Function_-_Central_Network_Insights">
</g>
<g id="Function_-_Central_Client_Insights">
</g>
<g id="Function_-_ClearPass_Policy_Manager">
</g>
<g id="Function_-_UXI_APIs">
</g>
<g id="Function_-_UXI_Dashboard">
</g>
<g id="Function_-_Orchestrator_Global_Enterprise">
</g>
<g id="Function_-_Orchestrator">
</g>
<g id="Function_-_Pensando_Policy_and_Services_Manager">
</g>
<g id="Function_-_Fabric_Composer">
</g>
<g id="Generic_-_Virtual_Machine">
</g>
<g id="Generic_-_Server_Single">
</g>
<g id="Generic_-_Server_Multi">
</g>
<g id="Generic_-_Router">
</g>
<g id="Generic_-_Firewall">
</g>
<g id="Wi-Fi_Signal">
</g>
<g id="Generic_-_Cloud_Function_Container_Grey">
</g>
<g id="Generic_-_Cloud_Function_Container_White">
</g>
<g id="Generic_-_Cloud_Internet_Circuit">
</g>
<g id="Generic_-_Cloud_Private_Circuit">
</g>
<g id="Generic_-_Cloud">
</g>
<g id="Client_-_IOT_Sensor">
</g>
<g id="Client_-_IOT_IO">
</g>
<g id="Client_-_IOT_PLC">
</g>
<g id="Client_-_IOT_Patient_Monitor">
</g>
<g id="Client_-_IOT_Camera">
</g>
<g id="Client_-_IOT_Scanner">
</g>
<g id="IOT_-_TV_Cast">
</g>
<g id="Client_-_Printer">
</g>
<g id="Client_-_Game_Console">
</g>
<g id="Client_-_IP_Phone">
</g>
<g id="Client_-_Laptop">
</g>
<g id="Client_-_Desktop">
</g>
<g id="Client_-_Workstation">
</g>
<g id="Client_-_Tablet">
</g>
<g id="Client_-_Mobile_2">
</g>
<g id="Client_-_Mobile_1">
</g>
<g id="Device_-_EdgeConnect_Enterprise_Cloud">
</g>
<g id="Device_-_EdgeConnect_Enterprise_Virtual">
</g>
<g id="Device_-_EdgeConnect_Enterprise_Appliance">
</g>
<g id="Device_-_Core_Agg_Leaf_Switch">
</g>
<g id="Device_-_Access_Switch">
</g>
<g id="Device_-_Gateway_Headend">
</g>
<g id="Device_-_Gateway_Branch">
</g>
<g id="Device_-_Gateway_Campus">
</g>
<g id="Device_-_UXI_Sensor_New">
</g>
<g id="Device_-_UXI_Sensor">
</g>
<g id="Device_-_AP500_Series_Microbranch">
</g>
<g id="Device_-_AP600_Series">
</g>
<g id="Device_-_AP500_Series">
</g>
<g id="Device_-_Outdoor_AP">
</g>
</svg>
