<?xml version="1.0" encoding="utf-8"?>
<!-- Generator: Adobe Illustrator 26.3.1, SVG Export Plug-In . SVG Version: 6.00 Build 0)  -->
<svg version="1.1" xmlns="http://www.w3.org/2000/svg" xmlns:xlink="http://www.w3.org/1999/xlink" x="0px" y="0px"
	 viewBox="0 0 500 500" style="enable-background:new 0 0 500 500;" xml:space="preserve">
<style type="text/css">
	.st0{fill:#FFFFFF;}
	.st1{fill:#FF8300;}
	.st2{fill:#F78200;}
	.st3{fill:#F7931E;}
	.st4{fill:#5D5D5D;}
	.st5{fill:#FFFFFF;stroke:#65656A;stroke-width:12;stroke-miterlimit:10;}
	.st6{display:none;fill:#979797;stroke:#979797;stroke-width:3;stroke-linecap:round;stroke-linejoin:round;stroke-miterlimit:10;}
	.st7{fill:#979797;}
	.st8{fill:#65656A;}
	.st9{stroke:#009245;stroke-width:3;stroke-miterlimit:10;}
	.st10{fill:#F58220;}
	.st11{clip-path:url(#SVGID_00000152238896057364846340000011027123215376286382_);fill:#5E5E5E;}
	.st12{clip-path:url(#SVGID_00000066493802529389782040000008140621747482085251_);fill:#FFFFFF;}
	.st13{clip-path:url(#SVGID_00000183231794838756801190000011725353722898700687_);fill:#FFFFFF;}
	.st14{clip-path:url(#SVGID_00000183231794838756801190000011725353722898700687_);fill:#FF8300;}
	.st15{clip-path:url(#SVGID_00000042000500248272596630000008052302283645659525_);fill:#FFFFFF;}
	.st16{clip-path:url(#SVGID_00000042000500248272596630000008052302283645659525_);fill:#ADE1F0;}
	.st17{clip-path:url(#SVGID_00000170967453958670478130000002702385383380445371_);fill:#65656A;}
	.st18{clip-path:url(#SVGID_00000170967453958670478130000002702385383380445371_);fill:#646569;}
	.st19{clip-path:url(#SVGID_00000170967453958670478130000002702385383380445371_);fill:#D0D0D2;}
	.st20{clip-path:url(#SVGID_00000057826644954383077990000008687413841616685971_);fill:#FFFFFF;}
	.st21{clip-path:url(#SVGID_00000057826644954383077990000008687413841616685971_);fill:#646569;}
	.st22{clip-path:url(#SVGID_00000057826644954383077990000008687413841616685971_);fill:#65656A;}
	
		.st23{clip-path:url(#SVGID_00000036210076134395161670000003520105138041649551_);fill:#FFFFFF;stroke:#000000;stroke-miterlimit:10;}
	.st24{clip-path:url(#SVGID_00000036210076134395161670000003520105138041649551_);fill:#646569;}
	.st25{clip-path:url(#SVGID_00000036210076134395161670000003520105138041649551_);fill:#65656A;}
	
		.st26{clip-path:url(#SVGID_00000036210076134395161670000003520105138041649551_);fill:none;stroke:#65656A;stroke-width:0.1925;stroke-linecap:round;stroke-linejoin:round;stroke-miterlimit:10;}
	.st27{clip-path:url(#SVGID_00000094582560503312142070000017455384205198116266_);fill:#FFFFFF;}
	.st28{clip-path:url(#SVGID_00000094582560503312142070000017455384205198116266_);fill:#65656A;}
	.st29{clip-path:url(#SVGID_00000094582560503312142070000017455384205198116266_);fill:#646569;}
	.st30{clip-path:url(#SVGID_00000143614452854249313930000000128025757864059579_);fill:#FFFFFF;}
	.st31{clip-path:url(#SVGID_00000143614452854249313930000000128025757864059579_);fill:#646569;}
	.st32{clip-path:url(#SVGID_00000021830057293043054900000008150004681783409323_);fill:#FFFFFF;}
	.st33{clip-path:url(#SVGID_00000021830057293043054900000008150004681783409323_);fill:#65656A;}
	.st34{clip-path:url(#SVGID_00000021830057293043054900000008150004681783409323_);fill:#646569;}
	.st35{fill:#646569;}
	.st36{clip-path:url(#SVGID_00000103952836172687637980000016038711023112947338_);fill:#FFFFFF;}
	.st37{clip-path:url(#SVGID_00000103952836172687637980000016038711023112947338_);fill:#65666A;}
	
		.st38{clip-path:url(#SVGID_00000103952836172687637980000016038711023112947338_);fill:none;stroke:#65666A;stroke-width:0.1748;stroke-miterlimit:10;}
	.st39{clip-path:url(#SVGID_00000108280196740398758470000002200101852334984092_);fill:#FFFFFF;}
	.st40{clip-path:url(#SVGID_00000108280196740398758470000002200101852334984092_);fill:#646569;}
	.st41{fill:none;stroke:#65656A;stroke-width:3;stroke-miterlimit:10;}
	.st42{fill:#EC8020;}
	.st43{fill:#ED8020;}
	.st44{fill:none;stroke:#65656A;stroke-width:3;stroke-linecap:round;stroke-miterlimit:10;}
	.st45{fill:none;stroke:#646569;stroke-width:10;stroke-linejoin:round;stroke-miterlimit:10;}
	.st46{fill:none;stroke:#646569;stroke-width:10;stroke-miterlimit:10;}
	.st47{fill:none;stroke:#646569;stroke-width:10;stroke-linecap:round;stroke-miterlimit:10;}
	.st48{fill:none;stroke:#65656A;stroke-width:8;stroke-linecap:round;stroke-miterlimit:10;}
	.st49{fill:#FFFFFF;stroke:#65656A;stroke-width:8;stroke-linecap:round;stroke-linejoin:round;stroke-miterlimit:10;}
	.st50{fill:none;stroke:#65656A;stroke-width:8;stroke-miterlimit:10;}
</style>
<g id="Function_-_Central_APIs">
</g>
<g id="Function_-_Central_Route_Orchestrator">
</g>
<g id="Function_-_Central_Tunnel_Orchestrator">
</g>
<g id="Function_-_Central_NetConductor">
</g>
<g id="Function_-_Central_Network_Management">
</g>
<g id="Function_-_Central_Network_Insights">
</g>
<g id="Function_-_Central_Client_Insights">
</g>
<g id="Function_-_ClearPass_Policy_Manager">
</g>
<g id="Function_-_UXI_APIs">
</g>
<g id="Function_-_UXI_Dashboard">
</g>
<g id="Function_-_Orchestrator_Global_Enterprise">
</g>
<g id="Function_-_Orchestrator">
	<circle class="st0" cx="250" cy="250" r="183"/>
	<path class="st1" d="M250.1,410.8c-88.7,0-160.9-72.2-160.9-160.9c0-88.6,72.1-160.7,160.9-160.7c88.6,0,160.7,72.2,160.7,160.7
		C410.8,338.6,338.6,410.8,250.1,410.8z M481.2,270.8c0-20.8,0-20.8,0-20.8c0-20.7,0-20.7,0-20.7c-39.8-6.5-39.8-6.5-39.8-6.5
		c-1-7.1-2.4-13.9-4.1-20.7c34.3-21.3,34.3-21.3,34.3-21.3c-8-19.2-8-19.2-8-19.2c-8-19.2-8-19.2-8-19.2
		c-39.2,9.3-39.2,9.3-39.2,9.3c-3.7-6.1-7.5-12-11.8-17.6c23.7-32.8,23.7-32.8,23.7-32.8c-14.8-14.6-14.8-14.6-14.8-14.6
		c-14.6-14.8-14.6-14.8-14.6-14.8C366,95.4,366,95.4,366,95.4c-5.6-4.3-11.4-8.1-17.6-11.8c9.3-39.2,9.3-39.2,9.3-39.2
		c-19.2-8-19.2-8-19.2-8c-19.2-8-19.2-8-19.2-8C298,62.7,298,62.7,298,62.7c-6.7-1.8-13.6-3.1-20.7-4.1c-6.5-39.8-6.5-39.8-6.5-39.8
		c-20.7,0-20.7,0-20.7,0c-20.9,0-20.9,0-20.9,0c-6.5,39.8-6.5,39.8-6.5,39.8c-7.1,1-13.9,2.4-20.7,4.1
		c-21.3-34.3-21.3-34.3-21.3-34.3c-19.2,8-19.2,8-19.2,8c-19.2,8-19.2,8-19.2,8c9.3,39.2,9.3,39.2,9.3,39.2
		c-6.1,3.7-12,7.5-17.6,11.8c-32.8-23.7-32.8-23.7-32.8-23.7C86.6,86.6,86.6,86.6,86.6,86.6c-14.6,14.6-14.6,14.6-14.6,14.6
		C95.4,134,95.4,134,95.4,134c-4.3,5.6-8.1,11.5-11.8,17.6c-39.2-9.3-39.2-9.3-39.2-9.3c-8,19.2-8,19.2-8,19.2
		c-8,19.2-8,19.2-8,19.2C62.8,202,62.8,202,62.8,202c-1.8,6.8-3.1,13.6-4.1,20.7c-39.8,6.5-39.8,6.5-39.8,6.5c0,20.7,0,20.7,0,20.7
		c0,20.8,0,20.8,0,20.8c39.8,6.5,39.8,6.5,39.8,6.5c1,7.1,2.4,13.9,4.1,20.7c-34.3,21.3-34.3,21.3-34.3,21.3c8,19.2,8,19.2,8,19.2
		c8,19.2,8,19.2,8,19.2c39.2-9.3,39.2-9.3,39.2-9.3c3.7,6.1,7.5,12,11.8,17.6c-23.5,32.8-23.5,32.8-23.5,32.8
		c14.6,14.6,14.6,14.6,14.6,14.6c14.6,14.6,14.6,14.6,14.6,14.6c32.8-23.5,32.8-23.5,32.8-23.5c5.6,4.3,11.5,8.1,17.6,11.8
		c-9.3,39.2-9.3,39.2-9.3,39.2c19.2,8,19.2,8,19.2,8c19.2,8,19.2,8,19.2,8c21.3-34.3,21.3-34.3,21.3-34.3c6.8,1.8,13.6,3.1,20.7,4.1
		c6.5,39.8,6.5,39.8,6.5,39.8c20.9,0,20.9,0,20.9,0c20.7,0,20.7,0,20.7,0c6.5-39.8,6.5-39.8,6.5-39.8c7.1-1,14-2.4,20.7-4.1
		c21.3,34.3,21.3,34.3,21.3,34.3c19.2-8,19.2-8,19.2-8c19.2-8,19.2-8,19.2-8c-9.3-39.2-9.3-39.2-9.3-39.2c6.2-3.7,12-7.5,17.6-11.8
		c32.8,23.5,32.8,23.5,32.8,23.5c14.6-14.6,14.6-14.6,14.6-14.6c14.8-14.6,14.8-14.6,14.8-14.6C404.6,366,404.6,366,404.6,366
		c4.3-5.6,8.1-11.5,11.8-17.6c39.2,9.3,39.2,9.3,39.2,9.3c8-19.2,8-19.2,8-19.2c8-19.2,8-19.2,8-19.2C437.2,298,437.2,298,437.2,298
		c1.8-6.8,3.1-13.6,4.1-20.7L481.2,270.8z"/>
	<path class="st1" d="M250.1,109.3c-77.6,0-140.8,63.1-140.8,140.6c0,77.6,63.1,140.7,140.8,140.7c77.5,0,140.6-63.1,140.6-140.7
		C390.7,172.5,327.6,109.3,250.1,109.3z"/>
	<g>
		<path class="st0" d="M180.9,231.2c-1.8,0-3.5-1.3-3.9-3.3c-0.9-5.3-2-11-2.9-14.8c-14.7,7.7-14.7,7.7-14.7,7.7
			c-1.8,0.9-4.2,0.2-5.1-1.6c-1.1-2-0.4-4.4,1.5-5.3c18.9-9.9,18.9-9.9,18.9-9.9c1.1-0.7,2.4-0.7,3.5-0.2c2.2,0.9,2.6,1.3,6.6,22.9
			c0.5,2-0.9,4-3.1,4.6C181.5,231.2,181.3,231.2,180.9,231.2z"/>
		<path class="st0" d="M175.4,298.3c-1.3,0-2.6-0.7-3.3-2c-7.5-13.4-11.5-28.8-11.5-44.2c0-14.7,3.7-29.1,10.3-42
			c1.1-1.8,3.3-2.6,5.3-1.6c1.8,0.9,2.7,3.3,1.6,5.3c-6,11.7-9.3,24.9-9.3,38.3c0,14.1,3.7,28,10.4,40.3c1.1,2,0.4,4.4-1.5,5.3
			C176.7,298.1,176.2,298.3,175.4,298.3z"/>
		<path class="st0" d="M273.6,184.1c-1.8,0-3.5-1.3-3.8-3.1c-0.4-2.2,0.9-4.2,3.1-4.6c5.3-1.1,11.2-2.2,14.8-3.1
			c-7.5-14.5-7.5-14.5-7.5-14.5c-1.1-2-0.4-4.4,1.5-5.3c2-1.1,4.4-0.4,5.3,1.6C297,174,297,174,297,174c0.5,1.1,0.5,2.4,0,3.5
			c-0.9,2-1.1,2.6-22.7,6.6C274,184.1,273.8,184.1,273.6,184.1z"/>
		<path class="st0" d="M206.6,178.6c-1.5,0-2.7-0.7-3.5-2c-1.1-1.8-0.4-4.2,1.5-5.3c13.4-7.5,28.8-11.4,44.1-11.4
			c14.7,0,29.1,3.5,41.9,10.1c2,1.1,2.7,3.5,1.6,5.3c-0.9,2-3.3,2.8-5.3,1.6c-11.7-6-24.9-9.2-38.3-9.2c-14.1,0-28,3.5-40.3,10.3
			C207.8,178.4,207.1,178.6,206.6,178.6z"/>
		<path class="st0" d="M323.1,298.3c-0.5,0-1.1,0-1.7-0.4c-2.2-1.1-2.6-1.3-6-22.9c-0.4-2.2,1.1-4.2,3.3-4.6
			c2.2-0.4,4.2,1.1,4.6,3.3c0.7,5.3,1.8,11.2,2.4,15c14.8-7.1,14.8-7.1,14.8-7.1c2-1.1,4.4-0.2,5.3,1.6c0.9,2,0.2,4.4-1.8,5.3
			c-19,9.3-19,9.3-19,9.3C324.3,298.3,323.6,298.3,323.1,298.3z"/>
		<path class="st0" d="M325.4,293.7c-0.5,0-1.3-0.2-1.8-0.4c-2-1.1-2.6-3.5-1.6-5.5c6.6-11.5,10.1-24.7,10.4-37.9
			c0.5-14.1-2.7-28.2-9.2-40.7c-0.9-2-0.2-4.2,1.6-5.3c2-0.9,4.4-0.2,5.3,1.7c7.1,13.7,10.6,29.1,10.1,44.5
			c-0.4,14.7-4.4,29-11.4,41.6C328.2,293,326.9,293.7,325.4,293.7z"/>
		<path class="st0" d="M217.9,347c-1.3,0-2.8-0.7-3.3-2c-10.1-18.9-10.1-18.9-10.1-18.9c-0.5-1.1-0.5-2.4,0-3.5
			c0.9-2.2,1.1-2.6,22.7-6.6c2.2-0.4,4.2,0.9,4.6,3.1c0.4,2.2-0.9,4.2-3.1,4.6c-5.3,0.9-11.2,2.2-15,2.9c7.7,14.7,7.7,14.7,7.7,14.7
			c1.1,1.8,0.4,4.2-1.6,5.3C219.2,346.8,218.6,347,217.9,347z"/>
		<path class="st0" d="M252.9,340.2c-14.7,0-29.1-3.5-41.9-10.3c-2-0.9-2.7-3.3-1.6-5.3c0.9-1.8,3.3-2.6,5.1-1.7
			c11.9,6,25.1,9.3,38.5,9.3c14.1,0,28-3.7,40.3-10.4c1.8-1.1,4.2-0.4,5.3,1.5c1.1,2,0.4,4.4-1.5,5.5
			C283.5,336.2,268.3,340.2,252.9,340.2z"/>
		<path class="st0" d="M254.2,285.8c0,0-0.2,0-0.4,0c-1.6-0.2-3.1-1.5-3.5-3.1c-10.6-55.2-10.6-55.2-10.6-55.2
			c-8.4,28.2-8.4,28.2-8.4,28.2c-0.4,1.6-2,2.7-3.7,2.7c-30.2,0-30.2,0-30.2,0c-2.2,0-3.8-1.8-3.8-4c0-2,1.6-3.9,3.8-3.9
			c27.3,0,27.3,0,27.3,0c12.1-40.7,12.1-40.7,12.1-40.7c0.5-1.6,2.2-2.7,4-2.7c1.8,0.2,3.3,1.5,3.7,3.1
			c11.2,58.5,11.2,58.5,11.2,58.5c14.8-34.6,14.8-34.6,14.8-34.6c0.5-1.3,1.8-2.2,3.3-2.4c1.7,0,2.9,0.7,3.7,2c9,14.8,9,14.8,9,14.8
			c15.2,0,15.2,0,15.2,0c2.2,0,3.8,1.8,3.8,4c0,2-1.6,3.8-3.8,3.8c-17.4,0-17.4,0-17.4,0c-1.5,0-2.7-0.7-3.5-2
			c-6-10.1-6-10.1-6-10.1c-16.9,39-16.9,39-16.9,39C257.3,284.9,255.8,285.8,254.2,285.8z"/>
	</g>
</g>
<g id="Function_-_Pensando_Policy_and_Services_Manager">
</g>
<g id="Function_-_Fabric_Composer">
</g>
<g id="Generic_-_Virtual_Machine">
</g>
<g id="Generic_-_Server_Single">
</g>
<g id="Generic_-_Server_Multi">
</g>
<g id="Generic_-_Router">
</g>
<g id="Generic_-_Firewall">
</g>
<g id="Wi-Fi_Signal">
</g>
<g id="Generic_-_Cloud_Function_Container_Grey">
</g>
<g id="Generic_-_Cloud_Function_Container_White">
</g>
<g id="Generic_-_Cloud_Internet_Circuit">
</g>
<g id="Generic_-_Cloud_Private_Circuit">
</g>
<g id="Generic_-_Cloud">
</g>
<g id="Client_-_IOT_Sensor">
</g>
<g id="Client_-_IOT_IO">
</g>
<g id="Client_-_IOT_PLC">
</g>
<g id="Client_-_IOT_Patient_Monitor">
</g>
<g id="Client_-_IOT_Camera">
</g>
<g id="Client_-_IOT_Scanner">
</g>
<g id="IOT_-_TV_Cast">
</g>
<g id="Client_-_Printer">
</g>
<g id="Client_-_Game_Console">
</g>
<g id="Client_-_IP_Phone">
</g>
<g id="Client_-_Laptop">
</g>
<g id="Client_-_Desktop">
</g>
<g id="Client_-_Workstation">
</g>
<g id="Client_-_Tablet">
</g>
<g id="Client_-_Mobile_2">
</g>
<g id="Client_-_Mobile_1">
</g>
<g id="Device_-_EdgeConnect_Enterprise_Cloud">
</g>
<g id="Device_-_EdgeConnect_Enterprise_Virtual">
</g>
<g id="Device_-_EdgeConnect_Enterprise_Appliance">
</g>
<g id="Device_-_Core_Agg_Leaf_Switch">
</g>
<g id="Device_-_Access_Switch">
</g>
<g id="Device_-_Gateway_Headend">
</g>
<g id="Device_-_Gateway_Branch">
</g>
<g id="Device_-_Gateway_Campus">
</g>
<g id="Device_-_UXI_Sensor_New">
</g>
<g id="Device_-_UXI_Sensor">
</g>
<g id="Device_-_AP500_Series_Microbranch">
</g>
<g id="Device_-_AP600_Series">
</g>
<g id="Device_-_AP500_Series">
</g>
<g id="Device_-_Outdoor_AP">
</g>
</svg>
