<?xml version="1.0" encoding="utf-8"?>
<!-- Generator: Adobe Illustrator 26.3.1, SVG Export Plug-In . SVG Version: 6.00 Build 0)  -->
<svg version="1.1" xmlns="http://www.w3.org/2000/svg" xmlns:xlink="http://www.w3.org/1999/xlink" x="0px" y="0px"
	 viewBox="0 0 500 500" style="enable-background:new 0 0 500 500;" xml:space="preserve">
<style type="text/css">
	.st0{fill:#FFFFFF;}
	.st1{fill:#FF8300;}
	.st2{fill:#F78200;}
	.st3{fill:#F7931E;}
	.st4{fill:#5D5D5D;}
	.st5{fill:#FFFFFF;stroke:#65656A;stroke-width:12;stroke-miterlimit:10;}
	.st6{display:none;fill:#979797;stroke:#979797;stroke-width:3;stroke-linecap:round;stroke-linejoin:round;stroke-miterlimit:10;}
	.st7{fill:#979797;}
	.st8{fill:#65656A;}
	.st9{stroke:#009245;stroke-width:3;stroke-miterlimit:10;}
	.st10{fill:#F58220;}
	.st11{clip-path:url(#SVGID_00000039111669083496681080000006516410346232345518_);fill:#5E5E5E;}
	.st12{clip-path:url(#SVGID_00000101790385986112104580000010706381488512144038_);fill:#FFFFFF;}
	.st13{clip-path:url(#SVGID_00000127022894866515634810000015008384445502708105_);fill:#FFFFFF;}
	.st14{clip-path:url(#SVGID_00000127022894866515634810000015008384445502708105_);fill:#FF8300;}
	.st15{clip-path:url(#SVGID_00000031174918203748038910000003680234254840661688_);fill:#FFFFFF;}
	.st16{clip-path:url(#SVGID_00000031174918203748038910000003680234254840661688_);fill:#ADE1F0;}
	.st17{clip-path:url(#SVGID_00000080178596628553858120000002118970395732137113_);fill:#65656A;}
	.st18{clip-path:url(#SVGID_00000080178596628553858120000002118970395732137113_);fill:#646569;}
	.st19{clip-path:url(#SVGID_00000080178596628553858120000002118970395732137113_);fill:#D0D0D2;}
	.st20{clip-path:url(#SVGID_00000038390297092716753390000003813884400326082689_);fill:#FFFFFF;}
	.st21{clip-path:url(#SVGID_00000038390297092716753390000003813884400326082689_);fill:#646569;}
	.st22{clip-path:url(#SVGID_00000038390297092716753390000003813884400326082689_);fill:#65656A;}
	
		.st23{clip-path:url(#SVGID_00000000195326505668893460000016244417177139466121_);fill:#FFFFFF;stroke:#000000;stroke-miterlimit:10;}
	.st24{clip-path:url(#SVGID_00000000195326505668893460000016244417177139466121_);fill:#646569;}
	.st25{clip-path:url(#SVGID_00000000195326505668893460000016244417177139466121_);fill:#65656A;}
	
		.st26{clip-path:url(#SVGID_00000000195326505668893460000016244417177139466121_);fill:none;stroke:#65656A;stroke-width:0.1925;stroke-linecap:round;stroke-linejoin:round;stroke-miterlimit:10;}
	.st27{clip-path:url(#SVGID_00000037676847494072804240000009253628193726934692_);fill:#FFFFFF;}
	.st28{clip-path:url(#SVGID_00000037676847494072804240000009253628193726934692_);fill:#65656A;}
	.st29{clip-path:url(#SVGID_00000037676847494072804240000009253628193726934692_);fill:#646569;}
	.st30{clip-path:url(#SVGID_00000082332578976820719940000000586460634983062942_);fill:#FFFFFF;}
	.st31{clip-path:url(#SVGID_00000082332578976820719940000000586460634983062942_);fill:#646569;}
	.st32{clip-path:url(#SVGID_00000076564862513874107190000001975804100417646261_);fill:#FFFFFF;}
	.st33{clip-path:url(#SVGID_00000076564862513874107190000001975804100417646261_);fill:#65656A;}
	.st34{clip-path:url(#SVGID_00000076564862513874107190000001975804100417646261_);fill:#646569;}
	.st35{fill:#646569;}
	.st36{clip-path:url(#SVGID_00000025415484056095750530000005667180509283446973_);fill:#FFFFFF;}
	.st37{clip-path:url(#SVGID_00000025415484056095750530000005667180509283446973_);fill:#65666A;}
	
		.st38{clip-path:url(#SVGID_00000025415484056095750530000005667180509283446973_);fill:none;stroke:#65666A;stroke-width:0.1748;stroke-miterlimit:10;}
	.st39{clip-path:url(#SVGID_00000019648025419759434650000009341627657779565234_);fill:#FFFFFF;}
	.st40{clip-path:url(#SVGID_00000019648025419759434650000009341627657779565234_);fill:#646569;}
	.st41{fill:none;stroke:#65656A;stroke-width:3;stroke-miterlimit:10;}
	.st42{fill:#EC8020;}
	.st43{fill:#ED8020;}
	.st44{fill:none;stroke:#65656A;stroke-width:3;stroke-linecap:round;stroke-miterlimit:10;}
	.st45{fill:none;stroke:#646569;stroke-width:10;stroke-linejoin:round;stroke-miterlimit:10;}
	.st46{fill:none;stroke:#646569;stroke-width:10;stroke-miterlimit:10;}
	.st47{fill:none;stroke:#646569;stroke-width:10;stroke-linecap:round;stroke-miterlimit:10;}
	.st48{fill:none;stroke:#65656A;stroke-width:8;stroke-linecap:round;stroke-miterlimit:10;}
	.st49{fill:#FFFFFF;stroke:#65656A;stroke-width:8;stroke-linecap:round;stroke-linejoin:round;stroke-miterlimit:10;}
	.st50{fill:none;stroke:#65656A;stroke-width:8;stroke-miterlimit:10;}
</style>
<g id="Function_-_Central_APIs">
</g>
<g id="Function_-_Central_Route_Orchestrator">
</g>
<g id="Function_-_Central_Tunnel_Orchestrator">
</g>
<g id="Function_-_Central_NetConductor">
</g>
<g id="Function_-_Central_Network_Management">
</g>
<g id="Function_-_Central_Network_Insights">
</g>
<g id="Function_-_Central_Client_Insights">
</g>
<g id="Function_-_ClearPass_Policy_Manager">
</g>
<g id="Function_-_UXI_APIs">
</g>
<g id="Function_-_UXI_Dashboard">
	<circle class="st0" cx="250" cy="250" r="183"/>
	<path class="st1" d="M250.1,410.8c-88.7,0-160.9-72.2-160.9-160.9c0-88.6,72.1-160.7,160.9-160.7c88.6,0,160.7,72.2,160.7,160.7
		C410.8,338.6,338.6,410.8,250.1,410.8z M481.2,270.8c0-20.8,0-20.8,0-20.8c0-20.7,0-20.7,0-20.7c-39.8-6.5-39.8-6.5-39.8-6.5
		c-1-7.1-2.4-13.9-4.1-20.7c34.3-21.3,34.3-21.3,34.3-21.3c-8-19.2-8-19.2-8-19.2c-8-19.2-8-19.2-8-19.2
		c-39.2,9.3-39.2,9.3-39.2,9.3c-3.7-6.1-7.5-12-11.8-17.6c23.7-32.8,23.7-32.8,23.7-32.8c-14.8-14.6-14.8-14.6-14.8-14.6
		c-14.6-14.8-14.6-14.8-14.6-14.8C366,95.4,366,95.4,366,95.4c-5.6-4.3-11.4-8.1-17.6-11.8c9.3-39.2,9.3-39.2,9.3-39.2
		c-19.2-8-19.2-8-19.2-8c-19.2-8-19.2-8-19.2-8C298,62.7,298,62.7,298,62.7c-6.7-1.8-13.6-3.1-20.7-4.1c-6.5-39.8-6.5-39.8-6.5-39.8
		c-20.7,0-20.7,0-20.7,0c-20.9,0-20.9,0-20.9,0c-6.5,39.8-6.5,39.8-6.5,39.8c-7.1,1-13.9,2.4-20.7,4.1
		c-21.3-34.3-21.3-34.3-21.3-34.3c-19.2,8-19.2,8-19.2,8c-19.2,8-19.2,8-19.2,8c9.3,39.2,9.3,39.2,9.3,39.2
		c-6.1,3.7-12,7.5-17.6,11.8c-32.8-23.7-32.8-23.7-32.8-23.7C86.6,86.6,86.6,86.6,86.6,86.6c-14.6,14.6-14.6,14.6-14.6,14.6
		C95.4,134,95.4,134,95.4,134c-4.3,5.6-8.1,11.5-11.8,17.6c-39.2-9.3-39.2-9.3-39.2-9.3c-8,19.2-8,19.2-8,19.2
		c-8,19.2-8,19.2-8,19.2C62.8,202,62.8,202,62.8,202c-1.8,6.8-3.1,13.6-4.1,20.7c-39.8,6.5-39.8,6.5-39.8,6.5c0,20.7,0,20.7,0,20.7
		c0,20.8,0,20.8,0,20.8c39.8,6.5,39.8,6.5,39.8,6.5c1,7.1,2.4,13.9,4.1,20.7c-34.3,21.3-34.3,21.3-34.3,21.3c8,19.2,8,19.2,8,19.2
		c8,19.2,8,19.2,8,19.2c39.2-9.3,39.2-9.3,39.2-9.3c3.7,6.1,7.5,12,11.8,17.6c-23.5,32.8-23.5,32.8-23.5,32.8
		c14.6,14.6,14.6,14.6,14.6,14.6c14.6,14.6,14.6,14.6,14.6,14.6c32.8-23.5,32.8-23.5,32.8-23.5c5.6,4.3,11.5,8.1,17.6,11.8
		c-9.3,39.2-9.3,39.2-9.3,39.2c19.2,8,19.2,8,19.2,8c19.2,8,19.2,8,19.2,8c21.3-34.3,21.3-34.3,21.3-34.3c6.8,1.8,13.6,3.1,20.7,4.1
		c6.5,39.8,6.5,39.8,6.5,39.8c20.9,0,20.9,0,20.9,0c20.7,0,20.7,0,20.7,0c6.5-39.8,6.5-39.8,6.5-39.8c7.1-1,14-2.4,20.7-4.1
		c21.3,34.3,21.3,34.3,21.3,34.3c19.2-8,19.2-8,19.2-8c19.2-8,19.2-8,19.2-8c-9.3-39.2-9.3-39.2-9.3-39.2c6.2-3.7,12-7.5,17.6-11.8
		c32.8,23.5,32.8,23.5,32.8,23.5c14.6-14.6,14.6-14.6,14.6-14.6c14.8-14.6,14.8-14.6,14.8-14.6C404.6,366,404.6,366,404.6,366
		c4.3-5.6,8.1-11.5,11.8-17.6c39.2,9.3,39.2,9.3,39.2,9.3c8-19.2,8-19.2,8-19.2c8-19.2,8-19.2,8-19.2C437.2,298,437.2,298,437.2,298
		c1.8-6.8,3.1-13.6,4.1-20.7L481.2,270.8z"/>
	<path class="st1" d="M250.1,109.3c-77.6,0-140.8,63.1-140.8,140.6c0,77.6,63.1,140.7,140.8,140.7c77.5,0,140.6-63.1,140.6-140.7
		C390.7,172.5,327.6,109.3,250.1,109.3z"/>
	<g>
		<path class="st0" d="M184.1,194.9c-27.8,0-50.2,22.4-50.2,50c0,27.6,22.4,50.1,50.2,50.1c27.6,0,50-22.5,50-50.1
			C234.1,217.3,211.7,194.9,184.1,194.9z M184.1,300.9c-31,0-56.3-25.1-56.3-56.1c0-30.9,25.3-56.1,56.3-56.1
			c31,0,56.1,25.1,56.1,56.1C240.2,275.8,215.1,300.9,184.1,300.9z"/>
		<path class="st0" d="M171,235.9c0,4.3-3.4,7.6-7.7,7.6c-4.3,0-7.7-3.4-7.7-7.6c0-4.1,3.4-7.6,7.7-7.6
			C167.6,228.3,171,231.8,171,235.9z"/>
		<path class="st0" d="M213.1,235.9c0,4.3-3.5,7.6-7.6,7.6c-4.3,0-7.7-3.4-7.7-7.6c0-4.1,3.4-7.6,7.7-7.6
			C209.6,228.3,213.1,231.8,213.1,235.9z"/>
		<path class="st0" d="M184.2,276.8c-9.3,0-18.7-3.2-26.1-9.7c-1.3-1.2-1.4-3.1-0.4-4.3c1.2-1.3,3.1-1.4,4.3-0.4
			c13.1,11.4,32.4,11,45.1-0.8c1.2-1,3.1-1,4.3,0.1c1.2,1.3,1,3.2-0.1,4.4C203.7,273.2,193.9,276.8,184.2,276.8z"/>
		<path class="st0" d="M305.4,236.1c0,4.1-3.4,7.5-7.4,7.5c-4.1,0-7.5-3.4-7.5-7.5c0-4,3.4-7.4,7.5-7.4
			C302,228.7,305.4,232,305.4,236.1z"/>
		<path class="st0" d="M346.6,236.1c0,4.1-3.4,7.5-7.5,7.5c-4,0-7.4-3.4-7.4-7.5c0-4,3.4-7.4,7.4-7.4
			C343.3,228.7,346.6,232,346.6,236.1z"/>
		<path class="st0" d="M343.8,272.2c-0.8,0-1.6-0.3-2.2-0.9c-12.8-12.8-33.7-12.8-46.5,0c-1.3,1.2-3.1,1.2-4.4,0
			c-1.2-1.2-1.2-3.1,0-4.3c15.3-15.1,40.1-15.1,55.2,0c1.3,1.2,1.3,3.1,0,4.3C345.3,271.9,344.6,272.2,343.8,272.2z"/>
		<path class="st0" d="M316.8,196.4c-26.8,0-48.8,21.7-48.8,48.7c0,26.9,21.9,48.8,48.8,48.8c27,0,48.9-21.9,48.9-48.8
			C365.7,218.2,343.8,196.4,316.8,196.4z M316.8,299.9c-30.2,0-54.8-24.6-54.8-54.8c0-30.2,24.6-54.8,54.8-54.8
			c30.3,0,55,24.6,55,54.8C371.8,275.3,347.2,299.9,316.8,299.9z"/>
	</g>
</g>
<g id="Function_-_Orchestrator_Global_Enterprise">
</g>
<g id="Function_-_Orchestrator">
</g>
<g id="Function_-_Pensando_Policy_and_Services_Manager">
</g>
<g id="Function_-_Fabric_Composer">
</g>
<g id="Generic_-_Virtual_Machine">
</g>
<g id="Generic_-_Server_Single">
</g>
<g id="Generic_-_Server_Multi">
</g>
<g id="Generic_-_Router">
</g>
<g id="Generic_-_Firewall">
</g>
<g id="Wi-Fi_Signal">
</g>
<g id="Generic_-_Cloud_Function_Container_Grey">
</g>
<g id="Generic_-_Cloud_Function_Container_White">
</g>
<g id="Generic_-_Cloud_Internet_Circuit">
</g>
<g id="Generic_-_Cloud_Private_Circuit">
</g>
<g id="Generic_-_Cloud">
</g>
<g id="Client_-_IOT_Sensor">
</g>
<g id="Client_-_IOT_IO">
</g>
<g id="Client_-_IOT_PLC">
</g>
<g id="Client_-_IOT_Patient_Monitor">
</g>
<g id="Client_-_IOT_Camera">
</g>
<g id="Client_-_IOT_Scanner">
</g>
<g id="IOT_-_TV_Cast">
</g>
<g id="Client_-_Printer">
</g>
<g id="Client_-_Game_Console">
</g>
<g id="Client_-_IP_Phone">
</g>
<g id="Client_-_Laptop">
</g>
<g id="Client_-_Desktop">
</g>
<g id="Client_-_Workstation">
</g>
<g id="Client_-_Tablet">
</g>
<g id="Client_-_Mobile_2">
</g>
<g id="Client_-_Mobile_1">
</g>
<g id="Device_-_EdgeConnect_Enterprise_Cloud">
</g>
<g id="Device_-_EdgeConnect_Enterprise_Virtual">
</g>
<g id="Device_-_EdgeConnect_Enterprise_Appliance">
</g>
<g id="Device_-_Core_Agg_Leaf_Switch">
</g>
<g id="Device_-_Access_Switch">
</g>
<g id="Device_-_Gateway_Headend">
</g>
<g id="Device_-_Gateway_Branch">
</g>
<g id="Device_-_Gateway_Campus">
</g>
<g id="Device_-_UXI_Sensor_New">
</g>
<g id="Device_-_UXI_Sensor">
</g>
<g id="Device_-_AP500_Series_Microbranch">
</g>
<g id="Device_-_AP600_Series">
</g>
<g id="Device_-_AP500_Series">
</g>
<g id="Device_-_Outdoor_AP">
</g>
</svg>
