<?xml version="1.0" encoding="utf-8"?>
<!-- Generator: Adobe Illustrator 26.3.1, SVG Export Plug-In . SVG Version: 6.00 Build 0)  -->
<svg version="1.1" xmlns="http://www.w3.org/2000/svg" xmlns:xlink="http://www.w3.org/1999/xlink" x="0px" y="0px"
	 viewBox="0 0 500 500" style="enable-background:new 0 0 500 500;" xml:space="preserve">
<style type="text/css">
	.st0{fill:#FFFFFF;}
	.st1{fill:#FF8300;}
	.st2{fill:#F78200;}
	.st3{fill:#F7931E;}
	.st4{fill:#5D5D5D;}
	.st5{fill:#FFFFFF;stroke:#65656A;stroke-width:12;stroke-miterlimit:10;}
	.st6{display:none;fill:#979797;stroke:#979797;stroke-width:3;stroke-linecap:round;stroke-linejoin:round;stroke-miterlimit:10;}
	.st7{fill:#979797;}
	.st8{fill:#65656A;}
	.st9{stroke:#009245;stroke-width:3;stroke-miterlimit:10;}
	.st10{fill:#F58220;}
	.st11{clip-path:url(#SVGID_00000166646431002179060750000002768912419299987879_);fill:#5E5E5E;}
	.st12{clip-path:url(#SVGID_00000112634658766873332850000002785645187861679805_);fill:#FFFFFF;}
	.st13{clip-path:url(#SVGID_00000082332492918390209560000003945096188127631238_);fill:#FFFFFF;}
	.st14{clip-path:url(#SVGID_00000082332492918390209560000003945096188127631238_);fill:#FF8300;}
	.st15{clip-path:url(#SVGID_00000176758249638384526480000008044302668611049648_);fill:#FFFFFF;}
	.st16{clip-path:url(#SVGID_00000176758249638384526480000008044302668611049648_);fill:#ADE1F0;}
	.st17{clip-path:url(#SVGID_00000061442918490042424920000005531926816385069220_);fill:#65656A;}
	.st18{clip-path:url(#SVGID_00000061442918490042424920000005531926816385069220_);fill:#646569;}
	.st19{clip-path:url(#SVGID_00000061442918490042424920000005531926816385069220_);fill:#D0D0D2;}
	.st20{clip-path:url(#SVGID_00000161631779870428253220000015505742136640403337_);fill:#FFFFFF;}
	.st21{clip-path:url(#SVGID_00000161631779870428253220000015505742136640403337_);fill:#646569;}
	.st22{clip-path:url(#SVGID_00000161631779870428253220000015505742136640403337_);fill:#65656A;}
	
		.st23{clip-path:url(#SVGID_00000114775012870839882170000006535967976403242412_);fill:#FFFFFF;stroke:#000000;stroke-miterlimit:10;}
	.st24{clip-path:url(#SVGID_00000114775012870839882170000006535967976403242412_);fill:#646569;}
	.st25{clip-path:url(#SVGID_00000114775012870839882170000006535967976403242412_);fill:#65656A;}
	
		.st26{clip-path:url(#SVGID_00000114775012870839882170000006535967976403242412_);fill:none;stroke:#65656A;stroke-width:0.1925;stroke-linecap:round;stroke-linejoin:round;stroke-miterlimit:10;}
	.st27{clip-path:url(#SVGID_00000181780658867196482620000004867803382863147399_);fill:#FFFFFF;}
	.st28{clip-path:url(#SVGID_00000181780658867196482620000004867803382863147399_);fill:#65656A;}
	.st29{clip-path:url(#SVGID_00000181780658867196482620000004867803382863147399_);fill:#646569;}
	.st30{clip-path:url(#SVGID_00000172428204907662639990000012227911567616534959_);fill:#FFFFFF;}
	.st31{clip-path:url(#SVGID_00000172428204907662639990000012227911567616534959_);fill:#646569;}
	.st32{clip-path:url(#SVGID_00000001648120208655586980000006733518640782859950_);fill:#FFFFFF;}
	.st33{clip-path:url(#SVGID_00000001648120208655586980000006733518640782859950_);fill:#65656A;}
	.st34{clip-path:url(#SVGID_00000001648120208655586980000006733518640782859950_);fill:#646569;}
	.st35{fill:#646569;}
	.st36{clip-path:url(#SVGID_00000018940208051923310640000014683819447041640360_);fill:#FFFFFF;}
	.st37{clip-path:url(#SVGID_00000018940208051923310640000014683819447041640360_);fill:#65666A;}
	
		.st38{clip-path:url(#SVGID_00000018940208051923310640000014683819447041640360_);fill:none;stroke:#65666A;stroke-width:0.1748;stroke-miterlimit:10;}
	.st39{clip-path:url(#SVGID_00000049180502912686618140000013464653068746603185_);fill:#FFFFFF;}
	.st40{clip-path:url(#SVGID_00000049180502912686618140000013464653068746603185_);fill:#646569;}
	.st41{fill:none;stroke:#65656A;stroke-width:3;stroke-miterlimit:10;}
	.st42{fill:#EC8020;}
	.st43{fill:#ED8020;}
	.st44{fill:none;stroke:#65656A;stroke-width:3;stroke-linecap:round;stroke-miterlimit:10;}
	.st45{fill:none;stroke:#646569;stroke-width:10;stroke-linejoin:round;stroke-miterlimit:10;}
	.st46{fill:none;stroke:#646569;stroke-width:10;stroke-miterlimit:10;}
	.st47{fill:none;stroke:#646569;stroke-width:10;stroke-linecap:round;stroke-miterlimit:10;}
	.st48{fill:none;stroke:#65656A;stroke-width:8;stroke-linecap:round;stroke-miterlimit:10;}
	.st49{fill:#FFFFFF;stroke:#65656A;stroke-width:8;stroke-linecap:round;stroke-linejoin:round;stroke-miterlimit:10;}
	.st50{fill:none;stroke:#65656A;stroke-width:8;stroke-miterlimit:10;}
</style>
<g id="Function_-_Central_APIs">
</g>
<g id="Function_-_Central_Route_Orchestrator">
</g>
<g id="Function_-_Central_Tunnel_Orchestrator">
</g>
<g id="Function_-_Central_NetConductor">
</g>
<g id="Function_-_Central_Network_Management">
</g>
<g id="Function_-_Central_Network_Insights">
</g>
<g id="Function_-_Central_Client_Insights">
</g>
<g id="Function_-_ClearPass_Policy_Manager">
	<circle class="st0" cx="250" cy="250" r="183"/>
	<path class="st1" d="M250.1,410.8c-88.7,0-160.9-72.2-160.9-160.9c0-88.6,72.1-160.7,160.9-160.7c88.6,0,160.7,72.2,160.7,160.7
		C410.8,338.6,338.6,410.8,250.1,410.8z M481.2,270.8c0-20.8,0-20.8,0-20.8c0-20.7,0-20.7,0-20.7c-39.8-6.5-39.8-6.5-39.8-6.5
		c-1-7.1-2.4-13.9-4.1-20.7c34.3-21.3,34.3-21.3,34.3-21.3c-8-19.2-8-19.2-8-19.2c-8-19.2-8-19.2-8-19.2
		c-39.2,9.3-39.2,9.3-39.2,9.3c-3.7-6.1-7.5-12-11.8-17.6c23.7-32.8,23.7-32.8,23.7-32.8c-14.8-14.6-14.8-14.6-14.8-14.6
		c-14.6-14.8-14.6-14.8-14.6-14.8C366,95.4,366,95.4,366,95.4c-5.6-4.3-11.4-8.1-17.6-11.8c9.3-39.2,9.3-39.2,9.3-39.2
		c-19.2-8-19.2-8-19.2-8c-19.2-8-19.2-8-19.2-8C298,62.7,298,62.7,298,62.7c-6.7-1.8-13.6-3.1-20.7-4.1c-6.5-39.8-6.5-39.8-6.5-39.8
		c-20.7,0-20.7,0-20.7,0c-20.9,0-20.9,0-20.9,0c-6.5,39.8-6.5,39.8-6.5,39.8c-7.1,1-13.9,2.4-20.7,4.1
		c-21.3-34.3-21.3-34.3-21.3-34.3c-19.2,8-19.2,8-19.2,8c-19.2,8-19.2,8-19.2,8c9.3,39.2,9.3,39.2,9.3,39.2
		c-6.1,3.7-12,7.5-17.6,11.8c-32.8-23.7-32.8-23.7-32.8-23.7C86.6,86.6,86.6,86.6,86.6,86.6c-14.6,14.6-14.6,14.6-14.6,14.6
		C95.4,134,95.4,134,95.4,134c-4.3,5.6-8.1,11.5-11.8,17.6c-39.2-9.3-39.2-9.3-39.2-9.3c-8,19.2-8,19.2-8,19.2
		c-8,19.2-8,19.2-8,19.2C62.8,202,62.8,202,62.8,202c-1.8,6.8-3.1,13.6-4.1,20.7c-39.8,6.5-39.8,6.5-39.8,6.5c0,20.7,0,20.7,0,20.7
		c0,20.8,0,20.8,0,20.8c39.8,6.5,39.8,6.5,39.8,6.5c1,7.1,2.4,13.9,4.1,20.7c-34.3,21.3-34.3,21.3-34.3,21.3c8,19.2,8,19.2,8,19.2
		c8,19.2,8,19.2,8,19.2c39.2-9.3,39.2-9.3,39.2-9.3c3.7,6.1,7.5,12,11.8,17.6c-23.5,32.8-23.5,32.8-23.5,32.8
		c14.6,14.6,14.6,14.6,14.6,14.6c14.6,14.6,14.6,14.6,14.6,14.6c32.8-23.5,32.8-23.5,32.8-23.5c5.6,4.3,11.5,8.1,17.6,11.8
		c-9.3,39.2-9.3,39.2-9.3,39.2c19.2,8,19.2,8,19.2,8c19.2,8,19.2,8,19.2,8c21.3-34.3,21.3-34.3,21.3-34.3c6.8,1.8,13.6,3.1,20.7,4.1
		c6.5,39.8,6.5,39.8,6.5,39.8c20.9,0,20.9,0,20.9,0c20.7,0,20.7,0,20.7,0c6.5-39.8,6.5-39.8,6.5-39.8c7.1-1,14-2.4,20.7-4.1
		c21.3,34.3,21.3,34.3,21.3,34.3c19.2-8,19.2-8,19.2-8c19.2-8,19.2-8,19.2-8c-9.3-39.2-9.3-39.2-9.3-39.2c6.2-3.7,12-7.5,17.6-11.8
		c32.8,23.5,32.8,23.5,32.8,23.5c14.6-14.6,14.6-14.6,14.6-14.6c14.8-14.6,14.8-14.6,14.8-14.6C404.6,366,404.6,366,404.6,366
		c4.3-5.6,8.1-11.5,11.8-17.6c39.2,9.3,39.2,9.3,39.2,9.3c8-19.2,8-19.2,8-19.2c8-19.2,8-19.2,8-19.2C437.2,298,437.2,298,437.2,298
		c1.8-6.8,3.1-13.6,4.1-20.7L481.2,270.8z"/>
	<path class="st1" d="M250.1,109.3c-77.6,0-140.8,63.1-140.8,140.6c0,77.6,63.1,140.7,140.8,140.7c77.5,0,140.6-63.1,140.6-140.7
		C390.7,172.5,327.6,109.3,250.1,109.3z"/>
	<path class="st0" d="M219.6,213.8c0-23.4,0-23.4,0-23.4c0-16.8,13.6-30.5,30.4-30.5c16.8,0,30.4,13.6,30.4,30.5
		c0,23.4,0,23.4,0,23.4c1.6,0,1.6,0,1.6,0c22.9,0,22.9,0,22.9,0c0-23.4,0-23.4,0-23.4c0-30.3-24.7-54.9-54.9-54.9
		c-30.3,0-54.9,24.6-54.9,54.9c0,23.4,0,23.4,0,23.4H219.6z"/>
	<path class="st0" d="M250,313.6c-27,0-48.9-31.2-48.9-31.6c0-0.6,21.9-31.6,48.9-31.6c27,0,48.9,31.2,48.9,31.6
		C298.9,282.6,277,313.6,250,313.6z M249.8,222.5c-70.9,0-70.9,0-70.9,0c0,122,0,122,0,122c70.9,0,70.9,0,70.9,0
		c71.3,0,71.3,0,71.3,0c0-122,0-122,0-122H249.8z"/>
	<path class="st0" d="M250,258.6c12.5,0,22.7,10.1,22.7,22.7c0,12.5-10.2,22.7-22.7,22.7c-12.6,0-22.7-10.2-22.7-22.7
		C227.3,268.7,237.4,258.6,250,258.6z"/>
</g>
<g id="Function_-_UXI_APIs">
</g>
<g id="Function_-_UXI_Dashboard">
</g>
<g id="Function_-_Orchestrator_Global_Enterprise">
</g>
<g id="Function_-_Orchestrator">
</g>
<g id="Function_-_Pensando_Policy_and_Services_Manager">
</g>
<g id="Function_-_Fabric_Composer">
</g>
<g id="Generic_-_Virtual_Machine">
</g>
<g id="Generic_-_Server_Single">
</g>
<g id="Generic_-_Server_Multi">
</g>
<g id="Generic_-_Router">
</g>
<g id="Generic_-_Firewall">
</g>
<g id="Wi-Fi_Signal">
</g>
<g id="Generic_-_Cloud_Function_Container_Grey">
</g>
<g id="Generic_-_Cloud_Function_Container_White">
</g>
<g id="Generic_-_Cloud_Internet_Circuit">
</g>
<g id="Generic_-_Cloud_Private_Circuit">
</g>
<g id="Generic_-_Cloud">
</g>
<g id="Client_-_IOT_Sensor">
</g>
<g id="Client_-_IOT_IO">
</g>
<g id="Client_-_IOT_PLC">
</g>
<g id="Client_-_IOT_Patient_Monitor">
</g>
<g id="Client_-_IOT_Camera">
</g>
<g id="Client_-_IOT_Scanner">
</g>
<g id="IOT_-_TV_Cast">
</g>
<g id="Client_-_Printer">
</g>
<g id="Client_-_Game_Console">
</g>
<g id="Client_-_IP_Phone">
</g>
<g id="Client_-_Laptop">
</g>
<g id="Client_-_Desktop">
</g>
<g id="Client_-_Workstation">
</g>
<g id="Client_-_Tablet">
</g>
<g id="Client_-_Mobile_2">
</g>
<g id="Client_-_Mobile_1">
</g>
<g id="Device_-_EdgeConnect_Enterprise_Cloud">
</g>
<g id="Device_-_EdgeConnect_Enterprise_Virtual">
</g>
<g id="Device_-_EdgeConnect_Enterprise_Appliance">
</g>
<g id="Device_-_Core_Agg_Leaf_Switch">
</g>
<g id="Device_-_Access_Switch">
</g>
<g id="Device_-_Gateway_Headend">
</g>
<g id="Device_-_Gateway_Branch">
</g>
<g id="Device_-_Gateway_Campus">
</g>
<g id="Device_-_UXI_Sensor_New">
</g>
<g id="Device_-_UXI_Sensor">
</g>
<g id="Device_-_AP500_Series_Microbranch">
</g>
<g id="Device_-_AP600_Series">
</g>
<g id="Device_-_AP500_Series">
</g>
<g id="Device_-_Outdoor_AP">
</g>
</svg>
