<?xml version="1.0" encoding="utf-8"?>
<!-- Generator: Adobe Illustrator 26.3.1, SVG Export Plug-In . SVG Version: 6.00 Build 0)  -->
<svg version="1.1" xmlns="http://www.w3.org/2000/svg" xmlns:xlink="http://www.w3.org/1999/xlink" x="0px" y="0px"
	 viewBox="0 0 500 500" style="enable-background:new 0 0 500 500;" xml:space="preserve">
<style type="text/css">
	.st0{fill:#FFFFFF;}
	.st1{fill:#FF8300;}
	.st2{fill:#F78200;}
	.st3{fill:#F7931E;}
	.st4{fill:#5D5D5D;}
	.st5{fill:#FFFFFF;stroke:#65656A;stroke-width:12;stroke-miterlimit:10;}
	.st6{display:none;fill:#979797;stroke:#979797;stroke-width:3;stroke-linecap:round;stroke-linejoin:round;stroke-miterlimit:10;}
	.st7{fill:#979797;}
	.st8{fill:#65656A;}
	.st9{stroke:#009245;stroke-width:3;stroke-miterlimit:10;}
	.st10{fill:#F58220;}
	.st11{clip-path:url(#SVGID_00000059273268213056592370000011479766316657065097_);fill:#5E5E5E;}
	.st12{clip-path:url(#SVGID_00000064321170648874211270000008323841586147398332_);fill:#FFFFFF;}
	.st13{clip-path:url(#SVGID_00000176735346473440189010000004792610341348125568_);fill:#FFFFFF;}
	.st14{clip-path:url(#SVGID_00000176735346473440189010000004792610341348125568_);fill:#FF8300;}
	.st15{clip-path:url(#SVGID_00000171688676428078815130000005030247793368753050_);fill:#FFFFFF;}
	.st16{clip-path:url(#SVGID_00000171688676428078815130000005030247793368753050_);fill:#ADE1F0;}
	.st17{clip-path:url(#SVGID_00000021826998729994008040000000643466755996196520_);fill:#65656A;}
	.st18{clip-path:url(#SVGID_00000021826998729994008040000000643466755996196520_);fill:#646569;}
	.st19{clip-path:url(#SVGID_00000021826998729994008040000000643466755996196520_);fill:#D0D0D2;}
	.st20{clip-path:url(#SVGID_00000092430566967881601990000005553855475146302391_);fill:#FFFFFF;}
	.st21{clip-path:url(#SVGID_00000092430566967881601990000005553855475146302391_);fill:#646569;}
	.st22{clip-path:url(#SVGID_00000092430566967881601990000005553855475146302391_);fill:#65656A;}
	
		.st23{clip-path:url(#SVGID_00000114056240951328475500000004528275047546543766_);fill:#FFFFFF;stroke:#000000;stroke-miterlimit:10;}
	.st24{clip-path:url(#SVGID_00000114056240951328475500000004528275047546543766_);fill:#646569;}
	.st25{clip-path:url(#SVGID_00000114056240951328475500000004528275047546543766_);fill:#65656A;}
	
		.st26{clip-path:url(#SVGID_00000114056240951328475500000004528275047546543766_);fill:none;stroke:#65656A;stroke-width:0.1925;stroke-linecap:round;stroke-linejoin:round;stroke-miterlimit:10;}
	.st27{clip-path:url(#SVGID_00000030451395676369882290000010186054597677634989_);fill:#FFFFFF;}
	.st28{clip-path:url(#SVGID_00000030451395676369882290000010186054597677634989_);fill:#65656A;}
	.st29{clip-path:url(#SVGID_00000030451395676369882290000010186054597677634989_);fill:#646569;}
	.st30{clip-path:url(#SVGID_00000063605210157754509190000001934522607431245462_);fill:#FFFFFF;}
	.st31{clip-path:url(#SVGID_00000063605210157754509190000001934522607431245462_);fill:#646569;}
	.st32{clip-path:url(#SVGID_00000174566406225501666840000010370472876372714906_);fill:#FFFFFF;}
	.st33{clip-path:url(#SVGID_00000174566406225501666840000010370472876372714906_);fill:#65656A;}
	.st34{clip-path:url(#SVGID_00000174566406225501666840000010370472876372714906_);fill:#646569;}
	.st35{fill:#646569;}
	.st36{clip-path:url(#SVGID_00000157290082932393867120000007882851318158408123_);fill:#FFFFFF;}
	.st37{clip-path:url(#SVGID_00000157290082932393867120000007882851318158408123_);fill:#65666A;}
	
		.st38{clip-path:url(#SVGID_00000157290082932393867120000007882851318158408123_);fill:none;stroke:#65666A;stroke-width:0.1748;stroke-miterlimit:10;}
	.st39{clip-path:url(#SVGID_00000117635433319613149600000008245692304163857567_);fill:#FFFFFF;}
	.st40{clip-path:url(#SVGID_00000117635433319613149600000008245692304163857567_);fill:#646569;}
	.st41{fill:none;stroke:#65656A;stroke-width:3;stroke-miterlimit:10;}
	.st42{fill:#EC8020;}
	.st43{fill:#ED8020;}
	.st44{fill:none;stroke:#65656A;stroke-width:3;stroke-linecap:round;stroke-miterlimit:10;}
	.st45{fill:none;stroke:#646569;stroke-width:10;stroke-linejoin:round;stroke-miterlimit:10;}
	.st46{fill:none;stroke:#646569;stroke-width:10;stroke-miterlimit:10;}
	.st47{fill:none;stroke:#646569;stroke-width:10;stroke-linecap:round;stroke-miterlimit:10;}
	.st48{fill:none;stroke:#65656A;stroke-width:8;stroke-linecap:round;stroke-miterlimit:10;}
	.st49{fill:#FFFFFF;stroke:#65656A;stroke-width:8;stroke-linecap:round;stroke-linejoin:round;stroke-miterlimit:10;}
	.st50{fill:none;stroke:#65656A;stroke-width:8;stroke-miterlimit:10;}
</style>
<g id="Function_-_Central_APIs">
</g>
<g id="Function_-_Central_Route_Orchestrator">
</g>
<g id="Function_-_Central_Tunnel_Orchestrator">
</g>
<g id="Function_-_Central_NetConductor">
</g>
<g id="Function_-_Central_Network_Management">
</g>
<g id="Function_-_Central_Network_Insights">
</g>
<g id="Function_-_Central_Client_Insights">
</g>
<g id="Function_-_ClearPass_Policy_Manager">
</g>
<g id="Function_-_UXI_APIs">
</g>
<g id="Function_-_UXI_Dashboard">
</g>
<g id="Function_-_Orchestrator_Global_Enterprise">
	<circle class="st0" cx="250" cy="250" r="183"/>
	<path class="st1" d="M250.1,410.8c-88.7,0-160.9-72.2-160.9-160.9c0-88.6,72.1-160.7,160.9-160.7c88.6,0,160.7,72.2,160.7,160.7
		C410.8,338.6,338.6,410.8,250.1,410.8z M481.2,270.8c0-20.8,0-20.8,0-20.8c0-20.7,0-20.7,0-20.7c-39.8-6.5-39.8-6.5-39.8-6.5
		c-1-7.1-2.4-13.9-4.1-20.7c34.3-21.3,34.3-21.3,34.3-21.3c-8-19.2-8-19.2-8-19.2c-8-19.2-8-19.2-8-19.2
		c-39.2,9.3-39.2,9.3-39.2,9.3c-3.7-6.1-7.5-12-11.8-17.6c23.7-32.8,23.7-32.8,23.7-32.8c-14.8-14.6-14.8-14.6-14.8-14.6
		c-14.6-14.8-14.6-14.8-14.6-14.8C366,95.4,366,95.4,366,95.4c-5.6-4.3-11.4-8.1-17.6-11.8c9.3-39.2,9.3-39.2,9.3-39.2
		c-19.2-8-19.2-8-19.2-8c-19.2-8-19.2-8-19.2-8C298,62.7,298,62.7,298,62.7c-6.7-1.8-13.6-3.1-20.7-4.1c-6.5-39.8-6.5-39.8-6.5-39.8
		c-20.7,0-20.7,0-20.7,0c-20.9,0-20.9,0-20.9,0c-6.5,39.8-6.5,39.8-6.5,39.8c-7.1,1-13.9,2.4-20.7,4.1
		c-21.3-34.3-21.3-34.3-21.3-34.3c-19.2,8-19.2,8-19.2,8c-19.2,8-19.2,8-19.2,8c9.3,39.2,9.3,39.2,9.3,39.2
		c-6.1,3.7-12,7.5-17.6,11.8c-32.8-23.7-32.8-23.7-32.8-23.7C86.6,86.6,86.6,86.6,86.6,86.6c-14.6,14.6-14.6,14.6-14.6,14.6
		C95.4,134,95.4,134,95.4,134c-4.3,5.6-8.1,11.5-11.8,17.6c-39.2-9.3-39.2-9.3-39.2-9.3c-8,19.2-8,19.2-8,19.2
		c-8,19.2-8,19.2-8,19.2C62.8,202,62.8,202,62.8,202c-1.8,6.8-3.1,13.6-4.1,20.7c-39.8,6.5-39.8,6.5-39.8,6.5c0,20.7,0,20.7,0,20.7
		c0,20.8,0,20.8,0,20.8c39.8,6.5,39.8,6.5,39.8,6.5c1,7.1,2.4,13.9,4.1,20.7c-34.3,21.3-34.3,21.3-34.3,21.3c8,19.2,8,19.2,8,19.2
		c8,19.2,8,19.2,8,19.2c39.2-9.3,39.2-9.3,39.2-9.3c3.7,6.1,7.5,12,11.8,17.6c-23.5,32.8-23.5,32.8-23.5,32.8
		c14.6,14.6,14.6,14.6,14.6,14.6c14.6,14.6,14.6,14.6,14.6,14.6c32.8-23.5,32.8-23.5,32.8-23.5c5.6,4.3,11.5,8.1,17.6,11.8
		c-9.3,39.2-9.3,39.2-9.3,39.2c19.2,8,19.2,8,19.2,8c19.2,8,19.2,8,19.2,8c21.3-34.3,21.3-34.3,21.3-34.3c6.8,1.8,13.6,3.1,20.7,4.1
		c6.5,39.8,6.5,39.8,6.5,39.8c20.9,0,20.9,0,20.9,0c20.7,0,20.7,0,20.7,0c6.5-39.8,6.5-39.8,6.5-39.8c7.1-1,14-2.4,20.7-4.1
		c21.3,34.3,21.3,34.3,21.3,34.3c19.2-8,19.2-8,19.2-8c19.2-8,19.2-8,19.2-8c-9.3-39.2-9.3-39.2-9.3-39.2c6.2-3.7,12-7.5,17.6-11.8
		c32.8,23.5,32.8,23.5,32.8,23.5c14.6-14.6,14.6-14.6,14.6-14.6c14.8-14.6,14.8-14.6,14.8-14.6C404.6,366,404.6,366,404.6,366
		c4.3-5.6,8.1-11.5,11.8-17.6c39.2,9.3,39.2,9.3,39.2,9.3c8-19.2,8-19.2,8-19.2c8-19.2,8-19.2,8-19.2C437.2,298,437.2,298,437.2,298
		c1.8-6.8,3.1-13.6,4.1-20.7L481.2,270.8z"/>
	<path class="st1" d="M250.1,109.3c-77.6,0-140.8,63.1-140.8,140.6c0,77.6,63.1,140.7,140.8,140.7c77.5,0,140.6-63.1,140.6-140.7
		C390.7,172.5,327.6,109.3,250.1,109.3z"/>
	<g>
		<path class="st0" d="M184,231.9c-1.8,0-3.3-1.2-3.7-3c-1.1-5.1-2.1-10.8-3-14.5c-13.9,7.4-13.9,7.4-13.9,7.4
			c-1.8,1.1-4,0.4-5.1-1.6c-0.9-1.8-0.2-4.1,1.6-5.1c18.1-9.5,18.1-9.5,18.1-9.5c1.1-0.5,2.3-0.5,3.3,0c1.9,0.9,2.5,1.1,6.3,21.9
			c0.4,2.1-1.1,4.1-3,4.4C184.3,231.9,184.1,231.9,184,231.9z"/>
		<path class="st0" d="M178.7,296.4c-1.4,0-2.6-0.7-3.3-1.9c-7-12.9-10.9-27.6-10.9-42.4c0-13.9,3.3-27.9,9.9-40.3
			c0.9-1.9,3.2-2.7,4.9-1.6c1.9,0.9,2.6,3.2,1.6,4.9c-5.8,11.3-8.8,24-8.8,36.9c0,13.6,3.3,27,9.9,38.9c1.1,1.8,0.4,4.1-1.4,5.1
			C179.9,296.2,179.2,296.4,178.7,296.4z"/>
		<path class="st0" d="M290.1,175.4 M272.5,186.7c-1.8,0-3.3-1.2-3.7-3c-0.4-2.1,1.1-4.1,3.2-4.4c5.1-1.1,10.6-2.1,14.3-3
			c-7.4-14-7.4-14-7.4-14c-0.9-1.8-0.2-4.1,1.6-5.1c1.8-0.9,4.1-0.2,5.1,1.6C295,177,295,177,295,177c0.5,1.1,0.5,2.3,0.2,3.4
			c-1.1,1.9-1.2,2.5-22,6.4C273,186.7,272.8,186.7,272.5,186.7z"/>
		<path class="st0" d="M208.2,181.4c-1.2,0-2.5-0.7-3.2-1.9c-1.1-1.8-0.4-4.1,1.4-5.1c12.8-7.1,27.5-10.9,42.2-10.9
			c14.1,0,28,3.4,40.3,9.9c1.8,0.9,2.5,3.2,1.6,4.9c-1.1,1.9-3.3,2.7-5.1,1.8c-11.3-6-23.9-9-36.8-9c-13.4,0-26.8,3.4-38.6,10.1
			C209.5,181.2,208.9,181.4,208.2,181.4z"/>
		<path class="st0" d="M320,296.6c-0.5,0-1.1-0.2-1.6-0.5c-2.1-0.9-2.5-1.2-5.8-22.1c-0.4-2.1,1.1-3.9,3.2-4.2
			c1.9-0.4,4.1,1.1,4.2,3.2c0.9,5.1,1.8,10.8,2.5,14.3c14.3-6.9,14.3-6.9,14.3-6.9c1.8-0.9,4-0.2,4.9,1.8c1.1,1.8,0.2,4.1-1.6,4.9
			c-18.5,9-18.5,9-18.5,9C321.1,296.4,320.5,296.6,320,296.6z"/>
		<path class="st0" d="M322.3,292.1c-0.5,0-1.2-0.2-1.8-0.5c-1.9-1.1-2.5-3.4-1.6-5.1c6.2-11.1,9.7-23.8,10-36.6
			c0.5-13.6-2.6-27.2-8.8-39c-0.9-1.9-0.2-4.2,1.6-5.1c1.9-1.1,4.2-0.2,5.1,1.6c6.7,13.1,10,27.9,9.7,42.7
			c-0.4,14-4.2,27.9-10.9,40.1C324.9,291.4,323.7,292.1,322.3,292.1z"/>
		<path class="st0" d="M219.3,343.2c-1.4,0-2.6-0.7-3.3-1.9c-9.5-18.2-9.5-18.2-9.5-18.2c-0.5-0.9-0.5-2.1,0-3.2
			c0.9-2.1,1.1-2.5,21.8-6.4c1.9-0.4,4,0.9,4.4,3c0.4,1.9-1.1,3.9-3,4.4c-5.1,0.9-10.7,1.9-14.4,2.8c7.4,14,7.4,14,7.4,14
			c0.9,1.9,0.2,4.2-1.6,5.1C220.6,343.2,219.9,343.2,219.3,343.2z"/>
		<path class="st0" d="M252.8,336.6c-14.1,0-27.8-3.4-40.1-9.7c-1.9-1.1-2.6-3.4-1.8-5.1c1.1-1.8,3.3-2.7,5.1-1.6
			c11.3,5.8,23.9,9,36.8,9c13.6,0,26.9-3.5,38.5-10.1c1.9-1.1,4.2-0.4,5.1,1.4c1.1,1.9,0.4,4.2-1.4,5.1
			C282.2,332.9,267.6,336.6,252.8,336.6z"/>
		<path class="st0" d="M207.4,295.3c60.7,0,60.7,0,60.7,0c0-63.9,0-63.9,0-63.9c-60.7,0-60.7,0-60.7,0V295.3z M272,302.9
			c-68.3,0-68.3,0-68.3,0c-2.1,0-3.9-1.8-3.9-3.7c0-71.5,0-71.5,0-71.5c0-2.1,1.8-3.7,3.9-3.7c68.3,0,68.3,0,68.3,0
			c1.9,0,3.7,1.6,3.7,3.7c0,71.5,0,71.5,0,71.5C275.7,301.1,273.9,302.9,272,302.9z"/>
		<path class="st0" d="M285.2,286.5c-2.1,0-3.7-1.8-3.7-3.9c0-64.5,0-64.5,0-64.5c-64.6,0-64.6,0-64.6,0c-2.1,0-3.7-1.6-3.7-3.7
			c0-2.1,1.6-3.9,3.7-3.9c68.3,0,68.3,0,68.3,0c2.1,0,3.7,1.8,3.7,3.9c0,68.2,0,68.2,0,68.2C288.9,284.7,287.3,286.5,285.2,286.5z"
			/>
		<path class="st0" d="M298.4,273.2c-2.1,0-3.9-1.6-3.9-3.7c0-64.6,0-64.6,0-64.6c-64.4,0-64.4,0-64.4,0c-2.1,0-3.9-1.6-3.9-3.7
			c0-2.1,1.8-3.7,3.9-3.7c68.3,0,68.3,0,68.3,0c1.9,0,3.7,1.6,3.7,3.7c0,68.3,0,68.3,0,68.3C302.1,271.6,300.3,273.2,298.4,273.2z"
			/>
		<path class="st0" d="M238,287.2h-0.2c-1.6,0-3-1.2-3.5-2.8c-5.3-23.7-5.3-23.7-5.3-23.7c-2.5,9.4-2.5,9.4-2.5,9.4
			c-0.5,1.8-1.9,2.8-3.7,2.8c-9.9,0-9.9,0-9.9,0c-2.1,0-3.7-1.6-3.7-3.7c0-2.1,1.6-3.7,3.7-3.7c7,0,7,0,7,0
			c5.5-21.5,5.5-21.5,5.5-21.5c0.5-1.6,1.9-2.8,3.7-2.8c1.8,0,3.2,1.2,3.7,3c5.8,25.6,5.8,25.6,5.8,25.6c4.6-14,4.6-14,4.6-14
			c0.5-1.4,1.8-2.5,3.2-2.7c1.6-0.2,3,0.7,3.7,1.9c5.5,9,5.5,9,5.5,9c6,0,6,0,6,0c2.1,0,3.7,1.8,3.7,3.9c0,1.9-1.6,3.7-3.7,3.7
			c-8.1,0-8.1,0-8.1,0c-1.4,0-2.6-0.7-3.3-1.8c-2.3-4.1-2.3-4.1-2.3-4.1c-6.3,18.9-6.3,18.9-6.3,18.9
			C241,286.1,239.6,287.2,238,287.2z"/>
	</g>
</g>
<g id="Function_-_Orchestrator">
</g>
<g id="Function_-_Pensando_Policy_and_Services_Manager">
</g>
<g id="Function_-_Fabric_Composer">
</g>
<g id="Generic_-_Virtual_Machine">
</g>
<g id="Generic_-_Server_Single">
</g>
<g id="Generic_-_Server_Multi">
</g>
<g id="Generic_-_Router">
</g>
<g id="Generic_-_Firewall">
</g>
<g id="Wi-Fi_Signal">
</g>
<g id="Generic_-_Cloud_Function_Container_Grey">
</g>
<g id="Generic_-_Cloud_Function_Container_White">
</g>
<g id="Generic_-_Cloud_Internet_Circuit">
</g>
<g id="Generic_-_Cloud_Private_Circuit">
</g>
<g id="Generic_-_Cloud">
</g>
<g id="Client_-_IOT_Sensor">
</g>
<g id="Client_-_IOT_IO">
</g>
<g id="Client_-_IOT_PLC">
</g>
<g id="Client_-_IOT_Patient_Monitor">
</g>
<g id="Client_-_IOT_Camera">
</g>
<g id="Client_-_IOT_Scanner">
</g>
<g id="IOT_-_TV_Cast">
</g>
<g id="Client_-_Printer">
</g>
<g id="Client_-_Game_Console">
</g>
<g id="Client_-_IP_Phone">
</g>
<g id="Client_-_Laptop">
</g>
<g id="Client_-_Desktop">
</g>
<g id="Client_-_Workstation">
</g>
<g id="Client_-_Tablet">
</g>
<g id="Client_-_Mobile_2">
</g>
<g id="Client_-_Mobile_1">
</g>
<g id="Device_-_EdgeConnect_Enterprise_Cloud">
</g>
<g id="Device_-_EdgeConnect_Enterprise_Virtual">
</g>
<g id="Device_-_EdgeConnect_Enterprise_Appliance">
</g>
<g id="Device_-_Core_Agg_Leaf_Switch">
</g>
<g id="Device_-_Access_Switch">
</g>
<g id="Device_-_Gateway_Headend">
</g>
<g id="Device_-_Gateway_Branch">
</g>
<g id="Device_-_Gateway_Campus">
</g>
<g id="Device_-_UXI_Sensor_New">
</g>
<g id="Device_-_UXI_Sensor">
</g>
<g id="Device_-_AP500_Series_Microbranch">
</g>
<g id="Device_-_AP600_Series">
</g>
<g id="Device_-_AP500_Series">
</g>
<g id="Device_-_Outdoor_AP">
</g>
</svg>
