<?xml version="1.0" encoding="utf-8"?>
<!-- Generator: Adobe Illustrator 26.3.1, SVG Export Plug-In . SVG Version: 6.00 Build 0)  -->
<svg version="1.1" xmlns="http://www.w3.org/2000/svg" xmlns:xlink="http://www.w3.org/1999/xlink" x="0px" y="0px"
	 viewBox="0 0 500 500" style="enable-background:new 0 0 500 500;" xml:space="preserve">
<style type="text/css">
	.st0{fill:#FFFFFF;}
	.st1{fill:#FF8300;}
	.st2{fill:#F78200;}
	.st3{fill:#F7931E;}
	.st4{fill:#5D5D5D;}
	.st5{fill:#FFFFFF;stroke:#65656A;stroke-width:12;stroke-miterlimit:10;}
	.st6{display:none;fill:#979797;stroke:#979797;stroke-width:3;stroke-linecap:round;stroke-linejoin:round;stroke-miterlimit:10;}
	.st7{fill:#979797;}
	.st8{fill:#65656A;}
	.st9{stroke:#009245;stroke-width:3;stroke-miterlimit:10;}
	.st10{fill:#F58220;}
	.st11{clip-path:url(#SVGID_00000150099078731332977760000015670444107610400653_);fill:#5E5E5E;}
	.st12{clip-path:url(#SVGID_00000095298477512759331690000014995503793929459844_);fill:#FFFFFF;}
	.st13{clip-path:url(#SVGID_00000137826630059409632840000001947148232678704277_);fill:#FFFFFF;}
	.st14{clip-path:url(#SVGID_00000137826630059409632840000001947148232678704277_);fill:#FF8300;}
	.st15{clip-path:url(#SVGID_00000148663754446169203740000000875350225369814409_);fill:#FFFFFF;}
	.st16{clip-path:url(#SVGID_00000148663754446169203740000000875350225369814409_);fill:#ADE1F0;}
	.st17{clip-path:url(#SVGID_00000070083935581889831230000014568774972196141468_);fill:#65656A;}
	.st18{clip-path:url(#SVGID_00000070083935581889831230000014568774972196141468_);fill:#646569;}
	.st19{clip-path:url(#SVGID_00000070083935581889831230000014568774972196141468_);fill:#D0D0D2;}
	.st20{clip-path:url(#SVGID_00000076603129047240644310000005510736272636754343_);fill:#FFFFFF;}
	.st21{clip-path:url(#SVGID_00000076603129047240644310000005510736272636754343_);fill:#646569;}
	.st22{clip-path:url(#SVGID_00000076603129047240644310000005510736272636754343_);fill:#65656A;}
	
		.st23{clip-path:url(#SVGID_00000023971105654203218680000012690012505852286110_);fill:#FFFFFF;stroke:#000000;stroke-miterlimit:10;}
	.st24{clip-path:url(#SVGID_00000023971105654203218680000012690012505852286110_);fill:#646569;}
	.st25{clip-path:url(#SVGID_00000023971105654203218680000012690012505852286110_);fill:#65656A;}
	
		.st26{clip-path:url(#SVGID_00000023971105654203218680000012690012505852286110_);fill:none;stroke:#65656A;stroke-width:0.1925;stroke-linecap:round;stroke-linejoin:round;stroke-miterlimit:10;}
	.st27{clip-path:url(#SVGID_00000024700463831221488070000017624582477086719672_);fill:#FFFFFF;}
	.st28{clip-path:url(#SVGID_00000024700463831221488070000017624582477086719672_);fill:#65656A;}
	.st29{clip-path:url(#SVGID_00000024700463831221488070000017624582477086719672_);fill:#646569;}
	.st30{clip-path:url(#SVGID_00000083051739158226908870000012394944171382539967_);fill:#FFFFFF;}
	.st31{clip-path:url(#SVGID_00000083051739158226908870000012394944171382539967_);fill:#646569;}
	.st32{clip-path:url(#SVGID_00000052069544887016388790000009999941295322253441_);fill:#FFFFFF;}
	.st33{clip-path:url(#SVGID_00000052069544887016388790000009999941295322253441_);fill:#65656A;}
	.st34{clip-path:url(#SVGID_00000052069544887016388790000009999941295322253441_);fill:#646569;}
	.st35{fill:#646569;}
	.st36{clip-path:url(#SVGID_00000039856049101302969370000013845860664085297056_);fill:#FFFFFF;}
	.st37{clip-path:url(#SVGID_00000039856049101302969370000013845860664085297056_);fill:#65666A;}
	
		.st38{clip-path:url(#SVGID_00000039856049101302969370000013845860664085297056_);fill:none;stroke:#65666A;stroke-width:0.1748;stroke-miterlimit:10;}
	.st39{clip-path:url(#SVGID_00000006698918955284969110000000287105065973599657_);fill:#FFFFFF;}
	.st40{clip-path:url(#SVGID_00000006698918955284969110000000287105065973599657_);fill:#646569;}
	.st41{fill:none;stroke:#65656A;stroke-width:3;stroke-miterlimit:10;}
	.st42{fill:#EC8020;}
	.st43{fill:#ED8020;}
	.st44{fill:none;stroke:#65656A;stroke-width:3;stroke-linecap:round;stroke-miterlimit:10;}
	.st45{fill:none;stroke:#646569;stroke-width:10;stroke-linejoin:round;stroke-miterlimit:10;}
	.st46{fill:none;stroke:#646569;stroke-width:10;stroke-miterlimit:10;}
	.st47{fill:none;stroke:#646569;stroke-width:10;stroke-linecap:round;stroke-miterlimit:10;}
	.st48{fill:none;stroke:#65656A;stroke-width:8;stroke-linecap:round;stroke-miterlimit:10;}
	.st49{fill:#FFFFFF;stroke:#65656A;stroke-width:8;stroke-linecap:round;stroke-linejoin:round;stroke-miterlimit:10;}
	.st50{fill:none;stroke:#65656A;stroke-width:8;stroke-miterlimit:10;}
</style>
<g id="Function_-_Central_APIs">
</g>
<g id="Function_-_Central_Route_Orchestrator">
</g>
<g id="Function_-_Central_Tunnel_Orchestrator">
</g>
<g id="Function_-_Central_NetConductor">
</g>
<g id="Function_-_Central_Network_Management">
</g>
<g id="Function_-_Central_Network_Insights">
</g>
<g id="Function_-_Central_Client_Insights">
	<circle class="st0" cx="250" cy="250" r="183"/>
	<path class="st1" d="M250.1,410.8c-88.7,0-160.9-72.2-160.9-160.9c0-88.6,72.1-160.7,160.9-160.7c88.6,0,160.7,72.2,160.7,160.7
		C410.8,338.6,338.6,410.8,250.1,410.8z M481.2,270.8c0-20.8,0-20.8,0-20.8c0-20.7,0-20.7,0-20.7c-39.8-6.5-39.8-6.5-39.8-6.5
		c-1-7.1-2.4-13.9-4.1-20.7c34.3-21.3,34.3-21.3,34.3-21.3c-8-19.2-8-19.2-8-19.2c-8-19.2-8-19.2-8-19.2
		c-39.2,9.3-39.2,9.3-39.2,9.3c-3.7-6.1-7.5-12-11.8-17.6c23.7-32.8,23.7-32.8,23.7-32.8c-14.8-14.6-14.8-14.6-14.8-14.6
		c-14.6-14.8-14.6-14.8-14.6-14.8C366,95.4,366,95.4,366,95.4c-5.6-4.3-11.4-8.1-17.6-11.8c9.3-39.2,9.3-39.2,9.3-39.2
		c-19.2-8-19.2-8-19.2-8c-19.2-8-19.2-8-19.2-8C298,62.7,298,62.7,298,62.7c-6.7-1.8-13.6-3.1-20.7-4.1c-6.5-39.8-6.5-39.8-6.5-39.8
		c-20.7,0-20.7,0-20.7,0c-20.9,0-20.9,0-20.9,0c-6.5,39.8-6.5,39.8-6.5,39.8c-7.1,1-13.9,2.4-20.7,4.1
		c-21.3-34.3-21.3-34.3-21.3-34.3c-19.2,8-19.2,8-19.2,8c-19.2,8-19.2,8-19.2,8c9.3,39.2,9.3,39.2,9.3,39.2
		c-6.1,3.7-12,7.5-17.6,11.8c-32.8-23.7-32.8-23.7-32.8-23.7C86.6,86.6,86.6,86.6,86.6,86.6c-14.6,14.6-14.6,14.6-14.6,14.6
		C95.4,134,95.4,134,95.4,134c-4.3,5.6-8.1,11.5-11.8,17.6c-39.2-9.3-39.2-9.3-39.2-9.3c-8,19.2-8,19.2-8,19.2
		c-8,19.2-8,19.2-8,19.2C62.8,202,62.8,202,62.8,202c-1.8,6.8-3.1,13.6-4.1,20.7c-39.8,6.5-39.8,6.5-39.8,6.5c0,20.7,0,20.7,0,20.7
		c0,20.8,0,20.8,0,20.8c39.8,6.5,39.8,6.5,39.8,6.5c1,7.1,2.4,13.9,4.1,20.7c-34.3,21.3-34.3,21.3-34.3,21.3c8,19.2,8,19.2,8,19.2
		c8,19.2,8,19.2,8,19.2c39.2-9.3,39.2-9.3,39.2-9.3c3.7,6.1,7.5,12,11.8,17.6c-23.5,32.8-23.5,32.8-23.5,32.8
		c14.6,14.6,14.6,14.6,14.6,14.6c14.6,14.6,14.6,14.6,14.6,14.6c32.8-23.5,32.8-23.5,32.8-23.5c5.6,4.3,11.5,8.1,17.6,11.8
		c-9.3,39.2-9.3,39.2-9.3,39.2c19.2,8,19.2,8,19.2,8c19.2,8,19.2,8,19.2,8c21.3-34.3,21.3-34.3,21.3-34.3c6.8,1.8,13.6,3.1,20.7,4.1
		c6.5,39.8,6.5,39.8,6.5,39.8c20.9,0,20.9,0,20.9,0c20.7,0,20.7,0,20.7,0c6.5-39.8,6.5-39.8,6.5-39.8c7.1-1,14-2.4,20.7-4.1
		c21.3,34.3,21.3,34.3,21.3,34.3c19.2-8,19.2-8,19.2-8c19.2-8,19.2-8,19.2-8c-9.3-39.2-9.3-39.2-9.3-39.2c6.2-3.7,12-7.5,17.6-11.8
		c32.8,23.5,32.8,23.5,32.8,23.5c14.6-14.6,14.6-14.6,14.6-14.6c14.8-14.6,14.8-14.6,14.8-14.6C404.6,366,404.6,366,404.6,366
		c4.3-5.6,8.1-11.5,11.8-17.6c39.2,9.3,39.2,9.3,39.2,9.3c8-19.2,8-19.2,8-19.2c8-19.2,8-19.2,8-19.2C437.2,298,437.2,298,437.2,298
		c1.8-6.8,3.1-13.6,4.1-20.7L481.2,270.8z"/>
	<path class="st1" d="M250.1,109.3c-77.6,0-140.8,63.1-140.8,140.6c0,77.6,63.1,140.7,140.8,140.7c77.5,0,140.6-63.1,140.6-140.7
		C390.7,172.5,327.6,109.3,250.1,109.3z"/>
	<g>
		<path class="st0" d="M271.3,202.4c-10,0-19.8,4-26.9,12.2c-6.1,7.1-9.2,16.4-8.5,25.9c0.6,9.4,4.9,18,12.2,24.3
			c7.1,6.2,16.3,9.2,25.7,8.6c9.5-0.7,18.1-5.1,24.4-12.2c6.2-7.1,9.2-16.4,8.5-25.9c-0.6-9.4-4.9-18-12-24.3
			C287.8,205.3,279.7,202.4,271.3,202.4z M271.3,280.3c-10.2,0-19.9-3.6-27.6-10.3c-8.6-7.4-13.8-17.7-14.6-29
			c-0.9-11.3,2.8-22.3,10.3-30.8c15.1-17.7,42-19.6,59.7-4.3c8.5,7.4,13.7,17.7,14.4,29c0.9,11.3-2.8,22.2-10.1,30.8
			c-7.4,8.6-17.7,13.7-29,14.6C273.4,280.3,272.4,280.3,271.3,280.3z"/>
		<path class="st3" d="M271.3,202.4c-10,0-19.8,4-26.9,12.2c-6.1,7.1-9.2,16.4-8.5,25.9c0.6,9.4,4.9,18,12.2,24.3
			c6.5,5.7,14.7,8.6,23.2,8.6c0.9,0,1.6,0,2.5,0c9.5-0.7,18.1-5.1,24.4-12.2c6.2-7.1,9.2-16.4,8.5-25.9c-0.6-9.4-4.9-18-12-24.3
			C287.8,205.3,279.7,202.4,271.3,202.4z"/>
		<path class="st0" d="M271.3,198.9c-10.8,0-21.7,4.6-29.4,13.5c-14.1,16.2-12.3,40.9,4,54.9c7.3,6.4,16.3,9.5,25.4,9.5
			c10.8,0,21.7-4.5,29.4-13.4c14.1-16.4,12.3-40.9-3.9-55.1C289.4,202,280.4,198.9,271.3,198.9z M271.3,273.4
			c-8.5,0-16.6-3-23.2-8.6c-7.3-6.3-11.6-14.9-12.2-24.3c-0.7-9.5,2.4-18.7,8.5-25.9c7.1-8.2,16.9-12.2,26.9-12.2
			c8.3,0,16.5,2.8,23.3,8.6c7.1,6.2,11.4,14.9,12,24.3c0.7,9.5-2.2,18.7-8.5,25.9c-6.2,7.1-14.8,11.5-24.4,12.2
			C273,273.4,272.2,273.4,271.3,273.4z"/>
		<path class="st0" d="M328.4,283.5c-0.2,0-0.3,0-0.3,0c-0.9,0.2-1.8,0.6-2.4,1.2c-0.3,0.4-0.3,0.4-0.3,0.4
			c-0.6,0.6-0.9,1.5-0.7,2.4c0,0.9,0.4,1.8,1.2,2.4c26.9,23.4,26.9,23.4,26.9,23.4c1.5,1.3,3.6,1.2,4.9-0.3c0.3-0.3,0.3-0.3,0.3-0.3
			c0.6-0.7,0.9-1.6,0.7-2.5c0-0.9-0.4-1.8-1.2-2.4c-26.9-23.4-26.9-23.4-26.9-23.4C329.9,283.8,329.1,283.5,328.4,283.5z
			 M360.4,314.9 M354.9,321c-2.4,0-4.7-0.7-6.7-2.5c-27-23.4-27-23.4-27-23.4c-4.2-3.7-4.8-10.3-1-14.6c0.3-0.3,0.3-0.3,0.3-0.3
			c1.8-2.1,4.3-3.3,7.1-3.6c2.7-0.1,5.4,0.7,7.4,2.5c27,23.4,27,23.4,27,23.4c1.9,1.9,3.3,4.3,3.4,7.1c0.3,2.7-0.6,5.4-2.4,7.4
			c-0.3,0.3-0.3,0.3-0.3,0.3C360.7,319.8,357.9,321,354.9,321z"/>
		<path class="st0" d="M316.8,280.7c-0.8,0-1.6-0.1-2.2-0.7c-9.5-8.3-9.5-8.3-9.5-8.3c-1.5-1.2-1.6-3.4-0.4-4.8
			c1.3-1.5,3.4-1.6,4.9-0.4c9.5,8.3,9.5,8.3,9.5,8.3c1.5,1.2,1.6,3.4,0.4,4.8C318.7,280.4,317.8,280.7,316.8,280.7z"/>
		<path class="st0" d="M189.6,253.8c-0.4,0-1,0-1.5-0.3c-44.7-19.6-44.7-19.6-44.7-19.6c-4.2-1.9-5.9-6.9-4.2-11
			c6.7-15,6.7-15,6.7-15c0.7-1.8,2.7-2.5,4.5-1.8c1.8,0.7,2.5,2.8,1.8,4.5c-6.7,15.2-6.7,15.2-6.7,15.2c-0.3,0.7,0,1.6,0.7,1.9
			c44.7,19.6,44.7,19.6,44.7,19.6c1.8,0.7,2.5,2.8,1.8,4.6C192.2,253,191,253.8,189.6,253.8z"/>
		<path class="st0" d="M197.9,273.9c-0.9,0-1.6-0.1-2.4-0.4c2.8-6.3,2.8-6.3,2.8-6.3c-0.6-0.3-1.2,0-1.5,0.4
			c3.6-7.9,3.6-7.9,3.6-7.9c-4.6-2.1-4.6-2.1-4.6-2.1c2.8-6.2,2.8-6.2,2.8-6.2c5.6,2.5,5.6,2.5,5.6,2.5c2.8,1.3,4.2,4.8,2.8,7.7
			c-4,8.8-4,8.8-4,8.8c-0.6,1.5-1.8,2.5-3.1,3.1C199.3,273.7,198.5,273.9,197.9,273.9z"/>
		<path class="st0" d="M258.7,271c-0.9,0-1.6-0.2-2.5-0.4c-16.9-7.7-16.9-7.7-16.9-7.7c2.8-6.3,2.8-6.3,2.8-6.3
			c16,7.3,16,7.3,16,7.3c3.1-7,3.1-7,3.1-7c-16-7.3-16-7.3-16-7.3c2.8-6.3,2.8-6.3,2.8-6.3c17.1,7.7,17.1,7.7,17.1,7.7
			c2.8,1.3,4.2,4.8,2.8,7.7c-4,8.8-4,8.8-4,8.8c-0.6,1.5-1.8,2.5-3.3,3.1C260,270.9,259.3,271,258.7,271z"/>
		<path class="st0" d="M274.1,231 M233.3,273.9c-1,0-2.2-0.3-3.4-0.7c-41.6-18.9-41.6-18.9-41.6-18.9c2.8-6.2,2.8-6.2,2.8-6.2
			c7.6,3.4,7.6,3.4,7.6,3.4c0.1,0,0.1,0,0.1,0c33.9,15.5,33.9,15.5,33.9,15.5c0.6,0.3,0.9,0.1,1.2,0c0.2,0,0.4-0.2,0.7-0.7
			c13.1-28.7,13.1-28.7,13.1-28.7c21.8,0.2,21.8,0.2,21.8,0.2c0.2,0.2,0.3,0.2,0.4,0.2c3.3-7.1,3.3-7.1,3.3-7.1
			c-72.8-33-72.8-33-72.8-33c-1.6-0.7-2.5-2.8-1.6-4.5c0.8-1.8,2.8-2.5,4.5-1.8c73.7,33.5,73.7,33.5,73.7,33.5
			c1.3,0.6,2.5,1.8,3,3.3c0.6,1.5,0.6,3-0.2,4.5c-3.9,8.8-3.9,8.8-3.9,8.8c-1.6,3.4-4.2,3.3-6.5,3.3c-17.4-0.3-17.4-0.3-17.4-0.3
			c-11.1,24.8-11.1,24.8-11.1,24.8c-0.9,1.9-2.5,3.4-4.6,4.3C235.2,273.7,234.3,273.9,233.3,273.9z"/>
		<path class="st0" d="M154.9,201c-0.4,0-0.9,0-1.3-0.2c-1.8-0.9-2.5-2.8-1.8-4.6c6.8-16.1,6.8-16.1,6.8-16.1
			c1.9-4.2,6.8-5.9,11-4.2c31.2,14.1,31.2,14.1,31.2,14.1c1.8,0.9,2.5,2.8,1.8,4.6c-0.9,1.8-2.8,2.5-4.6,1.6
			c-31.2-14.1-31.2-14.1-31.2-14.1c-0.7-0.3-1.5,0-1.8,0.7c-7,16.1-7,16.1-7,16.1C157.4,200.2,156.2,201,154.9,201z"/>
		<path class="st0" d="M195.6,273.4c-29.7-13.5-29.7-13.5-29.7-13.5c-2.8-1.3-4.2-4.8-2.8-7.7c4-8.8,4-8.8,4-8.8
			c1.3-2.8,4.7-4.2,7.7-2.8c16.3,7.4,16.3,7.4,16.3,7.4c-2.8,6.2-2.8,6.2-2.8,6.2c-15.5-7-15.5-7-15.5-7c-3.1,6.8-3.1,6.8-3.1,6.8
			c28.7,13.1,28.7,13.1,28.7,13.1L195.6,273.4z"/>
		<path class="st0" d="M179.7,291.1c-35.5,0-35.5,0-35.5,0c-1.9,0-3.4-1.5-3.4-3.4c0-1.9,1.5-3.4,3.4-3.4c34.5,0,34.5,0,34.5,0
			c0-0.1,0-0.1,0-0.1c0-18.7,0-18.7,0-18.7c0-1.9,1.5-3.4,3.4-3.4s3.4,1.5,3.4,3.4c0,18.7,0,18.7,0,18.7
			C185.5,287.1,183.2,291.1,179.7,291.1z"/>
		<path class="st0" d="M143.6,301.4c-1.9,0-3.4-1.6-3.4-3.4c0-21.7,0-21.7,0-21.7c0-1.9,1.5-3.4,3.4-3.4c1.8,0,3.4,1.5,3.4,3.4
			c0,21.7,0,21.7,0,21.7C147,299.8,145.4,301.4,143.6,301.4z"/>
	</g>
</g>
<g id="Function_-_ClearPass_Policy_Manager">
</g>
<g id="Function_-_UXI_APIs">
</g>
<g id="Function_-_UXI_Dashboard">
</g>
<g id="Function_-_Orchestrator_Global_Enterprise">
</g>
<g id="Function_-_Orchestrator">
</g>
<g id="Function_-_Pensando_Policy_and_Services_Manager">
</g>
<g id="Function_-_Fabric_Composer">
</g>
<g id="Generic_-_Virtual_Machine">
</g>
<g id="Generic_-_Server_Single">
</g>
<g id="Generic_-_Server_Multi">
</g>
<g id="Generic_-_Router">
</g>
<g id="Generic_-_Firewall">
</g>
<g id="Wi-Fi_Signal">
</g>
<g id="Generic_-_Cloud_Function_Container_Grey">
</g>
<g id="Generic_-_Cloud_Function_Container_White">
</g>
<g id="Generic_-_Cloud_Internet_Circuit">
</g>
<g id="Generic_-_Cloud_Private_Circuit">
</g>
<g id="Generic_-_Cloud">
</g>
<g id="Client_-_IOT_Sensor">
</g>
<g id="Client_-_IOT_IO">
</g>
<g id="Client_-_IOT_PLC">
</g>
<g id="Client_-_IOT_Patient_Monitor">
</g>
<g id="Client_-_IOT_Camera">
</g>
<g id="Client_-_IOT_Scanner">
</g>
<g id="IOT_-_TV_Cast">
</g>
<g id="Client_-_Printer">
</g>
<g id="Client_-_Game_Console">
</g>
<g id="Client_-_IP_Phone">
</g>
<g id="Client_-_Laptop">
</g>
<g id="Client_-_Desktop">
</g>
<g id="Client_-_Workstation">
</g>
<g id="Client_-_Tablet">
</g>
<g id="Client_-_Mobile_2">
</g>
<g id="Client_-_Mobile_1">
</g>
<g id="Device_-_EdgeConnect_Enterprise_Cloud">
</g>
<g id="Device_-_EdgeConnect_Enterprise_Virtual">
</g>
<g id="Device_-_EdgeConnect_Enterprise_Appliance">
</g>
<g id="Device_-_Core_Agg_Leaf_Switch">
</g>
<g id="Device_-_Access_Switch">
</g>
<g id="Device_-_Gateway_Headend">
</g>
<g id="Device_-_Gateway_Branch">
</g>
<g id="Device_-_Gateway_Campus">
</g>
<g id="Device_-_UXI_Sensor_New">
</g>
<g id="Device_-_UXI_Sensor">
</g>
<g id="Device_-_AP500_Series_Microbranch">
</g>
<g id="Device_-_AP600_Series">
</g>
<g id="Device_-_AP500_Series">
</g>
<g id="Device_-_Outdoor_AP">
</g>
</svg>
