<?xml version="1.0" encoding="utf-8"?>
<!-- Generator: Adobe Illustrator 26.3.1, SVG Export Plug-In . SVG Version: 6.00 Build 0)  -->
<svg version="1.1" xmlns="http://www.w3.org/2000/svg" xmlns:xlink="http://www.w3.org/1999/xlink" x="0px" y="0px"
	 viewBox="0 0 500 500" style="enable-background:new 0 0 500 500;" xml:space="preserve">
<style type="text/css">
	.st0{fill:#FFFFFF;}
	.st1{fill:#FF8300;}
	.st2{fill:#F78200;}
	.st3{fill:#F7931E;}
	.st4{fill:#5D5D5D;}
	.st5{fill:#FFFFFF;stroke:#65656A;stroke-width:12;stroke-miterlimit:10;}
	.st6{display:none;fill:#979797;stroke:#979797;stroke-width:3;stroke-linecap:round;stroke-linejoin:round;stroke-miterlimit:10;}
	.st7{fill:#979797;}
	.st8{fill:#65656A;}
	.st9{stroke:#009245;stroke-width:3;stroke-miterlimit:10;}
	.st10{fill:#F58220;}
	.st11{clip-path:url(#SVGID_00000160880458035391496920000011757934960636560029_);fill:#5E5E5E;}
	.st12{clip-path:url(#SVGID_00000122717844705184592380000006063704558931036806_);fill:#FFFFFF;}
	.st13{clip-path:url(#SVGID_00000059306340911570222230000017640338667216553145_);fill:#FFFFFF;}
	.st14{clip-path:url(#SVGID_00000059306340911570222230000017640338667216553145_);fill:#FF8300;}
	.st15{clip-path:url(#SVGID_00000049939588596131220860000004851628952671194267_);fill:#FFFFFF;}
	.st16{clip-path:url(#SVGID_00000049939588596131220860000004851628952671194267_);fill:#ADE1F0;}
	.st17{clip-path:url(#SVGID_00000070099252336164852230000017889340635316408246_);fill:#65656A;}
	.st18{clip-path:url(#SVGID_00000070099252336164852230000017889340635316408246_);fill:#646569;}
	.st19{clip-path:url(#SVGID_00000070099252336164852230000017889340635316408246_);fill:#D0D0D2;}
	.st20{clip-path:url(#SVGID_00000059277422749993390840000004675339009190120876_);fill:#FFFFFF;}
	.st21{clip-path:url(#SVGID_00000059277422749993390840000004675339009190120876_);fill:#646569;}
	.st22{clip-path:url(#SVGID_00000059277422749993390840000004675339009190120876_);fill:#65656A;}
	
		.st23{clip-path:url(#SVGID_00000044159474397329686690000014920040117583396027_);fill:#FFFFFF;stroke:#000000;stroke-miterlimit:10;}
	.st24{clip-path:url(#SVGID_00000044159474397329686690000014920040117583396027_);fill:#646569;}
	.st25{clip-path:url(#SVGID_00000044159474397329686690000014920040117583396027_);fill:#65656A;}
	
		.st26{clip-path:url(#SVGID_00000044159474397329686690000014920040117583396027_);fill:none;stroke:#65656A;stroke-width:0.1925;stroke-linecap:round;stroke-linejoin:round;stroke-miterlimit:10;}
	.st27{clip-path:url(#SVGID_00000162330924015327874510000007244368359178810260_);fill:#FFFFFF;}
	.st28{clip-path:url(#SVGID_00000162330924015327874510000007244368359178810260_);fill:#65656A;}
	.st29{clip-path:url(#SVGID_00000162330924015327874510000007244368359178810260_);fill:#646569;}
	.st30{clip-path:url(#SVGID_00000053519348524164064230000014641303054508127656_);fill:#FFFFFF;}
	.st31{clip-path:url(#SVGID_00000053519348524164064230000014641303054508127656_);fill:#646569;}
	.st32{clip-path:url(#SVGID_00000118359135282654784990000005320026235566972854_);fill:#FFFFFF;}
	.st33{clip-path:url(#SVGID_00000118359135282654784990000005320026235566972854_);fill:#65656A;}
	.st34{clip-path:url(#SVGID_00000118359135282654784990000005320026235566972854_);fill:#646569;}
	.st35{fill:#646569;}
	.st36{clip-path:url(#SVGID_00000088826871520603262450000004499843566707782311_);fill:#FFFFFF;}
	.st37{clip-path:url(#SVGID_00000088826871520603262450000004499843566707782311_);fill:#65666A;}
	
		.st38{clip-path:url(#SVGID_00000088826871520603262450000004499843566707782311_);fill:none;stroke:#65666A;stroke-width:0.1748;stroke-miterlimit:10;}
	.st39{clip-path:url(#SVGID_00000080922914552541264950000013670356106264369304_);fill:#FFFFFF;}
	.st40{clip-path:url(#SVGID_00000080922914552541264950000013670356106264369304_);fill:#646569;}
	.st41{fill:none;stroke:#65656A;stroke-width:3;stroke-miterlimit:10;}
	.st42{fill:#EC8020;}
	.st43{fill:#ED8020;}
	.st44{fill:none;stroke:#65656A;stroke-width:3;stroke-linecap:round;stroke-miterlimit:10;}
	.st45{fill:none;stroke:#646569;stroke-width:10;stroke-linejoin:round;stroke-miterlimit:10;}
	.st46{fill:none;stroke:#646569;stroke-width:10;stroke-miterlimit:10;}
	.st47{fill:none;stroke:#646569;stroke-width:10;stroke-linecap:round;stroke-miterlimit:10;}
	.st48{fill:none;stroke:#65656A;stroke-width:8;stroke-linecap:round;stroke-miterlimit:10;}
	.st49{fill:#FFFFFF;stroke:#65656A;stroke-width:8;stroke-linecap:round;stroke-linejoin:round;stroke-miterlimit:10;}
	.st50{fill:none;stroke:#65656A;stroke-width:8;stroke-miterlimit:10;}
</style>
<g id="Function_-_Central_APIs">
</g>
<g id="Function_-_Central_Route_Orchestrator">
</g>
<g id="Function_-_Central_Tunnel_Orchestrator">
</g>
<g id="Function_-_Central_NetConductor">
</g>
<g id="Function_-_Central_Network_Management">
</g>
<g id="Function_-_Central_Network_Insights">
</g>
<g id="Function_-_Central_Client_Insights">
</g>
<g id="Function_-_ClearPass_Policy_Manager">
</g>
<g id="Function_-_UXI_APIs">
	<circle class="st0" cx="250" cy="250" r="183"/>
	<path class="st1" d="M250.1,410.8c-88.7,0-160.9-72.2-160.9-160.9c0-88.6,72.1-160.7,160.9-160.7c88.6,0,160.7,72.2,160.7,160.7
		C410.8,338.6,338.6,410.8,250.1,410.8z M481.2,270.8c0-20.8,0-20.8,0-20.8c0-20.7,0-20.7,0-20.7c-39.8-6.5-39.8-6.5-39.8-6.5
		c-1-7.1-2.4-13.9-4.1-20.7c34.3-21.3,34.3-21.3,34.3-21.3c-8-19.2-8-19.2-8-19.2c-8-19.2-8-19.2-8-19.2
		c-39.2,9.3-39.2,9.3-39.2,9.3c-3.7-6.1-7.5-12-11.8-17.6c23.7-32.8,23.7-32.8,23.7-32.8c-14.8-14.6-14.8-14.6-14.8-14.6
		c-14.6-14.8-14.6-14.8-14.6-14.8C366,95.4,366,95.4,366,95.4c-5.6-4.3-11.4-8.1-17.6-11.8c9.3-39.2,9.3-39.2,9.3-39.2
		c-19.2-8-19.2-8-19.2-8c-19.2-8-19.2-8-19.2-8C298,62.7,298,62.7,298,62.7c-6.7-1.8-13.6-3.1-20.7-4.1c-6.5-39.8-6.5-39.8-6.5-39.8
		c-20.7,0-20.7,0-20.7,0c-20.9,0-20.9,0-20.9,0c-6.5,39.8-6.5,39.8-6.5,39.8c-7.1,1-13.9,2.4-20.7,4.1
		c-21.3-34.3-21.3-34.3-21.3-34.3c-19.2,8-19.2,8-19.2,8c-19.2,8-19.2,8-19.2,8c9.3,39.2,9.3,39.2,9.3,39.2
		c-6.1,3.7-12,7.5-17.6,11.8c-32.8-23.7-32.8-23.7-32.8-23.7C86.6,86.6,86.6,86.6,86.6,86.6c-14.6,14.6-14.6,14.6-14.6,14.6
		C95.4,134,95.4,134,95.4,134c-4.3,5.6-8.1,11.5-11.8,17.6c-39.2-9.3-39.2-9.3-39.2-9.3c-8,19.2-8,19.2-8,19.2
		c-8,19.2-8,19.2-8,19.2C62.8,202,62.8,202,62.8,202c-1.8,6.8-3.1,13.6-4.1,20.7c-39.8,6.5-39.8,6.5-39.8,6.5c0,20.7,0,20.7,0,20.7
		c0,20.8,0,20.8,0,20.8c39.8,6.5,39.8,6.5,39.8,6.5c1,7.1,2.4,13.9,4.1,20.7c-34.3,21.3-34.3,21.3-34.3,21.3c8,19.2,8,19.2,8,19.2
		c8,19.2,8,19.2,8,19.2c39.2-9.3,39.2-9.3,39.2-9.3c3.7,6.1,7.5,12,11.8,17.6c-23.5,32.8-23.5,32.8-23.5,32.8
		c14.6,14.6,14.6,14.6,14.6,14.6c14.6,14.6,14.6,14.6,14.6,14.6c32.8-23.5,32.8-23.5,32.8-23.5c5.6,4.3,11.5,8.1,17.6,11.8
		c-9.3,39.2-9.3,39.2-9.3,39.2c19.2,8,19.2,8,19.2,8c19.2,8,19.2,8,19.2,8c21.3-34.3,21.3-34.3,21.3-34.3c6.8,1.8,13.6,3.1,20.7,4.1
		c6.5,39.8,6.5,39.8,6.5,39.8c20.9,0,20.9,0,20.9,0c20.7,0,20.7,0,20.7,0c6.5-39.8,6.5-39.8,6.5-39.8c7.1-1,14-2.4,20.7-4.1
		c21.3,34.3,21.3,34.3,21.3,34.3c19.2-8,19.2-8,19.2-8c19.2-8,19.2-8,19.2-8c-9.3-39.2-9.3-39.2-9.3-39.2c6.2-3.7,12-7.5,17.6-11.8
		c32.8,23.5,32.8,23.5,32.8,23.5c14.6-14.6,14.6-14.6,14.6-14.6c14.8-14.6,14.8-14.6,14.8-14.6C404.6,366,404.6,366,404.6,366
		c4.3-5.6,8.1-11.5,11.8-17.6c39.2,9.3,39.2,9.3,39.2,9.3c8-19.2,8-19.2,8-19.2c8-19.2,8-19.2,8-19.2C437.2,298,437.2,298,437.2,298
		c1.8-6.8,3.1-13.6,4.1-20.7L481.2,270.8z"/>
	<path class="st1" d="M250.1,109.3c-77.6,0-140.8,63.1-140.8,140.6c0,77.6,63.1,140.7,140.8,140.7c77.5,0,140.6-63.1,140.6-140.7
		C390.7,172.5,327.6,109.3,250.1,109.3z"/>
	<g>
		<path class="st0" d="M197.3,164c-22.3,0-40.2,18-40.2,40.1c0,22.1,18,40.2,40.2,40.2c22.1,0,40.1-18.1,40.1-40.2
			C237.4,182,219.4,164,197.3,164z M197.3,249c-24.8,0-45.1-20.1-45.1-45c0-24.8,20.3-45,45.1-45c24.8,0,45,20.1,45,45
			C242.3,228.9,222.1,249,197.3,249z"/>
		<path class="st0" d="M186.8,196.9c0,3.4-2.7,6.1-6.1,6.1c-3.4,0-6.1-2.7-6.1-6.1c0-3.3,2.7-6.1,6.1-6.1
			C184.1,190.8,186.8,193.6,186.8,196.9z"/>
		<path class="st0" d="M220.6,196.9c0,3.4-2.8,6.1-6.1,6.1c-3.4,0-6.1-2.7-6.1-6.1c0-3.3,2.7-6.1,6.1-6.1
			C217.8,190.8,220.6,193.6,220.6,196.9z"/>
		<path class="st0" d="M197.4,229.7c-7.5,0-15-2.6-20.9-7.8c-1-0.9-1.2-2.5-0.3-3.4c0.9-1,2.5-1.1,3.4-0.3c10.5,9.1,26,8.8,36.2-0.6
			c0.9-0.8,2.5-0.8,3.4,0.1c0.9,1,0.8,2.6-0.1,3.5C213,226.8,205.2,229.7,197.4,229.7z"/>
		<path class="st0" d="M294.6,197c0,3.3-2.7,6-5.9,6c-3.3,0-6-2.7-6-6c0-3.2,2.7-5.9,6-5.9C291.9,191.1,294.6,193.8,294.6,197z"/>
		<path class="st0" d="M327.6,197c0,3.3-2.7,6-6,6c-3.2,0-5.9-2.7-5.9-6c0-3.2,2.7-5.9,5.9-5.9C324.9,191.1,327.6,193.8,327.6,197z"
			/>
		<path class="st0" d="M325.4,226c-0.6,0-1.2-0.2-1.8-0.7c-10.3-10.3-27-10.3-37.3,0c-1,0.9-2.5,0.9-3.5,0c-0.9-0.9-0.9-2.5,0-3.4
			c12.3-12.1,32.1-12.1,44.3,0c1,0.9,1,2.5,0,3.4C326.6,225.8,326,226,325.4,226z"/>
		<path class="st0" d="M303.7,165.2c-21.5,0-39.1,17.4-39.1,39c0,21.6,17.6,39.1,39.1,39.1c21.6,0,39.2-17.5,39.2-39.1
			C342.9,182.7,325.4,165.2,303.7,165.2z M303.7,248.2c-24.2,0-44-19.7-44-43.9c0-24.2,19.8-43.9,44-43.9
			c24.3,0,44.1,19.7,44.1,43.9C347.8,228.5,328.1,248.2,303.7,248.2z"/>
	</g>
	<g>
		<path class="st0" d="M188.1,288.8v7.7h-1c-1,0-1.7,0.2-2.2,0.6s-0.8,1.1-1,1.9c-0.1,0.5-0.2,1.8-0.2,3.9s-0.2,3.8-0.7,5
			c-0.3,0.9-0.8,1.7-1.3,2.2c-0.4,0.4-1.2,0.9-2.2,1.3c1,0.5,1.8,1,2.3,1.5s0.9,1.3,1.3,2.4s0.5,2.8,0.5,5.1c0,2.1,0.1,3.5,0.3,4.1
			s0.6,1.1,1.1,1.4c0.5,0.3,1.5,0.4,3.1,0.4v7.6h-3c-3,0-5.2-0.3-6.5-1s-2.2-1.6-2.7-2.9s-0.8-3.2-0.8-5.7c0-0.6,0-1.1,0-1.7
			c0-0.3,0-0.7,0-1.1c0-1.8-0.2-3.1-0.5-3.9s-0.8-1.3-1.4-1.7s-1.5-0.5-2.7-0.6v-8c1.2,0,2.1-0.2,2.7-0.6c0.6-0.4,1.1-0.9,1.4-1.7
			s0.5-2.1,0.5-3.9v-0.8c0-0.4,0-0.7,0-1.1c0-2.8,0.2-4.8,0.7-6s1.1-2.2,1.9-2.8c0.6-0.5,1.4-0.9,2.5-1.1c1.4-0.3,3-0.5,4.8-0.5
			H188.1z"/>
		<path class="st0" d="M229.3,318.1h-12.1l-1.7,5.7h-10.8l12.9-34.4h11.6l12.9,34.4H231L229.3,318.1z M227.1,310.7l-3.8-12.4
			l-3.8,12.4H227.1z"/>
		<path class="st0" d="M245.5,289.4h17.6c3.8,0,6.7,0.9,8.6,2.7s2.9,4.4,2.9,7.8c0,3.5-1,6.2-3.1,8.1s-5.3,2.9-9.6,2.9h-5.8v12.8
			h-10.7V289.4z M256.1,304.1h2.6c2,0,3.5-0.4,4.3-1.1s1.2-1.6,1.2-2.7c0-1.1-0.4-2-1.1-2.7s-2.1-1.1-4.1-1.1h-3V304.1z"/>
		<path class="st0" d="M280.6,289.4h10.6v34.4h-10.6V289.4z"/>
		<path class="st0" d="M315.1,288.8c1.8,0,3.4,0.2,4.8,0.5c1,0.2,1.9,0.6,2.5,1.1c0.8,0.7,1.4,1.6,1.9,2.8s0.7,3.2,0.7,6
			c0,0.4,0,0.7,0,1.1v0.8c0,1.8,0.2,3.2,0.5,3.9s0.8,1.3,1.4,1.7s1.5,0.6,2.7,0.6v8c-1.2,0-2.1,0.2-2.7,0.6s-1.1,0.9-1.4,1.7
			s-0.5,2.1-0.5,3.9c0,0.4,0,0.7,0,1.1c0,0.6,0,1.1,0,1.7c0,2.5-0.3,4.5-0.8,5.7s-1.5,2.2-2.7,2.9s-3.4,1-6.5,1h-3v-7.6
			c1.5,0,2.6-0.1,3.1-0.4s0.9-0.7,1.1-1.4s0.3-2,0.3-4.1c0-2.3,0.2-4.1,0.5-5.1s0.8-1.9,1.3-2.4s1.3-1,2.3-1.5
			c-1-0.4-1.7-0.9-2.2-1.3c-0.6-0.6-1-1.3-1.3-2.2c-0.4-1.2-0.6-2.9-0.7-5s-0.1-3.4-0.2-3.9c-0.2-0.9-0.5-1.5-1-1.9
			c-0.5-0.4-1.2-0.6-2.2-0.6h-1v-7.7H315.1z"/>
	</g>
</g>
<g id="Function_-_UXI_Dashboard">
</g>
<g id="Function_-_Orchestrator_Global_Enterprise">
</g>
<g id="Function_-_Orchestrator">
</g>
<g id="Function_-_Pensando_Policy_and_Services_Manager">
</g>
<g id="Function_-_Fabric_Composer">
</g>
<g id="Generic_-_Virtual_Machine">
</g>
<g id="Generic_-_Server_Single">
</g>
<g id="Generic_-_Server_Multi">
</g>
<g id="Generic_-_Router">
</g>
<g id="Generic_-_Firewall">
</g>
<g id="Wi-Fi_Signal">
</g>
<g id="Generic_-_Cloud_Function_Container_Grey">
</g>
<g id="Generic_-_Cloud_Function_Container_White">
</g>
<g id="Generic_-_Cloud_Internet_Circuit">
</g>
<g id="Generic_-_Cloud_Private_Circuit">
</g>
<g id="Generic_-_Cloud">
</g>
<g id="Client_-_IOT_Sensor">
</g>
<g id="Client_-_IOT_IO">
</g>
<g id="Client_-_IOT_PLC">
</g>
<g id="Client_-_IOT_Patient_Monitor">
</g>
<g id="Client_-_IOT_Camera">
</g>
<g id="Client_-_IOT_Scanner">
</g>
<g id="IOT_-_TV_Cast">
</g>
<g id="Client_-_Printer">
</g>
<g id="Client_-_Game_Console">
</g>
<g id="Client_-_IP_Phone">
</g>
<g id="Client_-_Laptop">
</g>
<g id="Client_-_Desktop">
</g>
<g id="Client_-_Workstation">
</g>
<g id="Client_-_Tablet">
</g>
<g id="Client_-_Mobile_2">
</g>
<g id="Client_-_Mobile_1">
</g>
<g id="Device_-_EdgeConnect_Enterprise_Cloud">
</g>
<g id="Device_-_EdgeConnect_Enterprise_Virtual">
</g>
<g id="Device_-_EdgeConnect_Enterprise_Appliance">
</g>
<g id="Device_-_Core_Agg_Leaf_Switch">
</g>
<g id="Device_-_Access_Switch">
</g>
<g id="Device_-_Gateway_Headend">
</g>
<g id="Device_-_Gateway_Branch">
</g>
<g id="Device_-_Gateway_Campus">
</g>
<g id="Device_-_UXI_Sensor_New">
</g>
<g id="Device_-_UXI_Sensor">
</g>
<g id="Device_-_AP500_Series_Microbranch">
</g>
<g id="Device_-_AP600_Series">
</g>
<g id="Device_-_AP500_Series">
</g>
<g id="Device_-_Outdoor_AP">
</g>
</svg>
