<?xml version="1.0" encoding="utf-8"?>
<!-- Generator: Adobe Illustrator 26.3.1, SVG Export Plug-In . SVG Version: 6.00 Build 0)  -->
<svg version="1.1" xmlns="http://www.w3.org/2000/svg" xmlns:xlink="http://www.w3.org/1999/xlink" x="0px" y="0px"
	 viewBox="0 0 500 500" style="enable-background:new 0 0 500 500;" xml:space="preserve">
<style type="text/css">
	.st0{fill:#FFFFFF;}
	.st1{fill:#FF8300;}
	.st2{fill:#F78200;}
	.st3{fill:#F7931E;}
	.st4{fill:#5D5D5D;}
	.st5{fill:#FFFFFF;stroke:#65656A;stroke-width:12;stroke-miterlimit:10;}
	.st6{display:none;fill:#979797;stroke:#979797;stroke-width:3;stroke-linecap:round;stroke-linejoin:round;stroke-miterlimit:10;}
	.st7{fill:#979797;}
	.st8{fill:#65656A;}
	.st9{stroke:#009245;stroke-width:3;stroke-miterlimit:10;}
	.st10{fill:#F58220;}
	.st11{clip-path:url(#SVGID_00000047767888613030502130000004897001134479624359_);fill:#5E5E5E;}
	.st12{clip-path:url(#SVGID_00000013903650429494390820000014326417655416668036_);fill:#FFFFFF;}
	.st13{clip-path:url(#SVGID_00000126305677888262412440000013447097248809188797_);fill:#FFFFFF;}
	.st14{clip-path:url(#SVGID_00000126305677888262412440000013447097248809188797_);fill:#FF8300;}
	.st15{clip-path:url(#SVGID_00000153678113857218428810000013486181747317158532_);fill:#FFFFFF;}
	.st16{clip-path:url(#SVGID_00000153678113857218428810000013486181747317158532_);fill:#ADE1F0;}
	.st17{clip-path:url(#SVGID_00000008136439028581042840000013776026380151391891_);fill:#65656A;}
	.st18{clip-path:url(#SVGID_00000008136439028581042840000013776026380151391891_);fill:#646569;}
	.st19{clip-path:url(#SVGID_00000008136439028581042840000013776026380151391891_);fill:#D0D0D2;}
	.st20{clip-path:url(#SVGID_00000053514771563470946280000009924856357256746674_);fill:#FFFFFF;}
	.st21{clip-path:url(#SVGID_00000053514771563470946280000009924856357256746674_);fill:#646569;}
	.st22{clip-path:url(#SVGID_00000053514771563470946280000009924856357256746674_);fill:#65656A;}
	
		.st23{clip-path:url(#SVGID_00000155145349761367837250000000315137133400008349_);fill:#FFFFFF;stroke:#000000;stroke-miterlimit:10;}
	.st24{clip-path:url(#SVGID_00000155145349761367837250000000315137133400008349_);fill:#646569;}
	.st25{clip-path:url(#SVGID_00000155145349761367837250000000315137133400008349_);fill:#65656A;}
	
		.st26{clip-path:url(#SVGID_00000155145349761367837250000000315137133400008349_);fill:none;stroke:#65656A;stroke-width:0.1925;stroke-linecap:round;stroke-linejoin:round;stroke-miterlimit:10;}
	.st27{clip-path:url(#SVGID_00000052096271208994341100000000718406911941994684_);fill:#FFFFFF;}
	.st28{clip-path:url(#SVGID_00000052096271208994341100000000718406911941994684_);fill:#65656A;}
	.st29{clip-path:url(#SVGID_00000052096271208994341100000000718406911941994684_);fill:#646569;}
	.st30{clip-path:url(#SVGID_00000019661609155756439090000001620826705711347126_);fill:#FFFFFF;}
	.st31{clip-path:url(#SVGID_00000019661609155756439090000001620826705711347126_);fill:#646569;}
	.st32{clip-path:url(#SVGID_00000119840282981935953520000005310836183756036002_);fill:#FFFFFF;}
	.st33{clip-path:url(#SVGID_00000119840282981935953520000005310836183756036002_);fill:#65656A;}
	.st34{clip-path:url(#SVGID_00000119840282981935953520000005310836183756036002_);fill:#646569;}
	.st35{fill:#646569;}
	.st36{clip-path:url(#SVGID_00000019637708162782917580000011239887769257230262_);fill:#FFFFFF;}
	.st37{clip-path:url(#SVGID_00000019637708162782917580000011239887769257230262_);fill:#65666A;}
	
		.st38{clip-path:url(#SVGID_00000019637708162782917580000011239887769257230262_);fill:none;stroke:#65666A;stroke-width:0.1748;stroke-miterlimit:10;}
	.st39{clip-path:url(#SVGID_00000152969469365093890800000008713154535083904693_);fill:#FFFFFF;}
	.st40{clip-path:url(#SVGID_00000152969469365093890800000008713154535083904693_);fill:#646569;}
	.st41{fill:none;stroke:#65656A;stroke-width:3;stroke-miterlimit:10;}
	.st42{fill:#EC8020;}
	.st43{fill:#ED8020;}
	.st44{fill:none;stroke:#65656A;stroke-width:3;stroke-linecap:round;stroke-miterlimit:10;}
	.st45{fill:none;stroke:#646569;stroke-width:10;stroke-linejoin:round;stroke-miterlimit:10;}
	.st46{fill:none;stroke:#646569;stroke-width:10;stroke-miterlimit:10;}
	.st47{fill:none;stroke:#646569;stroke-width:10;stroke-linecap:round;stroke-miterlimit:10;}
	.st48{fill:none;stroke:#65656A;stroke-width:8;stroke-linecap:round;stroke-miterlimit:10;}
	.st49{fill:#FFFFFF;stroke:#65656A;stroke-width:8;stroke-linecap:round;stroke-linejoin:round;stroke-miterlimit:10;}
	.st50{fill:none;stroke:#65656A;stroke-width:8;stroke-miterlimit:10;}
</style>
<g id="Function_-_Central_APIs">
</g>
<g id="Function_-_Central_Route_Orchestrator">
</g>
<g id="Function_-_Central_Tunnel_Orchestrator">
</g>
<g id="Function_-_Central_NetConductor">
</g>
<g id="Function_-_Central_Network_Management">
	<rect x="228.8" y="334" class="st0" width="27.8" height="1.5"/>
	<circle class="st0" cx="251.5" cy="250" r="183"/>
	<rect x="228.8" y="344" class="st0" width="27.8" height="1.5"/>
	<path class="st0" d="M251.2,334.8c0,2.1-1.7,3.9-3.9,3.9c-2.1,0-3.9-1.7-3.9-3.9c0-2.3,1.7-3.9,3.9-3.9
		C249.4,330.9,251.2,332.4,251.2,334.8z"/>
	<path class="st1" d="M317.5,310.8c-12,0-21.8-9.7-21.8-21.7c0-1,0-1.7,0-2.7c-24.4-11.6-24.4-11.6-24.4-11.6
		c-5.4,6.8-13.7,10.8-22.4,10.8c-5.8,0-11.4-1.7-16.2-5c-15.9,16-15.9,16-15.9,16c2.1,3.7,3.5,7.9,3.3,12.2
		c0,13.1-10.6,23.6-23.8,23.4c-13,0-23.4-10.6-23.4-23.8c0.2-13,10.8-23.6,23.8-23.4c4.3,0,8.5,1.2,12.2,3.5
		c16-16.1,16-16.1,16-16.1c-3.3-4.6-5-10.4-5-16c0.2-5.4,1.9-10.6,5-15.1C199,219.1,199,219.1,199,219.1c-2.3,1.2-5,1.7-7.5,1.7
		c-10.1,0-18.2-8.1-18.2-18.2c0-10.1,8.1-18.2,18.2-18.2c10,0,18.2,8.1,18.2,18.2c0,3.1-1,6.2-2.3,8.9
		c25.3,21.3,25.3,21.3,25.3,21.3c6.8-4.7,15.1-6.2,23.2-4.3c6.2-25.1,6.2-25.1,6.2-25.1c-5.8-3.7-9.5-10.1-9.5-17
		c0.4-11.2,9.7-19.9,21.1-19.5c4.8,0,9.7,2.1,13.1,5.4c3.9,3.7,6,8.9,5.8,14.1c0,11-8.7,20.1-19.7,20.5c-6.8,26.7-6.8,26.7-6.8,26.7
		c2.5,1.9,4.8,4.1,6.6,6.6c23.6-15.7,23.6-15.7,23.6-15.7c0-1.2,0-2.3,0-3.5c-0.2-10.1,7.9-18.6,18.2-18.6
		c10.2-0.2,18.6,7.9,18.8,18c0.2,10.2-7.9,18.6-18.2,18.8c-4.8,0.2-9.5-1.7-13-5c-24.4,16.2-24.4,16.2-24.4,16.2
		c0.6,2.1,0.8,4.4,1,6.6c0,2.9-0.6,5.8-1.4,8.5c23.4,11,23.4,11,23.4,11c4.1-5.6,10.4-8.9,17.4-8.7c12,0.8,21.1,11.2,20.3,23.2
		c-0.8,10.8-9.5,19.5-20.3,20.1L317.5,310.8z M252,109.1c-78.7,0-142.5,63.8-142.5,142.5c0,78.7,63.8,142.5,142.5,142.5
		c78.7,0,142.5-63.8,142.5-142.5C394.4,172.9,330.6,109.1,252,109.1z"/>
	<path class="st1" d="M252,414.4c-90.1,0-163-72.9-163-162.8c0-89.9,72.9-163,163-163c89.9,0,162.8,73.1,162.8,163
		C414.7,341.5,341.9,414.4,252,414.4z M486.1,272.7c0-42.2,0-42.2,0-42.2c-40.8-6.6-40.8-6.6-40.8-6.6c-1-7.1-2.3-14.1-4.3-21.1
		c34.8-21.5,34.8-21.5,34.8-21.5c-8.1-19.3-8.1-19.3-8.1-19.3c-7.9-19.5-7.9-19.5-7.9-19.5c-39.8,9.3-39.8,9.3-39.8,9.3
		c-3.7-6-7.5-12-12-17.8c24.4-33.1,24.4-33.1,24.4-33.1c-14.9-14.9-14.9-14.9-14.9-14.9c-14.9-14.9-14.9-14.9-14.9-14.9
		C369.3,95,369.3,95,369.3,95c-5.6-4.3-11.6-8.3-17.8-12c9.5-39.6,9.5-39.6,9.5-39.6c-19.5-8.1-19.5-8.1-19.5-8.1
		c-19.5-7.5-19.5-7.5-19.5-7.5C300.5,62,300.5,62,300.5,62c-7-1.5-13.9-2.9-21.1-3.9C273,17.5,273,17.5,273,17.5
		c-42.1,0-42.1,0-42.1,0c-6.6,40.6-6.6,40.6-6.6,40.6c-7.2,1.2-14.1,2.5-21.1,4.3c-21.5-34.6-21.5-34.6-21.5-34.6
		c-19.5,7.9-19.5,7.9-19.5,7.9c-19.3,8.1-19.3,8.1-19.3,8.1c9.3,39.8,9.3,39.8,9.3,39.8c-6.2,3.5-12,7.5-17.8,11.8
		c-33.2-24.2-33.2-24.2-33.2-24.2C86.5,86.1,86.5,86.1,86.5,86.1C71.6,101,71.6,101,71.6,101c23.8,33.1,23.8,33.1,23.8,33.1
		c-4.3,5.8-8.3,11.8-12,17.8c-39.8-9.3-39.8-9.3-39.8-9.3c-7.9,19.5-7.9,19.5-7.9,19.5c-7.7,19.3-7.7,19.3-7.7,19.3
		c34.8,21.5,34.8,21.5,34.8,21.5c-1.7,7-3.1,13.9-4.3,21.1c-40.6,6.6-40.6,6.6-40.6,6.6c0,42.2,0,42.2,0,42.2
		c40.6,6.6,40.6,6.6,40.6,6.6c1.2,7,2.5,14.1,4.3,21.1c-34.8,21.5-34.8,21.5-34.8,21.5c8.1,19.3,8.1,19.3,8.1,19.3
		c8.1,19.5,8.1,19.5,8.1,19.5c39.6-9.5,39.6-9.5,39.6-9.5c3.7,6.2,7.7,12.2,12,17.8c-24.2,33.2-24.2,33.2-24.2,33.2
		c14.9,14.9,14.9,14.9,14.9,14.9c14.7,14.9,14.7,14.9,14.7,14.9c33.2-23.8,33.2-23.8,33.2-23.8c5.8,4.2,11.6,8.1,17.8,11.8
		c-9.3,39.8-9.3,39.8-9.3,39.8c19.3,8.1,19.3,8.1,19.3,8.1c19.5,7.9,19.5,7.9,19.5,7.9c21.5-34.6,21.5-34.6,21.5-34.6
		c7,1.7,13.9,3.1,21.1,4.1c6.6,40.8,6.6,40.8,6.6,40.8c42.1,0,42.1,0,42.1,0c6.4-40.8,6.4-40.8,6.4-40.8c7.1-1,14.1-2.3,21.1-4.1
		c21.5,34.2,21.5,34.2,21.5,34.2c19.5-7.9,19.5-7.9,19.5-7.9c19.5-8.1,19.5-8.1,19.5-8.1c-9.5-39.8-9.5-39.8-9.5-39.8
		c6.2-3.7,12.2-7.5,17.8-12c33.2,24,33.2,24,33.2,24c14.9-14.9,14.9-14.9,14.9-14.9c14.9-14.9,14.9-14.9,14.9-14.9
		c-24-33.2-24-33.2-24-33.2c4.4-5.6,8.3-11.6,12-17.8c39.8,9.5,39.8,9.5,39.8,9.5c8.1-19.5,8.1-19.5,8.1-19.5c7.5-19,7.5-19,7.5-19
		C441,300.3,441,300.3,441,300.3c1.9-7,3.3-14.1,4.3-21.1L486.1,272.7z"/>
</g>
<g id="Function_-_Central_Network_Insights">
</g>
<g id="Function_-_Central_Client_Insights">
</g>
<g id="Function_-_ClearPass_Policy_Manager">
</g>
<g id="Function_-_UXI_APIs">
</g>
<g id="Function_-_UXI_Dashboard">
</g>
<g id="Function_-_Orchestrator_Global_Enterprise">
</g>
<g id="Function_-_Orchestrator">
</g>
<g id="Function_-_Pensando_Policy_and_Services_Manager">
</g>
<g id="Function_-_Fabric_Composer">
</g>
<g id="Generic_-_Virtual_Machine">
</g>
<g id="Generic_-_Server_Single">
</g>
<g id="Generic_-_Server_Multi">
</g>
<g id="Generic_-_Router">
</g>
<g id="Generic_-_Firewall">
</g>
<g id="Wi-Fi_Signal">
</g>
<g id="Generic_-_Cloud_Function_Container_Grey">
</g>
<g id="Generic_-_Cloud_Function_Container_White">
</g>
<g id="Generic_-_Cloud_Internet_Circuit">
</g>
<g id="Generic_-_Cloud_Private_Circuit">
</g>
<g id="Generic_-_Cloud">
</g>
<g id="Client_-_IOT_Sensor">
</g>
<g id="Client_-_IOT_IO">
</g>
<g id="Client_-_IOT_PLC">
</g>
<g id="Client_-_IOT_Patient_Monitor">
</g>
<g id="Client_-_IOT_Camera">
</g>
<g id="Client_-_IOT_Scanner">
</g>
<g id="IOT_-_TV_Cast">
</g>
<g id="Client_-_Printer">
</g>
<g id="Client_-_Game_Console">
</g>
<g id="Client_-_IP_Phone">
</g>
<g id="Client_-_Laptop">
</g>
<g id="Client_-_Desktop">
</g>
<g id="Client_-_Workstation">
</g>
<g id="Client_-_Tablet">
</g>
<g id="Client_-_Mobile_2">
</g>
<g id="Client_-_Mobile_1">
</g>
<g id="Device_-_EdgeConnect_Enterprise_Cloud">
</g>
<g id="Device_-_EdgeConnect_Enterprise_Virtual">
</g>
<g id="Device_-_EdgeConnect_Enterprise_Appliance">
</g>
<g id="Device_-_Core_Agg_Leaf_Switch">
</g>
<g id="Device_-_Access_Switch">
</g>
<g id="Device_-_Gateway_Headend">
</g>
<g id="Device_-_Gateway_Branch">
</g>
<g id="Device_-_Gateway_Campus">
</g>
<g id="Device_-_UXI_Sensor_New">
</g>
<g id="Device_-_UXI_Sensor">
</g>
<g id="Device_-_AP500_Series_Microbranch">
</g>
<g id="Device_-_AP600_Series">
</g>
<g id="Device_-_AP500_Series">
</g>
<g id="Device_-_Outdoor_AP">
</g>
</svg>
