<?xml version="1.0" encoding="utf-8"?>
<!-- Generator: Adobe Illustrator 26.3.1, SVG Export Plug-In . SVG Version: 6.00 Build 0)  -->
<svg version="1.1" xmlns="http://www.w3.org/2000/svg" xmlns:xlink="http://www.w3.org/1999/xlink" x="0px" y="0px"
	 viewBox="0 0 500 500" style="enable-background:new 0 0 500 500;" xml:space="preserve">
<style type="text/css">
	.st0{fill:#FFFFFF;}
	.st1{fill:#FF8300;}
	.st2{fill:#F78200;}
	.st3{fill:#F7931E;}
	.st4{fill:#5D5D5D;}
	.st5{fill:#FFFFFF;stroke:#65656A;stroke-width:12;stroke-miterlimit:10;}
	.st6{display:none;fill:#979797;stroke:#979797;stroke-width:3;stroke-linecap:round;stroke-linejoin:round;stroke-miterlimit:10;}
	.st7{fill:#979797;}
	.st8{fill:#65656A;}
	.st9{stroke:#009245;stroke-width:3;stroke-miterlimit:10;}
	.st10{fill:#F58220;}
	.st11{clip-path:url(#SVGID_00000086675043712073177280000001418611021359280291_);fill:#5E5E5E;}
	.st12{clip-path:url(#SVGID_00000047748074258500642240000008641552205489434757_);fill:#FFFFFF;}
	.st13{clip-path:url(#SVGID_00000093872640651843006160000007162369820095614651_);fill:#FFFFFF;}
	.st14{clip-path:url(#SVGID_00000093872640651843006160000007162369820095614651_);fill:#FF8300;}
	.st15{clip-path:url(#SVGID_00000104681890499039731090000015805594735541080462_);fill:#FFFFFF;}
	.st16{clip-path:url(#SVGID_00000104681890499039731090000015805594735541080462_);fill:#ADE1F0;}
	.st17{clip-path:url(#SVGID_00000090975525431889483590000008803666270610605698_);fill:#65656A;}
	.st18{clip-path:url(#SVGID_00000090975525431889483590000008803666270610605698_);fill:#646569;}
	.st19{clip-path:url(#SVGID_00000090975525431889483590000008803666270610605698_);fill:#D0D0D2;}
	.st20{clip-path:url(#SVGID_00000027579904442398589550000012960515498037316239_);fill:#FFFFFF;}
	.st21{clip-path:url(#SVGID_00000027579904442398589550000012960515498037316239_);fill:#646569;}
	.st22{clip-path:url(#SVGID_00000027579904442398589550000012960515498037316239_);fill:#65656A;}
	
		.st23{clip-path:url(#SVGID_00000070115229318013541340000002126758561984936109_);fill:#FFFFFF;stroke:#000000;stroke-miterlimit:10;}
	.st24{clip-path:url(#SVGID_00000070115229318013541340000002126758561984936109_);fill:#646569;}
	.st25{clip-path:url(#SVGID_00000070115229318013541340000002126758561984936109_);fill:#65656A;}
	
		.st26{clip-path:url(#SVGID_00000070115229318013541340000002126758561984936109_);fill:none;stroke:#65656A;stroke-width:0.1925;stroke-linecap:round;stroke-linejoin:round;stroke-miterlimit:10;}
	.st27{clip-path:url(#SVGID_00000113331482825034693910000002112912550395773873_);fill:#FFFFFF;}
	.st28{clip-path:url(#SVGID_00000113331482825034693910000002112912550395773873_);fill:#65656A;}
	.st29{clip-path:url(#SVGID_00000113331482825034693910000002112912550395773873_);fill:#646569;}
	.st30{clip-path:url(#SVGID_00000017481588882466303270000010036469028745702830_);fill:#FFFFFF;}
	.st31{clip-path:url(#SVGID_00000017481588882466303270000010036469028745702830_);fill:#646569;}
	.st32{clip-path:url(#SVGID_00000116219083164594658330000005816425515320039579_);fill:#FFFFFF;}
	.st33{clip-path:url(#SVGID_00000116219083164594658330000005816425515320039579_);fill:#65656A;}
	.st34{clip-path:url(#SVGID_00000116219083164594658330000005816425515320039579_);fill:#646569;}
	.st35{fill:#646569;}
	.st36{clip-path:url(#SVGID_00000152255998100762896750000001250031558949260170_);fill:#FFFFFF;}
	.st37{clip-path:url(#SVGID_00000152255998100762896750000001250031558949260170_);fill:#65666A;}
	
		.st38{clip-path:url(#SVGID_00000152255998100762896750000001250031558949260170_);fill:none;stroke:#65666A;stroke-width:0.1748;stroke-miterlimit:10;}
	.st39{clip-path:url(#SVGID_00000036216022495899031110000009849219201798921374_);fill:#FFFFFF;}
	.st40{clip-path:url(#SVGID_00000036216022495899031110000009849219201798921374_);fill:#646569;}
	.st41{fill:none;stroke:#65656A;stroke-width:3;stroke-miterlimit:10;}
	.st42{fill:#EC8020;}
	.st43{fill:#ED8020;}
	.st44{fill:none;stroke:#65656A;stroke-width:3;stroke-linecap:round;stroke-miterlimit:10;}
	.st45{fill:none;stroke:#646569;stroke-width:10;stroke-linejoin:round;stroke-miterlimit:10;}
	.st46{fill:none;stroke:#646569;stroke-width:10;stroke-miterlimit:10;}
	.st47{fill:none;stroke:#646569;stroke-width:10;stroke-linecap:round;stroke-miterlimit:10;}
	.st48{fill:none;stroke:#65656A;stroke-width:8;stroke-linecap:round;stroke-miterlimit:10;}
	.st49{fill:#FFFFFF;stroke:#65656A;stroke-width:8;stroke-linecap:round;stroke-linejoin:round;stroke-miterlimit:10;}
	.st50{fill:none;stroke:#65656A;stroke-width:8;stroke-miterlimit:10;}
</style>
<g id="Function_-_Central_APIs">
	<circle class="st0" cx="250" cy="250" r="183"/>
	<path class="st1" d="M250.1,410.8c-88.7,0-160.9-72.2-160.9-160.9c0-88.6,72.1-160.7,160.9-160.7c88.6,0,160.7,72.2,160.7,160.7
		C410.8,338.6,338.6,410.8,250.1,410.8z M481.2,270.8c0-20.8,0-20.8,0-20.8c0-20.7,0-20.7,0-20.7c-39.8-6.5-39.8-6.5-39.8-6.5
		c-1-7.1-2.4-13.9-4.1-20.7c34.3-21.3,34.3-21.3,34.3-21.3c-8-19.2-8-19.2-8-19.2c-8-19.2-8-19.2-8-19.2
		c-39.2,9.3-39.2,9.3-39.2,9.3c-3.7-6.1-7.5-12-11.8-17.6c23.7-32.8,23.7-32.8,23.7-32.8c-14.8-14.6-14.8-14.6-14.8-14.6
		c-14.6-14.8-14.6-14.8-14.6-14.8C366,95.4,366,95.4,366,95.4c-5.6-4.3-11.4-8.1-17.6-11.8c9.3-39.2,9.3-39.2,9.3-39.2
		c-19.2-8-19.2-8-19.2-8c-19.2-8-19.2-8-19.2-8C298,62.7,298,62.7,298,62.7c-6.7-1.8-13.6-3.1-20.7-4.1c-6.5-39.8-6.5-39.8-6.5-39.8
		c-20.7,0-20.7,0-20.7,0c-20.9,0-20.9,0-20.9,0c-6.5,39.8-6.5,39.8-6.5,39.8c-7.1,1-13.9,2.4-20.7,4.1
		c-21.3-34.3-21.3-34.3-21.3-34.3c-19.2,8-19.2,8-19.2,8c-19.2,8-19.2,8-19.2,8c9.3,39.2,9.3,39.2,9.3,39.2
		c-6.1,3.7-12,7.5-17.6,11.8c-32.8-23.7-32.8-23.7-32.8-23.7C86.6,86.6,86.6,86.6,86.6,86.6c-14.6,14.6-14.6,14.6-14.6,14.6
		C95.4,134,95.4,134,95.4,134c-4.3,5.6-8.1,11.5-11.8,17.6c-39.2-9.3-39.2-9.3-39.2-9.3c-8,19.2-8,19.2-8,19.2
		c-8,19.2-8,19.2-8,19.2C62.8,202,62.8,202,62.8,202c-1.8,6.8-3.1,13.6-4.1,20.7c-39.8,6.5-39.8,6.5-39.8,6.5c0,20.7,0,20.7,0,20.7
		c0,20.8,0,20.8,0,20.8c39.8,6.5,39.8,6.5,39.8,6.5c1,7.1,2.4,13.9,4.1,20.7c-34.3,21.3-34.3,21.3-34.3,21.3c8,19.2,8,19.2,8,19.2
		c8,19.2,8,19.2,8,19.2c39.2-9.3,39.2-9.3,39.2-9.3c3.7,6.1,7.5,12,11.8,17.6c-23.5,32.8-23.5,32.8-23.5,32.8
		c14.6,14.6,14.6,14.6,14.6,14.6c14.6,14.6,14.6,14.6,14.6,14.6c32.8-23.5,32.8-23.5,32.8-23.5c5.6,4.3,11.5,8.1,17.6,11.8
		c-9.3,39.2-9.3,39.2-9.3,39.2c19.2,8,19.2,8,19.2,8c19.2,8,19.2,8,19.2,8c21.3-34.3,21.3-34.3,21.3-34.3c6.8,1.8,13.6,3.1,20.7,4.1
		c6.5,39.8,6.5,39.8,6.5,39.8c20.9,0,20.9,0,20.9,0c20.7,0,20.7,0,20.7,0c6.5-39.8,6.5-39.8,6.5-39.8c7.1-1,14-2.4,20.7-4.1
		c21.3,34.3,21.3,34.3,21.3,34.3c19.2-8,19.2-8,19.2-8c19.2-8,19.2-8,19.2-8c-9.3-39.2-9.3-39.2-9.3-39.2c6.2-3.7,12-7.5,17.6-11.8
		c32.8,23.5,32.8,23.5,32.8,23.5c14.6-14.6,14.6-14.6,14.6-14.6c14.8-14.6,14.8-14.6,14.8-14.6C404.6,366,404.6,366,404.6,366
		c4.3-5.6,8.1-11.5,11.8-17.6c39.2,9.3,39.2,9.3,39.2,9.3c8-19.2,8-19.2,8-19.2c8-19.2,8-19.2,8-19.2C437.2,298,437.2,298,437.2,298
		c1.8-6.8,3.1-13.6,4.1-20.7L481.2,270.8z"/>
	<path class="st1" d="M250.1,109.3c-77.6,0-140.8,63.1-140.8,140.6c0,77.6,63.1,140.7,140.8,140.7c77.5,0,140.6-63.1,140.6-140.7
		C390.7,172.5,327.6,109.3,250.1,109.3z"/>
	<g>
		<path class="st0" d="M188,269.3c-23.9,0-23.9,0-23.9,0c-18.1-0.5-32.7-14.5-32.7-31.8c0-17.6,15.1-31.9,33.7-31.9
			c2.3,0,4.5,0.2,6.7,0.6c0.7-20.5,18.4-36.9,40.2-36.9c3.7,0,7.2,0.6,10.6,1.4c7.5-19.6,27.4-33.7,50.7-33.7
			c29.9,0,54,22.9,54,51.1c0,1.8-0.1,3.7-0.4,5.5c18.8,3.3,33,18.8,33,37.5c0,21.1-18,38.1-40.2,38.2c-12.2,0-12.2,0-12.2,0
			L188,269.3z"/>
	</g>
	<g>
		<path class="st0" d="M188.1,289.5v7.7h-1c-1,0-1.7,0.2-2.2,0.6s-0.8,1.1-1,1.9c-0.1,0.5-0.2,1.8-0.2,3.9s-0.2,3.8-0.7,5
			c-0.3,0.9-0.8,1.7-1.3,2.2c-0.4,0.4-1.2,0.9-2.2,1.3c1,0.5,1.8,1,2.3,1.5s0.9,1.3,1.3,2.4s0.5,2.8,0.5,5.1c0,2.1,0.1,3.5,0.3,4.1
			s0.6,1.1,1.1,1.4s1.5,0.4,3.1,0.4v7.6h-3c-3,0-5.2-0.3-6.5-1s-2.2-1.6-2.7-2.9s-0.8-3.2-0.8-5.7c0-0.6,0-1.1,0-1.7
			c0-0.3,0-0.7,0-1.1c0-1.8-0.2-3.1-0.5-3.9s-0.8-1.3-1.4-1.7s-1.5-0.5-2.7-0.6v-8c1.2,0,2.1-0.2,2.7-0.6s1.1-0.9,1.4-1.7
			s0.5-2.1,0.5-3.9V301c0-0.4,0-0.7,0-1.1c0-2.8,0.2-4.8,0.7-6s1.1-2.2,1.9-2.8c0.6-0.5,1.4-0.9,2.5-1.1c1.4-0.3,3-0.5,4.8-0.5
			H188.1z"/>
		<path class="st0" d="M229.3,318.8h-12.1l-1.7,5.7h-10.8l12.9-34.4h11.6l12.9,34.4H231L229.3,318.8z M227.1,311.3l-3.8-12.4
			l-3.8,12.4H227.1z"/>
		<path class="st0" d="M245.5,290.1h17.6c3.8,0,6.7,0.9,8.6,2.7s2.9,4.4,2.9,7.8c0,3.5-1,6.2-3.1,8.1s-5.3,2.9-9.6,2.9h-5.8v12.8
			h-10.7V290.1z M256.1,304.7h2.6c2,0,3.5-0.4,4.3-1.1s1.2-1.6,1.2-2.7c0-1.1-0.4-2-1.1-2.7s-2.1-1.1-4.1-1.1h-3V304.7z"/>
		<path class="st0" d="M280.6,290.1h10.6v34.4h-10.6V290.1z"/>
		<path class="st0" d="M315.1,289.5c1.8,0,3.4,0.2,4.8,0.5c1,0.2,1.9,0.6,2.5,1.1c0.8,0.7,1.4,1.6,1.9,2.8s0.7,3.2,0.7,6
			c0,0.4,0,0.7,0,1.1v0.8c0,1.8,0.2,3.2,0.5,3.9s0.8,1.3,1.4,1.7s1.5,0.6,2.7,0.6v8c-1.2,0-2.1,0.2-2.7,0.6s-1.1,0.9-1.4,1.7
			s-0.5,2.1-0.5,3.9c0,0.4,0,0.7,0,1.1c0,0.6,0,1.1,0,1.7c0,2.5-0.3,4.5-0.8,5.7s-1.5,2.2-2.7,2.9s-3.4,1-6.5,1h-3v-7.6
			c1.5,0,2.6-0.1,3.1-0.4s0.9-0.7,1.1-1.4s0.3-2,0.3-4.1c0-2.3,0.2-4.1,0.5-5.1s0.8-1.9,1.3-2.4s1.3-1,2.3-1.5
			c-1-0.4-1.7-0.9-2.2-1.3c-0.6-0.6-1-1.3-1.3-2.2c-0.4-1.2-0.6-2.9-0.7-5s-0.1-3.4-0.2-3.9c-0.2-0.9-0.5-1.5-1-1.9
			c-0.5-0.4-1.2-0.6-2.2-0.6h-1v-7.7H315.1z"/>
	</g>
</g>
<g id="Function_-_Central_Route_Orchestrator">
</g>
<g id="Function_-_Central_Tunnel_Orchestrator">
</g>
<g id="Function_-_Central_NetConductor">
</g>
<g id="Function_-_Central_Network_Management">
</g>
<g id="Function_-_Central_Network_Insights">
</g>
<g id="Function_-_Central_Client_Insights">
</g>
<g id="Function_-_ClearPass_Policy_Manager">
</g>
<g id="Function_-_UXI_APIs">
</g>
<g id="Function_-_UXI_Dashboard">
</g>
<g id="Function_-_Orchestrator_Global_Enterprise">
</g>
<g id="Function_-_Orchestrator">
</g>
<g id="Function_-_Pensando_Policy_and_Services_Manager">
</g>
<g id="Function_-_Fabric_Composer">
</g>
<g id="Generic_-_Virtual_Machine">
</g>
<g id="Generic_-_Server_Single">
</g>
<g id="Generic_-_Server_Multi">
</g>
<g id="Generic_-_Router">
</g>
<g id="Generic_-_Firewall">
</g>
<g id="Wi-Fi_Signal">
</g>
<g id="Generic_-_Cloud_Function_Container_Grey">
</g>
<g id="Generic_-_Cloud_Function_Container_White">
</g>
<g id="Generic_-_Cloud_Internet_Circuit">
</g>
<g id="Generic_-_Cloud_Private_Circuit">
</g>
<g id="Generic_-_Cloud">
</g>
<g id="Client_-_IOT_Sensor">
</g>
<g id="Client_-_IOT_IO">
</g>
<g id="Client_-_IOT_PLC">
</g>
<g id="Client_-_IOT_Patient_Monitor">
</g>
<g id="Client_-_IOT_Camera">
</g>
<g id="Client_-_IOT_Scanner">
</g>
<g id="IOT_-_TV_Cast">
</g>
<g id="Client_-_Printer">
</g>
<g id="Client_-_Game_Console">
</g>
<g id="Client_-_IP_Phone">
</g>
<g id="Client_-_Laptop">
</g>
<g id="Client_-_Desktop">
</g>
<g id="Client_-_Workstation">
</g>
<g id="Client_-_Tablet">
</g>
<g id="Client_-_Mobile_2">
</g>
<g id="Client_-_Mobile_1">
</g>
<g id="Device_-_EdgeConnect_Enterprise_Cloud">
</g>
<g id="Device_-_EdgeConnect_Enterprise_Virtual">
</g>
<g id="Device_-_EdgeConnect_Enterprise_Appliance">
</g>
<g id="Device_-_Core_Agg_Leaf_Switch">
</g>
<g id="Device_-_Access_Switch">
</g>
<g id="Device_-_Gateway_Headend">
</g>
<g id="Device_-_Gateway_Branch">
</g>
<g id="Device_-_Gateway_Campus">
</g>
<g id="Device_-_UXI_Sensor_New">
</g>
<g id="Device_-_UXI_Sensor">
</g>
<g id="Device_-_AP500_Series_Microbranch">
</g>
<g id="Device_-_AP600_Series">
</g>
<g id="Device_-_AP500_Series">
</g>
<g id="Device_-_Outdoor_AP">
</g>
</svg>
