<?xml version="1.0" encoding="utf-8"?>
<!-- Generator: Adobe Illustrator 26.3.1, SVG Export Plug-In . SVG Version: 6.00 Build 0)  -->
<svg version="1.1" xmlns="http://www.w3.org/2000/svg" xmlns:xlink="http://www.w3.org/1999/xlink" x="0px" y="0px"
	 viewBox="0 0 500 500" style="enable-background:new 0 0 500 500;" xml:space="preserve">
<style type="text/css">
	.st0{fill:#FFFFFF;}
	.st1{fill:#FF8300;}
	.st2{fill:#F78200;}
	.st3{fill:#F7931E;}
	.st4{fill:#5D5D5D;}
	.st5{fill:#FFFFFF;stroke:#65656A;stroke-width:12;stroke-miterlimit:10;}
	.st6{display:none;fill:#979797;stroke:#979797;stroke-width:3;stroke-linecap:round;stroke-linejoin:round;stroke-miterlimit:10;}
	.st7{fill:#979797;}
	.st8{fill:#65656A;}
	.st9{stroke:#009245;stroke-width:3;stroke-miterlimit:10;}
	.st10{fill:#F58220;}
	.st11{clip-path:url(#SVGID_00000114760836422479193980000003374181427601927853_);fill:#5E5E5E;}
	.st12{clip-path:url(#SVGID_00000090253550020468605990000005120835245446626219_);fill:#FFFFFF;}
	.st13{clip-path:url(#SVGID_00000101072148687256851190000011940161607696578714_);fill:#FFFFFF;}
	.st14{clip-path:url(#SVGID_00000101072148687256851190000011940161607696578714_);fill:#FF8300;}
	.st15{clip-path:url(#SVGID_00000032638378709426300140000012784283590703800203_);fill:#FFFFFF;}
	.st16{clip-path:url(#SVGID_00000032638378709426300140000012784283590703800203_);fill:#ADE1F0;}
	.st17{clip-path:url(#SVGID_00000103238844030663722770000015921605350977897124_);fill:#65656A;}
	.st18{clip-path:url(#SVGID_00000103238844030663722770000015921605350977897124_);fill:#646569;}
	.st19{clip-path:url(#SVGID_00000103238844030663722770000015921605350977897124_);fill:#D0D0D2;}
	.st20{clip-path:url(#SVGID_00000143618587635671508280000008767938323029513861_);fill:#FFFFFF;}
	.st21{clip-path:url(#SVGID_00000143618587635671508280000008767938323029513861_);fill:#646569;}
	.st22{clip-path:url(#SVGID_00000143618587635671508280000008767938323029513861_);fill:#65656A;}
	
		.st23{clip-path:url(#SVGID_00000068664184136472448930000014518986185720162443_);fill:#FFFFFF;stroke:#000000;stroke-miterlimit:10;}
	.st24{clip-path:url(#SVGID_00000068664184136472448930000014518986185720162443_);fill:#646569;}
	.st25{clip-path:url(#SVGID_00000068664184136472448930000014518986185720162443_);fill:#65656A;}
	
		.st26{clip-path:url(#SVGID_00000068664184136472448930000014518986185720162443_);fill:none;stroke:#65656A;stroke-width:0.1925;stroke-linecap:round;stroke-linejoin:round;stroke-miterlimit:10;}
	.st27{clip-path:url(#SVGID_00000165231265943695023910000005671258356121171128_);fill:#FFFFFF;}
	.st28{clip-path:url(#SVGID_00000165231265943695023910000005671258356121171128_);fill:#65656A;}
	.st29{clip-path:url(#SVGID_00000165231265943695023910000005671258356121171128_);fill:#646569;}
	.st30{clip-path:url(#SVGID_00000039111739258305460010000003942634544105598621_);fill:#FFFFFF;}
	.st31{clip-path:url(#SVGID_00000039111739258305460010000003942634544105598621_);fill:#646569;}
	.st32{clip-path:url(#SVGID_00000026122805731649713770000011904349370997671040_);fill:#FFFFFF;}
	.st33{clip-path:url(#SVGID_00000026122805731649713770000011904349370997671040_);fill:#65656A;}
	.st34{clip-path:url(#SVGID_00000026122805731649713770000011904349370997671040_);fill:#646569;}
	.st35{fill:#646569;}
	.st36{clip-path:url(#SVGID_00000039094401778832318870000012872078227989882255_);fill:#FFFFFF;}
	.st37{clip-path:url(#SVGID_00000039094401778832318870000012872078227989882255_);fill:#65666A;}
	
		.st38{clip-path:url(#SVGID_00000039094401778832318870000012872078227989882255_);fill:none;stroke:#65666A;stroke-width:0.1748;stroke-miterlimit:10;}
	.st39{clip-path:url(#SVGID_00000060014808480067047620000013195801913856792240_);fill:#FFFFFF;}
	.st40{clip-path:url(#SVGID_00000060014808480067047620000013195801913856792240_);fill:#646569;}
	.st41{fill:none;stroke:#65656A;stroke-width:3;stroke-miterlimit:10;}
	.st42{fill:#EC8020;}
	.st43{fill:#ED8020;}
	.st44{fill:none;stroke:#65656A;stroke-width:3;stroke-linecap:round;stroke-miterlimit:10;}
	.st45{fill:none;stroke:#646569;stroke-width:10;stroke-linejoin:round;stroke-miterlimit:10;}
	.st46{fill:none;stroke:#646569;stroke-width:10;stroke-miterlimit:10;}
	.st47{fill:none;stroke:#646569;stroke-width:10;stroke-linecap:round;stroke-miterlimit:10;}
	.st48{fill:none;stroke:#65656A;stroke-width:8;stroke-linecap:round;stroke-miterlimit:10;}
	.st49{fill:#FFFFFF;stroke:#65656A;stroke-width:8;stroke-linecap:round;stroke-linejoin:round;stroke-miterlimit:10;}
	.st50{fill:none;stroke:#65656A;stroke-width:8;stroke-miterlimit:10;}
</style>
<g id="Function_-_Central_APIs">
</g>
<g id="Function_-_Central_Route_Orchestrator">
</g>
<g id="Function_-_Central_Tunnel_Orchestrator">
</g>
<g id="Function_-_Central_NetConductor">
</g>
<g id="Function_-_Central_Network_Management">
</g>
<g id="Function_-_Central_Network_Insights">
</g>
<g id="Function_-_Central_Client_Insights">
</g>
<g id="Function_-_ClearPass_Policy_Manager">
</g>
<g id="Function_-_UXI_APIs">
</g>
<g id="Function_-_UXI_Dashboard">
</g>
<g id="Function_-_Orchestrator_Global_Enterprise">
</g>
<g id="Function_-_Orchestrator">
</g>
<g id="Function_-_Pensando_Policy_and_Services_Manager">
	<circle class="st0" cx="250" cy="250" r="183"/>
	<path class="st1" d="M250.1,410.8c-88.7,0-160.9-72.2-160.9-160.9c0-88.6,72.1-160.7,160.9-160.7c88.6,0,160.7,72.2,160.7,160.7
		C410.8,338.6,338.6,410.8,250.1,410.8z M481.2,270.8c0-20.8,0-20.8,0-20.8c0-20.7,0-20.7,0-20.7c-39.8-6.5-39.8-6.5-39.8-6.5
		c-1-7.1-2.4-13.9-4.1-20.7c34.3-21.3,34.3-21.3,34.3-21.3c-8-19.2-8-19.2-8-19.2c-8-19.2-8-19.2-8-19.2
		c-39.2,9.3-39.2,9.3-39.2,9.3c-3.7-6.1-7.5-12-11.8-17.6c23.7-32.8,23.7-32.8,23.7-32.8c-14.8-14.6-14.8-14.6-14.8-14.6
		c-14.6-14.8-14.6-14.8-14.6-14.8C366,95.4,366,95.4,366,95.4c-5.6-4.3-11.4-8.1-17.6-11.8c9.3-39.2,9.3-39.2,9.3-39.2
		c-19.2-8-19.2-8-19.2-8c-19.2-8-19.2-8-19.2-8C298,62.7,298,62.7,298,62.7c-6.7-1.8-13.6-3.1-20.7-4.1c-6.5-39.8-6.5-39.8-6.5-39.8
		c-20.7,0-20.7,0-20.7,0c-20.9,0-20.9,0-20.9,0c-6.5,39.8-6.5,39.8-6.5,39.8c-7.1,1-13.9,2.4-20.7,4.1
		c-21.3-34.3-21.3-34.3-21.3-34.3c-19.2,8-19.2,8-19.2,8c-19.2,8-19.2,8-19.2,8c9.3,39.2,9.3,39.2,9.3,39.2
		c-6.1,3.7-12,7.5-17.6,11.8c-32.8-23.7-32.8-23.7-32.8-23.7C86.6,86.6,86.6,86.6,86.6,86.6c-14.6,14.6-14.6,14.6-14.6,14.6
		C95.4,134,95.4,134,95.4,134c-4.3,5.6-8.1,11.5-11.8,17.6c-39.2-9.3-39.2-9.3-39.2-9.3c-8,19.2-8,19.2-8,19.2
		c-8,19.2-8,19.2-8,19.2C62.8,202,62.8,202,62.8,202c-1.8,6.8-3.1,13.6-4.1,20.7c-39.8,6.5-39.8,6.5-39.8,6.5c0,20.7,0,20.7,0,20.7
		c0,20.8,0,20.8,0,20.8c39.8,6.5,39.8,6.5,39.8,6.5c1,7.1,2.4,13.9,4.1,20.7c-34.3,21.3-34.3,21.3-34.3,21.3c8,19.2,8,19.2,8,19.2
		c8,19.2,8,19.2,8,19.2c39.2-9.3,39.2-9.3,39.2-9.3c3.7,6.1,7.5,12,11.8,17.6c-23.5,32.8-23.5,32.8-23.5,32.8
		c14.6,14.6,14.6,14.6,14.6,14.6c14.6,14.6,14.6,14.6,14.6,14.6c32.8-23.5,32.8-23.5,32.8-23.5c5.6,4.3,11.5,8.1,17.6,11.8
		c-9.3,39.2-9.3,39.2-9.3,39.2c19.2,8,19.2,8,19.2,8c19.2,8,19.2,8,19.2,8c21.3-34.3,21.3-34.3,21.3-34.3c6.8,1.8,13.6,3.1,20.7,4.1
		c6.5,39.8,6.5,39.8,6.5,39.8c20.9,0,20.9,0,20.9,0c20.7,0,20.7,0,20.7,0c6.5-39.8,6.5-39.8,6.5-39.8c7.1-1,14-2.4,20.7-4.1
		c21.3,34.3,21.3,34.3,21.3,34.3c19.2-8,19.2-8,19.2-8c19.2-8,19.2-8,19.2-8c-9.3-39.2-9.3-39.2-9.3-39.2c6.2-3.7,12-7.5,17.6-11.8
		c32.8,23.5,32.8,23.5,32.8,23.5c14.6-14.6,14.6-14.6,14.6-14.6c14.8-14.6,14.8-14.6,14.8-14.6C404.6,366,404.6,366,404.6,366
		c4.3-5.6,8.1-11.5,11.8-17.6c39.2,9.3,39.2,9.3,39.2,9.3c8-19.2,8-19.2,8-19.2c8-19.2,8-19.2,8-19.2C437.2,298,437.2,298,437.2,298
		c1.8-6.8,3.1-13.6,4.1-20.7L481.2,270.8z"/>
	<path class="st1" d="M250.1,109.3c-77.6,0-140.8,63.1-140.8,140.6c0,77.6,63.1,140.7,140.8,140.7c77.5,0,140.6-63.1,140.6-140.7
		C390.7,172.5,327.6,109.3,250.1,109.3z"/>
	<path class="st0" d="M170,183.1c53.7,0.5,76.3-13.2,82.9-18.4c7,5.2,29.6,18.8,83.3,18.4c1.9,21.2,9.4,146.5-83.3,169.1
		C160.6,329.5,168.1,204.3,170,183.1z M251.9,359.2c0.5,0,0.9,0,1.4,0c0,0,0.5,0,0.9,0c106.8-25.9,88.5-178.9,88.5-180.3
		c0-1.9-1.9-2.8-3.3-2.8c-65,1.4-83.3-17.9-83.8-18.4c-0.5-0.9-1.9-0.9-2.8-0.9s-1.9,0.5-2.4,0.9c-0.5,0.5-19.3,19.8-83.8,18.4
		c-1.4,0-3.3,0.9-3.3,2.8C162.9,180.3,145.1,333.3,251.9,359.2z"/>
	<path class="st0" d="M205.7,291.9c-2.4,1.4-5.6,0.5-7.1-1.9c-1.4-2.4-0.5-5.7,1.9-7.1c0.9-0.5,1.4-0.5,2.4-0.5
		c1.9,0,3.8,0.9,4.7,2.4C209,287.1,208,290.4,205.7,291.9z M252.8,242.9c8.9,0,16,7.1,16,16c0,8.5-7.1,15.5-16,15.5
		c-8.5,0-15.5-7.1-15.5-15.5C237.2,249.9,244.3,242.9,252.8,242.9z M248,201.4c0-2.8,1.9-5.2,4.7-5.2c3.3,0,5.2,2.4,5.2,5.2
		c0,2.8-1.9,4.7-5.2,4.7C249.9,206.2,248,204.3,248,201.4z M252.8,317.3c-0.9,0-1.9-1-1.9-2.4c0-0.9,0.9-1.9,1.9-1.9
		c1.4,0,2.4,0.9,2.4,1.9C255.1,316.3,254.2,317.3,252.8,317.3z M204.7,232.5c-0.5,0.5-0.9,0-1.4,0c-0.5-0.5-0.9-0.9-1.4-1.4
		c0-0.5,0-1.4,0.5-1.9c0.5-0.5,0.9-0.9,1.4-0.9h0.5c0.5,0,0.9,0,1.4,0c0.5,0.5,0.5,0.9,0.9,1.4c0,0.9,0,1.4-0.5,1.9
		C206.2,232,205.7,232.5,204.7,232.5z M299.4,229.7c0-0.5,0.5-0.9,0.9-1.4c0.5,0,0.9,0,1.4,0c0.5,0,1.4,0.5,1.9,0.9
		c0.5,0.5,0.5,1.4,0.5,1.9c-0.5,0.5-0.9,0.9-1.4,1.4c-0.5,0-1,0.5-1.4,0c-0.9,0-1.4-0.5-1.4-0.9
		C299.4,231.1,299.4,230.6,299.4,229.7z M305.5,282.9c2.4,1.4,3.3,4.7,1.9,7.1c-1.4,2.4-4.7,3.3-7.1,1.9c-2.4-1.4-3.3-4.7-1.9-7.1
		C299.8,282.4,303.1,281.5,305.5,282.9z M214.6,284.8c20.7-12.2,20.7-12.2,20.7-12.2c3.3,4.7,8.5,7.5,14.1,8.5c0,25.4,0,25.4,0,25.4
		c-3.3,1.4-5.6,4.7-5.6,8.5c0,5.2,4.2,9.4,9,9.4c5.2,0,9.4-4.2,9.4-9.4c0-3.8-2.4-7.1-5.6-8.5c0-25.4,0-25.4,0-25.4
		c5.6-1,10.8-3.8,14.1-8.5c20.7,12.2,20.7,12.2,20.7,12.2c-1.4,4.7,0.9,10.4,5.6,13.2c1.9,1,3.8,1.4,6.1,1.4c4.2,0,8-1.9,10.3-6.1
		c3.3-5.7,1.4-13.2-4.2-16.5c-5.2-2.4-10.8-1.9-14.6,1.9c-20.7-11.8-20.7-11.8-20.7-11.8c0.9-2.8,1.4-5.2,1.4-8
		c0-3.3-0.5-6.1-1.4-8.5c22.1-12.7,22.1-12.7,22.1-12.7c1.4,1.4,3.8,1.9,5.6,1.9c1.4,0,3.3-0.5,4.7-1.4c1.9-0.9,3.3-2.8,4.2-5.2
		c0.5-2.4,0-5.2-0.9-7.1c-2.8-4.7-8.5-6.1-12.7-3.3c-3.3,1.9-5.2,5.7-4.7,8.9c-21.7,12.7-21.7,12.7-21.7,12.7
		c-3.8-4.2-8.5-7.1-14.1-8c0-23.6,0-23.6,0-23.6c4.7-1.4,8.5-6.1,8.5-11.3c0-7.1-5.2-12.2-12.2-12.2c-6.6,0-11.8,5.2-11.8,12.2
		c0,5.2,3.8,9.9,8.5,11.3c0,23.6,0,23.6,0,23.6c-5.6,0.9-10.3,3.8-14.1,8c-22.1-12.7-22.1-12.7-22.1-12.7c0.9-3.3-0.9-7.1-4.2-8.9
		c-2.4-1.4-4.7-1.9-7.1-0.9c-2.4,0.5-4.2,1.9-5.7,4.2c-0.9,1.9-1.4,4.7-0.9,7.1c0.9,2.4,2.4,4.2,4.2,5.2c1.4,0.9,3.3,1.4,4.7,1.4
		c1.9,0,4.2-0.5,5.6-1.9c22.1,12.7,22.1,12.7,22.1,12.7c-0.9,2.4-1.9,5.2-1.9,8.5c0,2.8,0.9,5.2,1.9,8
		c-20.7,11.8-20.7,11.8-20.7,11.8c-3.8-3.8-9.9-4.2-14.6-1.9c-5.6,3.3-7.5,10.8-4.2,16.5c2.4,4.2,6.1,6.1,10.4,6.1
		c2.4,0,4.2-0.5,6.1-1.4C213.7,295.1,216,289.5,214.6,284.8z"/>
</g>
<g id="Function_-_Fabric_Composer">
</g>
<g id="Generic_-_Virtual_Machine">
</g>
<g id="Generic_-_Server_Single">
</g>
<g id="Generic_-_Server_Multi">
</g>
<g id="Generic_-_Router">
</g>
<g id="Generic_-_Firewall">
</g>
<g id="Wi-Fi_Signal">
</g>
<g id="Generic_-_Cloud_Function_Container_Grey">
</g>
<g id="Generic_-_Cloud_Function_Container_White">
</g>
<g id="Generic_-_Cloud_Internet_Circuit">
</g>
<g id="Generic_-_Cloud_Private_Circuit">
</g>
<g id="Generic_-_Cloud">
</g>
<g id="Client_-_IOT_Sensor">
</g>
<g id="Client_-_IOT_IO">
</g>
<g id="Client_-_IOT_PLC">
</g>
<g id="Client_-_IOT_Patient_Monitor">
</g>
<g id="Client_-_IOT_Camera">
</g>
<g id="Client_-_IOT_Scanner">
</g>
<g id="IOT_-_TV_Cast">
</g>
<g id="Client_-_Printer">
</g>
<g id="Client_-_Game_Console">
</g>
<g id="Client_-_IP_Phone">
</g>
<g id="Client_-_Laptop">
</g>
<g id="Client_-_Desktop">
</g>
<g id="Client_-_Workstation">
</g>
<g id="Client_-_Tablet">
</g>
<g id="Client_-_Mobile_2">
</g>
<g id="Client_-_Mobile_1">
</g>
<g id="Device_-_EdgeConnect_Enterprise_Cloud">
</g>
<g id="Device_-_EdgeConnect_Enterprise_Virtual">
</g>
<g id="Device_-_EdgeConnect_Enterprise_Appliance">
</g>
<g id="Device_-_Core_Agg_Leaf_Switch">
</g>
<g id="Device_-_Access_Switch">
</g>
<g id="Device_-_Gateway_Headend">
</g>
<g id="Device_-_Gateway_Branch">
</g>
<g id="Device_-_Gateway_Campus">
</g>
<g id="Device_-_UXI_Sensor_New">
</g>
<g id="Device_-_UXI_Sensor">
</g>
<g id="Device_-_AP500_Series_Microbranch">
</g>
<g id="Device_-_AP600_Series">
</g>
<g id="Device_-_AP500_Series">
</g>
<g id="Device_-_Outdoor_AP">
</g>
</svg>
