<?xml version="1.0" encoding="utf-8"?>
<!-- Generator: Adobe Illustrator 26.3.1, SVG Export Plug-In . SVG Version: 6.00 Build 0)  -->
<svg version="1.1" xmlns="http://www.w3.org/2000/svg" xmlns:xlink="http://www.w3.org/1999/xlink" x="0px" y="0px"
	 viewBox="0 0 500 500" style="enable-background:new 0 0 500 500;" xml:space="preserve">
<style type="text/css">
	.st0{fill:#FFFFFF;}
	.st1{fill:#FF8300;}
	.st2{fill:#F78200;}
	.st3{fill:#F7931E;}
	.st4{fill:#5D5D5D;}
	.st5{fill:#FFFFFF;stroke:#65656A;stroke-width:12;stroke-miterlimit:10;}
	.st6{display:none;fill:#979797;stroke:#979797;stroke-width:3;stroke-linecap:round;stroke-linejoin:round;stroke-miterlimit:10;}
	.st7{fill:#979797;}
	.st8{fill:#65656A;}
	.st9{stroke:#009245;stroke-width:3;stroke-miterlimit:10;}
	.st10{fill:#F58220;}
	.st11{clip-path:url(#SVGID_00000147924251628699535570000007063394021067244730_);fill:#5E5E5E;}
	.st12{clip-path:url(#SVGID_00000040554032153818498880000013606223554733696905_);fill:#FFFFFF;}
	.st13{clip-path:url(#SVGID_00000138570264709626295280000002367859073490662051_);fill:#FFFFFF;}
	.st14{clip-path:url(#SVGID_00000138570264709626295280000002367859073490662051_);fill:#FF8300;}
	.st15{clip-path:url(#SVGID_00000122712866899272512440000004836246410932079501_);fill:#FFFFFF;}
	.st16{clip-path:url(#SVGID_00000122712866899272512440000004836246410932079501_);fill:#ADE1F0;}
	.st17{clip-path:url(#SVGID_00000137817990802455157430000016059553043684616105_);fill:#65656A;}
	.st18{clip-path:url(#SVGID_00000137817990802455157430000016059553043684616105_);fill:#646569;}
	.st19{clip-path:url(#SVGID_00000137817990802455157430000016059553043684616105_);fill:#D0D0D2;}
	.st20{clip-path:url(#SVGID_00000157309215118470061430000005182674546086951815_);fill:#FFFFFF;}
	.st21{clip-path:url(#SVGID_00000157309215118470061430000005182674546086951815_);fill:#646569;}
	.st22{clip-path:url(#SVGID_00000157309215118470061430000005182674546086951815_);fill:#65656A;}
	
		.st23{clip-path:url(#SVGID_00000049217863773115205120000014994026059205375934_);fill:#FFFFFF;stroke:#000000;stroke-miterlimit:10;}
	.st24{clip-path:url(#SVGID_00000049217863773115205120000014994026059205375934_);fill:#646569;}
	.st25{clip-path:url(#SVGID_00000049217863773115205120000014994026059205375934_);fill:#65656A;}
	
		.st26{clip-path:url(#SVGID_00000049217863773115205120000014994026059205375934_);fill:none;stroke:#65656A;stroke-width:0.1925;stroke-linecap:round;stroke-linejoin:round;stroke-miterlimit:10;}
	.st27{clip-path:url(#SVGID_00000142888033773472650610000015773025517578357176_);fill:#FFFFFF;}
	.st28{clip-path:url(#SVGID_00000142888033773472650610000015773025517578357176_);fill:#65656A;}
	.st29{clip-path:url(#SVGID_00000142888033773472650610000015773025517578357176_);fill:#646569;}
	.st30{clip-path:url(#SVGID_00000087413532129062461080000009366879211722421146_);fill:#FFFFFF;}
	.st31{clip-path:url(#SVGID_00000087413532129062461080000009366879211722421146_);fill:#646569;}
	.st32{clip-path:url(#SVGID_00000036943363639826258370000011668200737469845142_);fill:#FFFFFF;}
	.st33{clip-path:url(#SVGID_00000036943363639826258370000011668200737469845142_);fill:#65656A;}
	.st34{clip-path:url(#SVGID_00000036943363639826258370000011668200737469845142_);fill:#646569;}
	.st35{fill:#646569;}
	.st36{clip-path:url(#SVGID_00000069371988665287564040000011500328556178286014_);fill:#FFFFFF;}
	.st37{clip-path:url(#SVGID_00000069371988665287564040000011500328556178286014_);fill:#65666A;}
	
		.st38{clip-path:url(#SVGID_00000069371988665287564040000011500328556178286014_);fill:none;stroke:#65666A;stroke-width:0.1748;stroke-miterlimit:10;}
	.st39{clip-path:url(#SVGID_00000073697513985219583690000007993272788150568328_);fill:#FFFFFF;}
	.st40{clip-path:url(#SVGID_00000073697513985219583690000007993272788150568328_);fill:#646569;}
	.st41{fill:none;stroke:#65656A;stroke-width:3;stroke-miterlimit:10;}
	.st42{fill:#EC8020;}
	.st43{fill:#ED8020;}
	.st44{fill:none;stroke:#65656A;stroke-width:3;stroke-linecap:round;stroke-miterlimit:10;}
	.st45{fill:none;stroke:#646569;stroke-width:10;stroke-linejoin:round;stroke-miterlimit:10;}
	.st46{fill:none;stroke:#646569;stroke-width:10;stroke-miterlimit:10;}
	.st47{fill:none;stroke:#646569;stroke-width:10;stroke-linecap:round;stroke-miterlimit:10;}
	.st48{fill:none;stroke:#65656A;stroke-width:8;stroke-linecap:round;stroke-miterlimit:10;}
	.st49{fill:#FFFFFF;stroke:#65656A;stroke-width:8;stroke-linecap:round;stroke-linejoin:round;stroke-miterlimit:10;}
	.st50{fill:none;stroke:#65656A;stroke-width:8;stroke-miterlimit:10;}
</style>
<g id="Function_-_Central_APIs">
</g>
<g id="Function_-_Central_Route_Orchestrator">
</g>
<g id="Function_-_Central_Tunnel_Orchestrator">
	<circle class="st0" cx="250" cy="250" r="183"/>
	<path class="st1" d="M250.1,410.8c-88.7,0-160.9-72.2-160.9-160.9c0-88.6,72.1-160.7,160.9-160.7c88.6,0,160.7,72.2,160.7,160.7
		C410.8,338.6,338.6,410.8,250.1,410.8z M481.2,270.8c0-20.8,0-20.8,0-20.8c0-20.7,0-20.7,0-20.7c-39.8-6.5-39.8-6.5-39.8-6.5
		c-1-7.1-2.4-13.9-4.1-20.7c34.3-21.3,34.3-21.3,34.3-21.3c-8-19.2-8-19.2-8-19.2c-8-19.2-8-19.2-8-19.2
		c-39.2,9.3-39.2,9.3-39.2,9.3c-3.7-6.1-7.5-12-11.8-17.6c23.7-32.8,23.7-32.8,23.7-32.8c-14.8-14.6-14.8-14.6-14.8-14.6
		c-14.6-14.8-14.6-14.8-14.6-14.8C366,95.4,366,95.4,366,95.4c-5.6-4.3-11.4-8.1-17.6-11.8c9.3-39.2,9.3-39.2,9.3-39.2
		c-19.2-8-19.2-8-19.2-8c-19.2-8-19.2-8-19.2-8C298,62.7,298,62.7,298,62.7c-6.7-1.8-13.6-3.1-20.7-4.1c-6.5-39.8-6.5-39.8-6.5-39.8
		c-20.7,0-20.7,0-20.7,0c-20.9,0-20.9,0-20.9,0c-6.5,39.8-6.5,39.8-6.5,39.8c-7.1,1-13.9,2.4-20.7,4.1
		c-21.3-34.3-21.3-34.3-21.3-34.3c-19.2,8-19.2,8-19.2,8c-19.2,8-19.2,8-19.2,8c9.3,39.2,9.3,39.2,9.3,39.2
		c-6.1,3.7-12,7.5-17.6,11.8c-32.8-23.7-32.8-23.7-32.8-23.7C86.6,86.6,86.6,86.6,86.6,86.6c-14.6,14.6-14.6,14.6-14.6,14.6
		C95.4,134,95.4,134,95.4,134c-4.3,5.6-8.1,11.5-11.8,17.6c-39.2-9.3-39.2-9.3-39.2-9.3c-8,19.2-8,19.2-8,19.2
		c-8,19.2-8,19.2-8,19.2C62.8,202,62.8,202,62.8,202c-1.8,6.8-3.1,13.6-4.1,20.7c-39.8,6.5-39.8,6.5-39.8,6.5c0,20.7,0,20.7,0,20.7
		c0,20.8,0,20.8,0,20.8c39.8,6.5,39.8,6.5,39.8,6.5c1,7.1,2.4,13.9,4.1,20.7c-34.3,21.3-34.3,21.3-34.3,21.3c8,19.2,8,19.2,8,19.2
		c8,19.2,8,19.2,8,19.2c39.2-9.3,39.2-9.3,39.2-9.3c3.7,6.1,7.5,12,11.8,17.6c-23.5,32.8-23.5,32.8-23.5,32.8
		c14.6,14.6,14.6,14.6,14.6,14.6c14.6,14.6,14.6,14.6,14.6,14.6c32.8-23.5,32.8-23.5,32.8-23.5c5.6,4.3,11.5,8.1,17.6,11.8
		c-9.3,39.2-9.3,39.2-9.3,39.2c19.2,8,19.2,8,19.2,8c19.2,8,19.2,8,19.2,8c21.3-34.3,21.3-34.3,21.3-34.3c6.8,1.8,13.6,3.1,20.7,4.1
		c6.5,39.8,6.5,39.8,6.5,39.8c20.9,0,20.9,0,20.9,0c20.7,0,20.7,0,20.7,0c6.5-39.8,6.5-39.8,6.5-39.8c7.1-1,14-2.4,20.7-4.1
		c21.3,34.3,21.3,34.3,21.3,34.3c19.2-8,19.2-8,19.2-8c19.2-8,19.2-8,19.2-8c-9.3-39.2-9.3-39.2-9.3-39.2c6.2-3.7,12-7.5,17.6-11.8
		c32.8,23.5,32.8,23.5,32.8,23.5c14.6-14.6,14.6-14.6,14.6-14.6c14.8-14.6,14.8-14.6,14.8-14.6C404.6,366,404.6,366,404.6,366
		c4.3-5.6,8.1-11.5,11.8-17.6c39.2,9.3,39.2,9.3,39.2,9.3c8-19.2,8-19.2,8-19.2c8-19.2,8-19.2,8-19.2C437.2,298,437.2,298,437.2,298
		c1.8-6.8,3.1-13.6,4.1-20.7L481.2,270.8z"/>
	<path class="st1" d="M250.1,109.3c-77.6,0-140.8,63.1-140.8,140.6c0,77.6,63.1,140.7,140.8,140.7c77.5,0,140.6-63.1,140.6-140.7
		C390.7,172.5,327.6,109.3,250.1,109.3z"/>
	<g>
		<path class="st0" d="M180.9,231.2c-1.8,0-3.5-1.3-3.9-3.3c-0.9-5.3-2-11-2.9-14.8c-14.7,7.7-14.7,7.7-14.7,7.7
			c-1.8,0.9-4.2,0.2-5.1-1.6c-1.1-2-0.4-4.4,1.5-5.3c18.9-9.9,18.9-9.9,18.9-9.9c1.1-0.7,2.4-0.7,3.5-0.2c2.2,0.9,2.6,1.3,6.6,22.9
			c0.5,2-0.9,4-3.1,4.6C181.5,231.2,181.3,231.2,180.9,231.2z"/>
		<path class="st0" d="M175.4,298.3c-1.3,0-2.6-0.7-3.3-2c-7.5-13.4-11.5-28.8-11.5-44.2c0-14.7,3.7-29.1,10.3-42
			c1.1-1.8,3.3-2.6,5.3-1.6c1.8,0.9,2.7,3.3,1.6,5.3c-6,11.7-9.3,24.9-9.3,38.3c0,14.1,3.7,28,10.4,40.3c1.1,2,0.4,4.4-1.5,5.3
			C176.7,298.1,176.2,298.3,175.4,298.3z"/>
		<path class="st0" d="M273.6,184.1c-1.8,0-3.5-1.3-3.8-3.1c-0.4-2.2,0.9-4.2,3.1-4.6c5.3-1.1,11.2-2.2,14.8-3.1
			c-7.5-14.5-7.5-14.5-7.5-14.5c-1.1-2-0.4-4.4,1.5-5.3c2-1.1,4.4-0.4,5.3,1.6C297,174,297,174,297,174c0.5,1.1,0.5,2.4,0,3.5
			c-0.9,2-1.1,2.6-22.7,6.6C274,184.1,273.8,184.1,273.6,184.1z"/>
		<path class="st0" d="M206.6,178.6c-1.5,0-2.7-0.7-3.5-2c-1.1-1.8-0.4-4.2,1.5-5.3c13.4-7.5,28.8-11.4,44.1-11.4
			c14.7,0,29.1,3.5,41.9,10.1c2,1.1,2.7,3.5,1.6,5.3c-0.9,2-3.3,2.8-5.3,1.6c-11.7-6-24.9-9.2-38.3-9.2c-14.1,0-28,3.5-40.3,10.3
			C207.8,178.4,207.1,178.6,206.6,178.6z"/>
		<path class="st0" d="M323.1,298.3c-0.5,0-1.1,0-1.7-0.4c-2.2-1.1-2.6-1.3-6-22.9c-0.4-2.2,1.1-4.2,3.3-4.6
			c2.2-0.4,4.2,1.1,4.6,3.3c0.7,5.3,1.8,11.2,2.4,15c14.8-7.1,14.8-7.1,14.8-7.1c2-1.1,4.4-0.2,5.3,1.6c0.9,2,0.2,4.4-1.8,5.3
			c-19,9.3-19,9.3-19,9.3C324.3,298.3,323.6,298.3,323.1,298.3z"/>
		<path class="st0" d="M325.4,293.7c-0.5,0-1.3-0.2-1.8-0.4c-2-1.1-2.6-3.5-1.6-5.5c6.6-11.5,10.1-24.7,10.4-37.9
			c0.5-14.1-2.7-28.2-9.2-40.7c-0.9-2-0.2-4.2,1.6-5.3c2-0.9,4.4-0.2,5.3,1.7c7.1,13.7,10.6,29.1,10.1,44.5
			c-0.4,14.7-4.4,29-11.4,41.6C328.2,293,326.9,293.7,325.4,293.7z"/>
		<path class="st0" d="M217.9,347c-1.3,0-2.8-0.7-3.3-2c-10.1-18.9-10.1-18.9-10.1-18.9c-0.5-1.1-0.5-2.4,0-3.5
			c0.9-2.2,1.1-2.6,22.7-6.6c2.2-0.4,4.2,0.9,4.6,3.1c0.4,2.2-0.9,4.2-3.1,4.6c-5.3,0.9-11.2,2.2-15,2.9c7.7,14.7,7.7,14.7,7.7,14.7
			c1.1,1.8,0.4,4.2-1.6,5.3C219.2,346.8,218.6,347,217.9,347z"/>
		<path class="st0" d="M252.9,340.2c-14.7,0-29.1-3.5-41.9-10.3c-2-0.9-2.7-3.3-1.6-5.3c0.9-1.8,3.3-2.6,5.1-1.7
			c11.9,6,25.1,9.3,38.5,9.3c14.1,0,28-3.7,40.3-10.4c1.8-1.1,4.2-0.4,5.3,1.5c1.1,2,0.4,4.4-1.5,5.5
			C283.5,336.2,268.3,340.2,252.9,340.2z"/>
	</g>
	<g>
		<path class="st0" d="M288,290.4c-74.2-0.1-74.2-0.1-74.2-0.1c-2.9-0.2-5-5.3-5-11.6c0-5.9,1.8-12.1,5-12.1c74.2,0,74.2,0,74.2,0
			c1.5,0,2.9,1.5,3.8,4.2c0.1,0.4-0.1,0.8-0.5,0.9c-0.3,0.1-0.7-0.1-0.8-0.5c-0.7-2.1-1.7-3.4-2.5-3.4c-74.2,0-74.2,0-74.2,0
			c-1.7,0-3.7,4.7-3.7,10.8c0,5.9,2,10.1,3.8,10.2C288,289,288,289,288,289c0.8-0.1,1.7-1.1,2.4-2.8c0.1-0.4,0.5-0.5,0.8-0.4
			c0.3,0.1,0.6,0.6,0.3,0.8C290.7,288.9,289.4,290.2,288,290.4z"/>
		<path class="st0" d="M286.8,290.2c-1.7-1.3-3.7-6.2-3.7-11.9c0-6.3,2.3-10.9,4.4-11.6c0.3,1.3,0.3,1.3,0.3,1.3
			c-1.2,0.4-3.3,4.2-3.3,10.3c0,5.6,1.8,9.8,3.1,10.9L286.8,290.2z"/>
		<path class="st0" d="M291.3,282.7c-0.3,0-0.6-0.2-0.7-0.6c0-0.5,0.3-0.7,0.7-0.7c10.7-0.1,10.7-0.1,10.7-0.1
			c0.3,0,0.7,0.4,0.7,0.7c0,0.4-0.3,0.7-0.7,0.7C291.3,282.7,291.3,282.7,291.3,282.7z"/>
		<path class="st0" d="M295.1,287c-0.1,0-0.3-0.1-0.5-0.2c-4.3-4.2-4.3-4.2-4.3-4.2c-0.2-0.4-0.2-0.7,0-0.9c4.1-4.5,4.1-4.5,4.1-4.5
			c0.3-0.2,0.7-0.2,1,0c0.2,0.4,0.2,0.7,0,1.1c-3.8,3.7-3.8,3.7-3.8,3.7c3.8,3.9,3.8,3.9,3.8,3.9c0.2,0.2,0.2,0.7,0,0.9
			C295.4,286.9,295.3,287,295.1,287z"/>
		<path class="st0" d="M292.3,275.6c-0.3,0-0.7-0.4-0.7-0.7s0.2-0.7,0.7-0.7c10.7-0.1,10.7-0.1,10.7-0.1c0.3,0,0.6,0.2,0.6,0.6
			c0.1,0.5-0.2,0.7-0.6,0.7C292.3,275.6,292.3,275.6,292.3,275.6z"/>
		<path class="st0" d="M299.3,279.9c-0.2,0-0.3-0.1-0.5-0.2c-0.2-0.2-0.2-0.7,0-0.9c3.7-3.9,3.7-3.9,3.7-3.9
			c-3.8-3.9-3.8-3.9-3.8-3.9c-0.3-0.2-0.3-0.6-0.1-0.9c0.3-0.2,0.7-0.2,0.9,0c4.4,4.2,4.4,4.2,4.4,4.2c0.1,0.1,0.2,0.4,0.2,0.5
			c0,0.2-0.1,0.4-0.2,0.5c-4.1,4.5-4.1,4.5-4.1,4.5C299.7,279.7,299.5,279.9,299.3,279.9z"/>
	</g>
	<g>
		<path class="st0" d="M288,261.9c-74.2-0.1-74.2-0.1-74.2-0.1c-2.9-0.2-5-5.3-5-11.6c0-5.9,1.8-12.1,5-12.1c74.2,0,74.2,0,74.2,0
			c1.5,0,2.9,1.5,3.8,4.2c0.1,0.4-0.1,0.8-0.5,0.9c-0.3,0.1-0.7-0.1-0.8-0.5c-0.7-2.1-1.7-3.4-2.5-3.4c-74.2,0-74.2,0-74.2,0
			c-1.7,0-3.7,4.7-3.7,10.8c0,5.9,2,10.1,3.8,10.2c74.1,0.1,74.1,0.1,74.1,0.1c0.8-0.1,1.7-1.1,2.4-2.8c0.1-0.4,0.5-0.5,0.8-0.4
			c0.3,0.1,0.6,0.6,0.3,0.8C290.7,260.4,289.4,261.7,288,261.9z"/>
		<path class="st0" d="M286.8,261.7c-1.7-1.3-3.7-6.2-3.7-11.9c0-6.3,2.3-10.9,4.4-11.6c0.3,1.3,0.3,1.3,0.3,1.3
			c-1.2,0.4-3.3,4.2-3.3,10.3c0,5.6,1.8,9.8,3.1,10.9L286.8,261.7z"/>
		<path class="st0" d="M291.3,254.2c-0.3,0-0.6-0.2-0.7-0.6c0-0.5,0.3-0.7,0.7-0.7c10.7-0.1,10.7-0.1,10.7-0.1
			c0.3,0,0.7,0.4,0.7,0.7c0,0.4-0.3,0.7-0.7,0.7C291.3,254.2,291.3,254.2,291.3,254.2z"/>
		<path class="st0" d="M295.1,258.5c-0.1,0-0.3-0.1-0.5-0.2c-4.3-4.2-4.3-4.2-4.3-4.2c-0.2-0.4-0.2-0.7,0-0.9
			c4.1-4.5,4.1-4.5,4.1-4.5c0.3-0.2,0.7-0.2,1,0c0.2,0.4,0.2,0.7,0,1.1c-3.8,3.7-3.8,3.7-3.8,3.7c3.8,3.9,3.8,3.9,3.8,3.9
			c0.2,0.2,0.2,0.7,0,0.9C295.4,258.4,295.3,258.5,295.1,258.5z"/>
		<path class="st0" d="M292.3,247.1c-0.3,0-0.7-0.4-0.7-0.7s0.2-0.7,0.7-0.7c10.7-0.1,10.7-0.1,10.7-0.1c0.3,0,0.6,0.2,0.6,0.6
			c0.1,0.5-0.2,0.7-0.6,0.7C292.3,247.1,292.3,247.1,292.3,247.1z"/>
		<path class="st0" d="M299.3,251.3c-0.2,0-0.3-0.1-0.5-0.2c-0.2-0.2-0.2-0.7,0-0.9c3.7-3.9,3.7-3.9,3.7-3.9
			c-3.8-3.9-3.8-3.9-3.8-3.9c-0.3-0.2-0.3-0.6-0.1-0.9c0.3-0.2,0.7-0.2,0.9,0c4.4,4.2,4.4,4.2,4.4,4.2c0.1,0.1,0.2,0.4,0.2,0.5
			c0,0.2-0.1,0.4-0.2,0.5c-4.1,4.5-4.1,4.5-4.1,4.5C299.7,251.2,299.5,251.3,299.3,251.3z"/>
	</g>
	<g>
		<path class="st0" d="M288,232.9c-74.2-0.1-74.2-0.1-74.2-0.1c-2.9-0.2-5-5.3-5-11.6c0-5.9,1.8-12.1,5-12.1c74.2,0,74.2,0,74.2,0
			c1.5,0,2.9,1.5,3.8,4.2c0.1,0.4-0.1,0.8-0.5,0.9c-0.3,0.1-0.7-0.1-0.8-0.5c-0.7-2.1-1.7-3.4-2.5-3.4c-74.2,0-74.2,0-74.2,0
			c-1.7,0-3.7,4.7-3.7,10.8c0,5.9,2,10.1,3.8,10.2c74.1,0.1,74.1,0.1,74.1,0.1c0.8-0.1,1.7-1.1,2.4-2.8c0.1-0.4,0.5-0.5,0.8-0.4
			c0.3,0.1,0.6,0.6,0.3,0.8C290.7,231.4,289.4,232.7,288,232.9z"/>
		<path class="st0" d="M286.8,232.7c-1.7-1.3-3.7-6.2-3.7-11.9c0-6.3,2.3-10.9,4.4-11.6c0.3,1.3,0.3,1.3,0.3,1.3
			c-1.2,0.4-3.3,4.2-3.3,10.3c0,5.6,1.8,9.8,3.1,10.9L286.8,232.7z"/>
		<path class="st0" d="M291.3,225.2c-0.3,0-0.6-0.2-0.7-0.6c0-0.5,0.3-0.7,0.7-0.7c10.7-0.1,10.7-0.1,10.7-0.1
			c0.3,0,0.7,0.4,0.7,0.7c0,0.4-0.3,0.7-0.7,0.7C291.3,225.2,291.3,225.2,291.3,225.2z"/>
		<path class="st0" d="M295.1,229.5c-0.1,0-0.3-0.1-0.5-0.2c-4.3-4.2-4.3-4.2-4.3-4.2c-0.2-0.4-0.2-0.7,0-0.9
			c4.1-4.5,4.1-4.5,4.1-4.5c0.3-0.2,0.7-0.2,1,0c0.2,0.4,0.2,0.7,0,1.1c-3.8,3.7-3.8,3.7-3.8,3.7c3.8,3.9,3.8,3.9,3.8,3.9
			c0.2,0.2,0.2,0.7,0,0.9C295.4,229.4,295.3,229.5,295.1,229.5z"/>
		<path class="st0" d="M292.3,218.1c-0.3,0-0.7-0.4-0.7-0.7s0.2-0.7,0.7-0.7c10.7-0.1,10.7-0.1,10.7-0.1c0.3,0,0.6,0.2,0.6,0.6
			c0.1,0.5-0.2,0.7-0.6,0.7C292.3,218.1,292.3,218.1,292.3,218.1z"/>
		<path class="st0" d="M299.3,222.3c-0.2,0-0.3-0.1-0.5-0.2c-0.2-0.2-0.2-0.7,0-0.9c3.7-3.9,3.7-3.9,3.7-3.9
			c-3.8-3.9-3.8-3.9-3.8-3.9c-0.3-0.2-0.3-0.6-0.1-0.9c0.3-0.2,0.7-0.2,0.9,0c4.4,4.2,4.4,4.2,4.4,4.2c0.1,0.1,0.2,0.4,0.2,0.5
			c0,0.2-0.1,0.4-0.2,0.5c-4.1,4.5-4.1,4.5-4.1,4.5C299.7,222.2,299.5,222.3,299.3,222.3z"/>
	</g>
</g>
<g id="Function_-_Central_NetConductor">
</g>
<g id="Function_-_Central_Network_Management">
</g>
<g id="Function_-_Central_Network_Insights">
</g>
<g id="Function_-_Central_Client_Insights">
</g>
<g id="Function_-_ClearPass_Policy_Manager">
</g>
<g id="Function_-_UXI_APIs">
</g>
<g id="Function_-_UXI_Dashboard">
</g>
<g id="Function_-_Orchestrator_Global_Enterprise">
</g>
<g id="Function_-_Orchestrator">
</g>
<g id="Function_-_Pensando_Policy_and_Services_Manager">
</g>
<g id="Function_-_Fabric_Composer">
</g>
<g id="Generic_-_Virtual_Machine">
</g>
<g id="Generic_-_Server_Single">
</g>
<g id="Generic_-_Server_Multi">
</g>
<g id="Generic_-_Router">
</g>
<g id="Generic_-_Firewall">
</g>
<g id="Wi-Fi_Signal">
</g>
<g id="Generic_-_Cloud_Function_Container_Grey">
</g>
<g id="Generic_-_Cloud_Function_Container_White">
</g>
<g id="Generic_-_Cloud_Internet_Circuit">
</g>
<g id="Generic_-_Cloud_Private_Circuit">
</g>
<g id="Generic_-_Cloud">
</g>
<g id="Client_-_IOT_Sensor">
</g>
<g id="Client_-_IOT_IO">
</g>
<g id="Client_-_IOT_PLC">
</g>
<g id="Client_-_IOT_Patient_Monitor">
</g>
<g id="Client_-_IOT_Camera">
</g>
<g id="Client_-_IOT_Scanner">
</g>
<g id="IOT_-_TV_Cast">
</g>
<g id="Client_-_Printer">
</g>
<g id="Client_-_Game_Console">
</g>
<g id="Client_-_IP_Phone">
</g>
<g id="Client_-_Laptop">
</g>
<g id="Client_-_Desktop">
</g>
<g id="Client_-_Workstation">
</g>
<g id="Client_-_Tablet">
</g>
<g id="Client_-_Mobile_2">
</g>
<g id="Client_-_Mobile_1">
</g>
<g id="Device_-_EdgeConnect_Enterprise_Cloud">
</g>
<g id="Device_-_EdgeConnect_Enterprise_Virtual">
</g>
<g id="Device_-_EdgeConnect_Enterprise_Appliance">
</g>
<g id="Device_-_Core_Agg_Leaf_Switch">
</g>
<g id="Device_-_Access_Switch">
</g>
<g id="Device_-_Gateway_Headend">
</g>
<g id="Device_-_Gateway_Branch">
</g>
<g id="Device_-_Gateway_Campus">
</g>
<g id="Device_-_UXI_Sensor_New">
</g>
<g id="Device_-_UXI_Sensor">
</g>
<g id="Device_-_AP500_Series_Microbranch">
</g>
<g id="Device_-_AP600_Series">
</g>
<g id="Device_-_AP500_Series">
</g>
<g id="Device_-_Outdoor_AP">
</g>
</svg>
