<?xml version="1.0" encoding="utf-8"?>
<!-- Generator: Adobe Illustrator 26.3.1, SVG Export Plug-In . SVG Version: 6.00 Build 0)  -->
<svg version="1.1" xmlns="http://www.w3.org/2000/svg" xmlns:xlink="http://www.w3.org/1999/xlink" x="0px" y="0px"
	 viewBox="0 0 500 500" style="enable-background:new 0 0 500 500;" xml:space="preserve">
<style type="text/css">
	.st0{fill:#FFFFFF;}
	.st1{fill:#FF8300;}
	.st2{fill:#F78200;}
	.st3{fill:#F7931E;}
	.st4{fill:#5D5D5D;}
	.st5{fill:#FFFFFF;stroke:#65656A;stroke-width:12;stroke-miterlimit:10;}
	.st6{display:none;fill:#979797;stroke:#979797;stroke-width:3;stroke-linecap:round;stroke-linejoin:round;stroke-miterlimit:10;}
	.st7{fill:#979797;}
	.st8{fill:#65656A;}
	.st9{stroke:#009245;stroke-width:3;stroke-miterlimit:10;}
	.st10{fill:#F58220;}
	.st11{clip-path:url(#SVGID_00000149359013288212790600000011234595796016630673_);fill:#5E5E5E;}
	.st12{clip-path:url(#SVGID_00000129179655863921899150000013105667176537631166_);fill:#FFFFFF;}
	.st13{clip-path:url(#SVGID_00000016054246673818799900000010243276553580594065_);fill:#FFFFFF;}
	.st14{clip-path:url(#SVGID_00000016054246673818799900000010243276553580594065_);fill:#FF8300;}
	.st15{clip-path:url(#SVGID_00000147917750370529669320000001669862219363468939_);fill:#FFFFFF;}
	.st16{clip-path:url(#SVGID_00000147917750370529669320000001669862219363468939_);fill:#ADE1F0;}
	.st17{clip-path:url(#SVGID_00000080204723736020481150000000956836584913540513_);fill:#65656A;}
	.st18{clip-path:url(#SVGID_00000080204723736020481150000000956836584913540513_);fill:#646569;}
	.st19{clip-path:url(#SVGID_00000080204723736020481150000000956836584913540513_);fill:#D0D0D2;}
	.st20{clip-path:url(#SVGID_00000048491678907770288830000005043950046364352400_);fill:#FFFFFF;}
	.st21{clip-path:url(#SVGID_00000048491678907770288830000005043950046364352400_);fill:#646569;}
	.st22{clip-path:url(#SVGID_00000048491678907770288830000005043950046364352400_);fill:#65656A;}
	
		.st23{clip-path:url(#SVGID_00000038393720645392318660000004985312598378856581_);fill:#FFFFFF;stroke:#000000;stroke-miterlimit:10;}
	.st24{clip-path:url(#SVGID_00000038393720645392318660000004985312598378856581_);fill:#646569;}
	.st25{clip-path:url(#SVGID_00000038393720645392318660000004985312598378856581_);fill:#65656A;}
	
		.st26{clip-path:url(#SVGID_00000038393720645392318660000004985312598378856581_);fill:none;stroke:#65656A;stroke-width:0.1925;stroke-linecap:round;stroke-linejoin:round;stroke-miterlimit:10;}
	.st27{clip-path:url(#SVGID_00000152235034844586788080000015247217104962700419_);fill:#FFFFFF;}
	.st28{clip-path:url(#SVGID_00000152235034844586788080000015247217104962700419_);fill:#65656A;}
	.st29{clip-path:url(#SVGID_00000152235034844586788080000015247217104962700419_);fill:#646569;}
	.st30{clip-path:url(#SVGID_00000036934522025291510880000005846316427452450433_);fill:#FFFFFF;}
	.st31{clip-path:url(#SVGID_00000036934522025291510880000005846316427452450433_);fill:#646569;}
	.st32{clip-path:url(#SVGID_00000019657677819164796180000004983159074638622094_);fill:#FFFFFF;}
	.st33{clip-path:url(#SVGID_00000019657677819164796180000004983159074638622094_);fill:#65656A;}
	.st34{clip-path:url(#SVGID_00000019657677819164796180000004983159074638622094_);fill:#646569;}
	.st35{fill:#646569;}
	.st36{clip-path:url(#SVGID_00000085966407920885339930000013727329178311008429_);fill:#FFFFFF;}
	.st37{clip-path:url(#SVGID_00000085966407920885339930000013727329178311008429_);fill:#65666A;}
	
		.st38{clip-path:url(#SVGID_00000085966407920885339930000013727329178311008429_);fill:none;stroke:#65666A;stroke-width:0.1748;stroke-miterlimit:10;}
	.st39{clip-path:url(#SVGID_00000064355298685614442820000000197214035356763562_);fill:#FFFFFF;}
	.st40{clip-path:url(#SVGID_00000064355298685614442820000000197214035356763562_);fill:#646569;}
	.st41{fill:none;stroke:#65656A;stroke-width:3;stroke-miterlimit:10;}
	.st42{fill:#EC8020;}
	.st43{fill:#ED8020;}
	.st44{fill:none;stroke:#65656A;stroke-width:3;stroke-linecap:round;stroke-miterlimit:10;}
	.st45{fill:none;stroke:#646569;stroke-width:10;stroke-linejoin:round;stroke-miterlimit:10;}
	.st46{fill:none;stroke:#646569;stroke-width:10;stroke-miterlimit:10;}
	.st47{fill:none;stroke:#646569;stroke-width:10;stroke-linecap:round;stroke-miterlimit:10;}
	.st48{fill:none;stroke:#65656A;stroke-width:8;stroke-linecap:round;stroke-miterlimit:10;}
	.st49{fill:#FFFFFF;stroke:#65656A;stroke-width:8;stroke-linecap:round;stroke-linejoin:round;stroke-miterlimit:10;}
	.st50{fill:none;stroke:#65656A;stroke-width:8;stroke-miterlimit:10;}
</style>
<g id="Function_-_Central_APIs">
</g>
<g id="Function_-_Central_Route_Orchestrator">
</g>
<g id="Function_-_Central_Tunnel_Orchestrator">
</g>
<g id="Function_-_Central_NetConductor">
</g>
<g id="Function_-_Central_Network_Management">
</g>
<g id="Function_-_Central_Network_Insights">
</g>
<g id="Function_-_Central_Client_Insights">
</g>
<g id="Function_-_ClearPass_Policy_Manager">
</g>
<g id="Function_-_UXI_APIs">
</g>
<g id="Function_-_UXI_Dashboard">
</g>
<g id="Function_-_Orchestrator_Global_Enterprise">
</g>
<g id="Function_-_Orchestrator">
</g>
<g id="Function_-_Pensando_Policy_and_Services_Manager">
</g>
<g id="Function_-_Fabric_Composer">
</g>
<g id="Generic_-_Virtual_Machine">
</g>
<g id="Generic_-_Server_Single">
</g>
<g id="Generic_-_Server_Multi">
</g>
<g id="Generic_-_Router">
</g>
<g id="Generic_-_Firewall">
</g>
<g id="Wi-Fi_Signal">
</g>
<g id="Generic_-_Cloud_Function_Container_Grey">
</g>
<g id="Generic_-_Cloud_Function_Container_White">
	<g>
		<defs>
			<rect id="SVGID_00000101820643072850499570000006824120363542384806_" x="10.1" y="85.9" width="479.7" height="328.2"/>
		</defs>
		<clipPath id="SVGID_00000075150594956019033480000007433506188144288138_">
			<use xlink:href="#SVGID_00000101820643072850499570000006824120363542384806_"  style="overflow:visible;"/>
		</clipPath>
		<path style="clip-path:url(#SVGID_00000075150594956019033480000007433506188144288138_);fill:#FFFFFF;" d="M31.1,275
			c0.9-1.7,2-3.2,3.3-4.7c8.4-9.5,25.3-20.9,36.5-20.3c26.3,1.3,26.2,3.1,27.3-8.5c3.6-37,43.8-70.6,77.8-66
			c25.6,3.5,26.8,0,37.6-18c16.4-27.4,64.9-55.7,99.5-51.8c46.6,5.2,84.2,43.9,92.1,54.2c4.6,6,12.2,39.2,12.7,57.3
			c0.3,9.1,29.8,18.4,44.1,26.9l14,23.5c14.9,27.5,9.7,53.8,4.6,64.1c-12.9,26.2-13.4,23.2-36.6,37.6c-7,4.4-35.1,12.9-43.4,12.8
			l-330.3-2.3c-16.7-0.4-59.2-27.1-56.5-69c0.3-4.2,1.5-8.2,3.6-11.9L31.1,275z"/>
		<path style="clip-path:url(#SVGID_00000075150594956019033480000007433506188144288138_);fill:#FFFFFF;" d="M83.3,253
			C46.7,253,17,281.3,17,316c0,34.2,28.2,61.8,64.3,62.9c49.3,0,49.3,0,49.3,0c272.6,0,272.6,0,272.6,0c43-4.2,79.9-34.2,79.9-75.9
			c0-36.6-27.4-68.1-65.5-74.7c-1.7-0.3-2.9-1.9-2.7-3.8c0.4-3.7,0.7-7.5,0.7-11.1c0-56.7-48.7-102.9-108.4-102.9
			c-45.4,0-86.3,27.3-101.8,68c-0.6,1.6-2.2,2.5-3.9,2.1c-7.2-1.9-14.2-2.8-21.1-2.8c-43.3,0-78.5,32.3-80,73.5
			c0,0.9-0.4,1.8-1.2,2.4c-0.8,0.6-1.8,0.9-2.7,0.8C92.3,253.4,87.8,253,83.3,253z M378.1,385.6c-296.9-0.2-296.9-0.2-296.9-0.2
			c-39.7-1-70.9-31.7-70.9-69.5c0-38.4,32.8-69.6,73-69.6c3.6,0,7.2,0.2,10.8,0.8c3.6-43.1,40.8-76.1,86.5-76.1
			c6.6,0,13.2,0.7,19.9,2.3c17.2-41.7,59.8-69.6,106.9-69.6c63.4,0,115,49.2,115,109.7c0,2.8-0.1,5.7-0.3,8.8
			c39.6,8.3,67.9,41.7,67.9,80.7c0,45.5-38.8,82.5-86.6,82.7H378.1z"/>
	</g>
</g>
<g id="Generic_-_Cloud_Internet_Circuit">
</g>
<g id="Generic_-_Cloud_Private_Circuit">
</g>
<g id="Generic_-_Cloud">
</g>
<g id="Client_-_IOT_Sensor">
</g>
<g id="Client_-_IOT_IO">
</g>
<g id="Client_-_IOT_PLC">
</g>
<g id="Client_-_IOT_Patient_Monitor">
</g>
<g id="Client_-_IOT_Camera">
</g>
<g id="Client_-_IOT_Scanner">
</g>
<g id="IOT_-_TV_Cast">
</g>
<g id="Client_-_Printer">
</g>
<g id="Client_-_Game_Console">
</g>
<g id="Client_-_IP_Phone">
</g>
<g id="Client_-_Laptop">
</g>
<g id="Client_-_Desktop">
</g>
<g id="Client_-_Workstation">
</g>
<g id="Client_-_Tablet">
</g>
<g id="Client_-_Mobile_2">
</g>
<g id="Client_-_Mobile_1">
</g>
<g id="Device_-_EdgeConnect_Enterprise_Cloud">
</g>
<g id="Device_-_EdgeConnect_Enterprise_Virtual">
</g>
<g id="Device_-_EdgeConnect_Enterprise_Appliance">
</g>
<g id="Device_-_Core_Agg_Leaf_Switch">
</g>
<g id="Device_-_Access_Switch">
</g>
<g id="Device_-_Gateway_Headend">
</g>
<g id="Device_-_Gateway_Branch">
</g>
<g id="Device_-_Gateway_Campus">
</g>
<g id="Device_-_UXI_Sensor_New">
</g>
<g id="Device_-_UXI_Sensor">
</g>
<g id="Device_-_AP500_Series_Microbranch">
</g>
<g id="Device_-_AP600_Series">
</g>
<g id="Device_-_AP500_Series">
</g>
<g id="Device_-_Outdoor_AP">
</g>
</svg>
