<?xml version="1.0" encoding="utf-8"?>
<!-- Generator: Adobe Illustrator 26.3.1, SVG Export Plug-In . SVG Version: 6.00 Build 0)  -->
<svg version="1.1" xmlns="http://www.w3.org/2000/svg" xmlns:xlink="http://www.w3.org/1999/xlink" x="0px" y="0px"
	 viewBox="0 0 500 500" style="enable-background:new 0 0 500 500;" xml:space="preserve">
<style type="text/css">
	.st0{fill:#FFFFFF;}
	.st1{fill:#FF8300;}
	.st2{fill:#F78200;}
	.st3{fill:#F7931E;}
	.st4{fill:#5D5D5D;}
	.st5{fill:#FFFFFF;stroke:#65656A;stroke-width:12;stroke-miterlimit:10;}
	.st6{display:none;fill:#979797;stroke:#979797;stroke-width:3;stroke-linecap:round;stroke-linejoin:round;stroke-miterlimit:10;}
	.st7{fill:#979797;}
	.st8{fill:#65656A;}
	.st9{stroke:#009245;stroke-width:3;stroke-miterlimit:10;}
	.st10{fill:#F58220;}
	.st11{clip-path:url(#SVGID_00000151540976357187488310000014579978744623883161_);fill:#5E5E5E;}
	.st12{clip-path:url(#SVGID_00000081614960232925073660000017195233949031713682_);fill:#FFFFFF;}
	.st13{clip-path:url(#SVGID_00000178903359861567520790000006213865255349489071_);fill:#FFFFFF;}
	.st14{clip-path:url(#SVGID_00000178903359861567520790000006213865255349489071_);fill:#FF8300;}
	.st15{clip-path:url(#SVGID_00000171714639382478005630000007819548754126992271_);fill:#FFFFFF;}
	.st16{clip-path:url(#SVGID_00000171714639382478005630000007819548754126992271_);fill:#ADE1F0;}
	.st17{clip-path:url(#SVGID_00000094616818454266777080000010673993301424220596_);fill:#65656A;}
	.st18{clip-path:url(#SVGID_00000094616818454266777080000010673993301424220596_);fill:#646569;}
	.st19{clip-path:url(#SVGID_00000094616818454266777080000010673993301424220596_);fill:#D0D0D2;}
	.st20{clip-path:url(#SVGID_00000052101892576104882740000015541604738130124962_);fill:#FFFFFF;}
	.st21{clip-path:url(#SVGID_00000052101892576104882740000015541604738130124962_);fill:#646569;}
	.st22{clip-path:url(#SVGID_00000052101892576104882740000015541604738130124962_);fill:#65656A;}
	
		.st23{clip-path:url(#SVGID_00000153684088899351450150000016512630882849752748_);fill:#FFFFFF;stroke:#000000;stroke-miterlimit:10;}
	.st24{clip-path:url(#SVGID_00000153684088899351450150000016512630882849752748_);fill:#646569;}
	.st25{clip-path:url(#SVGID_00000153684088899351450150000016512630882849752748_);fill:#65656A;}
	
		.st26{clip-path:url(#SVGID_00000153684088899351450150000016512630882849752748_);fill:none;stroke:#65656A;stroke-width:0.1925;stroke-linecap:round;stroke-linejoin:round;stroke-miterlimit:10;}
	.st27{clip-path:url(#SVGID_00000023274112214898332150000010489014149175790215_);fill:#FFFFFF;}
	.st28{clip-path:url(#SVGID_00000023274112214898332150000010489014149175790215_);fill:#65656A;}
	.st29{clip-path:url(#SVGID_00000023274112214898332150000010489014149175790215_);fill:#646569;}
	.st30{clip-path:url(#SVGID_00000024686646180579123390000000249530258259686280_);fill:#FFFFFF;}
	.st31{clip-path:url(#SVGID_00000024686646180579123390000000249530258259686280_);fill:#646569;}
	.st32{clip-path:url(#SVGID_00000031898662008382759870000014104233711678118291_);fill:#FFFFFF;}
	.st33{clip-path:url(#SVGID_00000031898662008382759870000014104233711678118291_);fill:#65656A;}
	.st34{clip-path:url(#SVGID_00000031898662008382759870000014104233711678118291_);fill:#646569;}
	.st35{fill:#646569;}
	.st36{clip-path:url(#SVGID_00000078731702115112065150000008118899614784689570_);fill:#FFFFFF;}
	.st37{clip-path:url(#SVGID_00000078731702115112065150000008118899614784689570_);fill:#65666A;}
	
		.st38{clip-path:url(#SVGID_00000078731702115112065150000008118899614784689570_);fill:none;stroke:#65666A;stroke-width:0.1748;stroke-miterlimit:10;}
	.st39{clip-path:url(#SVGID_00000080189813438786396620000005746559836997063296_);fill:#FFFFFF;}
	.st40{clip-path:url(#SVGID_00000080189813438786396620000005746559836997063296_);fill:#646569;}
	.st41{fill:none;stroke:#65656A;stroke-width:3;stroke-miterlimit:10;}
	.st42{fill:#EC8020;}
	.st43{fill:#ED8020;}
	.st44{fill:none;stroke:#65656A;stroke-width:3;stroke-linecap:round;stroke-miterlimit:10;}
	.st45{fill:none;stroke:#646569;stroke-width:10;stroke-linejoin:round;stroke-miterlimit:10;}
	.st46{fill:none;stroke:#646569;stroke-width:10;stroke-miterlimit:10;}
	.st47{fill:none;stroke:#646569;stroke-width:10;stroke-linecap:round;stroke-miterlimit:10;}
	.st48{fill:none;stroke:#65656A;stroke-width:8;stroke-linecap:round;stroke-miterlimit:10;}
	.st49{fill:#FFFFFF;stroke:#65656A;stroke-width:8;stroke-linecap:round;stroke-linejoin:round;stroke-miterlimit:10;}
	.st50{fill:none;stroke:#65656A;stroke-width:8;stroke-miterlimit:10;}
</style>
<g id="Function_-_Central_APIs">
</g>
<g id="Function_-_Central_Route_Orchestrator">
</g>
<g id="Function_-_Central_Tunnel_Orchestrator">
</g>
<g id="Function_-_Central_NetConductor">
</g>
<g id="Function_-_Central_Network_Management">
</g>
<g id="Function_-_Central_Network_Insights">
</g>
<g id="Function_-_Central_Client_Insights">
</g>
<g id="Function_-_ClearPass_Policy_Manager">
</g>
<g id="Function_-_UXI_APIs">
</g>
<g id="Function_-_UXI_Dashboard">
</g>
<g id="Function_-_Orchestrator_Global_Enterprise">
</g>
<g id="Function_-_Orchestrator">
</g>
<g id="Function_-_Pensando_Policy_and_Services_Manager">
</g>
<g id="Function_-_Fabric_Composer">
</g>
<g id="Generic_-_Virtual_Machine">
</g>
<g id="Generic_-_Server_Single">
</g>
<g id="Generic_-_Server_Multi">
</g>
<g id="Generic_-_Router">
</g>
<g id="Generic_-_Firewall">
	<path class="st0" d="M425.1,458.9H85.6c-21.2,0-38.4-17.2-38.4-38.4V70c0-21.2,17.2-38.4,38.4-38.4h339.5
		c21.2,0,38.4,17.2,38.4,38.4v350.5C463.6,441.7,446.4,458.9,425.1,458.9z"/>
	<g>
		<g>
			<path class="st8" d="M415.1,467H94.2c-31.8,0-56.7-24-56.7-54.7l0-333.2c0-31,25.4-56.2,56.7-56.2l321.1,0.3
				c31.4,0,57,25.6,57,57v334.2C472.4,444.3,447.8,467,415.1,467z M94.3,38.2c-22.8,0-41.3,18.3-41.3,40.8l0,333.2
				c0,22.4,17.8,39.3,41.3,39.3h320.9c20.8,0,41.9-12.8,41.9-37.4V80.1c0-22.9-18.7-41.6-41.6-41.6L94.3,38.2z"/>
		</g>
	</g>
	<g>
		<g>
			<path class="st7" d="M170.4,423.5H84.6c-9.2,0-16.6-7.5-16.6-16.6v-22.6c0-9.2,7.5-16.6,16.6-16.6h85.8c9.2,0,16.6,7.5,16.6,16.6
				v22.6C187,416.1,179.6,423.5,170.4,423.5z M84.6,373c-6.2,0-11.2,5-11.2,11.2v22.6c0,6.2,5,11.2,11.2,11.2h85.8
				c6.2,0,11.2-5,11.2-11.2v-22.6c0-6.2-5-11.2-11.2-11.2H84.6z"/>
		</g>
		<g>
			<path class="st7" d="M298.4,423.5h-85.8c-9.2,0-16.6-7.5-16.6-16.6v-22.6c0-9.2,7.5-16.6,16.6-16.6h85.8
				c9.2,0,16.6,7.5,16.6,16.6v22.6C315.1,416.1,307.6,423.5,298.4,423.5z M212.7,373c-6.2,0-11.2,5-11.2,11.2v22.6
				c0,6.2,5,11.2,11.2,11.2h85.8c6.2,0,11.2-5,11.2-11.2v-22.6c0-6.2-5-11.2-11.2-11.2H212.7z"/>
		</g>
		<g>
			<path class="st7" d="M235.3,351.4h-85.8c-9.2,0-16.6-7.5-16.6-16.6v-22.6c0-9.2,7.5-16.6,16.6-16.6h85.8
				c9.2,0,16.6,7.5,16.6,16.6v22.6C252,343.9,244.5,351.4,235.3,351.4z M149.6,300.9c-6.2,0-11.2,5-11.2,11.2v22.6
				c0,6.2,5,11.2,11.2,11.2h85.8c6.2,0,11.2-5,11.2-11.2v-22.6c0-6.2-5-11.2-11.2-11.2H149.6z"/>
		</g>
		<g>
			<path class="st7" d="M363.4,351.4h-85.8c-9.2,0-16.6-7.5-16.6-16.6v-22.6c0-9.2,7.5-16.6,16.6-16.6h85.8
				c9.2,0,16.6,7.5,16.6,16.6v22.6C380,343.9,372.6,351.4,363.4,351.4z M277.6,300.9c-6.2,0-11.2,5-11.2,11.2v22.6
				c0,6.2,5,11.2,11.2,11.2h85.8c6.2,0,11.2-5,11.2-11.2v-22.6c0-6.2-5-11.2-11.2-11.2H277.6z"/>
		</g>
		<g>
			<path class="st7" d="M426.5,423.5h-85.8c-9.2,0-16.6-7.5-16.6-16.6v-22.6c0-9.2,7.5-16.6,16.6-16.6h85.8
				c9.2,0,16.6,7.5,16.6,16.6v22.6C443.2,416.1,435.7,423.5,426.5,423.5z M340.7,373c-6.2,0-11.2,5-11.2,11.2v22.6
				c0,6.2,5,11.2,11.2,11.2h85.8c6.2,0,11.2-5,11.2-11.2v-22.6c0-6.2-5-11.2-11.2-11.2H340.7z"/>
		</g>
	</g>
	<g>
		<g>
			<path class="st7" d="M172.3,280.1H86.6c-9.2,0-16.6-7.5-16.6-16.6v-22.6c0-9.2,7.5-16.6,16.6-16.6h85.8c9.2,0,16.6,7.5,16.6,16.6
				v22.6C189,272.6,181.5,280.1,172.3,280.1z M86.6,229.6c-6.2,0-11.2,5-11.2,11.2v22.6c0,6.2,5,11.2,11.2,11.2h85.8
				c6.2,0,11.2-5,11.2-11.2v-22.6c0-6.2-5-11.2-11.2-11.2H86.6z"/>
		</g>
		<g>
			<path class="st7" d="M300.4,280.1h-85.8c-9.2,0-16.6-7.5-16.6-16.6v-22.6c0-9.2,7.5-16.6,16.6-16.6h85.8
				c9.2,0,16.6,7.5,16.6,16.6v22.6C317,272.6,309.6,280.1,300.4,280.1z M214.6,229.6c-6.2,0-11.2,5-11.2,11.2v22.6
				c0,6.2,5,11.2,11.2,11.2h85.8c6.2,0,11.2-5,11.2-11.2v-22.6c0-6.2-5-11.2-11.2-11.2H214.6z"/>
		</g>
		<g>
			<path class="st7" d="M237.3,208h-85.8c-9.2,0-16.6-7.5-16.6-16.6v-22.6c0-9.2,7.5-16.6,16.6-16.6h85.8c9.2,0,16.6,7.5,16.6,16.6
				v22.6C253.9,200.5,246.5,208,237.3,208z M151.5,157.5c-6.2,0-11.2,5-11.2,11.2v22.6c0,6.2,5,11.2,11.2,11.2h85.8
				c6.2,0,11.2-5,11.2-11.2v-22.6c0-6.2-5-11.2-11.2-11.2H151.5z"/>
		</g>
		<g>
			<path class="st7" d="M365.3,208h-85.8c-9.2,0-16.6-7.5-16.6-16.6v-22.6c0-9.2,7.5-16.6,16.6-16.6h85.8c9.2,0,16.6,7.5,16.6,16.6
				v22.6C382,200.5,374.5,208,365.3,208z M279.6,157.5c-6.2,0-11.2,5-11.2,11.2v22.6c0,6.2,5,11.2,11.2,11.2h85.8
				c6.2,0,11.2-5,11.2-11.2v-22.6c0-6.2-5-11.2-11.2-11.2H279.6z"/>
		</g>
		<g>
			<path class="st7" d="M428.5,280.1h-85.8c-9.2,0-16.6-7.5-16.6-16.6v-22.6c0-9.2,7.5-16.6,16.6-16.6h85.8
				c9.2,0,16.6,7.5,16.6,16.6v22.6C445.1,272.6,437.6,280.1,428.5,280.1z M342.7,229.6c-6.2,0-11.2,5-11.2,11.2v22.6
				c0,6.2,5,11.2,11.2,11.2h85.8c6.2,0,11.2-5,11.2-11.2v-22.6c0-6.2-5-11.2-11.2-11.2H342.7z"/>
		</g>
	</g>
	<g>
		<g>
			<path class="st7" d="M172.3,136.7H86.6c-9.2,0-16.6-7.5-16.6-16.6V97.4c0-9.2,7.5-16.6,16.6-16.6h85.8c9.2,0,16.6,7.5,16.6,16.6
				V120C189,129.2,181.5,136.7,172.3,136.7z M86.6,86.2c-6.2,0-11.2,5-11.2,11.2V120c0,6.2,5,11.2,11.2,11.2h85.8
				c6.2,0,11.2-5,11.2-11.2V97.4c0-6.2-5-11.2-11.2-11.2H86.6z"/>
		</g>
		<g>
			<path class="st7" d="M300.4,136.7h-85.8c-9.2,0-16.6-7.5-16.6-16.6V97.4c0-9.2,7.5-16.6,16.6-16.6h85.8c9.2,0,16.6,7.5,16.6,16.6
				V120C317,129.2,309.6,136.7,300.4,136.7z M214.6,86.2c-6.2,0-11.2,5-11.2,11.2V120c0,6.2,5,11.2,11.2,11.2h85.8
				c6.2,0,11.2-5,11.2-11.2V97.4c0-6.2-5-11.2-11.2-11.2H214.6z"/>
		</g>
		<g>
			<path class="st7" d="M428.5,136.7h-85.8c-9.2,0-16.6-7.5-16.6-16.6V97.4c0-9.2,7.5-16.6,16.6-16.6h85.8c9.2,0,16.6,7.5,16.6,16.6
				V120C445.1,129.2,437.6,136.7,428.5,136.7z M342.7,86.2c-6.2,0-11.2,5-11.2,11.2V120c0,6.2,5,11.2,11.2,11.2h85.8
				c6.2,0,11.2-5,11.2-11.2V97.4c0-6.2-5-11.2-11.2-11.2H342.7z"/>
		</g>
	</g>
</g>
<g id="Wi-Fi_Signal">
</g>
<g id="Generic_-_Cloud_Function_Container_Grey">
</g>
<g id="Generic_-_Cloud_Function_Container_White">
</g>
<g id="Generic_-_Cloud_Internet_Circuit">
</g>
<g id="Generic_-_Cloud_Private_Circuit">
</g>
<g id="Generic_-_Cloud">
</g>
<g id="Client_-_IOT_Sensor">
</g>
<g id="Client_-_IOT_IO">
</g>
<g id="Client_-_IOT_PLC">
</g>
<g id="Client_-_IOT_Patient_Monitor">
</g>
<g id="Client_-_IOT_Camera">
</g>
<g id="Client_-_IOT_Scanner">
</g>
<g id="IOT_-_TV_Cast">
</g>
<g id="Client_-_Printer">
</g>
<g id="Client_-_Game_Console">
</g>
<g id="Client_-_IP_Phone">
</g>
<g id="Client_-_Laptop">
</g>
<g id="Client_-_Desktop">
</g>
<g id="Client_-_Workstation">
</g>
<g id="Client_-_Tablet">
</g>
<g id="Client_-_Mobile_2">
</g>
<g id="Client_-_Mobile_1">
</g>
<g id="Device_-_EdgeConnect_Enterprise_Cloud">
</g>
<g id="Device_-_EdgeConnect_Enterprise_Virtual">
</g>
<g id="Device_-_EdgeConnect_Enterprise_Appliance">
</g>
<g id="Device_-_Core_Agg_Leaf_Switch">
</g>
<g id="Device_-_Access_Switch">
</g>
<g id="Device_-_Gateway_Headend">
</g>
<g id="Device_-_Gateway_Branch">
</g>
<g id="Device_-_Gateway_Campus">
</g>
<g id="Device_-_UXI_Sensor_New">
</g>
<g id="Device_-_UXI_Sensor">
</g>
<g id="Device_-_AP500_Series_Microbranch">
</g>
<g id="Device_-_AP600_Series">
</g>
<g id="Device_-_AP500_Series">
</g>
<g id="Device_-_Outdoor_AP">
</g>
</svg>
