<?xml version="1.0" encoding="utf-8"?>
<!-- Generator: Adobe Illustrator 26.3.1, SVG Export Plug-In . SVG Version: 6.00 Build 0)  -->
<svg version="1.1" xmlns="http://www.w3.org/2000/svg" xmlns:xlink="http://www.w3.org/1999/xlink" x="0px" y="0px"
	 viewBox="0 0 500 500" style="enable-background:new 0 0 500 500;" xml:space="preserve">
<style type="text/css">
	.st0{fill:#FFFFFF;}
	.st1{fill:#FF8300;}
	.st2{fill:#F78200;}
	.st3{fill:#F7931E;}
	.st4{fill:#5D5D5D;}
	.st5{fill:#FFFFFF;stroke:#65656A;stroke-width:12;stroke-miterlimit:10;}
	.st6{display:none;fill:#979797;stroke:#979797;stroke-width:3;stroke-linecap:round;stroke-linejoin:round;stroke-miterlimit:10;}
	.st7{fill:#979797;}
	.st8{fill:#65656A;}
	.st9{stroke:#009245;stroke-width:3;stroke-miterlimit:10;}
	.st10{fill:#F58220;}
	.st11{clip-path:url(#SVGID_00000172414883302958595750000016025067717018338451_);fill:#5E5E5E;}
	.st12{clip-path:url(#SVGID_00000026869294619898935610000013405347815306002097_);fill:#FFFFFF;}
	.st13{clip-path:url(#SVGID_00000135660240958828211860000004111762671390810752_);fill:#FFFFFF;}
	.st14{clip-path:url(#SVGID_00000135660240958828211860000004111762671390810752_);fill:#FF8300;}
	.st15{clip-path:url(#SVGID_00000164500726257618866740000015787929979654368416_);fill:#FFFFFF;}
	.st16{clip-path:url(#SVGID_00000164500726257618866740000015787929979654368416_);fill:#ADE1F0;}
	.st17{clip-path:url(#SVGID_00000040533890310419776420000000176806495761940406_);fill:#65656A;}
	.st18{clip-path:url(#SVGID_00000040533890310419776420000000176806495761940406_);fill:#646569;}
	.st19{clip-path:url(#SVGID_00000040533890310419776420000000176806495761940406_);fill:#D0D0D2;}
	.st20{clip-path:url(#SVGID_00000174576468160689092280000005823408410624474803_);fill:#FFFFFF;}
	.st21{clip-path:url(#SVGID_00000174576468160689092280000005823408410624474803_);fill:#646569;}
	.st22{clip-path:url(#SVGID_00000174576468160689092280000005823408410624474803_);fill:#65656A;}
	
		.st23{clip-path:url(#SVGID_00000058574925414193908880000007097407630658043291_);fill:#FFFFFF;stroke:#000000;stroke-miterlimit:10;}
	.st24{clip-path:url(#SVGID_00000058574925414193908880000007097407630658043291_);fill:#646569;}
	.st25{clip-path:url(#SVGID_00000058574925414193908880000007097407630658043291_);fill:#65656A;}
	
		.st26{clip-path:url(#SVGID_00000058574925414193908880000007097407630658043291_);fill:none;stroke:#65656A;stroke-width:0.1925;stroke-linecap:round;stroke-linejoin:round;stroke-miterlimit:10;}
	.st27{clip-path:url(#SVGID_00000046308953215079311790000006071472060747609000_);fill:#FFFFFF;}
	.st28{clip-path:url(#SVGID_00000046308953215079311790000006071472060747609000_);fill:#65656A;}
	.st29{clip-path:url(#SVGID_00000046308953215079311790000006071472060747609000_);fill:#646569;}
	.st30{clip-path:url(#SVGID_00000111912619636297507560000001131380821587361215_);fill:#FFFFFF;}
	.st31{clip-path:url(#SVGID_00000111912619636297507560000001131380821587361215_);fill:#646569;}
	.st32{clip-path:url(#SVGID_00000012439223528184225230000003291944691868566967_);fill:#FFFFFF;}
	.st33{clip-path:url(#SVGID_00000012439223528184225230000003291944691868566967_);fill:#65656A;}
	.st34{clip-path:url(#SVGID_00000012439223528184225230000003291944691868566967_);fill:#646569;}
	.st35{fill:#646569;}
	.st36{clip-path:url(#SVGID_00000078738890370356380200000014132778262166580872_);fill:#FFFFFF;}
	.st37{clip-path:url(#SVGID_00000078738890370356380200000014132778262166580872_);fill:#65666A;}
	
		.st38{clip-path:url(#SVGID_00000078738890370356380200000014132778262166580872_);fill:none;stroke:#65666A;stroke-width:0.1748;stroke-miterlimit:10;}
	.st39{clip-path:url(#SVGID_00000132057084060679716940000009198756591643537827_);fill:#FFFFFF;}
	.st40{clip-path:url(#SVGID_00000132057084060679716940000009198756591643537827_);fill:#646569;}
	.st41{fill:none;stroke:#65656A;stroke-width:3;stroke-miterlimit:10;}
	.st42{fill:#EC8020;}
	.st43{fill:#ED8020;}
	.st44{fill:none;stroke:#65656A;stroke-width:3;stroke-linecap:round;stroke-miterlimit:10;}
	.st45{fill:none;stroke:#646569;stroke-width:10;stroke-linejoin:round;stroke-miterlimit:10;}
	.st46{fill:none;stroke:#646569;stroke-width:10;stroke-miterlimit:10;}
	.st47{fill:none;stroke:#646569;stroke-width:10;stroke-linecap:round;stroke-miterlimit:10;}
	.st48{fill:none;stroke:#65656A;stroke-width:8;stroke-linecap:round;stroke-miterlimit:10;}
	.st49{fill:#FFFFFF;stroke:#65656A;stroke-width:8;stroke-linecap:round;stroke-linejoin:round;stroke-miterlimit:10;}
	.st50{fill:none;stroke:#65656A;stroke-width:8;stroke-miterlimit:10;}
</style>
<g id="Function_-_Central_APIs">
</g>
<g id="Function_-_Central_Route_Orchestrator">
</g>
<g id="Function_-_Central_Tunnel_Orchestrator">
</g>
<g id="Function_-_Central_NetConductor">
</g>
<g id="Function_-_Central_Network_Management">
</g>
<g id="Function_-_Central_Network_Insights">
</g>
<g id="Function_-_Central_Client_Insights">
</g>
<g id="Function_-_ClearPass_Policy_Manager">
</g>
<g id="Function_-_UXI_APIs">
</g>
<g id="Function_-_UXI_Dashboard">
</g>
<g id="Function_-_Orchestrator_Global_Enterprise">
</g>
<g id="Function_-_Orchestrator">
</g>
<g id="Function_-_Pensando_Policy_and_Services_Manager">
</g>
<g id="Function_-_Fabric_Composer">
</g>
<g id="Generic_-_Virtual_Machine">
	<polygon class="st0" points="240.2,390.4 69,328.8 247.6,258.2 418.7,319.8 	"/>
	<path class="st4" d="M86.9,328.5c153.2,55.1,153.2,55.1,153.2,55.1c160.5-63.5,160.5-63.5,160.5-63.5
		C247.6,265,247.6,265,247.6,265L86.9,328.5z M240.2,396.7c-0.8,0-1.4-0.2-2.1-0.5C66.9,334.9,66.9,334.9,66.9,334.9
		c-2.6-0.9-4.2-3.3-4.2-5.9c0-2.7,1.5-5.1,4.1-6c178.4-70.6,178.4-70.6,178.4-70.6c1.5-0.6,3-0.6,4.5-0.1
		c171.2,61.6,171.2,61.6,171.2,61.6c2.4,0.9,4.1,3.2,4.2,5.9c0,2.7-1.7,5-4.1,6c-178.4,70.6-178.4,70.6-178.4,70.6
		C241.8,396.6,241.1,396.7,240.2,396.7z"/>
	<polygon class="st0" points="240.2,298.6 69,237.2 247.6,166.5 418.7,228 	"/>
	<path class="st4" d="M86.9,236.9c153.2,55,153.2,55,153.2,55c160.5-63.6,160.5-63.6,160.5-63.6c-153.1-54.9-153.1-54.9-153.1-54.9
		L86.9,236.9z M240.2,305.1c-0.8,0-1.4-0.2-2.1-0.5C66.9,243.1,66.9,243.1,66.9,243.1c-2.6-0.9-4.2-3.2-4.2-5.9c0-2.6,1.5-5,4.1-5.9
		c178.4-70.6,178.4-70.6,178.4-70.6c1.5-0.6,3-0.6,4.5-0.2c171.2,61.6,171.2,61.6,171.2,61.6c2.4,0.9,4.1,3.2,4.2,5.9
		c0,2.6-1.7,5-4.1,6c-178.4,70.6-178.4,70.6-178.4,70.6C241.8,305,241.1,305.1,240.2,305.1z"/>
	<polygon class="st0" points="240.2,207 69,145.4 247.6,74.7 418.7,136.3 	"/>
	<path class="st4" d="M86.9,148.3c153.2,54.9,153.2,54.9,153.2,54.9c160.5-63.6,160.5-63.6,160.5-63.6
		C247.6,84.5,247.6,84.5,247.6,84.5L86.9,148.3z M240.2,216.3c-0.8,0-1.4-0.2-2.1-0.3C66.9,154.4,66.9,154.4,66.9,154.4
		c-2.6-0.9-4.2-3.2-4.2-5.9c0-2.6,1.5-5,4.1-6c178.4-70.6,178.4-70.6,178.4-70.6c1.5-0.6,3-0.6,4.5,0
		c171.2,61.4,171.2,61.4,171.2,61.4c2.4,0.9,4.1,3.3,4.2,5.9c0,2.7-1.7,5.1-4.1,6c-178.4,70.7-178.4,70.7-178.4,70.7
		C241.8,216.2,241.1,216.3,240.2,216.3z"/>
	<g>
		<path class="st4" d="M211.9,322.1h8.3l5.8,18.5l5.7-18.5h8.1l-9.6,25.8h-8.6L211.9,322.1z"/>
		<path class="st4" d="M242.4,322.1h10.5l4,15.7l4-15.7h10.5v25.8h-6.5v-19.7l-5,19.7h-5.9l-5-19.7v19.7h-6.5V322.1z"/>
	</g>
	<g>
		<path class="st4" d="M211.9,229.1h8.3l5.8,18.5l5.7-18.5h8.1l-9.6,25.8h-8.6L211.9,229.1z"/>
		<path class="st4" d="M242.4,229.1h10.5l4,15.7l4-15.7h10.5v25.8h-6.5v-19.7l-5,19.7h-5.9l-5-19.7v19.7h-6.5V229.1z"/>
	</g>
	<g>
		<path class="st4" d="M211.9,129.8h8.3l5.8,18.5l5.7-18.5h8.1l-9.6,25.8h-8.6L211.9,129.8z"/>
		<path class="st4" d="M242.4,129.8h10.5l4,15.7l4-15.7h10.5v25.8h-6.5v-19.7l-5,19.7h-5.9l-5-19.7v19.7h-6.5V129.8z"/>
	</g>
</g>
<g id="Generic_-_Server_Single">
</g>
<g id="Generic_-_Server_Multi">
</g>
<g id="Generic_-_Router">
</g>
<g id="Generic_-_Firewall">
</g>
<g id="Wi-Fi_Signal">
</g>
<g id="Generic_-_Cloud_Function_Container_Grey">
</g>
<g id="Generic_-_Cloud_Function_Container_White">
</g>
<g id="Generic_-_Cloud_Internet_Circuit">
</g>
<g id="Generic_-_Cloud_Private_Circuit">
</g>
<g id="Generic_-_Cloud">
</g>
<g id="Client_-_IOT_Sensor">
</g>
<g id="Client_-_IOT_IO">
</g>
<g id="Client_-_IOT_PLC">
</g>
<g id="Client_-_IOT_Patient_Monitor">
</g>
<g id="Client_-_IOT_Camera">
</g>
<g id="Client_-_IOT_Scanner">
</g>
<g id="IOT_-_TV_Cast">
</g>
<g id="Client_-_Printer">
</g>
<g id="Client_-_Game_Console">
</g>
<g id="Client_-_IP_Phone">
</g>
<g id="Client_-_Laptop">
</g>
<g id="Client_-_Desktop">
</g>
<g id="Client_-_Workstation">
</g>
<g id="Client_-_Tablet">
</g>
<g id="Client_-_Mobile_2">
</g>
<g id="Client_-_Mobile_1">
</g>
<g id="Device_-_EdgeConnect_Enterprise_Cloud">
</g>
<g id="Device_-_EdgeConnect_Enterprise_Virtual">
</g>
<g id="Device_-_EdgeConnect_Enterprise_Appliance">
</g>
<g id="Device_-_Core_Agg_Leaf_Switch">
</g>
<g id="Device_-_Access_Switch">
</g>
<g id="Device_-_Gateway_Headend">
</g>
<g id="Device_-_Gateway_Branch">
</g>
<g id="Device_-_Gateway_Campus">
</g>
<g id="Device_-_UXI_Sensor_New">
</g>
<g id="Device_-_UXI_Sensor">
</g>
<g id="Device_-_AP500_Series_Microbranch">
</g>
<g id="Device_-_AP600_Series">
</g>
<g id="Device_-_AP500_Series">
</g>
<g id="Device_-_Outdoor_AP">
</g>
</svg>
