<?xml version="1.0" encoding="utf-8"?>
<!-- Generator: Adobe Illustrator 26.3.1, SVG Export Plug-In . SVG Version: 6.00 Build 0)  -->
<svg version="1.1" xmlns="http://www.w3.org/2000/svg" xmlns:xlink="http://www.w3.org/1999/xlink" x="0px" y="0px"
	 viewBox="0 0 500 500" style="enable-background:new 0 0 500 500;" xml:space="preserve">
<style type="text/css">
	.st0{fill:#FFFFFF;}
	.st1{fill:#FF8300;}
	.st2{fill:#F78200;}
	.st3{fill:#F7931E;}
	.st4{fill:#5D5D5D;}
	.st5{fill:#FFFFFF;stroke:#65656A;stroke-width:12;stroke-miterlimit:10;}
	.st6{display:none;fill:#979797;stroke:#979797;stroke-width:3;stroke-linecap:round;stroke-linejoin:round;stroke-miterlimit:10;}
	.st7{fill:#979797;}
	.st8{fill:#65656A;}
	.st9{stroke:#009245;stroke-width:3;stroke-miterlimit:10;}
	.st10{fill:#F58220;}
	.st11{clip-path:url(#SVGID_00000160869610681822446520000012302732684422223272_);fill:#5E5E5E;}
	.st12{clip-path:url(#SVGID_00000019665401678377501940000011126864041293436853_);fill:#FFFFFF;}
	.st13{clip-path:url(#SVGID_00000023273408438848078810000003788942563514589602_);fill:#FFFFFF;}
	.st14{clip-path:url(#SVGID_00000023273408438848078810000003788942563514589602_);fill:#FF8300;}
	.st15{clip-path:url(#SVGID_00000016052846901522621290000000046479668558902669_);fill:#FFFFFF;}
	.st16{clip-path:url(#SVGID_00000016052846901522621290000000046479668558902669_);fill:#ADE1F0;}
	.st17{clip-path:url(#SVGID_00000131362937342070353400000009982391889609462656_);fill:#65656A;}
	.st18{clip-path:url(#SVGID_00000131362937342070353400000009982391889609462656_);fill:#646569;}
	.st19{clip-path:url(#SVGID_00000131362937342070353400000009982391889609462656_);fill:#D0D0D2;}
	.st20{clip-path:url(#SVGID_00000176754960218681612160000016179464623033622664_);fill:#FFFFFF;}
	.st21{clip-path:url(#SVGID_00000176754960218681612160000016179464623033622664_);fill:#646569;}
	.st22{clip-path:url(#SVGID_00000176754960218681612160000016179464623033622664_);fill:#65656A;}
	
		.st23{clip-path:url(#SVGID_00000092416640800655626290000011181437070893040821_);fill:#FFFFFF;stroke:#000000;stroke-miterlimit:10;}
	.st24{clip-path:url(#SVGID_00000092416640800655626290000011181437070893040821_);fill:#646569;}
	.st25{clip-path:url(#SVGID_00000092416640800655626290000011181437070893040821_);fill:#65656A;}
	
		.st26{clip-path:url(#SVGID_00000092416640800655626290000011181437070893040821_);fill:none;stroke:#65656A;stroke-width:0.1925;stroke-linecap:round;stroke-linejoin:round;stroke-miterlimit:10;}
	.st27{clip-path:url(#SVGID_00000127036605463714064720000007644723162554359685_);fill:#FFFFFF;}
	.st28{clip-path:url(#SVGID_00000127036605463714064720000007644723162554359685_);fill:#65656A;}
	.st29{clip-path:url(#SVGID_00000127036605463714064720000007644723162554359685_);fill:#646569;}
	.st30{clip-path:url(#SVGID_00000121273934749569114010000011858420769635814054_);fill:#FFFFFF;}
	.st31{clip-path:url(#SVGID_00000121273934749569114010000011858420769635814054_);fill:#646569;}
	.st32{clip-path:url(#SVGID_00000128454390067403468510000003795619187369773234_);fill:#FFFFFF;}
	.st33{clip-path:url(#SVGID_00000128454390067403468510000003795619187369773234_);fill:#65656A;}
	.st34{clip-path:url(#SVGID_00000128454390067403468510000003795619187369773234_);fill:#646569;}
	.st35{fill:#646569;}
	.st36{clip-path:url(#SVGID_00000049912368900813356850000002603981974451232928_);fill:#FFFFFF;}
	.st37{clip-path:url(#SVGID_00000049912368900813356850000002603981974451232928_);fill:#65666A;}
	
		.st38{clip-path:url(#SVGID_00000049912368900813356850000002603981974451232928_);fill:none;stroke:#65666A;stroke-width:0.1748;stroke-miterlimit:10;}
	.st39{clip-path:url(#SVGID_00000181077285706832458580000000942434424838566796_);fill:#FFFFFF;}
	.st40{clip-path:url(#SVGID_00000181077285706832458580000000942434424838566796_);fill:#646569;}
	.st41{fill:none;stroke:#65656A;stroke-width:3;stroke-miterlimit:10;}
	.st42{fill:#EC8020;}
	.st43{fill:#ED8020;}
	.st44{fill:none;stroke:#65656A;stroke-width:3;stroke-linecap:round;stroke-miterlimit:10;}
	.st45{fill:none;stroke:#646569;stroke-width:10;stroke-linejoin:round;stroke-miterlimit:10;}
	.st46{fill:none;stroke:#646569;stroke-width:10;stroke-miterlimit:10;}
	.st47{fill:none;stroke:#646569;stroke-width:10;stroke-linecap:round;stroke-miterlimit:10;}
	.st48{fill:none;stroke:#65656A;stroke-width:8;stroke-linecap:round;stroke-miterlimit:10;}
	.st49{fill:#FFFFFF;stroke:#65656A;stroke-width:8;stroke-linecap:round;stroke-linejoin:round;stroke-miterlimit:10;}
	.st50{fill:none;stroke:#65656A;stroke-width:8;stroke-miterlimit:10;}
</style>
<g id="Function_-_Central_APIs">
</g>
<g id="Function_-_Central_Route_Orchestrator">
</g>
<g id="Function_-_Central_Tunnel_Orchestrator">
</g>
<g id="Function_-_Central_NetConductor">
</g>
<g id="Function_-_Central_Network_Management">
</g>
<g id="Function_-_Central_Network_Insights">
</g>
<g id="Function_-_Central_Client_Insights">
</g>
<g id="Function_-_ClearPass_Policy_Manager">
</g>
<g id="Function_-_UXI_APIs">
</g>
<g id="Function_-_UXI_Dashboard">
</g>
<g id="Function_-_Orchestrator_Global_Enterprise">
</g>
<g id="Function_-_Orchestrator">
</g>
<g id="Function_-_Pensando_Policy_and_Services_Manager">
</g>
<g id="Function_-_Fabric_Composer">
</g>
<g id="Generic_-_Virtual_Machine">
</g>
<g id="Generic_-_Server_Single">
</g>
<g id="Generic_-_Server_Multi">
	<path class="st5" d="M444.6,293.5H48.7c-1.5,0-2.8-1.2-2.8-2.8V208c0-1.5,1.2-2.8,2.8-2.8h395.9c1.5,0,2.8,1.2,2.8,2.8v82.7
		C447.4,292.3,446.1,293.5,444.6,293.5z"/>
	<polygon class="st6" points="387.6,224.5 387.6,274.3 371.3,279.3 122,279.3 105.7,274.3 105.7,224.5 122,219.5 371.3,219.5 	"/>
	<path class="st7" d="M52.5,293.5h14c1.6,0,3-1.3,3-3v-82.3c0-1.6-1.3-3-3-3h-14c-1.6,0-3,1.3-3,3v82.3
		C49.6,292.2,50.9,293.5,52.5,293.5z"/>
	<path class="st7" d="M427.1,293.5h14c1.6,0,3-1.3,3-3v-82.3c0-1.6-1.3-3-3-3h-14c-1.6,0-3,1.3-3,3v82.3
		C424.1,292.2,425.4,293.5,427.1,293.5z"/>
	<path class="st8" d="M383.6,275.2h3.4c1,0,1.7-0.8,1.7-1.7v-48.1c0-1-0.8-1.7-1.7-1.7h-3.4c-1,0-1.7,0.8-1.7,1.7v48.1
		C381.9,274.5,382.7,275.2,383.6,275.2z"/>
	<path class="st8" d="M371.3,279.2h3.4c1,0,1.7-0.8,1.7-1.7v-55.9c0-1-0.8-1.7-1.7-1.7h-3.4c-1,0-1.7,0.8-1.7,1.7v55.9
		C369.6,278.4,370.4,279.2,371.3,279.2z"/>
	<path class="st8" d="M358.3,281h3.4c1,0,1.7-0.8,1.7-1.7v-59.4c0-1-0.8-1.7-1.7-1.7h-3.4c-1,0-1.7,0.8-1.7,1.7v59.4
		C356.6,280.2,357.4,281,358.3,281z"/>
	<path class="st8" d="M344.3,281h3.4c1,0,1.7-0.8,1.7-1.7v-59.4c0-1-0.8-1.7-1.7-1.7h-3.4c-1,0-1.7,0.8-1.7,1.7v59.4
		C342.6,280.2,343.4,281,344.3,281z"/>
	<path class="st8" d="M330.3,281h3.4c1,0,1.7-0.8,1.7-1.7v-59.4c0-1-0.8-1.7-1.7-1.7h-3.4c-1,0-1.7,0.8-1.7,1.7v59.4
		C328.6,280.2,329.4,281,330.3,281z"/>
	<path class="st8" d="M316.3,281h3.4c1,0,1.7-0.8,1.7-1.7v-59.4c0-1-0.8-1.7-1.7-1.7h-3.4c-1,0-1.7,0.8-1.7,1.7v59.4
		C314.6,280.2,315.4,281,316.3,281z"/>
	<path class="st8" d="M302.5,281h3.4c1,0,1.7-0.8,1.7-1.7v-59.4c0-1-0.8-1.7-1.7-1.7h-3.4c-1,0-1.7,0.8-1.7,1.7v59.4
		C300.8,280.2,301.6,281,302.5,281z"/>
	<path class="st8" d="M288.5,281h3.4c1,0,1.7-0.8,1.7-1.7v-59.4c0-1-0.8-1.7-1.7-1.7h-3.4c-1,0-1.7,0.8-1.7,1.7v59.4
		C286.8,280.2,287.6,281,288.5,281z"/>
	<path class="st8" d="M275.2,281h3.4c1,0,1.7-0.8,1.7-1.7v-59.4c0-1-0.8-1.7-1.7-1.7h-3.4c-1,0-1.7,0.8-1.7,1.7v59.4
		C273.5,280.2,274.3,281,275.2,281z"/>
	<path class="st8" d="M259.2,281h3.4c1,0,1.7-0.8,1.7-1.7v-17.8c0-1-0.8-1.7-1.7-1.7h-3.4c-1,0-1.7,0.8-1.7,1.7v17.8
		C257.5,280.2,258.3,281,259.2,281z"/>
	<path class="st8" d="M245.2,281h3.4c1,0,1.7-0.8,1.7-1.7v-17.8c0-1-0.8-1.7-1.7-1.7h-3.4c-1,0-1.7,0.8-1.7,1.7v17.8
		C243.5,280.2,244.3,281,245.2,281z"/>
	<path class="st8" d="M231.4,281h3.4c1,0,1.7-0.8,1.7-1.7v-17.8c0-1-0.8-1.7-1.7-1.7h-3.4c-1,0-1.7,0.8-1.7,1.7v17.8
		C229.7,280.2,230.4,281,231.4,281z"/>
	<path class="st8" d="M216.4,281h3.4c1,0,1.7-0.8,1.7-1.7v-59.4c0-1-0.8-1.7-1.7-1.7h-3.4c-1,0-1.7,0.8-1.7,1.7v59.4
		C214.7,280.2,215.4,281,216.4,281z"/>
	<path class="st8" d="M202.7,281h3.4c1,0,1.7-0.8,1.7-1.7v-59.4c0-1-0.8-1.7-1.7-1.7h-3.4c-1,0-1.7,0.8-1.7,1.7v59.4
		C200.9,280.2,201.7,281,202.7,281z"/>
	<path class="st8" d="M188.7,281h3.4c1,0,1.7-0.8,1.7-1.7v-59.4c0-1-0.8-1.7-1.7-1.7h-3.4c-1,0-1.7,0.8-1.7,1.7v59.4
		C186.9,280.2,187.7,281,188.7,281z"/>
	<path class="st8" d="M174.7,281h3.4c1,0,1.7-0.8,1.7-1.7v-59.4c0-1-0.8-1.7-1.7-1.7h-3.4c-1,0-1.7,0.8-1.7,1.7v59.4
		C172.9,280.2,173.7,281,174.7,281z"/>
	<path class="st8" d="M160.8,281h3.4c1,0,1.7-0.8,1.7-1.7v-59.4c0-1-0.8-1.7-1.7-1.7h-3.4c-1,0-1.7,0.8-1.7,1.7v59.4
		C159.1,280.2,159.9,281,160.8,281z"/>
	<path class="st8" d="M146.8,281h3.4c1,0,1.7-0.8,1.7-1.7v-59.4c0-1-0.8-1.7-1.7-1.7h-3.4c-1,0-1.7,0.8-1.7,1.7v59.4
		C145.1,280.2,145.9,281,146.8,281z"/>
	<path class="st8" d="M133.2,281h3.4c1,0,1.7-0.8,1.7-1.7v-59.4c0-1-0.8-1.7-1.7-1.7h-3.4c-1,0-1.7,0.8-1.7,1.7v59.4
		C131.5,280.2,132.2,281,133.2,281z"/>
	<path class="st8" d="M120,278.4h3.2c1,0,1.7-0.8,1.7-1.7v-54.5c0-1-0.8-1.7-1.7-1.7H120c-1,0-1.7,0.8-1.7,1.7v54.5
		C118.3,277.7,119,278.4,120,278.4z"/>
	<path class="st8" d="M106.8,275.2h3.4c1,0,1.7-0.8,1.7-1.7v-48.1c0-1-0.8-1.7-1.7-1.7h-3.4c-1,0-1.7,0.8-1.7,1.7v48.1
		C105,274.5,105.8,275.2,106.8,275.2z"/>
	<path class="st9" d="M269.3,254.8h-45V244h45V254.8z M225.3,253.8h43V245h-43V253.8z"/>
	<path class="st8" d="M259.1,239.3h3.4c1,0,1.7-0.8,1.7-1.7v-17.8c0-1-0.8-1.7-1.7-1.7h-3.4c-1,0-1.7,0.8-1.7,1.7v17.8
		C257.4,238.5,258.2,239.3,259.1,239.3z"/>
	<path class="st8" d="M245.1,239.3h3.4c1,0,1.7-0.8,1.7-1.7v-17.8c0-1-0.8-1.7-1.7-1.7h-3.4c-1,0-1.7,0.8-1.7,1.7v17.8
		C243.4,238.5,244.2,239.3,245.1,239.3z"/>
	<path class="st8" d="M231.3,239.3h3.4c1,0,1.7-0.8,1.7-1.7v-17.8c0-1-0.8-1.7-1.7-1.7h-3.4c-1,0-1.7,0.8-1.7,1.7v17.8
		C229.6,238.5,230.3,239.3,231.3,239.3z"/>
	<path class="st5" d="M443.3,399.9H47.5c-1.5,0-2.8-1.2-2.8-2.8v-82.7c0-1.5,1.2-2.8,2.8-2.8h395.9c1.5,0,2.8,1.2,2.8,2.8v82.7
		C446.1,398.7,444.9,399.9,443.3,399.9z"/>
	<polygon class="st6" points="421.6,225.5 421.6,275.3 405.3,280.3 156,280.3 139.7,275.3 139.7,225.5 156,220.5 405.3,220.5 	"/>
	<path class="st7" d="M51.3,399.9h14c1.6,0,3-1.3,3-3v-82.3c0-1.6-1.3-3-3-3h-14c-1.6,0-3,1.3-3,3v82.3
		C48.3,398.6,49.6,399.9,51.3,399.9z"/>
	<path class="st7" d="M425.8,399.9h14c1.6,0,3-1.3,3-3v-82.3c0-1.6-1.3-3-3-3h-14c-1.6,0-3,1.3-3,3v82.3
		C422.8,398.6,424.2,399.9,425.8,399.9z"/>
	<path class="st8" d="M382.4,381.6h3.4c1,0,1.7-0.8,1.7-1.7v-48.1c0-1-0.8-1.7-1.7-1.7h-3.4c-1,0-1.7,0.8-1.7,1.7v48.1
		C380.6,380.8,381.4,381.6,382.4,381.6z"/>
	<path class="st8" d="M370.1,385.5h3.4c1,0,1.7-0.8,1.7-1.7v-55.9c0-1-0.8-1.7-1.7-1.7h-3.4c-1,0-1.7,0.8-1.7,1.7v55.9
		C368.3,384.7,369.1,385.5,370.1,385.5z"/>
	<path class="st8" d="M357.1,387.3h3.4c1,0,1.7-0.8,1.7-1.7v-59.4c0-1-0.8-1.7-1.7-1.7h-3.4c-1,0-1.7,0.8-1.7,1.7v59.4
		C355.3,386.5,356.1,387.3,357.1,387.3z"/>
	<path class="st8" d="M343.1,387.3h3.4c1,0,1.7-0.8,1.7-1.7v-59.4c0-1-0.8-1.7-1.7-1.7h-3.4c-1,0-1.7,0.8-1.7,1.7v59.4
		C341.3,386.5,342.1,387.3,343.1,387.3z"/>
	<path class="st8" d="M329.1,387.3h3.4c1,0,1.7-0.8,1.7-1.7v-59.4c0-1-0.8-1.7-1.7-1.7h-3.4c-1,0-1.7,0.8-1.7,1.7v59.4
		C327.3,386.5,328.1,387.3,329.1,387.3z"/>
	<path class="st8" d="M315.1,387.3h3.4c1,0,1.7-0.8,1.7-1.7v-59.4c0-1-0.8-1.7-1.7-1.7h-3.4c-1,0-1.7,0.8-1.7,1.7v59.4
		C313.3,386.5,314.1,387.3,315.1,387.3z"/>
	<path class="st8" d="M301.2,387.3h3.4c1,0,1.7-0.8,1.7-1.7v-59.4c0-1-0.8-1.7-1.7-1.7h-3.4c-1,0-1.7,0.8-1.7,1.7v59.4
		C299.5,386.5,300.3,387.3,301.2,387.3z"/>
	<path class="st8" d="M287.2,387.3h3.4c1,0,1.7-0.8,1.7-1.7v-59.4c0-1-0.8-1.7-1.7-1.7h-3.4c-1,0-1.7,0.8-1.7,1.7v59.4
		C285.5,386.5,286.3,387.3,287.2,387.3z"/>
	<path class="st8" d="M273.9,387.3h3.4c1,0,1.7-0.8,1.7-1.7v-59.4c0-1-0.8-1.7-1.7-1.7h-3.4c-1,0-1.7,0.8-1.7,1.7v59.4
		C272.2,386.5,273,387.3,273.9,387.3z"/>
	<path class="st8" d="M257.9,387.3h3.4c1,0,1.7-0.8,1.7-1.7v-17.8c0-1-0.8-1.7-1.7-1.7h-3.4c-1,0-1.7,0.8-1.7,1.7v17.8
		C256.2,386.5,257,387.3,257.9,387.3z"/>
	<path class="st8" d="M243.9,387.3h3.4c1,0,1.7-0.8,1.7-1.7v-17.8c0-1-0.8-1.7-1.7-1.7h-3.4c-1,0-1.7,0.8-1.7,1.7v17.8
		C242.2,386.5,243,387.3,243.9,387.3z"/>
	<path class="st8" d="M230.1,387.3h3.4c1,0,1.7-0.8,1.7-1.7v-17.8c0-1-0.8-1.7-1.7-1.7h-3.4c-1,0-1.7,0.8-1.7,1.7v17.8
		C228.4,386.5,229.2,387.3,230.1,387.3z"/>
	<path class="st8" d="M215.1,387.3h3.4c1,0,1.7-0.8,1.7-1.7v-59.4c0-1-0.8-1.7-1.7-1.7h-3.4c-1,0-1.7,0.8-1.7,1.7v59.4
		C213.4,386.5,214.2,387.3,215.1,387.3z"/>
	<path class="st8" d="M201.4,387.3h3.4c1,0,1.7-0.8,1.7-1.7v-59.4c0-1-0.8-1.7-1.7-1.7h-3.4c-1,0-1.7,0.8-1.7,1.7v59.4
		C199.6,386.5,200.4,387.3,201.4,387.3z"/>
	<path class="st8" d="M187.4,387.3h3.4c1,0,1.7-0.8,1.7-1.7v-59.4c0-1-0.8-1.7-1.7-1.7h-3.4c-1,0-1.7,0.8-1.7,1.7v59.4
		C185.6,386.5,186.4,387.3,187.4,387.3z"/>
	<path class="st8" d="M173.4,387.3h3.4c1,0,1.7-0.8,1.7-1.7v-59.4c0-1-0.8-1.7-1.7-1.7h-3.4c-1,0-1.7,0.8-1.7,1.7v59.4
		C171.6,386.5,172.4,387.3,173.4,387.3z"/>
	<path class="st8" d="M159.6,387.3h3.4c1,0,1.7-0.8,1.7-1.7v-59.4c0-1-0.8-1.7-1.7-1.7h-3.4c-1,0-1.7,0.8-1.7,1.7v59.4
		C157.8,386.5,158.6,387.3,159.6,387.3z"/>
	<path class="st8" d="M145.6,387.3h3.4c1,0,1.7-0.8,1.7-1.7v-59.4c0-1-0.8-1.7-1.7-1.7h-3.4c-1,0-1.7,0.8-1.7,1.7v59.4
		C143.8,386.5,144.6,387.3,145.6,387.3z"/>
	<path class="st8" d="M131.9,387.3h3.4c1,0,1.7-0.8,1.7-1.7v-59.4c0-1-0.8-1.7-1.7-1.7h-3.4c-1,0-1.7,0.8-1.7,1.7v59.4
		C130.2,386.5,131,387.3,131.9,387.3z"/>
	<path class="st8" d="M118.7,384.8h3.2c1,0,1.7-0.8,1.7-1.7v-54.5c0-1-0.8-1.7-1.7-1.7h-3.2c-1,0-1.7,0.8-1.7,1.7v54.5
		C117,384,117.8,384.8,118.7,384.8z"/>
	<path class="st8" d="M105.5,381.6h3.4c1,0,1.7-0.8,1.7-1.7v-48.1c0-1-0.8-1.7-1.7-1.7h-3.4c-1,0-1.7,0.8-1.7,1.7v48.1
		C103.8,380.8,104.5,381.6,105.5,381.6z"/>
	<path class="st9" d="M268,361.2h-45v-10.8h45V361.2z M224,360.2h43v-8.8h-43V360.2z"/>
	<path class="st8" d="M257.9,345.7h3.4c1,0,1.7-0.8,1.7-1.7v-17.8c0-1-0.8-1.7-1.7-1.7h-3.4c-1,0-1.7,0.8-1.7,1.7v17.8
		C256.1,344.9,256.9,345.7,257.9,345.7z"/>
	<path class="st8" d="M243.9,345.7h3.4c1,0,1.7-0.8,1.7-1.7v-17.8c0-1-0.8-1.7-1.7-1.7h-3.4c-1,0-1.7,0.8-1.7,1.7v17.8
		C242.1,344.9,242.9,345.7,243.9,345.7z"/>
	<path class="st8" d="M230,345.7h3.4c1,0,1.7-0.8,1.7-1.7v-17.8c0-1-0.8-1.7-1.7-1.7H230c-1,0-1.7,0.8-1.7,1.7v17.8
		C228.3,344.9,229.1,345.7,230,345.7z"/>
	<path class="st5" d="M443.3,188.1H47.5c-1.5,0-2.8-1.2-2.8-2.8v-82.7c0-1.5,1.2-2.8,2.8-2.8h395.9c1.5,0,2.8,1.2,2.8,2.8v82.7
		C446.1,186.9,444.9,188.1,443.3,188.1z"/>
	<polygon class="st6" points="384.4,121.1 384.4,170.9 368.1,175.9 118.7,175.9 102.4,170.9 102.4,121.1 118.7,116 368.1,116 	"/>
	<path class="st7" d="M51.3,188.1h14c1.6,0,3-1.3,3-3v-82.3c0-1.6-1.3-3-3-3h-14c-1.6,0-3,1.3-3,3v82.3
		C48.3,186.8,49.6,188.1,51.3,188.1z"/>
	<path class="st7" d="M425.8,188.1h14c1.6,0,3-1.3,3-3v-82.3c0-1.6-1.3-3-3-3h-14c-1.6,0-3,1.3-3,3v82.3
		C422.8,186.8,424.2,188.1,425.8,188.1z"/>
	<path class="st8" d="M382.4,169.8h3.4c1,0,1.7-0.8,1.7-1.7V120c0-1-0.8-1.7-1.7-1.7h-3.4c-1,0-1.7,0.8-1.7,1.7v48.1
		C380.6,169,381.4,169.8,382.4,169.8z"/>
	<path class="st8" d="M370.1,173.7h3.4c1,0,1.7-0.8,1.7-1.7v-55.9c0-1-0.8-1.7-1.7-1.7h-3.4c-1,0-1.7,0.8-1.7,1.7V172
		C368.3,173,369.1,173.7,370.1,173.7z"/>
	<path class="st8" d="M357.1,175.5h3.4c1,0,1.7-0.8,1.7-1.7v-59.4c0-1-0.8-1.7-1.7-1.7h-3.4c-1,0-1.7,0.8-1.7,1.7v59.4
		C355.3,174.8,356.1,175.5,357.1,175.5z"/>
	<path class="st8" d="M343.1,175.5h3.4c1,0,1.7-0.8,1.7-1.7v-59.4c0-1-0.8-1.7-1.7-1.7h-3.4c-1,0-1.7,0.8-1.7,1.7v59.4
		C341.3,174.8,342.1,175.5,343.1,175.5z"/>
	<path class="st8" d="M329.1,175.5h3.4c1,0,1.7-0.8,1.7-1.7v-59.4c0-1-0.8-1.7-1.7-1.7h-3.4c-1,0-1.7,0.8-1.7,1.7v59.4
		C327.3,174.8,328.1,175.5,329.1,175.5z"/>
	<path class="st8" d="M315.1,175.5h3.4c1,0,1.7-0.8,1.7-1.7v-59.4c0-1-0.8-1.7-1.7-1.7h-3.4c-1,0-1.7,0.8-1.7,1.7v59.4
		C313.3,174.8,314.1,175.5,315.1,175.5z"/>
	<path class="st8" d="M301.2,175.5h3.4c1,0,1.7-0.8,1.7-1.7v-59.4c0-1-0.8-1.7-1.7-1.7h-3.4c-1,0-1.7,0.8-1.7,1.7v59.4
		C299.5,174.8,300.3,175.5,301.2,175.5z"/>
	<path class="st8" d="M287.2,175.5h3.4c1,0,1.7-0.8,1.7-1.7v-59.4c0-1-0.8-1.7-1.7-1.7h-3.4c-1,0-1.7,0.8-1.7,1.7v59.4
		C285.5,174.8,286.3,175.5,287.2,175.5z"/>
	<path class="st8" d="M273.9,175.5h3.4c1,0,1.7-0.8,1.7-1.7v-59.4c0-1-0.8-1.7-1.7-1.7h-3.4c-1,0-1.7,0.8-1.7,1.7v59.4
		C272.2,174.8,273,175.5,273.9,175.5z"/>
	<path class="st8" d="M257.9,175.5h3.4c1,0,1.7-0.8,1.7-1.7V156c0-1-0.8-1.7-1.7-1.7h-3.4c-1,0-1.7,0.8-1.7,1.7v17.8
		C256.2,174.8,257,175.5,257.9,175.5z"/>
	<path class="st8" d="M243.9,175.5h3.4c1,0,1.7-0.8,1.7-1.7V156c0-1-0.8-1.7-1.7-1.7h-3.4c-1,0-1.7,0.8-1.7,1.7v17.8
		C242.2,174.8,243,175.5,243.9,175.5z"/>
	<path class="st8" d="M230.1,175.5h3.4c1,0,1.7-0.8,1.7-1.7V156c0-1-0.8-1.7-1.7-1.7h-3.4c-1,0-1.7,0.8-1.7,1.7v17.8
		C228.4,174.8,229.2,175.5,230.1,175.5z"/>
	<path class="st8" d="M215.1,175.5h3.4c1,0,1.7-0.8,1.7-1.7v-59.4c0-1-0.8-1.7-1.7-1.7h-3.4c-1,0-1.7,0.8-1.7,1.7v59.4
		C213.4,174.8,214.2,175.5,215.1,175.5z"/>
	<path class="st8" d="M201.4,175.5h3.4c1,0,1.7-0.8,1.7-1.7v-59.4c0-1-0.8-1.7-1.7-1.7h-3.4c-1,0-1.7,0.8-1.7,1.7v59.4
		C199.6,174.8,200.4,175.5,201.4,175.5z"/>
	<path class="st8" d="M187.4,175.5h3.4c1,0,1.7-0.8,1.7-1.7v-59.4c0-1-0.8-1.7-1.7-1.7h-3.4c-1,0-1.7,0.8-1.7,1.7v59.4
		C185.6,174.8,186.4,175.5,187.4,175.5z"/>
	<path class="st8" d="M173.4,175.5h3.4c1,0,1.7-0.8,1.7-1.7v-59.4c0-1-0.8-1.7-1.7-1.7h-3.4c-1,0-1.7,0.8-1.7,1.7v59.4
		C171.6,174.8,172.4,175.5,173.4,175.5z"/>
	<path class="st8" d="M159.5,175.5h3.4c1,0,1.7-0.8,1.7-1.7v-59.4c0-1-0.8-1.7-1.7-1.7h-3.4c-1,0-1.7,0.8-1.7,1.7v59.4
		C157.8,174.8,158.6,175.5,159.5,175.5z"/>
	<path class="st8" d="M145.5,175.5h3.4c1,0,1.7-0.8,1.7-1.7v-59.4c0-1-0.8-1.7-1.7-1.7h-3.4c-1,0-1.7,0.8-1.7,1.7v59.4
		C143.8,174.8,144.6,175.5,145.5,175.5z"/>
	<path class="st8" d="M131.9,175.5h3.4c1,0,1.7-0.8,1.7-1.7v-59.4c0-1-0.8-1.7-1.7-1.7h-3.4c-1,0-1.7,0.8-1.7,1.7v59.4
		C130.2,174.8,131,175.5,131.9,175.5z"/>
	<path class="st8" d="M118.7,173h3.2c1,0,1.7-0.8,1.7-1.7v-54.5c0-1-0.8-1.7-1.7-1.7h-3.2c-1,0-1.7,0.8-1.7,1.7v54.5
		C117,172.2,117.8,173,118.7,173z"/>
	<path class="st8" d="M105.5,169.8h3.4c1,0,1.7-0.8,1.7-1.7V120c0-1-0.8-1.7-1.7-1.7h-3.4c-1,0-1.7,0.8-1.7,1.7v48.1
		C103.8,169,104.5,169.8,105.5,169.8z"/>
	<path class="st9" d="M268,149.4h-45v-10.8h45V149.4z M224,148.4h43v-8.8h-43V148.4z"/>
	<path class="st8" d="M257.8,133.9h3.4c1,0,1.7-0.8,1.7-1.7v-17.8c0-1-0.8-1.7-1.7-1.7h-3.4c-1,0-1.7,0.8-1.7,1.7v17.8
		C256.1,133.1,256.9,133.9,257.8,133.9z"/>
	<path class="st8" d="M243.8,133.9h3.4c1,0,1.7-0.8,1.7-1.7v-17.8c0-1-0.8-1.7-1.7-1.7h-3.4c-1,0-1.7,0.8-1.7,1.7v17.8
		C242.1,133.1,242.9,133.9,243.8,133.9z"/>
	<path class="st8" d="M230,133.9h3.4c1,0,1.7-0.8,1.7-1.7v-17.8c0-1-0.8-1.7-1.7-1.7H230c-1,0-1.7,0.8-1.7,1.7v17.8
		C228.3,133.1,229.1,133.9,230,133.9z"/>
</g>
<g id="Generic_-_Router">
</g>
<g id="Generic_-_Firewall">
</g>
<g id="Wi-Fi_Signal">
</g>
<g id="Generic_-_Cloud_Function_Container_Grey">
</g>
<g id="Generic_-_Cloud_Function_Container_White">
</g>
<g id="Generic_-_Cloud_Internet_Circuit">
</g>
<g id="Generic_-_Cloud_Private_Circuit">
</g>
<g id="Generic_-_Cloud">
</g>
<g id="Client_-_IOT_Sensor">
</g>
<g id="Client_-_IOT_IO">
</g>
<g id="Client_-_IOT_PLC">
</g>
<g id="Client_-_IOT_Patient_Monitor">
</g>
<g id="Client_-_IOT_Camera">
</g>
<g id="Client_-_IOT_Scanner">
</g>
<g id="IOT_-_TV_Cast">
</g>
<g id="Client_-_Printer">
</g>
<g id="Client_-_Game_Console">
</g>
<g id="Client_-_IP_Phone">
</g>
<g id="Client_-_Laptop">
</g>
<g id="Client_-_Desktop">
</g>
<g id="Client_-_Workstation">
</g>
<g id="Client_-_Tablet">
</g>
<g id="Client_-_Mobile_2">
</g>
<g id="Client_-_Mobile_1">
</g>
<g id="Device_-_EdgeConnect_Enterprise_Cloud">
</g>
<g id="Device_-_EdgeConnect_Enterprise_Virtual">
</g>
<g id="Device_-_EdgeConnect_Enterprise_Appliance">
</g>
<g id="Device_-_Core_Agg_Leaf_Switch">
</g>
<g id="Device_-_Access_Switch">
</g>
<g id="Device_-_Gateway_Headend">
</g>
<g id="Device_-_Gateway_Branch">
</g>
<g id="Device_-_Gateway_Campus">
</g>
<g id="Device_-_UXI_Sensor_New">
</g>
<g id="Device_-_UXI_Sensor">
</g>
<g id="Device_-_AP500_Series_Microbranch">
</g>
<g id="Device_-_AP600_Series">
</g>
<g id="Device_-_AP500_Series">
</g>
<g id="Device_-_Outdoor_AP">
</g>
</svg>
