<?xml version="1.0" encoding="utf-8"?>
<!-- Generator: Adobe Illustrator 26.3.1, SVG Export Plug-In . SVG Version: 6.00 Build 0)  -->
<svg version="1.1" xmlns="http://www.w3.org/2000/svg" xmlns:xlink="http://www.w3.org/1999/xlink" x="0px" y="0px"
	 viewBox="0 0 500 500" style="enable-background:new 0 0 500 500;" xml:space="preserve">
<style type="text/css">
	.st0{fill:#FFFFFF;}
	.st1{fill:#FF8300;}
	.st2{fill:#F78200;}
	.st3{fill:#F7931E;}
	.st4{fill:#5D5D5D;}
	.st5{fill:#FFFFFF;stroke:#65656A;stroke-width:12;stroke-miterlimit:10;}
	.st6{display:none;fill:#979797;stroke:#979797;stroke-width:3;stroke-linecap:round;stroke-linejoin:round;stroke-miterlimit:10;}
	.st7{fill:#979797;}
	.st8{fill:#65656A;}
	.st9{stroke:#009245;stroke-width:3;stroke-miterlimit:10;}
	.st10{fill:#F58220;}
	.st11{clip-path:url(#SVGID_00000047053344595835624950000013464720516160835261_);fill:#5E5E5E;}
	.st12{clip-path:url(#SVGID_00000134237462119885294040000002538669897966804379_);fill:#FFFFFF;}
	.st13{clip-path:url(#SVGID_00000134964013418093280770000009359170975835261072_);fill:#FFFFFF;}
	.st14{clip-path:url(#SVGID_00000134964013418093280770000009359170975835261072_);fill:#FF8300;}
	.st15{clip-path:url(#SVGID_00000103250441592316620910000011977140243054181518_);fill:#FFFFFF;}
	.st16{clip-path:url(#SVGID_00000103250441592316620910000011977140243054181518_);fill:#ADE1F0;}
	.st17{clip-path:url(#SVGID_00000130607971921609718860000016411090478251244718_);fill:#65656A;}
	.st18{clip-path:url(#SVGID_00000130607971921609718860000016411090478251244718_);fill:#646569;}
	.st19{clip-path:url(#SVGID_00000130607971921609718860000016411090478251244718_);fill:#D0D0D2;}
	.st20{clip-path:url(#SVGID_00000112611646863550016290000008716758538052659865_);fill:#FFFFFF;}
	.st21{clip-path:url(#SVGID_00000112611646863550016290000008716758538052659865_);fill:#646569;}
	.st22{clip-path:url(#SVGID_00000112611646863550016290000008716758538052659865_);fill:#65656A;}
	
		.st23{clip-path:url(#SVGID_00000038392817354156591330000016528819437060413074_);fill:#FFFFFF;stroke:#000000;stroke-miterlimit:10;}
	.st24{clip-path:url(#SVGID_00000038392817354156591330000016528819437060413074_);fill:#646569;}
	.st25{clip-path:url(#SVGID_00000038392817354156591330000016528819437060413074_);fill:#65656A;}
	
		.st26{clip-path:url(#SVGID_00000038392817354156591330000016528819437060413074_);fill:none;stroke:#65656A;stroke-width:0.1925;stroke-linecap:round;stroke-linejoin:round;stroke-miterlimit:10;}
	.st27{clip-path:url(#SVGID_00000065072944796702940230000004544546783017511312_);fill:#FFFFFF;}
	.st28{clip-path:url(#SVGID_00000065072944796702940230000004544546783017511312_);fill:#65656A;}
	.st29{clip-path:url(#SVGID_00000065072944796702940230000004544546783017511312_);fill:#646569;}
	.st30{clip-path:url(#SVGID_00000067216119152383751810000010064865855718542776_);fill:#FFFFFF;}
	.st31{clip-path:url(#SVGID_00000067216119152383751810000010064865855718542776_);fill:#646569;}
	.st32{clip-path:url(#SVGID_00000036215340056720795940000015238269617547826092_);fill:#FFFFFF;}
	.st33{clip-path:url(#SVGID_00000036215340056720795940000015238269617547826092_);fill:#65656A;}
	.st34{clip-path:url(#SVGID_00000036215340056720795940000015238269617547826092_);fill:#646569;}
	.st35{fill:#646569;}
	.st36{clip-path:url(#SVGID_00000072974951858802742420000009859231967931507844_);fill:#FFFFFF;}
	.st37{clip-path:url(#SVGID_00000072974951858802742420000009859231967931507844_);fill:#65666A;}
	
		.st38{clip-path:url(#SVGID_00000072974951858802742420000009859231967931507844_);fill:none;stroke:#65666A;stroke-width:0.1748;stroke-miterlimit:10;}
	.st39{clip-path:url(#SVGID_00000139285396579359571950000010736178485261735578_);fill:#FFFFFF;}
	.st40{clip-path:url(#SVGID_00000139285396579359571950000010736178485261735578_);fill:#646569;}
	.st41{fill:none;stroke:#65656A;stroke-width:3;stroke-miterlimit:10;}
	.st42{fill:#EC8020;}
	.st43{fill:#ED8020;}
	.st44{fill:none;stroke:#65656A;stroke-width:3;stroke-linecap:round;stroke-miterlimit:10;}
	.st45{fill:none;stroke:#646569;stroke-width:10;stroke-linejoin:round;stroke-miterlimit:10;}
	.st46{fill:none;stroke:#646569;stroke-width:10;stroke-miterlimit:10;}
	.st47{fill:none;stroke:#646569;stroke-width:10;stroke-linecap:round;stroke-miterlimit:10;}
	.st48{fill:none;stroke:#65656A;stroke-width:8;stroke-linecap:round;stroke-miterlimit:10;}
	.st49{fill:#FFFFFF;stroke:#65656A;stroke-width:8;stroke-linecap:round;stroke-linejoin:round;stroke-miterlimit:10;}
	.st50{fill:none;stroke:#65656A;stroke-width:8;stroke-miterlimit:10;}
</style>
<g id="Function_-_Central_APIs">
</g>
<g id="Function_-_Central_Route_Orchestrator">
</g>
<g id="Function_-_Central_Tunnel_Orchestrator">
</g>
<g id="Function_-_Central_NetConductor">
</g>
<g id="Function_-_Central_Network_Management">
</g>
<g id="Function_-_Central_Network_Insights">
</g>
<g id="Function_-_Central_Client_Insights">
</g>
<g id="Function_-_ClearPass_Policy_Manager">
</g>
<g id="Function_-_UXI_APIs">
</g>
<g id="Function_-_UXI_Dashboard">
</g>
<g id="Function_-_Orchestrator_Global_Enterprise">
</g>
<g id="Function_-_Orchestrator">
</g>
<g id="Function_-_Pensando_Policy_and_Services_Manager">
</g>
<g id="Function_-_Fabric_Composer">
</g>
<g id="Generic_-_Virtual_Machine">
</g>
<g id="Generic_-_Server_Single">
</g>
<g id="Generic_-_Server_Multi">
</g>
<g id="Generic_-_Router">
	<g>
		<g>
			<circle class="st0" cx="246.8" cy="246.8" r="225.1"/>
			<path class="st7" d="M137.9,276.1c-5.1,0-9.2,5.8-9.2,10.9c0,5.1,4.1,10.9,9.2,10.9h47.2l-64.3,64.8c-3.6,3.6-3.6,9.7,0,13.3
				c1.8,1.8,4.2,2.8,6.5,2.9c2.4,0,4.1-0.9,5.9-2.7l63.7-64.2v46.3c0,5.1,5.8,9.2,10.9,9.2c5.1,0,10.9-4.2,10.9-9.2v-82.2H137.9z"/>
		</g>
		<g>
			<path class="st7" d="M284.2,359.1c0,5.1,3.1,9.2,8.2,9.2c5.1,0,8.2-4.1,8.2-9.2V312l64.5,64.3c3.6,3.6,9.6,3.6,13.2,0
				c1.8-1.8,2.8-4.2,2.8-6.5c0-2.4-0.9-5.3-2.7-7.1l-64.3-64.8h46.3c5.1,0,9.2-5.8,9.2-10.9c0-5.1-4.1-10.9-9.2-10.9h-76.2V359.1z"
				/>
		</g>
		<g>
			<path class="st7" d="M361.2,226.9c5.1,0,9.2-5.8,9.2-10.9c0-5.1-4.1-10.9-9.2-10.9H314l64.3-62.5c3.6-3.6,3.6-8.6,0-12.2
				c-1.8-1.8-4.2-2.3-6.5-2.3c-2.4,0-5,1.1-6.8,2.9l-64.5,64.5v-46.3c0-5.1-3.1-9.2-8.2-9.2c-5.1,0-8.2,4.1-8.2,9.2v77.6H361.2z"/>
		</g>
		<g>
			<path class="st7" d="M216.6,148.4c0-5.1-4.1-9.2-9.2-9.2c-5.1,0-9.2,4.1-9.3,9.2l0,47.2l-64.3-64.3c-3.6-3.6-9.5-3.6-13,0
				c-1.8,1.8-2.7,4.2-2.7,6.5c0,2.4,0.9,3,2.7,4.8l64.3,62.5h-46.3c-5.1,0-9.2,5.8-9.2,10.9c0,5.1,4.2,10.9,9.2,10.9h77.8
				L216.6,148.4z"/>
		</g>
		<g>
			<path class="st8" d="M194.3,109.3c-3.6,3.6-3.6,9.4,0,13c3.6,3.6,9.4,3.6,13,0L240.5,89v73.8c0,5.1,4.2,9.2,9.3,9.2
				c2.6,0,4.9-1,6.6-2.7c1.7-1.7,2.7-4,2.7-6.5l0-73.8l32.7,32.7c3.6,3.6,9.4,3.6,13.1,0c3.6-3.6,3.6-9.4,0-13.1l-55-55L194.3,109.3
				z"/>
		</g>
		<g>
			<path class="st8" d="M304.9,392.5c3.6-3.6,3.6-9.4,0-13c-3.6-3.6-9.4-3.6-13.1,0l-33.3,33.4l0-73.8c0-5.1-4.2-9.2-9.2-9.2
				c-2.6,0-4.7,1-6.4,2.7c-1.7,1.7-2.5,4-2.5,6.5v73.8L207.6,380c-3.6-3.6-9.5-3.6-13.1,0c-3.6,3.6-3.7,9.5-0.1,13.1l55,55
				L304.9,392.5z"/>
		</g>
		<g>
			<path class="st8" d="M400.2,198.3c-3.6-3.6-9.4-3.6-13,0c-3.6,3.6-3.6,9.4,0,13.1l33.3,33.3l-73.8,0c-5.1,0-9.2,4.2-9.2,9.2
				c0,2.6,1,4.9,2.7,6.5c1.7,1.7,4,2.7,6.5,2.7l73.8,0l-32.7,32.7c-3.6,3.6-3.6,9.5,0,13.1c3.6,3.6,9.5,3.6,13.1,0l55-55
				L400.2,198.3z"/>
		</g>
		<g>
			<path class="st8" d="M98.9,309c3.6,3.6,9.4,3.6,13,0c3.6-3.6,3.6-9.5,0-13.1l-33.3-33.3l73.8,0c5.1,0,9.2-4.1,9.2-9.2
				c0-2.6-1-4.9-2.7-6.6c-1.7-1.7-4-2.7-6.5-2.7l-73.8,0l32.7-32.7c3.6-3.6,3.6-9.4,0-13.1c-3.6-3.6-9.5-3.6-13.1,0l-55,55L98.9,309
				z"/>
		</g>
		<g>
			<path class="st8" d="M250,489.5C117.9,489.5,10.5,382.1,10.5,250S117.9,10.5,250,10.5S489.5,117.9,489.5,250
				S382.1,489.5,250,489.5z M250,30.5C129,30.5,30.5,129,30.5,250S129,469.5,250,469.5S469.5,371,469.5,250S371,30.5,250,30.5z"/>
		</g>
	</g>
</g>
<g id="Generic_-_Firewall">
</g>
<g id="Wi-Fi_Signal">
</g>
<g id="Generic_-_Cloud_Function_Container_Grey">
</g>
<g id="Generic_-_Cloud_Function_Container_White">
</g>
<g id="Generic_-_Cloud_Internet_Circuit">
</g>
<g id="Generic_-_Cloud_Private_Circuit">
</g>
<g id="Generic_-_Cloud">
</g>
<g id="Client_-_IOT_Sensor">
</g>
<g id="Client_-_IOT_IO">
</g>
<g id="Client_-_IOT_PLC">
</g>
<g id="Client_-_IOT_Patient_Monitor">
</g>
<g id="Client_-_IOT_Camera">
</g>
<g id="Client_-_IOT_Scanner">
</g>
<g id="IOT_-_TV_Cast">
</g>
<g id="Client_-_Printer">
</g>
<g id="Client_-_Game_Console">
</g>
<g id="Client_-_IP_Phone">
</g>
<g id="Client_-_Laptop">
</g>
<g id="Client_-_Desktop">
</g>
<g id="Client_-_Workstation">
</g>
<g id="Client_-_Tablet">
</g>
<g id="Client_-_Mobile_2">
</g>
<g id="Client_-_Mobile_1">
</g>
<g id="Device_-_EdgeConnect_Enterprise_Cloud">
</g>
<g id="Device_-_EdgeConnect_Enterprise_Virtual">
</g>
<g id="Device_-_EdgeConnect_Enterprise_Appliance">
</g>
<g id="Device_-_Core_Agg_Leaf_Switch">
</g>
<g id="Device_-_Access_Switch">
</g>
<g id="Device_-_Gateway_Headend">
</g>
<g id="Device_-_Gateway_Branch">
</g>
<g id="Device_-_Gateway_Campus">
</g>
<g id="Device_-_UXI_Sensor_New">
</g>
<g id="Device_-_UXI_Sensor">
</g>
<g id="Device_-_AP500_Series_Microbranch">
</g>
<g id="Device_-_AP600_Series">
</g>
<g id="Device_-_AP500_Series">
</g>
<g id="Device_-_Outdoor_AP">
</g>
</svg>
