<?xml version="1.0" encoding="utf-8"?>
<!-- Generator: Adobe Illustrator 26.3.1, SVG Export Plug-In . SVG Version: 6.00 Build 0)  -->
<svg version="1.1" xmlns="http://www.w3.org/2000/svg" xmlns:xlink="http://www.w3.org/1999/xlink" x="0px" y="0px"
	 viewBox="0 0 500 500" style="enable-background:new 0 0 500 500;" xml:space="preserve">
<style type="text/css">
	.st0{fill:#FFFFFF;}
	.st1{fill:#FF8300;}
	.st2{fill:#F78200;}
	.st3{fill:#F7931E;}
	.st4{fill:#5D5D5D;}
	.st5{fill:#FFFFFF;stroke:#65656A;stroke-width:12;stroke-miterlimit:10;}
	.st6{display:none;fill:#979797;stroke:#979797;stroke-width:3;stroke-linecap:round;stroke-linejoin:round;stroke-miterlimit:10;}
	.st7{fill:#979797;}
	.st8{fill:#65656A;}
	.st9{stroke:#009245;stroke-width:3;stroke-miterlimit:10;}
	.st10{fill:#F58220;}
	.st11{clip-path:url(#SVGID_00000034088001573891575090000001057102951247728560_);fill:#5E5E5E;}
	.st12{clip-path:url(#SVGID_00000018220170476417745790000007657760305526369712_);fill:#FFFFFF;}
	.st13{clip-path:url(#SVGID_00000180335333726529395940000000776711935502776980_);fill:#FFFFFF;}
	.st14{clip-path:url(#SVGID_00000180335333726529395940000000776711935502776980_);fill:#FF8300;}
	.st15{clip-path:url(#SVGID_00000155848394394543116770000016214601053188236931_);fill:#FFFFFF;}
	.st16{clip-path:url(#SVGID_00000155848394394543116770000016214601053188236931_);fill:#ADE1F0;}
	.st17{clip-path:url(#SVGID_00000090259009071059879200000008387702619834430396_);fill:#65656A;}
	.st18{clip-path:url(#SVGID_00000090259009071059879200000008387702619834430396_);fill:#646569;}
	.st19{clip-path:url(#SVGID_00000090259009071059879200000008387702619834430396_);fill:#D0D0D2;}
	.st20{clip-path:url(#SVGID_00000101095990502895048950000003315759401002940054_);fill:#FFFFFF;}
	.st21{clip-path:url(#SVGID_00000101095990502895048950000003315759401002940054_);fill:#646569;}
	.st22{clip-path:url(#SVGID_00000101095990502895048950000003315759401002940054_);fill:#65656A;}
	
		.st23{clip-path:url(#SVGID_00000144332548662832725980000002488138850978813846_);fill:#FFFFFF;stroke:#000000;stroke-miterlimit:10;}
	.st24{clip-path:url(#SVGID_00000144332548662832725980000002488138850978813846_);fill:#646569;}
	.st25{clip-path:url(#SVGID_00000144332548662832725980000002488138850978813846_);fill:#65656A;}
	
		.st26{clip-path:url(#SVGID_00000144332548662832725980000002488138850978813846_);fill:none;stroke:#65656A;stroke-width:0.1925;stroke-linecap:round;stroke-linejoin:round;stroke-miterlimit:10;}
	.st27{clip-path:url(#SVGID_00000021121585003379988200000001090406628715262606_);fill:#FFFFFF;}
	.st28{clip-path:url(#SVGID_00000021121585003379988200000001090406628715262606_);fill:#65656A;}
	.st29{clip-path:url(#SVGID_00000021121585003379988200000001090406628715262606_);fill:#646569;}
	.st30{clip-path:url(#SVGID_00000183216644569484420900000012791326665880184463_);fill:#FFFFFF;}
	.st31{clip-path:url(#SVGID_00000183216644569484420900000012791326665880184463_);fill:#646569;}
	.st32{clip-path:url(#SVGID_00000013881845197413716180000005390084542865184908_);fill:#FFFFFF;}
	.st33{clip-path:url(#SVGID_00000013881845197413716180000005390084542865184908_);fill:#65656A;}
	.st34{clip-path:url(#SVGID_00000013881845197413716180000005390084542865184908_);fill:#646569;}
	.st35{fill:#646569;}
	.st36{clip-path:url(#SVGID_00000085243930934236623440000010079763864336176566_);fill:#FFFFFF;}
	.st37{clip-path:url(#SVGID_00000085243930934236623440000010079763864336176566_);fill:#65666A;}
	
		.st38{clip-path:url(#SVGID_00000085243930934236623440000010079763864336176566_);fill:none;stroke:#65666A;stroke-width:0.1748;stroke-miterlimit:10;}
	.st39{clip-path:url(#SVGID_00000112609284697216394610000010149206740035614346_);fill:#FFFFFF;}
	.st40{clip-path:url(#SVGID_00000112609284697216394610000010149206740035614346_);fill:#646569;}
	.st41{fill:none;stroke:#65656A;stroke-width:3;stroke-miterlimit:10;}
	.st42{fill:#EC8020;}
	.st43{fill:#ED8020;}
	.st44{fill:none;stroke:#65656A;stroke-width:3;stroke-linecap:round;stroke-miterlimit:10;}
	.st45{fill:none;stroke:#646569;stroke-width:10;stroke-linejoin:round;stroke-miterlimit:10;}
	.st46{fill:none;stroke:#646569;stroke-width:10;stroke-miterlimit:10;}
	.st47{fill:none;stroke:#646569;stroke-width:10;stroke-linecap:round;stroke-miterlimit:10;}
	.st48{fill:none;stroke:#65656A;stroke-width:8;stroke-linecap:round;stroke-miterlimit:10;}
	.st49{fill:#FFFFFF;stroke:#65656A;stroke-width:8;stroke-linecap:round;stroke-linejoin:round;stroke-miterlimit:10;}
	.st50{fill:none;stroke:#65656A;stroke-width:8;stroke-miterlimit:10;}
</style>
<g id="Function_-_Central_APIs">
</g>
<g id="Function_-_Central_Route_Orchestrator">
</g>
<g id="Function_-_Central_Tunnel_Orchestrator">
</g>
<g id="Function_-_Central_NetConductor">
</g>
<g id="Function_-_Central_Network_Management">
</g>
<g id="Function_-_Central_Network_Insights">
</g>
<g id="Function_-_Central_Client_Insights">
</g>
<g id="Function_-_ClearPass_Policy_Manager">
</g>
<g id="Function_-_UXI_APIs">
</g>
<g id="Function_-_UXI_Dashboard">
</g>
<g id="Function_-_Orchestrator_Global_Enterprise">
</g>
<g id="Function_-_Orchestrator">
</g>
<g id="Function_-_Pensando_Policy_and_Services_Manager">
</g>
<g id="Function_-_Fabric_Composer">
</g>
<g id="Generic_-_Virtual_Machine">
</g>
<g id="Generic_-_Server_Single">
	<path class="st5" d="M447.9,294.1H52.1c-1.5,0-2.8-1.2-2.8-2.8v-82.7c0-1.5,1.2-2.8,2.8-2.8h395.9c1.5,0,2.8,1.2,2.8,2.8v82.7
		C450.7,292.9,449.5,294.1,447.9,294.1z"/>
	<polygon class="st6" points="391,225.1 391,274.9 374.7,279.9 125.3,279.9 109,274.9 109,225.1 125.3,220.1 374.7,220.1 	"/>
	<path class="st7" d="M55.9,294.1h14c1.6,0,3-1.3,3-3v-82.3c0-1.6-1.3-3-3-3h-14c-1.6,0-3,1.3-3,3v82.3
		C52.9,292.8,54.2,294.1,55.9,294.1z"/>
	<path class="st7" d="M430.4,294.1h14c1.6,0,3-1.3,3-3v-82.3c0-1.6-1.3-3-3-3h-14c-1.6,0-3,1.3-3,3v82.3
		C427.4,292.8,428.8,294.1,430.4,294.1z"/>
	<path class="st8" d="M387,275.8h3.4c1,0,1.7-0.8,1.7-1.7V226c0-1-0.8-1.7-1.7-1.7H387c-1,0-1.7,0.8-1.7,1.7v48.1
		C385.2,275.1,386,275.8,387,275.8z"/>
	<path class="st8" d="M374.7,279.8h3.4c1,0,1.7-0.8,1.7-1.7v-55.9c0-1-0.8-1.7-1.7-1.7h-3.4c-1,0-1.7,0.8-1.7,1.7V278
		C372.9,279,373.7,279.8,374.7,279.8z"/>
	<path class="st8" d="M361.7,281.5h3.4c1,0,1.7-0.8,1.7-1.7v-59.4c0-1-0.8-1.7-1.7-1.7h-3.4c-1,0-1.7,0.8-1.7,1.7v59.4
		C359.9,280.8,360.7,281.5,361.7,281.5z"/>
	<path class="st8" d="M347.7,281.5h3.4c1,0,1.7-0.8,1.7-1.7v-59.4c0-1-0.8-1.7-1.7-1.7h-3.4c-1,0-1.7,0.8-1.7,1.7v59.4
		C345.9,280.8,346.7,281.5,347.7,281.5z"/>
	<path class="st8" d="M333.7,281.5h3.4c1,0,1.7-0.8,1.7-1.7v-59.4c0-1-0.8-1.7-1.7-1.7h-3.4c-1,0-1.7,0.8-1.7,1.7v59.4
		C331.9,280.8,332.7,281.5,333.7,281.5z"/>
	<path class="st8" d="M319.7,281.5h3.4c1,0,1.7-0.8,1.7-1.7v-59.4c0-1-0.8-1.7-1.7-1.7h-3.4c-1,0-1.7,0.8-1.7,1.7v59.4
		C317.9,280.8,318.7,281.5,319.7,281.5z"/>
	<path class="st8" d="M305.8,281.5h3.4c1,0,1.7-0.8,1.7-1.7v-59.4c0-1-0.8-1.7-1.7-1.7h-3.4c-1,0-1.7,0.8-1.7,1.7v59.4
		C304.1,280.8,304.9,281.5,305.8,281.5z"/>
	<path class="st8" d="M291.8,281.5h3.4c1,0,1.7-0.8,1.7-1.7v-59.4c0-1-0.8-1.7-1.7-1.7h-3.4c-1,0-1.7,0.8-1.7,1.7v59.4
		C290.1,280.8,290.9,281.5,291.8,281.5z"/>
	<path class="st8" d="M278.5,281.5h3.4c1,0,1.7-0.8,1.7-1.7v-59.4c0-1-0.8-1.7-1.7-1.7h-3.4c-1,0-1.7,0.8-1.7,1.7v59.4
		C276.8,280.8,277.6,281.5,278.5,281.5z"/>
	<path class="st8" d="M262.5,281.5h3.4c1,0,1.7-0.8,1.7-1.7v-17.8c0-1-0.8-1.7-1.7-1.7h-3.4c-1,0-1.7,0.8-1.7,1.7v17.8
		C260.8,280.8,261.6,281.5,262.5,281.5z"/>
	<path class="st8" d="M248.5,281.5h3.4c1,0,1.7-0.8,1.7-1.7v-17.8c0-1-0.8-1.7-1.7-1.7h-3.4c-1,0-1.7,0.8-1.7,1.7v17.8
		C246.8,280.8,247.6,281.5,248.5,281.5z"/>
	<path class="st8" d="M234.7,281.5h3.4c1,0,1.7-0.8,1.7-1.7v-17.8c0-1-0.8-1.7-1.7-1.7h-3.4c-1,0-1.7,0.8-1.7,1.7v17.8
		C233,280.8,233.8,281.5,234.7,281.5z"/>
	<path class="st8" d="M219.7,281.5h3.4c1,0,1.7-0.8,1.7-1.7v-59.4c0-1-0.8-1.7-1.7-1.7h-3.4c-1,0-1.7,0.8-1.7,1.7v59.4
		C218,280.8,218.8,281.5,219.7,281.5z"/>
	<path class="st8" d="M206,281.5h3.4c1,0,1.7-0.8,1.7-1.7v-59.4c0-1-0.8-1.7-1.7-1.7H206c-1,0-1.7,0.8-1.7,1.7v59.4
		C204.3,280.8,205,281.5,206,281.5z"/>
	<path class="st8" d="M192,281.5h3.4c1,0,1.7-0.8,1.7-1.7v-59.4c0-1-0.8-1.7-1.7-1.7H192c-1,0-1.7,0.8-1.7,1.7v59.4
		C190.3,280.8,191,281.5,192,281.5z"/>
	<path class="st8" d="M178,281.5h3.4c1,0,1.7-0.8,1.7-1.7v-59.4c0-1-0.8-1.7-1.7-1.7H178c-1,0-1.7,0.8-1.7,1.7v59.4
		C176.3,280.8,177,281.5,178,281.5z"/>
	<path class="st8" d="M164.2,281.5h3.4c1,0,1.7-0.8,1.7-1.7v-59.4c0-1-0.8-1.7-1.7-1.7h-3.4c-1,0-1.7,0.8-1.7,1.7v59.4
		C162.4,280.8,163.2,281.5,164.2,281.5z"/>
	<path class="st8" d="M150.2,281.5h3.4c1,0,1.7-0.8,1.7-1.7v-59.4c0-1-0.8-1.7-1.7-1.7h-3.4c-1,0-1.7,0.8-1.7,1.7v59.4
		C148.4,280.8,149.2,281.5,150.2,281.5z"/>
	<path class="st8" d="M136.5,281.5h3.4c1,0,1.7-0.8,1.7-1.7v-59.4c0-1-0.8-1.7-1.7-1.7h-3.4c-1,0-1.7,0.8-1.7,1.7v59.4
		C134.8,280.8,135.6,281.5,136.5,281.5z"/>
	<path class="st8" d="M123.3,279h3.2c1,0,1.7-0.8,1.7-1.7v-54.5c0-1-0.8-1.7-1.7-1.7h-3.2c-1,0-1.7,0.8-1.7,1.7v54.5
		C121.6,278.3,122.4,279,123.3,279z"/>
	<path class="st8" d="M110.1,275.8h3.4c1,0,1.7-0.8,1.7-1.7V226c0-1-0.8-1.7-1.7-1.7h-3.4c-1,0-1.7,0.8-1.7,1.7v48.1
		C108.4,275.1,109.1,275.8,110.1,275.8z"/>
	<path class="st9" d="M272.6,255.4h-45v-10.8h45V255.4z M228.6,254.4h43v-8.8h-43V254.4z"/>
	<path class="st8" d="M262.5,239.9h3.4c1,0,1.7-0.8,1.7-1.7v-17.8c0-1-0.8-1.7-1.7-1.7h-3.4c-1,0-1.7,0.8-1.7,1.7v17.8
		C260.7,239.1,261.5,239.9,262.5,239.9z"/>
	<path class="st8" d="M248.5,239.9h3.4c1,0,1.7-0.8,1.7-1.7v-17.8c0-1-0.8-1.7-1.7-1.7h-3.4c-1,0-1.7,0.8-1.7,1.7v17.8
		C246.7,239.1,247.5,239.9,248.5,239.9z"/>
	<path class="st8" d="M234.6,239.9h3.4c1,0,1.7-0.8,1.7-1.7v-17.8c0-1-0.8-1.7-1.7-1.7h-3.4c-1,0-1.7,0.8-1.7,1.7v17.8
		C232.9,239.1,233.7,239.9,234.6,239.9z"/>
</g>
<g id="Generic_-_Server_Multi">
</g>
<g id="Generic_-_Router">
</g>
<g id="Generic_-_Firewall">
</g>
<g id="Wi-Fi_Signal">
</g>
<g id="Generic_-_Cloud_Function_Container_Grey">
</g>
<g id="Generic_-_Cloud_Function_Container_White">
</g>
<g id="Generic_-_Cloud_Internet_Circuit">
</g>
<g id="Generic_-_Cloud_Private_Circuit">
</g>
<g id="Generic_-_Cloud">
</g>
<g id="Client_-_IOT_Sensor">
</g>
<g id="Client_-_IOT_IO">
</g>
<g id="Client_-_IOT_PLC">
</g>
<g id="Client_-_IOT_Patient_Monitor">
</g>
<g id="Client_-_IOT_Camera">
</g>
<g id="Client_-_IOT_Scanner">
</g>
<g id="IOT_-_TV_Cast">
</g>
<g id="Client_-_Printer">
</g>
<g id="Client_-_Game_Console">
</g>
<g id="Client_-_IP_Phone">
</g>
<g id="Client_-_Laptop">
</g>
<g id="Client_-_Desktop">
</g>
<g id="Client_-_Workstation">
</g>
<g id="Client_-_Tablet">
</g>
<g id="Client_-_Mobile_2">
</g>
<g id="Client_-_Mobile_1">
</g>
<g id="Device_-_EdgeConnect_Enterprise_Cloud">
</g>
<g id="Device_-_EdgeConnect_Enterprise_Virtual">
</g>
<g id="Device_-_EdgeConnect_Enterprise_Appliance">
</g>
<g id="Device_-_Core_Agg_Leaf_Switch">
</g>
<g id="Device_-_Access_Switch">
</g>
<g id="Device_-_Gateway_Headend">
</g>
<g id="Device_-_Gateway_Branch">
</g>
<g id="Device_-_Gateway_Campus">
</g>
<g id="Device_-_UXI_Sensor_New">
</g>
<g id="Device_-_UXI_Sensor">
</g>
<g id="Device_-_AP500_Series_Microbranch">
</g>
<g id="Device_-_AP600_Series">
</g>
<g id="Device_-_AP500_Series">
</g>
<g id="Device_-_Outdoor_AP">
</g>
</svg>
